<svg width="75" height="75" viewBox="0 0 75 75" fill="none" xmlns="http://www.w3.org/2000/svg">
<circle cx="37.5" cy="37.5" r="37.5" fill="#84D8FB"/>
<path d="M61.2 27.3272H53.2C52.9724 23.498 51.3116 19.8958 48.5494 17.2402C45.7871 14.5847 42.1268 13.0713 38.2997 13.0025C34.4726 12.9336 30.7605 14.3143 27.9049 16.8688C25.0493 19.4233 23.2606 22.9634 22.896 26.782C22.896 26.9664 22.896 27.1428 22.896 27.3272H14.8C14.5878 27.3272 14.3843 27.4117 14.2343 27.562C14.0843 27.7124 14 27.9163 14 28.1289C14.0009 28.9725 14.2231 29.801 14.6443 30.5313C15.0656 31.2617 15.671 31.8681 16.4 32.2899C16.4269 33.1075 16.6615 33.9046 17.0814 34.6061C17.5014 35.3075 18.0929 35.89 18.8 36.2986C18.8395 37.5478 19.3626 38.7326 20.2585 39.602C21.1544 40.4714 22.3529 40.9573 23.6 40.9567H29.2C31.2485 43.4392 32.3789 46.5544 32.4 49.7757V49.9361C31.9357 50.1006 31.5332 50.4042 31.2469 50.8058C30.9607 51.2073 30.8047 51.6874 30.8 52.1809C30.8035 52.7743 31.0258 53.3453 31.424 53.7844C31.0258 54.2235 30.8035 54.7945 30.8 55.3879C30.8 56.0258 31.0529 56.6375 31.5029 57.0886C31.953 57.5397 32.5635 57.7931 33.2 57.7931H34.304L35.688 60.559C35.7545 60.6913 35.8562 60.8025 35.9819 60.8803C36.1075 60.9581 36.2523 60.9995 36.4 61H39.6C39.7477 60.9995 39.8925 60.9581 40.0181 60.8803C40.1438 60.8025 40.2455 60.6913 40.312 60.559L41.696 57.7931H42.8C43.4365 57.7931 44.047 57.5397 44.4971 57.0886C44.9471 56.6375 45.2 56.0258 45.2 55.3879C45.1965 54.7945 44.9742 54.2235 44.576 53.7844C44.9742 53.3453 45.1965 52.7743 45.2 52.1809C45.1986 51.6847 45.0441 51.2011 44.7577 50.7963C44.4712 50.3915 44.0668 50.0855 43.6 49.92V49.7757C43.6178 46.5538 44.7486 43.4375 46.8 40.9567H52.4C53.6471 40.9573 54.8456 40.4714 55.7415 39.602C56.6374 38.7326 57.1605 37.5478 57.2 36.2986C57.9071 35.89 58.4986 35.3075 58.9186 34.6061C59.3385 33.9046 59.5731 33.1075 59.6 32.2899C60.329 31.8681 60.9344 31.2617 61.3557 30.5313C61.7769 29.801 61.9991 28.9725 62 28.1289C62 27.9163 61.9157 27.7124 61.7657 27.562C61.6157 27.4117 61.4122 27.3272 61.2 27.3272ZM23.6 39.3532C22.891 39.3527 22.2022 39.1162 21.6419 38.6808C21.0815 38.2455 20.6813 37.636 20.504 36.948H22.8V35.3445H21.2C20.491 35.344 19.8022 35.1075 19.2419 34.6722C18.6815 34.2368 18.2813 33.6273 18.104 32.9393H20.4V31.3359H18.8C18.091 31.3353 17.4022 31.0988 16.8419 30.6635C16.2815 30.2282 15.8813 29.6187 15.704 28.9307H22.8C22.996 32.8705 24.7181 36.5782 27.6 39.265L27.688 39.3532H23.6ZM33.2 51.3792H42.8C43.0122 51.3792 43.2157 51.4637 43.3657 51.614C43.5157 51.7644 43.6 51.9683 43.6 52.1809C43.6 52.3936 43.5157 52.5975 43.3657 52.7478C43.2157 52.8982 43.0122 52.9827 42.8 52.9827H33.2C32.9878 52.9827 32.7843 52.8982 32.6343 52.7478C32.4843 52.5975 32.4 52.3936 32.4 52.1809C32.4 51.9683 32.4843 51.7644 32.6343 51.614C32.7843 51.4637 32.9878 51.3792 33.2 51.3792ZM39.104 59.3965H36.896L36.096 57.7931H39.904L39.104 59.3965ZM42.8 56.1896H33.2C32.9878 56.1896 32.7843 56.1051 32.6343 55.9548C32.4843 55.8044 32.4 55.6005 32.4 55.3879C32.4 55.1752 32.4843 54.9713 32.6343 54.821C32.7843 54.6706 32.9878 54.5861 33.2 54.5861H42.8C43.0122 54.5861 43.2157 54.6706 43.3657 54.821C43.5157 54.9713 43.6 55.1752 43.6 55.3879C43.6 55.6005 43.5157 55.8044 43.3657 55.9548C43.2157 56.1051 43.0122 56.1896 42.8 56.1896ZM42 49.7757H38.8V37.7497H39.136C39.3061 37.7303 39.4655 37.6568 39.5907 37.5399C39.716 37.423 39.8006 37.2689 39.832 37.1003L40.208 35.0639C40.5803 34.923 40.9391 34.7485 41.28 34.5428L42.976 35.7213C43.1138 35.8235 43.2806 35.8787 43.452 35.8787C43.6234 35.8787 43.7902 35.8235 43.928 35.7213C44.5222 35.2516 45.0593 34.7134 45.528 34.1179C45.63 33.9798 45.685 33.8126 45.685 33.6408C45.685 33.4691 45.63 33.3019 45.528 33.1638L44.4 31.416C44.5806 31.0718 44.7305 30.7123 44.848 30.3417L46.88 29.9649C47.0483 29.9334 47.202 29.8487 47.3186 29.7231C47.4353 29.5976 47.5087 29.4378 47.528 29.2674C47.624 28.5115 47.624 27.7464 47.528 26.9905C47.5087 26.82 47.4353 26.6603 47.3186 26.5347C47.202 26.4092 47.0483 26.3245 46.88 26.293L44.848 25.9161C44.7305 25.5455 44.5806 25.186 44.4 24.8418L45.576 23.1421C45.678 23.0041 45.733 22.8369 45.733 22.6651C45.733 22.4934 45.678 22.3261 45.576 22.1881C45.1073 21.5926 44.5702 21.0544 43.976 20.5846C43.8383 20.4824 43.6714 20.4273 43.5 20.4273C43.3286 20.4273 43.1618 20.4824 43.024 20.5846L41.28 21.7151C40.9365 21.5341 40.5778 21.3839 40.208 21.2661L39.832 19.2297C39.8006 19.0611 39.716 18.907 39.5907 18.7901C39.4655 18.6732 39.3061 18.5997 39.136 18.5803C38.3817 18.4841 37.6183 18.4841 36.864 18.5803C36.6939 18.5997 36.5345 18.6732 36.4093 18.7901C36.284 18.907 36.1994 19.0611 36.168 19.2297L35.792 21.2661C35.4222 21.3839 35.0635 21.5341 34.72 21.7151L33.024 20.5365C32.8862 20.4343 32.7194 20.3792 32.548 20.3792C32.3766 20.3792 32.2098 20.4343 32.072 20.5365C31.4778 21.0063 30.9407 21.5444 30.472 22.14C30.37 22.278 30.315 22.4453 30.315 22.617C30.315 22.7888 30.37 22.956 30.472 23.094L31.6 24.8418C31.4194 25.186 31.2695 25.5455 31.152 25.9161L29.12 26.293C28.9517 26.3245 28.798 26.4092 28.6814 26.5347C28.5647 26.6603 28.4913 26.82 28.472 26.9905C28.376 27.7464 28.376 28.5115 28.472 29.2674C28.4913 29.4378 28.5647 29.5976 28.6814 29.7231C28.798 29.8487 28.9517 29.9334 29.12 29.9649L31.152 30.3417C31.2695 30.7123 31.4194 31.0718 31.6 31.416L30.424 33.1157C30.322 33.2538 30.267 33.421 30.267 33.5927C30.267 33.7645 30.322 33.9317 30.424 34.0698C30.8927 34.6653 31.4298 35.2035 32.024 35.6732C32.1618 35.7754 32.3286 35.8306 32.5 35.8306C32.6714 35.8306 32.8382 35.7754 32.976 35.6732L34.72 34.5428C35.0635 34.7237 35.4222 34.874 35.792 34.9918L36.168 37.0282C36.1994 37.1968 36.284 37.3509 36.4093 37.4678C36.5345 37.5847 36.6939 37.6582 36.864 37.6776L37.2 37.7497V49.7757H34C33.9788 47.5716 33.4998 45.3961 32.5935 43.3877C31.6872 41.3793 30.3735 39.5821 28.736 38.1105C26.7326 36.2387 25.3399 33.8043 24.7401 31.126C24.1403 28.4478 24.3615 25.6504 25.3746 23.1002C26.3877 20.5499 28.1455 18.3657 30.418 16.8334C32.6905 15.3011 35.3717 14.4921 38.1105 14.5124C40.8494 14.5327 43.5184 15.3813 45.768 16.9471C48.0177 18.5129 49.7431 20.7229 50.7185 23.2879C51.6938 25.8529 51.8737 28.6532 51.2345 31.3223C50.5953 33.9914 49.1668 36.4049 47.136 38.2468C45.5236 39.7022 44.2335 41.4801 43.3489 43.4658C42.4643 45.4516 42.0048 47.6011 42 49.7757ZM33.2 31.0392C32.8943 30.5439 32.6701 30.0025 32.536 29.4358C32.4999 29.285 32.421 29.148 32.3089 29.0413C32.1967 28.9346 32.0561 28.8627 31.904 28.8345L30 28.4977C30 28.3694 30 28.2492 30 28.1289C30 28.0087 30 27.8884 30 27.7601L31.92 27.4074C32.0721 27.3791 32.2127 27.3072 32.3249 27.2005C32.437 27.0938 32.5159 26.9568 32.552 26.8061C32.6861 26.2393 32.9103 25.6979 33.216 25.2026C33.3004 25.0726 33.3453 24.9208 33.3453 24.7657C33.3453 24.6105 33.3004 24.4588 33.216 24.3287L32.112 22.7252C32.2731 22.5397 32.4469 22.3656 32.632 22.2041L34.232 23.3105C34.3618 23.395 34.5132 23.44 34.668 23.44C34.8228 23.44 34.9742 23.395 35.104 23.3105C35.5997 23.0069 36.1395 22.7824 36.704 22.6451C36.8544 22.6089 36.9911 22.5299 37.0976 22.4174C37.2041 22.305 37.2758 22.1641 37.304 22.0117L37.656 20.0875H38.392L38.744 22.0117C38.7722 22.1641 38.8439 22.305 38.9504 22.4174C39.0569 22.5299 39.1936 22.6089 39.344 22.6451C39.9085 22.7824 40.4483 23.0069 40.944 23.3105C41.0738 23.395 41.2252 23.44 41.38 23.44C41.5348 23.44 41.6862 23.395 41.816 23.3105L43.416 22.2041C43.6018 22.3676 43.7781 22.5416 43.944 22.7252L42.832 24.3287C42.7476 24.4588 42.7027 24.6105 42.7027 24.7657C42.7027 24.9208 42.7476 25.0726 42.832 25.2026C43.1377 25.6979 43.3619 26.2393 43.496 26.8061C43.5321 26.9568 43.611 27.0938 43.7231 27.2005C43.8353 27.3072 43.9759 27.3791 44.128 27.4074L46.048 27.7601C46.048 27.8884 46.048 28.0087 46.048 28.1289C46.048 28.2492 46.048 28.3694 46.048 28.4977L44.128 28.8505C43.9759 28.8788 43.8353 28.9506 43.7231 29.0573C43.611 29.164 43.5321 29.3011 43.496 29.4518C43.3619 30.0185 43.1377 30.5599 42.832 31.0553C42.7476 31.1853 42.7027 31.3371 42.7027 31.4922C42.7027 31.6473 42.7476 31.7991 42.832 31.9291L43.936 33.5326C43.7749 33.7181 43.6011 33.8923 43.416 34.0537L41.816 32.9473C41.6862 32.8628 41.5348 32.8178 41.38 32.8178C41.2252 32.8178 41.0738 32.8628 40.944 32.9473C40.4497 33.2538 39.9095 33.4784 39.344 33.6128C39.1936 33.6489 39.0569 33.728 38.9504 33.8404C38.8439 33.9528 38.7722 34.0938 38.744 34.2462L38.368 36.1463C38.112 36.1463 37.888 36.1463 37.632 36.1463L37.28 34.2221C37.2518 34.0697 37.1801 33.9288 37.0736 33.8164C36.9671 33.7039 36.8304 33.6249 36.68 33.5887C36.1155 33.4514 35.5757 33.2269 35.08 32.9233C34.9502 32.8388 34.7988 32.7938 34.644 32.7938C34.4892 32.7938 34.3378 32.8388 34.208 32.9233L32.608 34.0297C32.4222 33.8662 32.2459 33.6922 32.08 33.5086L33.192 31.9051C33.2759 31.7767 33.3213 31.6268 33.3227 31.4733C33.3241 31.3198 33.2815 31.1692 33.2 31.0392ZM57.2 31.3359H55.6V32.9393H57.896C57.7187 33.6273 57.3185 34.2368 56.7581 34.6722C56.1978 35.1075 55.509 35.344 54.8 35.3445H53.2V36.948H55.496C55.3187 37.636 54.9185 38.2455 54.3582 38.6808C53.7978 39.1162 53.109 39.3527 52.4 39.3532H48.248C51.1992 36.6646 52.9777 32.9214 53.2 28.9307H60.336C60.1571 29.6253 59.7509 30.2398 59.1824 30.6759C58.6138 31.1119 57.9159 31.3443 57.2 31.3359Z" fill="#044E6D"/>
</svg>
