<svg width="65" height="65" viewBox="0 0 65 65" fill="none" xmlns="http://www.w3.org/2000/svg">
<circle cx="32.5" cy="32.5" r="32.5" fill="#D4D5F7"/>
<path d="M44.3178 24.9687C43.6766 24.7825 43.0673 24.8324 42.5273 25.088C42.4608 22.6439 41.6321 21.6519 39.4704 21.2838C38.0727 21.0464 37.1962 21.7499 36.6187 22.7078C36.5107 22.1613 36.3169 21.6349 35.9912 21.1779C35.4592 20.4317 34.6679 19.9838 33.6391 19.8463C30.9511 19.4842 30.5794 22.5892 30.3589 24.4435C30.3429 24.5786 30.3247 24.7289 30.3054 24.8829C30.0985 23.1338 29.9223 20.0289 29.7796 15.5996C29.6375 11.1783 29.5438 8.25709 28.1176 6.83667C27.5219 6.2433 26.7262 5.96822 25.744 6.00291C24.9238 6.03699 23.8313 6.60967 23.2828 9.14684C22.9645 10.6202 22.8417 12.6529 22.9269 15.0257C22.977 16.4175 22.9895 17.5982 23.0014 18.7405C23.0224 20.7439 23.0418 22.6366 23.2606 25.3454C23.2856 25.6534 23.3078 26.2881 23.3322 27.1158C23.2742 27.1559 23.214 27.1912 23.1662 27.2484C22.7882 27.7 22.4262 28.1169 22.0851 28.51C19.8911 31.0387 18.3058 32.8656 19.3068 36.1861C19.7757 37.744 20.5129 39.2582 21.7339 41.7673C22.3176 42.9669 23.0122 44.3946 23.8398 46.1613C25.2631 49.2011 24.9493 57.019 24.9459 57.0981C24.926 57.574 25.2693 57.9775 25.7144 57.9988C25.7269 57.9994 25.7394 57.9994 25.7514 57.9994C26.1794 57.9994 26.5358 57.6385 26.5556 57.176C26.5699 56.8364 26.8916 48.8281 25.2801 45.3872C24.4486 43.6113 23.75 42.1751 23.1628 40.9695C21.9811 38.5406 21.2678 37.0746 20.8403 35.656C20.1571 33.3878 21.0347 32.254 23.2657 29.6834C23.31 29.6329 23.3572 29.5775 23.4021 29.5258C23.4641 31.5961 23.5511 34.011 23.7051 35.9402C23.7409 36.3899 24.0927 36.7295 24.5071 36.7295C24.5298 36.7295 24.5532 36.7283 24.5765 36.7265C25.0198 36.6863 25.3484 36.2688 25.3108 35.7935C25.1238 33.4481 25.0363 30.3266 24.9715 28.0469C24.9328 26.6648 24.9044 25.6655 24.8663 25.1963C24.6526 22.552 24.6333 20.691 24.6128 18.721C24.6009 17.5672 24.589 16.3743 24.5378 14.9588C24.4577 12.7369 24.5668 10.8612 24.8533 9.53511C25.0909 8.43419 25.4563 7.74102 25.8059 7.72702C26.5272 7.69781 26.8455 7.92542 27.0206 8.10008C27.9573 9.03242 28.0511 11.9567 28.1699 15.6593C28.5456 27.3196 29.0203 27.8473 30.057 27.9288C31.5599 28.0475 31.7787 26.1694 31.9578 24.6614C32.2607 22.1102 32.5825 21.4469 33.4396 21.5582C34.0319 21.6373 34.4474 21.8552 34.7106 22.2246C35.333 23.0985 35.1039 24.7989 34.9675 25.8146C34.8504 26.6861 34.7043 27.7706 35.6541 27.9209C36.6244 28.0712 36.9006 26.9819 37.1672 25.9254C37.6941 23.8355 38.1472 22.8034 39.2175 22.9878C40.5612 23.2166 40.9829 23.4022 40.9181 25.7757C40.8948 26.6107 40.8471 26.8644 40.5373 28.5131L40.4395 29.0316C40.352 29.499 40.6345 29.9536 41.0705 30.0473C41.507 30.1429 41.9316 29.8386 42.0191 29.3718L42.1163 28.8545C42.147 28.6914 42.1737 28.5508 42.1993 28.4108C42.201 28.4011 42.205 28.3926 42.2067 28.3822C42.2476 28.126 42.5131 27.0933 43.0605 26.7196C43.2048 26.621 43.4492 26.5054 43.8943 26.6344C45.1954 27.0135 45.5842 28.5106 45.2824 31.9735C44.9589 35.6858 44.4542 38.5869 43.7397 40.8429C42.9127 43.4537 41.9282 44.3921 41.1375 45.1468C40.4549 45.798 39.7489 46.4711 39.7586 47.8781C39.7887 52.3962 39.8581 57.1504 39.8581 57.1504C39.8649 57.6221 40.2241 58 40.6635 58C40.6675 58 40.672 58 40.676 58C41.1211 57.9927 41.4757 57.6008 41.4689 57.1243C41.4689 57.1243 41.4001 52.3767 41.37 47.8665C41.366 47.2671 41.5548 47.0602 42.2096 46.4358C43.0428 45.641 44.3019 44.4396 45.2653 41.3979C46.0207 39.0129 46.551 35.9834 46.8864 32.1353C47.0643 30.1021 47.4326 25.8767 44.3178 24.9687Z" fill="#121475"/>
</svg>
