<svg width="75" height="75" viewBox="0 0 75 75" fill="none" xmlns="http://www.w3.org/2000/svg">
<circle cx="37.5" cy="37.5" r="37.5" fill="#F7AD9C"/>
<path d="M50.75 27.7251H47.75C47.3522 27.7251 46.9706 27.8884 46.6893 28.1791C46.408 28.4698 46.25 28.864 46.25 29.2751V61.8251C46.25 62.0306 46.329 62.2278 46.4697 62.3731C46.6103 62.5185 46.8011 62.6001 47 62.6001H51.5C51.6989 62.6001 51.8897 62.5185 52.0303 62.3731C52.171 62.2278 52.25 62.0306 52.25 61.8251V29.2751C52.25 28.864 52.092 28.4698 51.8107 28.1791C51.5294 27.8884 51.1478 27.7251 50.75 27.7251ZM50.75 61.0501H47.75V29.2751H50.75V61.0501Z" fill="#721D0A"/>
<path d="M43.25 35.4751H40.25C39.8522 35.4751 39.4706 35.6384 39.1893 35.9291C38.908 36.2198 38.75 36.614 38.75 37.0251V61.8251C38.75 62.0306 38.829 62.2278 38.9697 62.3731C39.1103 62.5184 39.3011 62.6001 39.5 62.6001H44C44.1989 62.6001 44.3897 62.5184 44.5303 62.3731C44.671 62.2278 44.75 62.0306 44.75 61.8251V37.0251C44.75 36.614 44.592 36.2198 44.3107 35.9291C44.0294 35.6384 43.6478 35.4751 43.25 35.4751ZM43.25 61.0501H40.25V37.0251H43.25V61.0501Z" fill="#721D0A"/>
<path d="M35.75 43.2251H32.75C32.3522 43.2251 31.9706 43.3884 31.6893 43.6791C31.408 43.9698 31.25 44.364 31.25 44.7751V61.8251C31.25 62.0306 31.329 62.2278 31.4697 62.3731C31.6103 62.5184 31.8011 62.6001 32 62.6001H36.5C36.6989 62.6001 36.8897 62.5184 37.0303 62.3731C37.171 62.2278 37.25 62.0306 37.25 61.8251V44.7751C37.25 44.364 37.092 43.9698 36.8107 43.6791C36.5294 43.3884 36.1478 43.2251 35.75 43.2251ZM35.75 61.0501H32.75V44.7751H35.75V61.0501Z" fill="#721D0A"/>
<path d="M28.25 50.9751H25.25C24.8522 50.9751 24.4706 51.1384 24.1893 51.4291C23.908 51.7198 23.75 52.114 23.75 52.5251V61.8251C23.75 62.0306 23.829 62.2278 23.9697 62.3731C24.1103 62.5184 24.3011 62.6001 24.5 62.6001H29C29.1989 62.6001 29.3897 62.5184 29.5303 62.3731C29.671 62.2278 29.75 62.0306 29.75 61.8251V52.5251C29.75 52.114 29.592 51.7198 29.3107 51.4291C29.0294 51.1384 28.6478 50.9751 28.25 50.9751ZM28.25 61.0501H25.25V52.5251H28.25V61.0501Z" fill="#721D0A"/>
<path d="M27.5 37.7998C27.4992 38.8806 27.6546 39.9555 27.9613 40.9889C28.3888 40.6763 28.82 40.3456 29.255 39.9969C28.9544 38.7198 28.9192 37.3915 29.1516 36.0993C29.384 34.8072 29.8789 33.5806 30.6035 32.5005C31.3281 31.4204 32.266 30.5112 33.3554 29.833C34.4448 29.1547 35.661 28.7228 36.9238 28.5656C36.7277 28.0731 36.7012 27.5259 36.8488 27.0156C34.279 27.3085 31.9041 28.5708 30.1791 30.5607C28.454 32.5506 27.5001 35.1282 27.5 37.7998Z" fill="#721D0A"/>
<path d="M21.1812 47.3984C21.2575 47.5878 21.4034 47.7383 21.5869 47.8167C21.7703 47.8952 21.9764 47.8952 22.16 47.8169C26.5962 45.9143 37.0662 40.3033 41.285 28.4419L41.375 28.8294C41.4108 29.0064 41.5054 29.1648 41.6423 29.2773C41.7793 29.3899 41.95 29.4494 42.125 29.4455C42.1817 29.4457 42.2384 29.4392 42.2937 29.4261C42.3898 29.4033 42.4805 29.3611 42.5608 29.302C42.6411 29.2429 42.7093 29.168 42.7615 29.0816C42.8138 28.9953 42.849 28.8991 42.8653 28.7986C42.8815 28.6982 42.8784 28.5954 42.8562 28.4962L42.125 25.2257C42.0943 25.0944 42.0309 24.9738 41.9412 24.8756C41.8515 24.7775 41.7385 24.7053 41.6135 24.6661C41.4884 24.627 41.3557 24.6222 41.2283 24.6524C41.101 24.6826 40.9835 24.7466 40.8875 24.8382L38.4912 27.1205C38.4049 27.1845 38.3328 27.2667 38.2795 27.3616C38.2262 27.4566 38.1931 27.5621 38.1823 27.6713C38.1715 27.7805 38.1832 27.8908 38.2167 27.9949C38.2503 28.099 38.3048 28.1946 38.3768 28.2753C38.4487 28.3561 38.5365 28.4201 38.6342 28.4631C38.7318 28.5062 38.8373 28.5273 38.9435 28.5251C39.0496 28.5229 39.1542 28.4974 39.2501 28.4503C39.346 28.4033 39.4312 28.3357 39.5 28.252L39.9087 27.8645C35.885 39.1795 25.835 44.5619 21.5787 46.387C21.3967 46.4673 21.2529 46.6187 21.1784 46.8081C21.104 46.9976 21.105 47.2097 21.1812 47.3984Z" fill="#721D0A"/>
<path d="M43.5349 30.476C43.9743 30.8319 44.381 31.2288 44.7499 31.6618V29.4918C44.6112 29.3717 44.4724 29.2554 44.3262 29.1392C44.2201 29.666 43.9404 30.1385 43.5349 30.476Z" fill="#721D0A"/>
<path d="M53.75 48.2275V50.4169L55.0625 51.7693C55.3963 52.1142 55.2987 52.8 54.8562 53.2612L53.75 54.4082V56.5627C53.8487 56.4847 53.9426 56.4006 54.0313 56.3108L55.9063 54.3733C56.945 53.296 57.0313 51.6608 56.1163 50.6882L53.75 48.2275Z" fill="#721D0A"/>
<path d="M21.875 49.4249C21.6447 49.4249 21.4158 49.3883 21.1962 49.3164L19.8725 50.6804C18.95 51.6376 19.04 53.2844 20.0825 54.3656L21.9575 56.3031C22.0462 56.3929 22.1401 56.477 22.2387 56.5549V54.4004L21.1362 53.2612C20.69 52.7962 20.5925 52.0987 20.9262 51.7693L23.3337 49.2854C23.46 49.1554 23.5629 49.0032 23.6375 48.8359C23.315 48.9832 23.0112 49.1188 22.73 49.2234C22.4605 49.3479 22.17 49.4164 21.875 49.4249Z" fill="#721D0A"/>
<path d="M59.63 33.6654H56.2325C55.7614 31.4405 54.9106 29.32 53.72 27.4034L56.1237 24.9195C57.0462 23.9624 56.9525 22.3155 55.9137 21.2382L54.0387 19.3007C53.5157 18.7491 52.8024 18.4341 52.055 18.425C51.761 18.4205 51.469 18.4764 51.196 18.5895C50.9231 18.7026 50.6746 18.8706 50.465 19.0837L48.0612 21.5676C46.2063 20.3376 44.1543 19.4585 42.0012 18.9714V15.449C42.0012 14.0928 40.8088 13 39.3313 13H36.6688C35.1912 13 33.9988 14.0928 33.9988 15.449V18.9597C31.8457 19.4469 29.7938 20.326 27.9387 21.556L25.5387 19.0721C25.3281 18.8612 25.0792 18.6955 24.8063 18.5844C24.5334 18.4734 24.242 18.4192 23.9488 18.425C23.204 18.4362 22.4937 18.7509 21.9725 19.3007L20.0975 21.2382C19.055 22.3155 18.9725 23.9507 19.8875 24.9195L22.295 27.4034C21.1037 29.3196 20.2528 31.4402 19.7825 33.6654H16.37C15.0613 33.6654 14 34.8976 14 36.4244V39.1795C14 40.7024 15.0613 41.9346 16.37 41.9346H19.7713C19.9998 43.018 20.3198 44.0787 20.7275 45.1044C20.8189 45.0471 20.9141 44.9966 21.0125 44.9532C21.3388 44.8137 21.7025 44.651 22.0925 44.465C21.7274 43.539 21.4401 42.5822 21.2338 41.6052C21.161 41.2594 20.9758 40.9497 20.7091 40.7276C20.4423 40.5055 20.11 40.3845 19.7675 40.3846H16.37C15.8975 40.3846 15.5 39.8305 15.5 39.1756V36.4244C15.5 35.7695 15.8975 35.2192 16.37 35.2192H19.7713C20.1138 35.2194 20.4461 35.0983 20.7128 34.8763C20.9795 34.6542 21.1647 34.3445 21.2375 33.9986C21.6693 31.9535 22.4516 30.0047 23.5475 28.2442C23.7333 27.9461 23.8146 27.5911 23.7778 27.2385C23.7409 26.8859 23.5882 26.557 23.345 26.3067L20.9375 23.8267C20.6038 23.4819 20.6975 22.796 21.1475 22.3349L23.0225 20.3974C23.2654 20.136 23.5982 19.9842 23.9488 19.975C24.1442 19.9696 24.3339 20.0433 24.4775 20.1804L26.8775 22.6643C27.1197 22.9155 27.438 23.0734 27.7792 23.1114C28.1204 23.1495 28.464 23.0655 28.7525 22.8735C30.4578 21.7416 32.3449 20.9333 34.325 20.4865C34.6597 20.4113 34.9594 20.22 35.1743 19.9443C35.3892 19.6687 35.5064 19.3253 35.5062 18.9714V15.449C35.4987 14.9607 36.035 14.55 36.6688 14.55H39.3313C39.965 14.55 40.5012 14.9607 40.5012 15.449V18.9597C40.5011 19.3137 40.6183 19.657 40.8332 19.9327C41.0481 20.2083 41.3478 20.3997 41.6825 20.4749C43.6626 20.9218 45.5497 21.7301 47.255 22.8619C47.5435 23.0539 47.8871 23.1379 48.2283 23.0998C48.5695 23.0617 48.8878 22.9039 49.13 22.6526L51.5337 20.1687C51.6774 20.0317 51.8671 19.958 52.0625 19.9634C52.4092 19.9752 52.7376 20.1268 52.9775 20.3857L54.8525 22.3232C55.2988 22.7844 55.3963 23.4857 55.0625 23.8151L52.6587 26.299C52.5526 26.4135 52.4641 26.5442 52.3962 26.6865C52.8117 26.9683 53.153 27.3524 53.3893 27.8042C53.6255 28.256 53.7495 28.7614 53.75 29.275V30.7514C54.1899 31.7958 54.5303 32.8821 54.7663 33.9947C54.839 34.3406 55.0242 34.6503 55.2909 34.8724C55.5577 35.0945 55.89 35.2155 56.2325 35.2154H59.63C60.1025 35.2154 60.5 35.7695 60.5 36.4205V39.1756C60.5 39.8305 60.1025 40.3808 59.63 40.3808H56.2325C55.89 40.3806 55.5577 40.5017 55.2909 40.7237C55.0242 40.9458 54.839 41.2555 54.7663 41.6014C54.5302 42.714 54.1899 43.8003 53.75 44.8447V48.1462C54.9228 46.2459 55.7631 44.1473 56.2325 41.9462H59.63C60.9388 41.9462 62 40.7101 62 39.1911V36.4244C62 34.8976 60.9388 33.6654 59.63 33.6654Z" fill="#721D0A"/>
</svg>
