<svg width="75" height="75" viewBox="0 0 75 75" fill="none" xmlns="http://www.w3.org/2000/svg">
<circle cx="37.5" cy="37.5" r="37.5" fill="#89EBC0"/>
<g clip-path="url(#clip0_272_4641)">
<path d="M42.2898 48.9593C41.9024 48.9593 41.5884 49.2734 41.5884 49.6607V55.4565C41.5884 57.7397 39.7308 59.5973 37.4476 59.5973H19.5568C17.2735 59.5973 15.416 57.7397 15.416 55.4565V24.5476C15.416 24.1602 15.1019 23.8462 14.7146 23.8462C14.3272 23.8462 14.0132 24.1602 14.0132 24.5476V55.4565C14.0132 58.5132 16.5 61.0001 19.5568 61.0001H37.4476C40.5043 61.0001 42.9912 58.5132 42.9912 55.4565V49.6607C42.9912 49.2734 42.6772 48.9593 42.2898 48.9593Z" fill="#065533"/>
<path d="M14.7153 22.2599C15.1027 22.2599 15.4167 21.9458 15.4167 21.5585V18.5436C15.4167 16.2603 17.2743 14.4028 19.5575 14.4028H37.4483C39.7315 14.4028 41.5891 16.2603 41.5891 18.5436V26.6363C41.5891 27.0236 41.9032 27.3376 42.2905 27.3376C42.6779 27.3376 42.9919 27.0236 42.9919 26.6363V18.5436C42.9919 15.4869 40.505 13 37.4482 13H19.5575C16.5008 13 14.0139 15.4869 14.0139 18.5436V21.5585C14.0139 21.9458 14.328 22.2599 14.7153 22.2599Z" fill="#065533"/>
<path d="M25.0871 15.5396C24.6998 15.5396 24.3857 15.8536 24.3857 16.2409C24.3857 16.6283 24.6998 16.9423 25.0871 16.9423H32.5047C32.892 16.9423 33.2061 16.6283 33.2061 16.2409C33.2061 15.8536 32.892 15.5396 32.5047 15.5396H25.0871Z" fill="#065533"/>
<path d="M61.9869 36.5184C61.9869 35.671 61.6119 34.91 61.0197 34.3911C61.6119 33.8723 61.9869 33.1113 61.9869 32.2639C61.9869 30.7042 60.7181 29.4353 59.1583 29.4353H54.9181C54.8245 29.2488 54.7158 29.0713 54.5926 28.9048V26.9599C54.5926 26.8675 54.6283 26.7805 54.6934 26.7146C54.8014 26.6054 54.9269 26.6051 54.9922 26.6147C55.0575 26.6244 55.1776 26.6608 55.2496 26.7965L55.3856 27.0531C55.6331 27.5197 56.1149 27.8096 56.6431 27.8096H57.9407C58.7255 27.8096 59.364 27.1711 59.364 26.3863V18.2716C59.364 17.2272 58.5144 16.3776 57.4702 16.3776H56.1336C55.285 16.3776 54.5471 16.9368 54.314 17.7463H53.9741C52.7358 17.7463 51.5162 18.0743 50.4471 18.6951C50.1121 18.8896 49.9982 19.3189 50.1926 19.6539C50.3871 19.9889 50.8163 20.1027 51.1514 19.9083C52.0068 19.4117 52.9828 19.1491 53.9741 19.1491H54.8618C55.1845 19.1491 55.4655 18.9291 55.5427 18.6158L55.6567 18.1539C55.7111 17.9341 55.9071 17.7805 56.1336 17.7805H57.4702C57.741 17.7805 57.9612 18.0008 57.9612 18.2717V26.3865C57.9612 26.3978 57.952 26.407 57.9407 26.407H56.6431C56.6354 26.407 56.6285 26.4028 56.6249 26.3961L56.4889 26.1396C56.225 25.6417 55.7538 25.3091 55.1963 25.227C54.639 25.1451 54.0918 25.3278 53.6957 25.7286C53.3695 26.0586 53.1897 26.4959 53.1897 26.96V27.762C52.7276 27.5485 52.2139 27.4285 51.6724 27.4285H48.3412V24.7818C48.3412 23.7045 48.6478 22.6564 49.2277 21.7506C49.4365 21.4243 49.3414 20.9905 49.0152 20.7817C48.689 20.5729 48.2553 20.668 48.0464 20.9942C47.3216 22.1262 46.9385 23.436 46.9385 24.7817V27.4284H45.9911C44.983 27.4284 44.0353 27.821 43.3225 28.5338L40.7712 31.085C40.3542 31.502 39.7997 31.7317 39.2099 31.7317H27.1338C26.7464 31.7317 26.4324 32.0458 26.4324 32.4331C26.4324 32.8205 26.7464 33.1345 27.1338 33.1345H39.2099C40.1743 33.1345 41.0811 32.7589 41.763 32.0769L44.3143 29.5256C44.7622 29.0778 45.3577 28.8311 45.9911 28.8311H51.6725C52.9006 28.8311 53.8998 29.8303 53.8998 31.0585V36.1822C53.8998 36.7393 53.4465 37.1925 52.881 37.1925C51.3688 37.1925 50.1386 35.9622 50.1386 34.45V32.6706C50.1386 32.2832 49.8245 31.9692 49.4372 31.9692C49.0498 31.9692 48.7358 32.2832 48.7358 32.6706V34.45V34.593C48.7358 36.0264 47.5697 37.1925 46.1363 37.1925H43.3235C42.9361 37.1925 42.6221 37.5065 42.6221 37.8939C42.6221 38.2812 42.9361 38.5952 43.3235 38.5952H46.1363C46.411 38.5952 46.6793 38.5674 46.9386 38.5144V46.1537H42.257C40.9709 46.1537 39.9245 45.1074 39.9245 43.8213C39.9245 43.4339 39.6105 43.1199 39.2232 43.1199C38.8358 43.1199 38.5218 43.4339 38.5218 43.8213C38.5218 43.9435 38.5281 44.0643 38.5396 44.1836H18.2209V33.1345H24.1448C24.5322 33.1345 24.8462 32.8205 24.8462 32.4331C24.8462 32.0458 24.5322 31.7317 24.1448 31.7317H18.2209V18.5437C18.2209 17.8074 18.8199 17.2084 19.5562 17.2084H20.6448L20.8961 17.8777C21.3004 18.9546 22.3448 19.6782 23.4952 19.6782H33.508C34.6583 19.6782 35.7028 18.9546 36.1071 17.8777L36.3583 17.2084H37.447C38.1832 17.2084 38.7822 17.8074 38.7822 18.5436V29.3969C38.7822 29.7843 39.0962 30.0983 39.4836 30.0983C39.871 30.0983 40.185 29.7843 40.185 29.3969V18.5436C40.185 17.0339 38.9567 15.8057 37.447 15.8057H36.289C35.7492 15.8057 35.259 16.1452 35.0693 16.6506L34.7937 17.3846C34.5937 17.9174 34.077 18.2754 33.5079 18.2754H23.4951C22.926 18.2754 22.4093 17.9174 22.2093 17.3847L21.9337 16.6506C21.744 16.1452 21.2539 15.8057 20.714 15.8057H19.5562C18.0464 15.8057 16.8181 17.0339 16.8181 18.5437V55.4565C16.8181 56.9663 18.0464 58.1945 19.5562 58.1945H37.447C38.9568 58.1945 40.185 56.9663 40.185 55.4566V48.9567C40.185 48.5693 39.871 48.2553 39.4836 48.2553C39.0962 48.2553 38.7822 48.5693 38.7822 48.9567V55.4566C38.7822 56.1929 38.1832 56.7918 37.447 56.7918H19.5562C18.8199 56.7918 18.2209 56.1928 18.2209 55.4565V45.5864H38.9662C39.5971 46.7582 40.8355 47.5566 42.257 47.5566H46.9386V52.5025C46.9386 56.3819 50.0947 59.5379 53.9741 59.5379H54.3139C54.547 60.3474 55.285 60.9066 56.1336 60.9066H57.4702C58.5145 60.9066 59.364 60.057 59.364 59.0126V50.8978C59.364 50.113 58.7255 49.4745 57.9407 49.4745H56.6431C56.1149 49.4745 55.6331 49.7644 55.3855 50.231L55.2495 50.4877C55.1775 50.6234 55.0573 50.6597 54.9921 50.6694C54.9267 50.679 54.8012 50.6788 54.6932 50.5695C54.6282 50.5037 54.5925 50.4167 54.5925 50.3243V47.8559H59.1582C60.7179 47.8559 61.9868 46.5871 61.9868 45.0273C61.9868 44.1799 61.6118 43.4189 61.0196 42.9C61.6118 42.3812 61.9868 41.6202 61.9868 40.7728C61.9868 39.9255 61.6118 39.1645 61.0196 38.6456C61.6119 38.1268 61.9869 37.3659 61.9869 36.5184ZM59.1584 30.8381C59.9446 30.8381 60.5842 31.4777 60.5842 32.264C60.5842 33.0502 59.9447 33.6898 59.1584 33.6898H59.1367H55.3028V31.0586C55.3028 30.9845 55.2999 30.9112 55.2955 30.8382H59.1584V30.8381ZM55.1964 52.0573C55.754 51.9753 56.2251 51.6426 56.4891 51.1448L56.625 50.8883C56.6287 50.8816 56.6356 50.8773 56.6432 50.8773H57.9408C57.9521 50.8773 57.9613 50.8866 57.9613 50.8979V59.0127C57.9613 59.2836 57.741 59.5039 57.4703 59.5039H56.1337C55.9073 59.5039 55.7112 59.3503 55.6568 59.1305L55.5428 58.6686C55.4655 58.3554 55.1845 58.1352 54.8619 58.1352H53.9741C50.8683 58.1352 48.3415 55.6085 48.3415 52.5026V37.9309C48.7892 37.6342 49.174 37.25 49.4713 36.8027C50.1447 37.7748 51.2228 38.4473 52.4633 38.5737C51.8219 39.0928 51.4109 39.8855 51.4109 40.7729C51.4109 41.6203 51.7859 42.3813 52.3782 42.9001C51.7859 43.4189 51.4109 44.1799 51.4109 45.0274C51.4109 46.2163 52.1486 47.2355 53.1899 47.6533V50.3244C53.1899 50.7884 53.3695 51.2258 53.6958 51.5557C54.0919 51.9565 54.6388 52.1394 55.1964 52.0573ZM60.5841 45.0273C60.5841 45.8135 59.9446 46.4532 59.1583 46.4532H54.2393C53.4531 46.4532 52.8135 45.8136 52.8135 45.0273C52.8135 44.241 53.4531 43.6014 54.2393 43.6014H59.1583C59.9446 43.6015 60.5841 44.2411 60.5841 45.0273ZM60.5841 40.7729C60.5841 41.5591 59.9446 42.1987 59.1583 42.1987H54.2393C53.4531 42.1987 52.8135 41.5591 52.8135 40.7729C52.8135 39.9867 53.4531 39.347 54.2393 39.347H59.1583C59.9446 39.347 60.5841 39.9866 60.5841 40.7729ZM54.5358 37.9443C55.0073 37.5036 55.3027 36.8769 55.3027 36.1823V35.0926H59.1584C59.9446 35.0926 60.5842 35.7322 60.5842 36.5185C60.5842 37.3048 59.9447 37.9444 59.1584 37.9444H54.5358V37.9443Z" fill="#065533"/>
</g>
<defs>
<clipPath id="clip0_272_4641">
<rect width="48" height="48" fill="white" transform="translate(14 13)"/>
</clipPath>
</defs>
</svg>
