<svg width="75" height="75" viewBox="0 0 75 75" fill="none" xmlns="http://www.w3.org/2000/svg">
<circle cx="37.5" cy="37.5" r="37.5" fill="#D4D5F7"/>
<g clip-path="url(#clip0_272_4642)">
<path d="M49.66 32.0743C49.5678 31.1708 48.7564 30.5106 47.8541 30.6028L44.3554 30.9592C43.9697 30.9984 43.689 31.343 43.7283 31.7285C43.7675 32.1141 44.1116 32.3946 44.4976 32.3556L47.9963 31.9992C48.1293 31.9857 48.25 32.0831 48.2637 32.217L49.1449 40.8408C49.2235 41.6102 48.6635 42.3003 47.8954 42.3828C47.8928 42.3831 47.8901 42.3834 47.8874 42.3837C47.5139 42.4214 47.1472 42.3122 46.8558 42.0749C46.5645 41.8375 46.3829 41.5009 46.3447 41.1269L45.8382 36.1703C45.7755 35.5567 45.2256 35.1087 44.6116 35.1711L39.655 35.6776C38.8821 35.7564 38.191 35.1927 38.1121 34.4209C38.0739 34.0469 38.1837 33.6803 38.4212 33.389C38.6586 33.0975 38.9953 32.916 39.3693 32.878L41.2731 32.6841C41.6587 32.6449 41.9395 32.3003 41.9002 31.9148C41.861 31.5292 41.5154 31.2482 41.1309 31.2877L39.227 31.4817C38.4799 31.5577 37.8073 31.9202 37.3329 32.5023C36.8587 33.0844 36.6394 33.8164 36.7157 34.5636C36.8732 36.1053 38.2557 37.2315 39.7975 37.074L40.5248 36.9997L33.1055 46.4177L31.2317 44.9688C29.1497 43.3589 26.4772 41.2925 26.4504 41.2716C25.8585 40.8093 25.122 40.6051 24.3771 40.6968C23.6318 40.7883 22.9668 41.1647 22.5046 41.7564L14.6068 51.8678C13.6689 53.0687 13.8369 54.8278 14.9814 55.7892C15.4945 56.2202 16.1255 56.4495 16.7844 56.4495C16.8837 56.4495 16.9836 56.4443 17.0839 56.4338C17.8497 56.3535 18.5324 55.9751 19.0062 55.3684L25.2308 47.3996L27.258 48.9816C27.5635 49.2201 28.0045 49.1656 28.2431 48.8601C28.4815 48.5545 28.4271 48.1135 28.1216 47.875L25.7758 46.0444C25.3415 45.7057 24.7122 45.7831 24.3734 46.2172L17.9002 54.5042C17.6629 54.808 17.321 54.9974 16.9375 55.0376C16.5536 55.0782 16.1803 54.963 15.8844 54.7143C15.3118 54.2334 15.2349 53.344 15.713 52.7318L23.6112 42.6204C23.8427 42.3242 24.1756 42.1358 24.5488 42.0899C24.9217 42.0441 25.2904 42.1463 25.5871 42.3779C25.5925 42.3822 26.5767 43.1431 30.3735 46.0791L32.5648 47.7734C32.9966 48.1071 33.623 48.0298 33.9608 47.6007L42.4686 36.8009L44.471 36.5963L44.6695 38.5395C44.3455 38.946 43.9637 39.4254 43.541 39.9556C40.2995 44.0233 34.8741 50.8313 34.6181 51.1558C34.1974 51.6888 33.4138 52.0044 32.6869 51.437L30.7291 49.9094C30.4234 49.6709 29.9826 49.7254 29.744 50.0309C29.5056 50.3365 29.5599 50.7775 29.8655 51.016L31.8232 52.5437C33.0538 53.5039 34.7289 53.2808 35.72 52.0254C35.9739 51.7036 41.3979 44.8971 44.6387 40.8305C44.7185 40.7303 44.7966 40.6324 44.8734 40.5359L44.9483 41.2695C45.096 42.7147 46.3198 43.7946 47.7422 43.7945C47.834 43.7945 47.9269 43.7901 48.0201 43.7809C48.0237 43.7806 48.0272 43.7802 48.0308 43.7798C49.5725 43.6223 50.6987 42.2398 50.5412 40.698L49.66 32.0743Z" fill="#121475"/>
<path d="M41.3777 23.494C41.4585 23.5727 41.4953 23.6861 41.4763 23.7973L41.1064 25.9537C40.9932 26.6137 41.2595 27.2682 41.8012 27.6618C42.3428 28.0553 43.0475 28.1062 43.6404 27.7947L45.577 26.7765C45.6769 26.7239 45.7962 26.724 45.896 26.7765L47.8327 27.7947C48.0905 27.9303 48.3695 27.9972 48.647 27.9972C49.0076 27.9972 49.3657 27.8841 49.6719 27.6617C50.2136 27.2681 50.4798 26.6136 50.3665 25.9537L49.9967 23.7973C49.9777 23.6861 50.0145 23.5726 50.0953 23.4939L51.6621 21.9666C52.1416 21.4993 52.3109 20.8133 52.104 20.1765C51.8971 19.5396 51.3568 19.0842 50.6941 18.9878L48.5288 18.6732C48.4172 18.6569 48.3207 18.5868 48.2709 18.4858L47.3026 16.5237C47.0063 15.9233 46.4061 15.5502 45.7365 15.5503C45.0668 15.5503 44.4668 15.9234 44.1706 16.5237L43.2022 18.4859C43.1524 18.5869 43.0558 18.657 42.9443 18.6733L40.779 18.9879C40.1163 19.0842 39.5761 19.5397 39.3692 20.1766C39.1624 20.8134 39.3316 21.4994 39.8111 21.9667L41.3777 23.494ZM40.704 20.6102C40.7238 20.5492 40.7904 20.4045 40.9806 20.3769L43.1458 20.0623C43.7148 19.9796 44.2062 19.6225 44.4607 19.107L45.4291 17.1449C45.5142 16.9724 45.6724 16.9538 45.7363 16.9538C45.8005 16.9538 45.9586 16.9724 46.0437 17.1449L47.012 19.107C47.2665 19.6225 47.7579 19.9796 48.3269 20.0623L50.4921 20.3769C50.6825 20.4046 50.7491 20.5493 50.7687 20.6102C50.7886 20.6711 50.8197 20.8273 50.682 20.9615L49.1152 22.4887C48.7036 22.8901 48.5158 23.4679 48.613 24.0345L48.9828 26.191C49.0153 26.3805 48.8983 26.4885 48.8465 26.5262C48.7948 26.5638 48.656 26.6418 48.4855 26.5523L46.5489 25.5341C46.2944 25.4004 46.0154 25.3335 45.7363 25.3335C45.4572 25.3335 45.1781 25.4004 44.9237 25.5341L42.9871 26.5523C42.817 26.6418 42.6779 26.5638 42.6261 26.5262C42.5742 26.4885 42.4573 26.3805 42.4897 26.1909L42.8595 24.0345C42.9568 23.468 42.769 22.8901 42.3573 22.4888L40.7906 20.9615C40.653 20.8273 40.6842 20.6711 40.704 20.6102Z" fill="#121475"/>
<path d="M61.518 31.6528C61.9552 31.2266 62.1096 30.6011 61.921 30.0204C61.7323 29.4397 61.2397 29.0244 60.6354 28.9366L58.7895 28.6683C58.7279 28.6594 58.6747 28.6208 58.6472 28.565L57.8215 26.8921C57.5513 26.3445 57.004 26.0044 56.3935 26.0044C55.7829 26.0044 55.2358 26.3445 54.9655 26.8921L54.1397 28.5652C54.1123 28.6208 54.0591 28.6594 53.9977 28.6683L52.1514 28.9366C51.5472 29.0244 51.0547 29.4397 50.866 30.0203C50.6773 30.6011 50.8316 31.2265 51.269 31.6528L52.6049 32.9549C52.6494 32.9982 52.6697 33.0607 52.6592 33.122L52.3438 34.9607C52.2406 35.5626 52.4834 36.1593 52.9774 36.5183C53.4712 36.877 54.1138 36.9236 54.6543 36.6394L56.3054 35.7714C56.3606 35.7423 56.4265 35.7424 56.4814 35.7713L58.1326 36.6394C58.3678 36.763 58.6221 36.824 58.8752 36.824C59.2041 36.824 59.5307 36.7209 59.8098 36.5181C60.3037 36.1592 60.5464 35.5623 60.4431 34.9606L60.1278 33.1219C60.1173 33.0606 60.1376 32.9981 60.1822 32.9548L61.518 31.6528ZM59.2023 31.9497C58.827 32.3157 58.6557 32.8426 58.7443 33.3593L59.0597 35.1981C59.0761 35.2936 59.0279 35.3512 58.9845 35.3827C58.9413 35.4141 58.8714 35.4422 58.7856 35.397L57.1344 34.5289C56.9024 34.407 56.6479 34.346 56.3935 34.346C56.139 34.346 55.8845 34.407 55.6523 34.5289L54.001 35.397C53.9153 35.4423 53.8456 35.4141 53.8023 35.3827C53.759 35.3511 53.7108 35.2936 53.7271 35.198L54.0424 33.3595C54.1312 32.8429 53.96 32.3159 53.5845 31.9497L52.2487 30.6477C52.1793 30.5799 52.1843 30.5049 52.2009 30.4541C52.2175 30.4032 52.2573 30.3396 52.3532 30.3256L54.1996 30.0574C54.7184 29.9819 55.1667 29.6561 55.3984 29.1863L56.2241 27.5134C56.267 27.4263 56.3399 27.408 56.3934 27.408C56.447 27.408 56.5198 27.4263 56.5627 27.5134L57.3883 29.1861C57.6201 29.6561 58.0684 29.9819 58.5874 30.0574L60.4334 30.3256C60.5295 30.3396 60.5693 30.4032 60.586 30.4541C60.6025 30.505 60.6076 30.5799 60.5381 30.6476L59.2023 31.9497Z" fill="#121475"/>
</g>
<defs>
<clipPath id="clip0_272_4642">
<rect width="48" height="48" fill="white" transform="translate(14 12)"/>
</clipPath>
</defs>
</svg>
