<svg width="65" height="65" viewBox="0 0 65 65" fill="none" xmlns="http://www.w3.org/2000/svg">
<circle cx="32.5" cy="32.5" r="32.5" fill="#89EBC0"/>
<path d="M45.8676 22.1038C45.1102 21.7435 44.5152 21.8588 44.1494 22.0187C42.9509 22.5437 42.4382 24.2212 41.8961 25.9965C41.7754 26.3907 41.6552 26.7855 41.5281 27.1607C41.3962 27.5491 41.2744 27.938 41.1574 28.3142C40.8573 29.2771 40.446 30.5948 40.0727 30.7866C40.0588 30.7936 40.0294 30.8084 39.9328 30.776C39.8243 30.7409 39.7586 30.7149 39.7197 30.6979C39.702 30.4397 39.8265 29.7346 39.8964 29.3398C40.1154 28.0996 40.5683 26.2499 40.9673 24.6187C41.2402 23.5034 41.4763 22.5405 41.6082 21.896C41.6851 21.5214 41.7668 21.1399 41.8491 20.7557C42.4633 17.8917 43.0438 15.1871 42.0189 13.753C41.6584 13.2482 41.1179 12.9373 40.4572 12.8555C37.8893 12.5394 37.2906 15.2328 36.5995 18.3566C36.4099 19.2137 36.1952 20.1856 35.9292 21.1845C35.7663 21.7956 35.6066 22.4215 35.4496 23.0389C34.9882 24.8477 34.3125 27.496 33.8148 28.267C33.7074 28.0794 33.5728 27.6777 33.6001 26.9545C33.6818 24.768 33.9579 17.202 34.0177 15.2737C34.1053 12.4735 33.7058 10.6589 32.7968 9.72636C32.3337 9.25133 31.7313 9 31.0546 9C28.4755 9 28.3382 11.9814 28.0642 17.922L28.0327 18.5984C27.9665 20.0182 27.9216 21.3902 27.8805 22.6468C27.8319 24.1304 27.7796 25.7313 27.6936 26.8961C27.6049 26.5315 27.5125 26.0916 27.4191 25.5645C27.1867 24.2542 26.6676 23.3514 25.8755 22.8827C25.3895 22.5947 24.5526 22.337 23.3306 22.743C20.9635 23.5294 20.9902 25.5422 21.7999 28.5342C21.8838 28.8435 22.0317 29.5146 22.2032 30.3791L22.0071 30.5954C19.7207 33.1172 18.3406 34.639 19.3185 37.6549C20.0182 39.8133 21.0308 42.6082 23.2334 46.9786C24.4971 49.4856 23.6521 55.076 23.6436 55.1318C23.58 55.5425 23.8636 55.9277 24.2765 55.991C24.3155 55.9968 24.3545 56 24.3929 56C24.7598 56 25.0824 55.7338 25.1401 55.3613C25.1786 55.1126 26.0668 49.2396 24.5868 46.3038C22.4296 42.0243 21.4415 39.2963 20.759 37.1927C20.1159 35.2097 20.7996 34.2033 22.5535 32.2447C22.8606 33.9673 23.165 35.9387 23.2938 37.4424C23.329 37.8563 23.6922 38.1635 24.1125 38.1289C24.5291 38.0938 24.8378 37.7293 24.8026 37.3144C24.5254 34.0848 23.5277 29.1262 23.2617 28.1426C22.3207 24.6665 23.0775 24.4146 23.8097 24.1713C24.3555 23.9901 24.7897 23.9922 25.1006 24.1766C25.4915 24.4083 25.7773 24.9784 25.9274 25.8254C26.517 29.1586 27.1232 29.4917 27.4148 29.6517C27.6866 29.8004 27.9921 29.8196 28.2752 29.7053C29.1084 29.3663 29.2083 28.3355 29.3925 22.6957C29.4336 21.4454 29.4785 20.0809 29.5442 18.668L29.5757 17.9911C29.8145 12.8008 29.9661 10.5069 31.0535 10.5069C31.3259 10.5069 31.5283 10.5898 31.7089 10.7753C32.0469 11.1222 32.5992 12.1616 32.5036 15.2275C32.4438 17.1526 32.1682 24.7138 32.0859 26.8987C32.0069 29.0204 32.9517 29.8382 33.7827 29.8934C35.1863 29.9981 35.7813 27.8568 36.9162 23.4098C37.0722 22.7972 37.2308 22.1766 37.3921 21.5703C37.6661 20.5405 37.8845 19.5522 38.0773 18.6802C38.7962 15.4299 39.1701 14.2163 40.2682 14.3502C40.5785 14.389 40.7067 14.5181 40.7841 14.6265C41.4229 15.5208 40.8375 18.2493 40.3675 20.4417C40.2842 20.8301 40.2014 21.2164 40.1234 21.5953C39.9969 22.2116 39.7533 23.2079 39.4953 24.2621C39.0905 25.9157 38.6317 27.7903 38.4042 29.0794C38.1046 30.776 37.9395 31.7107 39.4596 32.2075C39.9173 32.3573 40.3691 32.3286 40.7659 32.1257C41.7033 31.6448 42.1006 30.3722 42.6027 28.7611C42.7164 28.3966 42.8339 28.0199 42.9616 27.6431C43.094 27.2537 43.219 26.8445 43.344 26.4348C43.7034 25.2574 44.1964 23.6442 44.7588 23.3976C44.8036 23.378 44.9244 23.3248 45.2138 23.463C46.0561 23.8636 44.8197 28.2393 44.2915 30.1076L44.0484 30.9721C43.9235 31.4221 43.8012 31.8951 43.665 32.4227C43.2409 34.0672 42.6598 36.3197 41.3737 40.1497C40.6613 42.2708 39.787 43.5036 39.0846 44.494C38.3951 45.4664 37.8001 46.3059 37.8082 47.4696C37.8354 51.2662 37.8979 55.2593 37.8979 55.2593L39.4115 55.2359C39.4115 55.2359 39.349 51.2492 39.3223 47.459C39.3175 46.8081 39.6433 46.3192 40.3216 45.3628C41.041 44.3484 42.0259 42.9589 42.8094 40.6279C44.1125 36.7469 44.7011 34.4647 45.1316 32.7984C45.2651 32.2803 45.3847 31.8164 45.5076 31.3749L45.749 30.5162C46.8348 26.6766 47.8592 23.0512 45.8676 22.1038Z" fill="#065533"/>
</svg>
