<svg width="65" height="65" viewBox="0 0 65 65" fill="none" xmlns="http://www.w3.org/2000/svg">
<circle cx="32.5" cy="32.5" r="32.5" fill="#F7AD9C"/>
<path d="M44.3005 25.4877C43.7394 25.3493 43.1829 25.4329 42.6742 25.708C42.7429 24.3953 42.4994 23.3135 41.9446 22.5527C41.4831 21.919 40.8154 21.5203 40.0147 21.399C39.2065 21.2777 38.1746 21.2159 37.3716 21.8348C36.8198 22.2606 36.5109 22.9131 36.3233 23.6233C36.4935 20.0981 36.7982 14.6026 36.9486 12.9955C37.2446 9.82664 36.9532 7.94335 36.0034 6.88864C35.4726 6.29916 34.7634 6 33.8952 6C31.1151 6 30.8535 9.03045 30.2801 15.6691L30.2119 16.4552C30.0797 17.9758 29.98 19.4692 29.892 20.7871C29.7627 22.7158 29.6217 24.827 29.4101 26.0748C28.9364 24.6214 28.2849 21.8307 27.6888 18.269C26.8975 13.5432 26.4197 10.6905 24.7608 9.59579C24.0866 9.15118 23.2638 9.04694 22.3152 9.2878C20.1254 9.84313 20.588 12.7811 21.0775 15.8911L21.2115 16.7538C21.3782 17.8474 21.5594 18.9062 21.74 19.9627C22.1339 22.267 22.5418 24.6497 22.7714 27.3351C22.7982 27.6519 22.8594 28.3109 22.9386 29.1665C22.8734 29.2072 22.8064 29.246 22.7528 29.3067L22.2819 29.8349C19.7868 32.6304 18.2805 34.3176 19.3475 37.6613C20.1108 40.0523 21.2144 43.1498 23.6204 47.9982C24.9997 50.7766 24.0772 56.9747 24.0679 57.0372C23.9986 57.4924 24.308 57.9193 24.7584 57.9888C24.801 57.9959 24.8435 57.9988 24.8855 57.9988C25.2858 57.9988 25.6377 57.7038 25.7007 57.2916C25.7426 57.016 26.7122 50.504 25.097 47.2497C22.7417 42.5026 21.6637 39.4798 20.9202 37.149C20.1865 34.8505 21.032 33.7375 23.1426 31.3637C23.325 33.3418 23.5359 35.6438 23.6868 37.4258C23.7235 37.861 24.0842 38.1896 24.509 38.1896C24.5329 38.1896 24.5562 38.1884 24.5801 38.1866C25.0346 38.1478 25.3714 37.7432 25.333 37.2839C25.1401 35.0019 24.8487 31.8613 24.6431 29.6471C24.5353 28.4858 24.4508 27.5806 24.4175 27.1908C24.1816 24.4354 23.7678 22.0168 23.3681 19.6783C23.1892 18.6312 23.0097 17.5824 22.8448 16.4994L22.7091 15.6284C22.4072 13.7133 21.9947 11.0898 22.7178 10.9061C23.3716 10.7412 23.681 10.876 23.8582 10.9932C24.9123 11.6887 25.4192 14.7156 26.0608 18.547C27.7757 28.7914 28.8362 28.6989 29.5424 28.6348C31.0318 28.4999 31.1915 26.1184 31.5405 20.899C31.6279 19.5887 31.7275 18.1041 31.8581 16.6007L31.9262 15.8139C32.4262 10.0204 32.6779 7.66893 33.8958 7.66893C34.4138 7.66893 34.6498 7.86444 34.7821 8.01166C35.3671 8.66122 35.5425 10.2854 35.3042 12.8382C35.1049 14.9695 34.662 23.3712 34.5665 25.9459C34.5525 26.3251 34.5303 26.6449 34.5117 26.914C34.4493 27.8091 34.3718 28.9227 35.5571 29.1C35.8869 29.1495 36.2196 29.0594 36.4946 28.8473C37.1076 28.3745 37.4771 27.2644 37.7294 25.1373C37.8593 24.0426 38.0697 23.3965 38.3727 23.1627C38.6087 22.9808 39.0661 22.9449 39.77 23.0509C40.1423 23.1068 40.4104 23.2634 40.6143 23.5432C41.0181 24.0979 41.1399 25.1373 40.9482 26.3952C40.8596 26.977 40.6639 27.9316 40.4366 29.037C40.3719 29.3538 40.3032 29.6877 40.2332 30.0328C40.2315 30.0422 40.228 30.0569 40.2268 30.064C40.2268 30.0646 40.2268 30.0646 40.2268 30.0652C40.1674 30.3567 40.1074 30.6541 40.0462 30.9615C39.9565 31.4138 40.2461 31.8537 40.693 31.9443C41.1417 32.0362 41.5758 31.7424 41.6655 31.2907C41.7273 30.9797 41.7885 30.6776 41.8479 30.3832C42.0431 29.4086 42.6322 27.6908 43.3909 27.2032C43.5651 27.0913 43.7207 27.0642 43.9089 27.1095C45.396 27.4752 45.4601 28.2802 45.2707 30.6741C45.2392 31.0746 45.2066 31.488 45.188 31.9102C45.0254 35.6014 44.6921 36.6007 43.7032 39.567L43.4171 40.4274C42.6398 42.7788 41.6859 44.1457 40.9191 45.2439C40.1668 46.3216 39.5171 47.2521 39.5264 48.5418C39.5556 52.75 39.6243 57.1779 39.6243 57.1779C39.6313 57.6343 39.9996 58 40.45 58C40.4541 58 40.4587 58 40.4628 58C40.9191 57.9929 41.2827 57.6137 41.2757 57.1526C41.2757 57.1514 41.2075 52.7317 41.1784 48.53C41.1731 47.8086 41.5286 47.2668 42.2686 46.2068C43.0535 45.082 44.1286 43.5415 44.9834 40.9574L45.2684 40.1005C46.2852 37.0524 46.6651 35.9117 46.8382 31.985C46.8557 31.5828 46.8871 31.1888 46.9174 30.8072C47.0881 28.6571 47.281 26.2203 44.3005 25.4877Z" fill="#721D0A"/>
</svg>
