<svg width="29" height="30" viewBox="0 0 29 30" fill="none" xmlns="http://www.w3.org/2000/svg">
<path fill-rule="evenodd" clip-rule="evenodd" d="M0 15.3916C0 7.38347 6.49187 0.891602 14.5 0.891602C22.5081 0.891602 29 7.38347 29 15.3916C29 23.3997 22.5081 29.8916 14.5 29.8916C6.49187 29.8916 0 23.3997 0 15.3916ZM14.0657 12.6774L14.0962 13.1791L13.589 13.1177C11.7431 12.8822 10.1305 12.0835 8.76123 10.7421L8.09182 10.0766L7.9194 10.5681C7.55427 11.6637 7.78755 12.8207 8.54823 13.5989C8.95393 14.029 8.86265 14.0904 8.16282 13.8344C7.9194 13.7525 7.70641 13.6911 7.68613 13.7218C7.61513 13.7935 7.85855 14.7253 8.05125 15.0939C8.31496 15.6059 8.85251 16.1076 9.44077 16.4045L9.93775 16.64L9.34949 16.6503C8.78151 16.6503 8.76123 16.6605 8.82208 16.8756C9.02493 17.5411 9.82618 18.2476 10.7187 18.5548L11.3476 18.7699L10.7999 19.0975C9.98846 19.5685 9.03507 19.8348 8.08168 19.8552C7.62527 19.8655 7.25 19.9064 7.25 19.9371C7.25 20.0395 8.48738 20.613 9.20749 20.8382C11.3678 21.5038 13.9339 21.2171 15.8609 20.0805C17.2302 19.2716 18.5994 17.664 19.2384 16.1076C19.5832 15.2782 19.9281 13.7628 19.9281 13.0358C19.9281 12.5647 19.9585 12.5033 20.5265 11.9401C20.8612 11.6125 21.1756 11.2541 21.2364 11.1517C21.3379 10.9572 21.3277 10.9572 20.8105 11.1312C19.9483 11.4384 19.8266 11.3975 20.2526 10.9367C20.567 10.609 20.9423 10.0151 20.9423 9.84106C20.9423 9.81034 20.7902 9.86154 20.6178 9.95369C20.4352 10.0561 20.0295 10.2097 19.7252 10.3018L19.1775 10.4759L18.6805 10.138C18.4067 9.95369 18.0213 9.7489 17.8184 9.68747C17.3012 9.54411 16.5101 9.56459 16.0435 9.72842C14.7757 10.1892 13.9744 11.377 14.0657 12.6774Z" fill="white"/>
</svg>
