<svg width="29" height="30" viewBox="0 0 29 30" fill="none" xmlns="http://www.w3.org/2000/svg">
<path fill-rule="evenodd" clip-rule="evenodd" d="M0 15.3916C0 7.38347 6.49187 0.891602 14.5 0.891602C22.5081 0.891602 29 7.38347 29 15.3916C29 23.3997 22.5081 29.8916 14.5 29.8916C6.49187 29.8916 0 23.3997 0 15.3916ZM14.5007 7.65827C12.4005 7.65827 12.1369 7.66745 11.312 7.70499C10.4887 7.74269 9.92673 7.87303 9.43502 8.06427C8.92638 8.2618 8.49492 8.52602 8.06507 8.95603C7.6349 9.38588 7.37068 9.81734 7.17251 10.3258C6.98079 10.8177 6.85028 11.3798 6.81323 12.2028C6.77633 13.0277 6.76667 13.2914 6.76667 15.3917C6.76667 17.4919 6.77601 17.7547 6.81339 18.5796C6.85125 19.4029 6.98159 19.9649 7.17267 20.4566C7.37036 20.9652 7.63458 21.3967 8.06459 21.8265C8.49428 22.2567 8.92574 22.5216 9.43405 22.7191C9.92609 22.9103 10.4882 23.0407 11.3113 23.0784C12.1362 23.1159 12.3997 23.1251 14.4998 23.1251C16.6002 23.1251 16.863 23.1159 17.6879 23.0784C18.5111 23.0407 19.0738 22.9103 19.5658 22.7191C20.0743 22.5216 20.5051 22.2567 20.9348 21.8265C21.3649 21.3967 21.6292 20.9652 21.8273 20.4567C22.0174 19.9649 22.1479 19.4027 22.1866 18.5798C22.2237 17.7549 22.2333 17.4919 22.2333 15.3917C22.2333 13.2914 22.2237 13.0278 22.1866 12.2029C22.1479 11.3797 22.0174 10.8177 21.8273 10.326C21.6292 9.81734 21.3649 9.38588 20.9348 8.95603C20.5046 8.52586 20.0744 8.26164 19.5653 8.06427C19.0723 7.87303 18.51 7.74269 17.6867 7.70499C16.8618 7.66745 16.5992 7.65827 14.4983 7.65827H14.5007Z" fill="white"/>
<path fill-rule="evenodd" clip-rule="evenodd" d="M13.807 9.05189C14.0129 9.05157 14.2426 9.05189 14.5007 9.05189C16.5655 9.05189 16.8103 9.0593 17.6257 9.09636C18.3797 9.13084 18.7889 9.25683 19.0615 9.36268C19.4224 9.50285 19.6797 9.67041 19.9502 9.94108C20.2209 10.2117 20.3884 10.4695 20.5289 10.8304C20.6348 11.1027 20.7609 11.5119 20.7952 12.2659C20.8323 13.0812 20.8404 13.3261 20.8404 15.3899C20.8404 17.4538 20.8323 17.6987 20.7952 18.5139C20.7608 19.2679 20.6348 19.6771 20.5289 19.9494C20.3888 20.3103 20.2209 20.5673 19.9502 20.8378C19.6795 21.1084 19.4226 21.276 19.0615 21.4162C18.7892 21.5225 18.3797 21.6482 17.6257 21.6827C16.8104 21.7197 16.5655 21.7278 14.5007 21.7278C12.4357 21.7278 12.191 21.7197 11.3758 21.6827C10.6218 21.6479 10.2125 21.5219 9.93978 21.416C9.57889 21.2758 9.32111 21.1083 9.05044 20.8376C8.77977 20.5669 8.61221 20.3098 8.47172 19.9488C8.36587 19.6765 8.23972 19.2673 8.2054 18.5132C8.16835 17.698 8.16094 17.4531 8.16094 15.388C8.16094 13.3228 8.16835 13.0792 8.2054 12.264C8.23988 11.51 8.36587 11.1008 8.47172 10.8282C8.61189 10.4673 8.77977 10.2095 9.05044 9.93882C9.32111 9.66815 9.57889 9.50059 9.93978 9.3601C10.2124 9.25377 10.6218 9.1281 11.3758 9.09346C12.0892 9.06124 12.3657 9.05157 13.807 9.04996V9.05189ZM18.6288 10.336C18.1164 10.336 17.7007 10.7512 17.7007 11.2637C17.7007 11.776 18.1164 12.1917 18.6288 12.1917C19.1411 12.1917 19.5568 11.776 19.5568 11.2637C19.5568 10.7513 19.1411 10.336 18.6288 10.336ZM14.5007 11.4203C12.3075 11.4203 10.5293 13.1985 10.5293 15.3917C10.5293 17.5849 12.3075 19.3623 14.5007 19.3623C16.694 19.3623 18.4715 17.5849 18.4715 15.3917C18.4715 13.1985 16.694 11.4203 14.5007 11.4203Z" fill="white"/>
<path fill-rule="evenodd" clip-rule="evenodd" d="M14.5007 12.8139C15.9243 12.8139 17.0785 13.9679 17.0785 15.3917C17.0785 16.8153 15.9243 17.9695 14.5007 17.9695C13.077 17.9695 11.9229 16.8153 11.9229 15.3917C11.9229 13.9679 13.077 12.8139 14.5007 12.8139Z" fill="white"/>
</svg>
