<svg width="29" height="29" viewBox="0 0 29 29" fill="none" xmlns="http://www.w3.org/2000/svg">
<path fill-rule="evenodd" clip-rule="evenodd" d="M0 14.5C0 6.49187 6.49187 0 14.5 0C22.5081 0 29 6.49187 29 14.5C29 22.5081 22.5081 29 14.5 29C6.49187 29 0 22.5081 0 14.5ZM10.247 12.0095H6.96094V21.8826H10.247V12.0095ZM10.4634 8.95538C10.442 7.98733 9.74977 7.25 8.62564 7.25C7.50152 7.25 6.7666 7.98733 6.7666 8.95538C6.7666 9.90338 7.47979 10.6619 8.58299 10.6619H8.60399C9.74977 10.6619 10.4634 9.90338 10.4634 8.95538ZM22.0977 16.2218C22.0977 13.1893 20.4766 11.7778 18.3142 11.7778C16.5696 11.7778 15.7885 12.7361 15.3523 13.4084V12.0099H12.0659C12.1092 12.9364 12.0659 21.8831 12.0659 21.8831H15.3523V16.3691C15.3523 16.074 15.3737 15.7797 15.4605 15.5684C15.698 14.9789 16.2388 14.3686 17.1466 14.3686C18.3362 14.3686 18.8117 15.2739 18.8117 16.6007V21.8828H22.0975L22.0977 16.2218Z" fill="white"/>
</svg>
