<svg width="10" height="9" viewBox="0 0 10 9" fill="none" xmlns="http://www.w3.org/2000/svg">
<path fill-rule="evenodd" clip-rule="evenodd" d="M2.00875 0.204639C3.00813 0.00463884 4.3225 -0.0216112 5.22125 0.875889C5.25025 0.904963 5.27324 0.939469 5.28889 0.977432C5.30455 1.0154 5.31257 1.05607 5.3125 1.09714V7.97214C5.31261 8.03403 5.29434 8.09455 5.26001 8.14605C5.22568 8.19754 5.17684 8.23768 5.11966 8.26138C5.06249 8.28508 4.99957 8.29127 4.93888 8.27916C4.87819 8.26706 4.82246 8.2372 4.77875 8.19339C4.25187 7.66589 3.45688 7.53151 2.61 7.61839C1.77 7.70589 0.9475 8.00401 0.4525 8.25151C0.404857 8.27539 0.3519 8.28668 0.298662 8.28432C0.245424 8.28196 0.193674 8.26603 0.14833 8.23803C0.102986 8.21004 0.0655548 8.17091 0.039593 8.12437C0.0136312 8.07783 1.78821e-06 8.02543 0 7.97214L0 1.09714C1.94584e-06 1.03915 0.0161377 0.98231 0.0466022 0.932971C0.0770666 0.883632 0.120658 0.843742 0.1725 0.817764L0.3125 1.09714L0.1725 0.817764L0.17375 0.817139L0.17625 0.815889L0.184375 0.812139C0.229682 0.789574 0.275529 0.768109 0.321875 0.747764C0.862806 0.505519 1.4287 0.323386 2.00937 0.204639H2.00875ZM0.625 1.29714V7.48964C1.15375 7.27526 1.84 7.06964 2.54625 6.99714C3.26062 6.92339 4.03813 6.98276 4.6875 7.34714V1.23339C4.02313 0.652764 3.04313 0.635889 2.13125 0.818389C1.61366 0.924285 1.10875 1.08477 0.625 1.29714Z" fill="#495057"/>
<path fill-rule="evenodd" clip-rule="evenodd" d="M7.99125 0.204639C6.9925 0.00463884 5.6775 -0.0216112 4.77875 0.875889C4.74975 0.904963 4.72676 0.939469 4.71111 0.977432C4.69545 1.0154 4.68743 1.05607 4.6875 1.09714V7.97214C4.68739 8.03403 4.70566 8.09455 4.73999 8.14605C4.77432 8.19754 4.82316 8.23768 4.88034 8.26138C4.93751 8.28508 5.00043 8.29127 5.06112 8.27916C5.12181 8.26706 5.17754 8.2372 5.22125 8.19339C5.74813 7.66589 6.54313 7.53151 7.39 7.61839C8.23 7.70589 9.0525 8.00401 9.5475 8.25151C9.59514 8.27539 9.6481 8.28668 9.70134 8.28432C9.75458 8.28196 9.80633 8.26603 9.85167 8.23803C9.89701 8.21004 9.93445 8.17091 9.96041 8.12437C9.98637 8.07783 10 8.02543 10 7.97214V1.09714C10 1.03915 9.98386 0.98231 9.9534 0.932971C9.92293 0.883632 9.87934 0.843742 9.8275 0.817764L9.6875 1.09714L9.8275 0.817764L9.82625 0.817139L9.82375 0.815889L9.81563 0.812139L9.78625 0.797764C9.62229 0.721206 9.45573 0.65033 9.28688 0.585264C8.86635 0.422548 8.43297 0.29523 7.99125 0.204639ZM9.375 1.29714V7.48964C8.84625 7.27526 8.16 7.06964 7.45375 6.99714C6.73938 6.92339 5.96188 6.98276 5.3125 7.34714V1.23339C5.97688 0.652764 6.95688 0.635889 7.86875 0.818389C8.38635 0.924276 8.89125 1.08476 9.375 1.29714Z" fill="#495057"/>
</svg>
