<svg width="447" height="447" viewBox="0 0 447 447" fill="none" xmlns="http://www.w3.org/2000/svg">
<path d="M220.874 446.92C340.877 446.92 438.159 392.64 438.159 325.681C438.159 258.723 340.877 204.443 220.874 204.443C100.871 204.443 3.58887 258.723 3.58887 325.681C3.58887 392.64 100.871 446.92 220.874 446.92Z" fill="#F5F5F5"/>
<path d="M220.874 319.335C238.955 319.335 253.613 310.649 253.613 299.935C253.613 289.221 238.955 280.535 220.874 280.535C202.793 280.535 188.135 289.221 188.135 299.935C188.135 310.649 202.793 319.335 220.874 319.335Z" fill="#E0E0E0"/>
<path d="M342.968 371.177C371.551 371.177 394.721 357.452 394.721 340.521C394.721 323.59 371.551 309.864 342.968 309.864C314.385 309.864 291.214 323.59 291.214 340.521C291.214 357.452 314.385 371.177 342.968 371.177Z" fill="#E0E0E0"/>
<path d="M89.005 374.491C117.588 374.491 140.759 360.765 140.759 343.834C140.759 326.903 117.588 313.178 89.005 313.178C60.4223 313.178 37.2515 326.903 37.2515 343.834C37.2515 360.765 60.4223 374.491 89.005 374.491Z" fill="#E0E0E0"/>
<path d="M420.263 318.736L410.488 314.634C409.26 305.965 408.552 297.227 408.368 288.468C408.368 272.082 418.318 252.044 430.942 255.397C443.567 258.75 427.383 277.082 424.756 291.243C422.13 305.403 420.263 318.736 420.263 318.736Z" fill="#E8417C"/>
<path opacity="0.3" d="M420.263 318.736L410.488 314.634C409.26 305.965 408.552 297.227 408.368 288.468C408.368 272.082 418.318 252.044 430.942 255.397C443.567 258.75 427.383 277.082 424.756 291.243C422.13 305.403 420.263 318.736 420.263 318.736Z" fill="black"/>
<path d="M415.526 317.468C415.633 317.453 415.73 317.396 415.795 317.308C415.861 317.22 415.89 317.109 415.876 316.999C411.217 281.074 426.964 261.115 427.12 260.945C427.19 260.859 427.223 260.749 427.213 260.637C427.203 260.526 427.15 260.423 427.066 260.352C426.983 260.28 426.874 260.246 426.766 260.256C426.657 260.266 426.557 260.321 426.488 260.407C426.332 260.606 410.352 280.804 415.059 317.109C415.066 317.164 415.084 317.218 415.112 317.266C415.139 317.314 415.176 317.356 415.219 317.389C415.263 317.423 415.312 317.447 415.365 317.461C415.418 317.474 415.472 317.477 415.526 317.468Z" fill="white"/>
<path d="M425.281 321.131L420.175 318.756C418.646 310.684 418.878 302.365 420.856 294.396C424.134 281.483 435.047 273.519 440.542 274.837C447.263 276.443 447.914 282.82 445.95 287.261C443.606 292.52 427.441 306.76 425.281 321.131Z" fill="#E8417C"/>
<path opacity="0.1" d="M425.281 321.131L420.175 318.756C418.646 310.684 418.878 302.365 420.856 294.396C424.134 281.483 435.047 273.519 440.542 274.837C447.263 276.443 447.914 282.82 445.95 287.261C443.606 292.52 427.441 306.76 425.281 321.131Z" fill="black"/>
<path d="M422.626 320.302C422.735 320.29 422.836 320.233 422.905 320.146C422.974 320.058 423.007 319.945 422.996 319.833C420.7 297.04 440.085 279.517 440.289 279.347C440.363 279.266 440.404 279.159 440.404 279.048C440.404 278.937 440.363 278.83 440.289 278.748C440.251 278.709 440.206 278.677 440.156 278.655C440.105 278.634 440.052 278.623 439.997 278.623C439.943 278.623 439.889 278.634 439.839 278.655C439.789 278.677 439.744 278.709 439.705 278.748C439.501 278.928 419.806 296.711 422.13 319.963C422.154 320.075 422.218 320.172 422.311 320.236C422.404 320.299 422.517 320.323 422.626 320.302Z" fill="white"/>
<path d="M32.1845 309.555L38.8956 305.623C38.8956 305.623 42.1053 287.451 39.7029 271.823C36.3182 249.869 21.7385 242.274 16.4474 244.46C11.1563 246.645 9.91132 253.152 19.4722 265.845C25.1135 273.33 32.3693 289.167 32.1845 309.555Z" fill="#E8417C"/>
<g opacity="0.15">
<path opacity="0.15" d="M32.1845 309.555L38.8956 305.623C38.8956 305.623 42.1053 287.451 39.7029 271.823C36.3182 249.869 21.7385 242.274 16.4474 244.46C11.1563 246.645 9.91132 253.152 19.4722 265.845C25.1135 273.33 32.3693 289.167 32.1845 309.555Z" fill="black"/>
</g>
<path d="M34.6159 300.833H34.5479C34.4863 300.824 34.427 300.803 34.3734 300.771C34.3199 300.739 34.2732 300.696 34.236 300.645C34.1989 300.593 34.172 300.535 34.1571 300.473C34.1422 300.411 34.1395 300.347 34.1491 300.284C36.9113 279.717 28.858 257.184 19.7931 248.102C19.7368 248.06 19.69 248.006 19.6558 247.944C19.6217 247.882 19.6009 247.813 19.595 247.741C19.5891 247.67 19.5982 247.599 19.6216 247.531C19.645 247.464 19.6823 247.403 19.7308 247.351C19.7794 247.3 19.8381 247.26 19.903 247.234C19.9678 247.208 20.0374 247.197 20.1069 247.201C20.1765 247.205 20.2444 247.224 20.306 247.258C20.3676 247.291 20.4216 247.337 20.4642 247.394C29.6847 256.595 37.9034 279.547 35.1023 300.404C35.0857 300.524 35.0273 300.633 34.9378 300.712C34.8484 300.791 34.734 300.834 34.6159 300.833Z" fill="white"/>
<path d="M13.5877 320.582C12.5275 321.201 10.3488 319.843 9.51234 319.265C8.07757 318.25 6.9192 316.876 6.14705 315.273C5.28474 313.463 4.99242 311.423 5.31059 309.435C5.47896 308.384 5.71947 307.347 6.03033 306.331L6.87652 303.338C7.2099 302.378 7.35533 301.361 7.30447 300.344C7.05159 298.278 5.26196 296.841 3.64739 295.594C1.84803 294.216 -0.00968825 292.4 3.80274e-05 289.915C0.125534 287.99 0.875371 286.163 2.13009 284.726C3.27779 283.219 4.6492 281.892 5.69964 280.305C6.523 279.192 6.94567 277.82 6.89597 276.423C6.78455 275.573 6.50664 274.755 6.07896 274.018C5.09501 272.484 4.23619 270.868 3.51123 269.188C2.91792 267.452 3.00546 265.296 4.32823 264.049C4.91688 263.598 5.58751 263.272 6.30072 263.09C7.01392 262.908 7.75532 262.875 8.48135 262.991C9.86241 263.158 11.1907 263.635 12.3719 264.388C16.2137 266.574 18.4022 271.244 22.4775 272.931C24.091 273.446 25.7348 273.856 27.399 274.158C28.2343 274.317 29.0277 274.654 29.7281 275.147C30.4284 275.641 31.02 276.279 31.4646 277.022C32.9624 280.086 30.1904 283.858 31.2408 287.111C32.2135 289.985 34.8979 291.103 36.425 293.688C37.0509 294.83 37.3032 296.149 37.1447 297.45C37.0089 299.651 36.4849 301.808 35.5982 303.817C34.6005 305.814 33.4594 307.732 32.1843 309.555C32.1259 309.625 13.753 320.462 13.5877 320.582Z" fill="#E8417C"/>
<path d="M24.4715 314.634C24.4077 314.632 24.3449 314.616 24.2869 314.589C24.2288 314.561 24.1766 314.522 24.1332 314.474C24.0899 314.426 24.0562 314.369 24.0341 314.308C24.0121 314.246 24.0021 314.181 24.0047 314.115C24.7925 294.656 15.8541 273.2 9.3569 266.913C9.2684 266.822 9.21875 266.698 9.21875 266.569C9.21875 266.44 9.2684 266.316 9.3569 266.225C9.44781 266.133 9.57003 266.082 9.69732 266.082C9.82462 266.082 9.94684 266.133 10.0377 266.225C16.6224 272.562 25.7554 294.416 24.9481 314.165C24.9431 314.291 24.8907 314.411 24.8018 314.498C24.713 314.586 24.5946 314.634 24.4715 314.634Z" fill="white"/>
<path d="M21.6312 291.632H21.4853C16.9914 290.364 12.377 289.598 7.72264 289.347C7.59366 289.347 7.46997 289.294 7.37877 289.2C7.28756 289.107 7.23633 288.98 7.23633 288.848C7.23633 288.715 7.28756 288.588 7.37877 288.495C7.46997 288.401 7.59366 288.349 7.72264 288.349C12.4595 288.601 17.1557 289.381 21.7285 290.674C21.7885 290.692 21.8445 290.722 21.8931 290.763C21.9418 290.803 21.9822 290.853 22.012 290.91C22.0418 290.966 22.0605 291.028 22.0669 291.092C22.0733 291.156 22.0674 291.221 22.0495 291.283C22.0211 291.377 21.9663 291.46 21.8918 291.522C21.8174 291.584 21.7267 291.622 21.6312 291.632Z" fill="white"/>
<path d="M368.548 334.194L359.483 333.126L357.139 314.385L368.217 317.758L368.548 334.194Z" fill="#B16668"/>
<path d="M348.687 349.482C348.556 349.851 348.502 350.245 348.529 350.637C348.556 351.029 348.663 351.41 348.843 351.757C349.815 352.915 352.325 354.272 355.748 354.522C359.026 354.761 361.944 354.312 363.86 353.065C364.693 352.623 365.406 351.976 365.936 351.182C366.466 350.387 366.795 349.471 366.895 348.514C367.079 346.608 366.895 344.762 367.76 343.295C368.626 341.828 369.881 340.401 370.163 339.662C370.499 338.388 370.499 337.045 370.163 335.771L348.687 349.482Z" fill="#263238"/>
<path d="M357.645 332.797C357.616 333.52 357.488 334.236 357.266 334.922C356.764 336.4 356.092 337.811 355.262 339.124C354.855 339.821 354.4 340.488 353.9 341.12C352.928 342.327 351.683 343.325 350.632 344.483C349.518 345.574 348.804 347.026 348.609 348.594C348.473 351.229 352.558 352.127 354.708 352.516C357.026 352.932 359.406 352.809 361.672 352.157C362.862 351.839 363.937 351.175 364.768 350.246C365.6 349.317 366.152 348.161 366.36 346.918C366.486 346.179 366.438 345.431 366.525 344.702C366.808 343.02 367.493 341.436 368.519 340.092C369.115 339.316 369.627 338.476 370.046 337.587C370.717 335.96 370.182 334.124 369.754 332.507C369.385 331.1 368.937 329.514 368.451 329.623C368.451 330.352 368.451 330.452 367.974 330.941C367.498 331.43 367.313 332.507 366.632 333.056C366.849 332.448 367.009 331.82 367.109 331.18C367.151 330.924 367.099 330.661 366.963 330.442C366.737 330.234 366.467 330.084 366.175 330.003C365.163 329.655 364.121 329.411 363.063 329.274C361.618 329.105 360.159 329.105 358.715 329.274C358.414 329.329 358.142 329.492 357.947 329.733C357.772 329.999 357.677 330.311 357.674 330.631C357.626 331.011 357.664 332.098 357.645 332.797Z" fill="#455A64"/>
<path d="M354.912 339.683C355.885 338.944 359.318 338.934 360.485 339.064C361.675 339.168 362.819 339.58 363.812 340.262C363.957 340.368 364.134 340.418 364.312 340.403C364.49 340.389 364.657 340.31 364.784 340.182C364.858 340.107 364.915 340.016 364.951 339.917C364.988 339.817 365.003 339.711 364.996 339.605C364.988 339.498 364.958 339.395 364.909 339.302C364.859 339.209 364.79 339.127 364.706 339.064C363.616 338.239 362.322 337.744 360.972 337.637C359.287 337.51 357.593 337.611 355.933 337.936C355.933 337.936 354.63 338.805 354.912 339.683Z" fill="#F5F5F5"/>
<path d="M352.713 342.417C353.919 341.688 357.577 341.788 358.753 341.918C359.92 342.04 361.034 342.478 361.983 343.185C362.129 343.289 362.305 343.338 362.483 343.324C362.66 343.309 362.827 343.232 362.955 343.105C363.029 343.03 363.086 342.94 363.122 342.84C363.159 342.741 363.174 342.634 363.166 342.528C363.159 342.422 363.129 342.319 363.08 342.225C363.03 342.132 362.961 342.051 362.877 341.988C361.282 341.139 359.541 340.618 357.752 340.451C354.834 340.241 354.124 340.84 354.124 340.84C353.789 340.978 353.489 341.192 353.245 341.465C353.001 341.737 352.819 342.063 352.713 342.417Z" fill="#F5F5F5"/>
<path d="M362.119 334.813C360.473 334.62 358.808 334.724 357.197 335.122C356.692 335.411 356.351 336.24 356.682 336.449C358.151 336.043 359.676 335.887 361.195 335.99C362.273 336.101 363.325 336.398 364.307 336.868C364.56 336.988 364.852 337.138 365.105 337.288C365.186 337.341 365.278 337.375 365.373 337.389C365.468 337.402 365.566 337.395 365.658 337.366C365.75 337.338 365.835 337.289 365.908 337.224C365.98 337.159 366.038 337.078 366.077 336.988C366.147 336.841 366.16 336.673 366.115 336.516C366.07 336.359 365.97 336.225 365.834 336.14C364.702 335.43 363.435 334.978 362.119 334.813Z" fill="#F5F5F5"/>
<path d="M334.749 325.672L326.131 323.207V305.334L336.821 305.813L334.749 325.672Z" fill="#B16668"/>
<path d="M307.924 335.241C307.681 336.012 307.726 336.848 308.051 337.587C308.372 338.265 311.864 340.291 316.571 339.962C320.058 339.705 323.415 338.499 326.297 336.469C328.087 335.251 329.954 335.022 332.289 334.892C334.623 334.762 337.677 333.555 338.193 332.437C338.455 331.436 338.428 330.379 338.115 329.394L307.924 335.241Z" fill="#263238"/>
<path d="M326.89 320.173L326.521 320.093C326.316 320.044 326.103 320.044 325.898 320.093C325.672 320.17 325.47 320.308 325.314 320.492C324.855 321.1 324.454 321.751 324.118 322.438C323.146 324.085 321.054 325.432 318.798 326.7C317.261 327.548 315.754 328.206 314.168 328.935C312.583 329.663 310.394 330.142 309.13 331.021C307.282 332.298 307.039 335.501 309.13 336.769C310.939 337.866 315.724 339.054 320.733 337.597C323.457 336.799 326.491 333.815 330.071 333.525C332.347 333.336 336.655 332.687 338.124 330.911C338.669 330.122 337.939 327.628 337.346 325.472C336.694 323.117 336.081 319.485 335.323 319.654C335.329 319.823 335.297 319.99 335.227 320.143C335.158 320.296 335.054 320.429 334.924 320.532C334.642 320.832 334.263 321.021 333.951 321.291C333.42 321.827 332.992 322.46 332.687 323.157C332.563 323.467 332.336 323.722 332.045 323.875C331.656 324.015 331.374 323.776 331.072 323.616C330.645 323.415 330.162 323.38 329.711 323.516C329.758 323.048 329.839 322.585 329.954 322.129C329.997 321.986 329.997 321.833 329.954 321.69C329.899 321.545 329.795 321.425 329.662 321.351C328.829 320.764 327.884 320.362 326.89 320.173Z" fill="#455A64"/>
<path d="M320.957 325.392C321.12 325.069 321.359 324.794 321.653 324.591C321.948 324.389 322.287 324.266 322.64 324.234C323.671 324.035 325.499 324.823 326.637 325.781C326.746 325.87 326.831 325.985 326.886 326.116C326.941 326.247 326.964 326.389 326.952 326.532C326.941 326.674 326.895 326.81 326.82 326.93C326.745 327.05 326.642 327.149 326.52 327.218C326.368 327.307 326.191 327.344 326.017 327.324C325.842 327.305 325.678 327.229 325.548 327.108C324.292 325.947 322.646 325.331 320.957 325.392Z" fill="#F5F5F5"/>
<path d="M317.738 327.238C317.963 326.911 318.262 326.645 318.609 326.46C318.956 326.276 319.341 326.18 319.732 326.181C321.331 326.253 322.867 326.843 324.118 327.867C324.221 327.955 324.301 328.066 324.352 328.192C324.404 328.319 324.424 328.456 324.413 328.592C324.401 328.728 324.358 328.86 324.286 328.975C324.215 329.09 324.117 329.186 324.002 329.254C323.85 329.348 323.673 329.388 323.497 329.368C323.321 329.348 323.157 329.27 323.029 329.145C322.341 328.443 321.509 327.907 320.593 327.578C319.678 327.248 318.702 327.132 317.738 327.238Z" fill="#F5F5F5"/>
<path d="M314.246 328.895C314.503 328.594 314.82 328.353 315.176 328.189C315.532 328.026 315.918 327.943 316.308 327.947C317.848 328.044 319.318 328.638 320.51 329.643C320.612 329.732 320.692 329.844 320.744 329.971C320.795 330.098 320.816 330.236 320.804 330.373C320.793 330.51 320.749 330.642 320.678 330.758C320.606 330.874 320.509 330.971 320.393 331.041C320.242 331.134 320.064 331.174 319.889 331.154C319.713 331.134 319.549 331.056 319.42 330.931C318.77 330.204 317.965 329.642 317.067 329.288C316.169 328.935 315.203 328.8 314.246 328.895Z" fill="#F5F5F5"/>
<path d="M366.564 209.063C367.157 227.495 367.196 267.412 367.196 267.412C367.381 269.707 367.575 273.779 367.741 282.042C367.984 294.017 368.548 323.586 368.548 323.586C368.548 323.586 362.975 326.27 357.849 324.085C357.849 324.085 350.729 282.511 349.271 270.655C347.996 260.307 345.555 236.037 345.555 236.037L342.19 266.843C342.19 266.843 342.19 274.827 341.733 281.872C341.353 287.361 336.159 315.632 336.159 315.632C332.767 316.557 329.185 316.435 325.859 315.283C325.859 315.283 325.392 271.883 325.295 266.843C325.188 261.115 326.628 199.184 326.628 199.184L366.564 209.063Z" fill="#455A64"/>
<path d="M345.574 236.038L344.291 225.589C340.145 224.502 336.224 222.656 332.716 220.141C332.716 220.141 335.187 223.534 342.443 227.126L344.077 236.606L342.229 266.844L345.574 236.038Z" fill="#37474F"/>
<path d="M326.171 157.341C323.545 160.873 310.035 179.894 310.035 179.894L297.556 169.974C294.638 167.629 293.772 164.556 291.944 162.43C290.115 160.305 288.112 159.796 286.059 158.019C284.007 156.243 283.219 154.896 282.519 156.413C281.819 157.929 284.085 160.574 284.464 161.213C284.844 161.851 287.188 163.378 284.095 163.209C281.002 163.039 275.049 159.416 273.61 158.748C272.17 158.079 272.131 159.905 272.812 161.103C273.493 162.3 273.153 165.633 273.95 167.779C274.748 169.925 276.148 171.242 278.998 172.689C281.653 174.046 288.112 174.894 290.213 176.251C294.823 181.101 303.518 190.153 305.716 191.829C308.741 194.134 311.669 196.26 316.298 191.689C320.928 187.119 334.341 169.186 334.341 169.186L337.113 152.132C332.561 151.962 329.341 153.08 326.171 157.341Z" fill="#B16668"/>
<path d="M310.035 179.894C311.746 181.191 313.526 184.105 313.692 185.413C313.672 184.174 313.402 182.953 312.9 181.826C312.398 180.7 311.674 179.692 310.774 178.866L310.035 179.894Z" fill="#9A4A4D"/>
<path d="M338.182 151.712C338.182 151.712 331.763 151.633 328.942 153.658C326.122 155.684 324.031 158.648 319.45 165.484C315.433 171.471 313.487 174.345 313.487 174.345C316.117 178.336 319.946 181.336 324.39 182.888L336.373 167.659L338.182 151.712Z" fill="#37474F"/>
<path d="M350.603 151.393C354.241 151.752 359.357 151.792 362.955 152.171C365.455 153.229 370.279 157.54 369.919 160.614C368.577 172.1 365.864 190.931 365.864 190.931L366.758 210.89C361.749 216.019 338.309 218.025 326.229 209.822C326.229 209.822 326.618 173.976 327.454 167.909C328.943 157.041 330.246 153.01 335.712 152.052C341.178 151.094 350.603 151.393 350.603 151.393Z" fill="#603E94"/>
<path d="M371.203 157.63C373.829 161.162 387.349 180.183 387.349 180.183L399.838 170.264C402.755 167.908 403.621 164.835 405.45 162.719C407.278 160.604 409.282 160.085 411.334 158.308C413.386 156.532 414.174 155.185 414.874 156.692C415.575 158.199 413.308 160.863 412.929 161.502C412.55 162.14 410.206 163.667 413.299 163.498C416.392 163.328 422.334 159.695 423.784 159.027C425.233 158.358 425.252 160.184 424.581 161.382C423.91 162.579 424.231 165.923 423.443 168.068C422.655 170.214 421.245 171.521 418.395 172.978C415.74 174.335 409.282 175.183 407.181 176.541C402.571 181.381 393.875 190.442 391.677 192.108C388.652 194.413 385.725 196.539 381.095 191.979C376.465 187.418 365.883 173.217 365.883 173.217L360.281 152.421C364.823 152.251 368.042 153.369 371.203 157.63Z" fill="#B16668"/>
<path d="M387.349 180.183C385.637 181.481 383.857 184.395 383.692 185.702C383.711 184.462 383.98 183.239 384.482 182.11C384.984 180.982 385.708 179.972 386.61 179.146L387.349 180.183Z" fill="#9A4A4D"/>
<path d="M359.639 151.922C359.639 151.922 365.406 151.553 368.441 153.918C371.174 156.073 373.304 158.907 377.934 165.743C381.951 171.731 383.896 174.605 383.896 174.605C381.261 178.594 377.43 181.593 372.983 183.147L364.823 172.828C360.572 167.3 356.361 158.887 359.639 151.922Z" fill="#37474F"/>
<path d="M351.507 124.369C351.527 126.659 350.884 128.902 349.66 130.817C348.436 132.731 346.687 134.231 344.632 135.125C342.578 136.019 340.312 136.268 338.12 135.841C335.927 135.414 333.908 134.329 332.317 132.724C330.725 131.119 329.633 129.066 329.179 126.825C328.725 124.583 328.929 122.254 329.765 120.131C330.601 118.008 332.032 116.188 333.876 114.899C335.721 113.611 337.896 112.913 340.128 112.893C341.609 112.88 343.079 113.166 344.453 113.736C345.827 114.306 347.077 115.147 348.134 116.213C349.191 117.279 350.033 118.547 350.611 119.947C351.19 121.346 351.495 122.849 351.507 124.369Z" fill="#263238"/>
<path d="M359.804 132.532C359.804 132.532 358.044 141.364 357.324 142.811C356.845 143.71 356.047 144.385 355.097 144.697L355.165 138.49L359.804 132.532Z" fill="#263238"/>
<path d="M357.402 119.928C358.039 119.844 358.687 119.911 359.296 120.124C359.905 120.337 360.458 120.69 360.913 121.156C362.43 122.722 361.632 127.672 359.804 132.532L356.361 132.971L357.402 119.928Z" fill="#263238"/>
<path d="M355.33 132.981C356.021 133.4 356.994 131.983 357.84 131.105C358.686 130.227 361.448 128.91 362.868 131.893C364.288 134.877 361.701 138.999 359.522 139.717C355.758 140.975 355.165 138.49 355.165 138.49L355.009 152.88C350.38 159.097 337.356 158.688 342.725 152.201V147.95C341.048 148.239 339.346 148.342 337.648 148.259C334.866 147.85 333.106 145.615 332.231 142.541C330.84 137.612 330.285 133.62 331.355 123.87C332.522 113.192 344.612 112.973 351.177 117.134C357.743 121.295 355.33 132.981 355.33 132.981Z" fill="#B16668"/>
<path d="M355.34 134.169C355.68 134.169 356.983 131.913 357.839 131.105C359.016 129.977 357.402 119.928 357.402 119.928C357.806 119.036 357.938 118.04 357.782 117.07C357.626 116.1 357.188 115.201 356.526 114.489C354.883 112.663 352.587 110.438 345.195 111.396C339.914 112.084 334.185 113.831 329.526 111.536C329.111 113.092 329.158 114.739 329.661 116.268C330.163 117.797 331.098 119.137 332.347 120.118C332.347 120.118 334.039 121.215 338.465 121.724C342.545 122 346.641 121.883 350.7 121.375C351.984 121.186 352.266 122.453 352.986 125.936C353.618 128.979 354.173 134.159 355.34 134.169Z" fill="#263238"/>
<path d="M357.402 120.707L361.555 118.372C361.42 118.083 361.23 117.826 360.995 117.616C360.76 117.406 360.486 117.247 360.189 117.149C359.892 117.051 359.579 117.015 359.269 117.046C358.959 117.076 358.658 117.17 358.384 117.324C357.828 117.65 357.415 118.183 357.232 118.813C357.049 119.443 357.11 120.122 357.402 120.707Z" fill="#263238"/>
<path d="M342.696 147.95C342.696 147.95 348.882 146.613 351.031 145.415C352.298 144.724 353.332 143.656 353.998 142.352C353.684 143.651 353.118 144.873 352.335 145.944C350.769 148.04 342.715 149.636 342.715 149.636L342.696 147.95Z" fill="#9A4A4D"/>
<path d="M342.199 131.963C342.197 132.133 342.227 132.302 342.288 132.46C342.35 132.618 342.441 132.762 342.557 132.883C342.672 133.005 342.81 133.101 342.963 133.168C343.115 133.235 343.279 133.269 343.444 133.271C343.703 133.281 343.958 133.211 344.178 133.07C344.397 132.93 344.571 132.725 344.675 132.482C344.78 132.24 344.812 131.97 344.766 131.709C344.72 131.448 344.599 131.207 344.418 131.017C344.237 130.827 344.005 130.697 343.752 130.644C343.498 130.591 343.235 130.617 342.996 130.719C342.757 130.821 342.554 130.994 342.412 131.216C342.27 131.438 342.196 131.698 342.199 131.963Z" fill="#263238"/>
<path d="M345.886 127.582L343.124 126.295C342.963 126.683 342.954 127.119 343.099 127.513C343.244 127.907 343.532 128.228 343.902 128.411C344.085 128.494 344.282 128.538 344.482 128.541C344.682 128.544 344.88 128.506 345.065 128.429C345.25 128.351 345.419 128.237 345.56 128.091C345.701 127.946 345.812 127.773 345.886 127.582Z" fill="#263238"/>
<path d="M334.068 126.016L331.666 127.952C331.78 128.119 331.926 128.262 332.095 128.369C332.264 128.476 332.454 128.547 332.651 128.576C332.848 128.605 333.049 128.592 333.241 128.538C333.433 128.484 333.612 128.389 333.767 128.261C334.086 127.996 334.295 127.617 334.351 127.199C334.407 126.782 334.306 126.359 334.068 126.016Z" fill="#263238"/>
<path d="M332.619 131.654C332.63 131.892 332.71 132.122 332.847 132.314C332.985 132.507 333.174 132.653 333.393 132.736C333.611 132.819 333.848 132.834 334.074 132.779C334.301 132.725 334.506 132.604 334.666 132.43C334.826 132.257 334.933 132.039 334.973 131.804C335.013 131.569 334.985 131.327 334.892 131.108C334.799 130.89 334.646 130.704 334.451 130.573C334.256 130.443 334.028 130.375 333.796 130.376C333.636 130.38 333.48 130.417 333.334 130.483C333.188 130.549 333.057 130.645 332.948 130.764C332.838 130.882 332.753 131.022 332.696 131.175C332.64 131.328 332.614 131.491 332.619 131.654Z" fill="#263238"/>
<path d="M339.058 130.626L338.358 138.26L334.516 136.743L339.058 130.626Z" fill="#9A4A4D"/>
<path d="M341.168 141.124C341.167 141.367 341.235 141.606 341.365 141.809C341.496 142.012 341.682 142.171 341.9 142.265C342.119 142.36 342.36 142.385 342.592 142.339C342.825 142.293 343.039 142.177 343.207 142.006C343.376 141.834 343.49 141.616 343.537 141.377C343.584 141.139 343.561 140.892 343.471 140.667C343.381 140.442 343.227 140.25 343.03 140.114C342.834 139.979 342.602 139.907 342.365 139.907C342.049 139.907 341.746 140.035 341.522 140.263C341.298 140.491 341.171 140.8 341.168 141.124Z" fill="#9A4A4D"/>
<path d="M371.534 59.8229C373.389 60.2467 375.176 60.9353 376.844 61.8687C378.44 62.7498 379.869 63.9156 381.066 65.3115C382.217 66.664 383.067 68.2578 383.556 69.9819C384.067 71.8094 384.107 73.742 383.672 75.5902C383.384 77.0574 382.816 78.4514 381.999 79.6917C381.266 80.7588 380.385 81.7103 379.383 82.5159C378.403 83.2963 377.358 83.9875 376.261 84.5816L373.168 86.2581C372.235 86.758 371.349 87.346 370.522 88.0145C369.775 88.5959 369.203 89.3808 368.869 90.2798C368.701 90.6806 368.428 91.026 368.081 91.2777C367.914 91.4084 367.721 91.4987 367.516 91.5419C367.31 91.5851 367.098 91.5801 366.894 91.5272L362.343 90.5292C362.124 90.482 361.917 90.3906 361.733 90.2604C361.55 90.1301 361.393 89.9637 361.273 89.7708C361.145 89.5902 361.061 89.3812 361.028 89.161C360.994 88.9408 361.011 88.7155 361.078 88.5034C361.457 87.0517 362.119 85.6939 363.023 84.5117C363.838 83.4684 364.78 82.5361 365.825 81.7375C366.834 80.9798 367.904 80.312 369.025 79.7416C370.133 79.1728 371.164 78.6239 372.117 78.0851C372.989 77.6126 373.808 77.0438 374.559 76.3886C375.214 75.8227 375.668 75.051 375.852 74.1931C376.02 73.4439 376.009 72.664 375.82 71.9201C375.63 71.1763 375.267 70.4907 374.763 69.922C373.506 68.5118 371.825 67.5739 369.987 67.2575C366.59 66.4791 363.717 67.6534 361.37 70.7802C361.145 71.1226 360.857 71.4173 360.524 71.6484C360.343 71.7427 360.146 71.7992 359.944 71.8147C359.742 71.8301 359.539 71.8041 359.347 71.7382L354.484 70.6305C354.312 70.5966 354.149 70.528 354.004 70.4286C353.859 70.3292 353.734 70.2011 353.638 70.0517C353.532 69.8988 353.46 69.7238 353.428 69.5391C353.396 69.3545 353.405 69.1648 353.453 68.9839C353.862 67.4502 354.63 66.0422 355.69 64.8824C356.88 63.5347 358.292 62.4131 359.862 61.5693C361.583 60.6424 363.439 60.0088 365.358 59.6932C367.405 59.3236 369.503 59.3677 371.534 59.8229ZM366.398 95.2894C366.612 95.3362 366.814 95.4277 366.991 95.5582C367.168 95.6887 367.318 95.8554 367.429 96.0478C367.549 96.2341 367.631 96.4433 367.669 96.6629C367.708 96.8825 367.702 97.1078 367.653 97.3252L366.486 102.734C366.388 103.166 366.131 103.542 365.767 103.782C365.404 104.022 364.964 104.108 364.541 104.021L359.386 102.854C359.174 102.807 358.973 102.717 358.796 102.588C358.618 102.459 358.468 102.295 358.355 102.105C358.234 101.92 358.151 101.71 358.113 101.491C358.074 101.271 358.08 101.045 358.131 100.828L359.298 95.4091C359.396 94.9773 359.654 94.6015 360.017 94.3613C360.38 94.121 360.82 94.0351 361.244 94.1218L366.398 95.2894Z" fill="#603E94"/>
<path d="M386.823 110.708C388.11 110.49 389.42 110.463 390.714 110.628C391.958 110.773 393.167 111.144 394.283 111.725C395.35 112.285 396.285 113.075 397.026 114.041C397.812 115.076 398.318 116.304 398.495 117.603C398.697 118.614 398.697 119.656 398.495 120.667C398.293 121.546 397.965 122.39 397.522 123.172C397.089 123.925 396.594 124.639 396.044 125.307L394.478 127.203C394.007 127.77 393.584 128.378 393.214 129.02C392.884 129.59 392.716 130.243 392.727 130.906C392.726 131.217 392.638 131.522 392.474 131.784C392.4 131.909 392.3 132.016 392.18 132.098C392.061 132.179 391.925 132.232 391.784 132.253L388.603 132.792C388.296 132.841 387.982 132.766 387.728 132.582C387.603 132.499 387.499 132.387 387.423 132.255C387.347 132.124 387.302 131.976 387.29 131.824C387.157 130.801 387.233 129.761 387.514 128.77C387.766 127.881 388.136 127.031 388.613 126.245C389.068 125.493 389.586 124.782 390.16 124.12C390.733 123.461 391.249 122.842 391.735 122.244C392.174 121.711 392.555 121.133 392.873 120.517C393.152 119.983 393.251 119.369 393.155 118.771C393.076 118.245 392.874 117.747 392.565 117.319C392.257 116.892 391.852 116.547 391.385 116.316C390.232 115.738 388.923 115.576 387.67 115.857C386.536 116.028 385.481 116.554 384.649 117.363C383.817 118.172 383.248 119.225 383.02 120.377C382.959 120.659 382.847 120.926 382.69 121.166C382.501 121.378 382.24 121.507 381.96 121.525L378.576 122.094C378.335 122.134 378.089 122.081 377.885 121.944C377.778 121.874 377.688 121.78 377.621 121.669C377.554 121.559 377.511 121.435 377.496 121.306C377.378 120.215 377.522 119.112 377.914 118.092C378.336 116.913 378.962 115.821 379.762 114.869C380.635 113.824 381.666 112.931 382.816 112.224C384.043 111.457 385.404 110.941 386.823 110.708ZM392.377 134.847C392.526 134.822 392.679 134.827 392.826 134.863C392.973 134.899 393.111 134.965 393.233 135.057C393.355 135.146 393.458 135.259 393.536 135.389C393.615 135.519 393.667 135.664 393.69 135.815L394.293 139.588C394.318 139.741 394.313 139.897 394.278 140.048C394.243 140.199 394.179 140.341 394.089 140.466C394.004 140.592 393.894 140.699 393.767 140.779C393.64 140.86 393.498 140.913 393.35 140.935L389.751 141.544C389.604 141.568 389.453 141.563 389.307 141.527C389.162 141.491 389.025 141.425 388.905 141.334C388.78 141.248 388.674 141.135 388.594 141.005C388.514 140.874 388.461 140.728 388.438 140.576L387.835 136.793C387.79 136.483 387.868 136.166 388.05 135.914C388.232 135.661 388.505 135.493 388.808 135.446L392.377 134.847Z" fill="#603E94"/>
<g opacity="0.2">
<path opacity="0.2" d="M386.823 110.708C388.11 110.49 389.42 110.463 390.714 110.628C391.958 110.773 393.167 111.144 394.283 111.725C395.35 112.285 396.285 113.075 397.026 114.041C397.812 115.076 398.318 116.304 398.495 117.603C398.697 118.614 398.697 119.656 398.495 120.667C398.293 121.546 397.965 122.39 397.522 123.172C397.089 123.925 396.594 124.639 396.044 125.307L394.478 127.203C394.007 127.77 393.584 128.378 393.214 129.02C392.884 129.59 392.716 130.243 392.727 130.906C392.726 131.217 392.638 131.522 392.474 131.784C392.4 131.909 392.3 132.016 392.18 132.098C392.061 132.179 391.925 132.232 391.784 132.253L388.603 132.792C388.296 132.841 387.982 132.766 387.728 132.582C387.603 132.499 387.499 132.387 387.423 132.255C387.347 132.124 387.302 131.976 387.29 131.824C387.157 130.801 387.233 129.761 387.514 128.77C387.766 127.881 388.136 127.031 388.613 126.245C389.068 125.493 389.586 124.782 390.16 124.12C390.733 123.461 391.249 122.842 391.735 122.244C392.174 121.711 392.555 121.133 392.873 120.517C393.152 119.983 393.251 119.369 393.155 118.771C393.076 118.245 392.874 117.747 392.565 117.319C392.257 116.892 391.852 116.547 391.385 116.316C390.232 115.738 388.923 115.576 387.67 115.857C386.536 116.028 385.481 116.554 384.649 117.363C383.817 118.172 383.248 119.225 383.02 120.377C382.959 120.659 382.847 120.926 382.69 121.166C382.501 121.378 382.24 121.507 381.96 121.525L378.576 122.094C378.335 122.134 378.089 122.081 377.885 121.944C377.778 121.874 377.688 121.78 377.621 121.669C377.554 121.559 377.511 121.435 377.496 121.306C377.378 120.215 377.522 119.112 377.914 118.092C378.336 116.913 378.962 115.821 379.762 114.869C380.635 113.824 381.666 112.931 382.816 112.224C384.043 111.457 385.404 110.941 386.823 110.708ZM392.377 134.847C392.526 134.822 392.679 134.827 392.826 134.863C392.973 134.899 393.111 134.965 393.233 135.057C393.355 135.146 393.458 135.259 393.536 135.389C393.615 135.519 393.667 135.664 393.69 135.815L394.293 139.588C394.318 139.741 394.313 139.897 394.278 140.048C394.243 140.199 394.179 140.341 394.089 140.466C394.004 140.592 393.894 140.699 393.767 140.779C393.64 140.86 393.498 140.913 393.35 140.935L389.751 141.544C389.604 141.568 389.453 141.563 389.307 141.527C389.162 141.491 389.025 141.425 388.905 141.334C388.78 141.248 388.674 141.135 388.594 141.005C388.514 140.874 388.461 140.728 388.438 140.576L387.835 136.793C387.79 136.483 387.868 136.166 388.05 135.914C388.232 135.661 388.505 135.493 388.808 135.446L392.377 134.847Z" fill="black"/>
</g>
<path d="M419.99 121.415C420.279 121.631 420.474 121.954 420.534 122.316C420.594 122.678 420.514 123.049 420.311 123.351L417.743 127.043C417.533 127.34 417.218 127.54 416.865 127.601C416.513 127.663 416.151 127.581 415.857 127.373L412.336 124.808C412.191 124.704 412.067 124.57 411.974 124.416C411.88 124.262 411.818 124.089 411.791 123.91C411.74 123.56 411.82 123.203 412.015 122.912L414.582 119.21C414.791 118.912 415.106 118.711 415.458 118.651C415.8 118.598 416.149 118.684 416.43 118.89L419.99 121.415ZM434.852 96.3768C436.122 97.2959 437.255 98.3983 438.217 99.6501C439.147 100.841 439.861 102.193 440.328 103.642C440.774 105.026 440.923 106.494 440.766 107.943C440.583 109.486 440.013 110.954 439.112 112.204C438.44 113.214 437.581 114.079 436.583 114.749C435.696 115.314 434.733 115.741 433.724 116.016C432.745 116.284 431.746 116.464 430.738 116.555L427.878 116.804C427.024 116.885 426.178 117.038 425.349 117.264C424.608 117.465 423.934 117.872 423.404 118.441C423.149 118.696 422.834 118.878 422.49 118.97C422.323 119.011 422.149 119.013 421.981 118.977C421.813 118.941 421.654 118.867 421.517 118.76L418.405 116.495C418.108 116.276 417.906 115.947 417.841 115.577C417.804 115.403 417.806 115.222 417.848 115.049C417.891 114.876 417.971 114.715 418.084 114.579C418.808 113.605 419.718 112.794 420.759 112.194C421.695 111.667 422.696 111.271 423.735 111.016C424.731 110.769 425.747 110.609 426.769 110.537C427.742 110.478 428.715 110.398 429.61 110.308C430.413 110.237 431.206 110.073 431.973 109.819C432.642 109.61 433.224 109.178 433.626 108.592C433.988 108.083 434.223 107.492 434.311 106.87C434.399 106.247 434.338 105.612 434.132 105.019C433.625 103.548 432.653 102.294 431.37 101.456C429.055 99.7598 426.526 99.7033 423.783 101.287C423.507 101.468 423.2 101.596 422.879 101.666C422.712 101.678 422.544 101.656 422.386 101.601C422.227 101.546 422.081 101.46 421.955 101.347L418.648 98.9315C418.407 98.7635 418.24 98.5058 418.181 98.213C418.153 98.0633 418.157 97.9091 418.192 97.761C418.227 97.6129 418.293 97.4743 418.385 97.3548C419.155 96.3341 420.157 95.5221 421.303 94.9897C422.619 94.3654 424.031 93.9837 425.476 93.8621C427.058 93.7297 428.65 93.8577 430.193 94.2413C431.869 94.6292 433.452 95.3551 434.852 96.3768Z" fill="#603E94"/>
<g opacity="0.6">
<path opacity="0.6" d="M419.99 121.415C420.279 121.631 420.474 121.954 420.534 122.316C420.594 122.678 420.514 123.049 420.311 123.351L417.743 127.043C417.533 127.34 417.218 127.54 416.865 127.601C416.513 127.663 416.151 127.581 415.857 127.373L412.336 124.808C412.191 124.704 412.067 124.57 411.974 124.416C411.88 124.262 411.818 124.089 411.791 123.91C411.74 123.56 411.82 123.203 412.015 122.912L414.582 119.21C414.791 118.912 415.106 118.711 415.458 118.651C415.8 118.598 416.149 118.684 416.43 118.89L419.99 121.415ZM434.852 96.3768C436.122 97.2959 437.255 98.3983 438.217 99.6501C439.147 100.841 439.861 102.193 440.328 103.642C440.774 105.026 440.923 106.494 440.766 107.943C440.583 109.486 440.013 110.954 439.112 112.204C438.44 113.214 437.581 114.079 436.583 114.749C435.696 115.314 434.733 115.741 433.724 116.016C432.745 116.284 431.746 116.464 430.738 116.555L427.878 116.804C427.024 116.885 426.178 117.038 425.349 117.264C424.608 117.465 423.934 117.872 423.404 118.441C423.149 118.696 422.834 118.878 422.49 118.97C422.323 119.011 422.149 119.013 421.981 118.977C421.813 118.941 421.654 118.867 421.517 118.76L418.405 116.495C418.108 116.276 417.906 115.947 417.841 115.577C417.804 115.403 417.806 115.222 417.848 115.049C417.891 114.876 417.971 114.715 418.084 114.579C418.808 113.605 419.718 112.794 420.759 112.194C421.695 111.667 422.696 111.271 423.735 111.016C424.731 110.769 425.747 110.609 426.769 110.537C427.742 110.478 428.715 110.398 429.61 110.308C430.413 110.237 431.206 110.073 431.973 109.819C432.642 109.61 433.224 109.178 433.626 108.592C433.988 108.083 434.223 107.492 434.311 106.87C434.399 106.247 434.338 105.612 434.132 105.019C433.625 103.548 432.653 102.294 431.37 101.456C429.055 99.7598 426.526 99.7033 423.783 101.287C423.507 101.468 423.2 101.596 422.879 101.666C422.712 101.678 422.544 101.656 422.386 101.601C422.227 101.546 422.081 101.46 421.955 101.347L418.648 98.9315C418.407 98.7635 418.24 98.5058 418.181 98.213C418.153 98.0633 418.157 97.9091 418.192 97.761C418.227 97.6129 418.293 97.4743 418.385 97.3548C419.155 96.3341 420.157 95.5221 421.303 94.9897C422.619 94.3654 424.031 93.9837 425.476 93.8621C427.058 93.7297 428.65 93.8577 430.193 94.2413C431.869 94.6292 433.452 95.3551 434.852 96.3768Z" fill="white"/>
</g>
<path d="M106.571 318.986C106.474 315.992 108.575 286.732 108.575 286.732L94.6855 297.071C97.5353 314.515 98.1481 318.636 98.1967 321.49C98.138 321.728 98.1118 321.973 98.1189 322.219C98.1189 325.612 101.864 327.438 104.772 329.703C107.243 331.686 109.876 333.449 112.64 334.972C114.751 336.06 119.05 336.16 119.575 334.763C116.035 331.989 110.89 327.837 108.069 324.674C106.727 323.157 106.678 321.959 106.571 318.986Z" fill="#FFA8A7"/>
<path d="M125.615 338.425C125.773 338.891 125.801 339.392 125.696 339.874C125.591 340.355 125.358 340.797 125.022 341.149C122.471 343.036 119.296 343.811 116.19 343.305C111.775 342.716 109.382 341.429 107.622 339.912C105.861 338.395 103.381 336.259 101.377 335.81C99.7844 335.499 98.2693 334.861 96.9227 333.934C96.3294 333.346 96.4072 330.731 96.4072 330.731L125.615 338.425Z" fill="#263238"/>
<path d="M98.1669 320.662C98.0034 320.667 97.8467 320.731 97.7241 320.842C97.6015 320.953 97.5207 321.105 97.4958 321.271C97.3596 321.989 97.2137 324.085 96.922 325.263C96.4705 327.344 96.3263 329.484 96.494 331.609C96.7372 332.957 99.7523 333.885 101.688 334.603C103.964 335.62 106.076 336.986 107.952 338.655C110.658 340.732 113.889 341.968 117.26 342.217C120.664 342.217 124.496 341.06 125.381 339.443C126.461 337.447 125.614 336.28 120.567 333.875C119.594 333.426 116.258 331.38 115.11 330.641C112.017 328.646 108.953 325.861 107.524 322.329C107.408 321.897 107.155 321.517 106.804 321.251C106.497 321.115 106.158 321.08 105.831 321.151C104.988 321.277 104.168 321.533 103.4 321.91C102.729 322.239 101.766 322.628 101.775 323.516C101.796 323.824 101.862 324.127 101.97 324.414C102.028 324.604 102.077 324.843 101.97 324.953C101.863 325.063 101.629 324.953 101.493 324.813C100.998 324.294 100.546 323.733 100.141 323.137C99.9022 322.832 99.6315 322.554 99.3341 322.309C99.0365 322.136 98.7506 321.942 98.4782 321.73C98.1086 321.46 98.1864 321.081 98.1669 320.662Z" fill="#455A64"/>
<path d="M107.952 338.704C107.067 337.966 106.133 337.237 105.2 336.599C105.2 336.599 111.133 340.301 113.525 338.595C113.969 338.306 114.294 337.859 114.438 337.34C114.581 336.821 114.533 336.266 114.303 335.781C114.303 335.361 118.077 333.555 119.575 333.375C119.993 333.615 120.344 333.805 120.548 333.904C125.596 336.309 126.442 337.467 125.362 339.473C124.477 341.089 121.705 342.357 117.309 342.357C114.449 342.417 109.995 340.421 107.952 338.704Z" fill="#37474F"/>
<path d="M113.885 334.573C117.027 335.861 115.684 336.459 114.809 336.569C113.934 336.679 108.652 333.575 105.423 330.921C102.194 328.266 99.9472 325.203 98.7023 324.205C98.2354 323.835 97.7296 323.376 97.2822 322.947C97.3698 322.239 97.4378 321.59 97.4962 321.251C97.5211 321.085 97.6019 320.933 97.7245 320.822C97.8471 320.711 98.0038 320.647 98.1673 320.642C98.1673 321.061 98.109 321.45 98.4202 321.76C98.6926 321.972 98.9785 322.165 99.2761 322.339C99.5736 322.584 99.8443 322.862 100.083 323.167C100.488 323.763 100.94 324.324 101.435 324.843C104.935 328.88 109.163 332.183 113.885 334.573Z" fill="#263238"/>
<path d="M114.586 336.12C114.514 336.117 114.445 336.089 114.391 336.04C114.359 336.014 114.333 335.983 114.313 335.947C114.294 335.911 114.281 335.872 114.277 335.831C114.272 335.79 114.276 335.748 114.287 335.709C114.298 335.669 114.317 335.633 114.342 335.601C115.082 334.813 115.978 334.196 116.97 333.793C117.961 333.391 119.026 333.211 120.091 333.266C120.174 333.276 120.251 333.319 120.303 333.386C120.356 333.453 120.381 333.539 120.373 333.625C120.363 333.708 120.322 333.784 120.258 333.836C120.195 333.888 120.113 333.913 120.032 333.904C119.071 333.863 118.111 334.029 117.215 334.389C116.319 334.75 115.507 335.299 114.829 336C114.799 336.037 114.762 336.067 114.72 336.087C114.678 336.108 114.632 336.119 114.586 336.12Z" fill="#F5F5F5"/>
<path d="M111.852 334.433C111.778 334.437 111.705 334.412 111.648 334.364C111.592 334.303 111.562 334.222 111.562 334.139C111.562 334.056 111.592 333.975 111.648 333.914C112.389 333.129 113.285 332.515 114.277 332.114C115.268 331.713 116.332 331.534 117.396 331.589C117.478 331.599 117.554 331.641 117.606 331.708C117.658 331.774 117.682 331.859 117.673 331.944C117.664 332.028 117.623 332.106 117.558 332.159C117.493 332.212 117.41 332.237 117.328 332.228C116.366 332.185 115.406 332.349 114.509 332.71C113.613 333.071 112.801 333.62 112.124 334.324C112.091 334.363 112.049 334.394 112.001 334.413C111.954 334.433 111.903 334.439 111.852 334.433Z" fill="#F5F5F5"/>
<path d="M109.11 332.747C109.039 332.748 108.97 332.723 108.915 332.677C108.858 332.617 108.825 332.537 108.825 332.453C108.825 332.369 108.858 332.288 108.915 332.228C109.657 331.443 110.553 330.83 111.545 330.429C112.536 330.028 113.599 329.849 114.663 329.903C114.704 329.907 114.744 329.919 114.78 329.938C114.817 329.958 114.849 329.985 114.875 330.017C114.902 330.05 114.921 330.087 114.933 330.128C114.945 330.168 114.949 330.21 114.945 330.252C114.942 330.294 114.93 330.335 114.911 330.372C114.892 330.41 114.866 330.443 114.834 330.47C114.802 330.497 114.766 330.517 114.727 330.529C114.687 330.542 114.646 330.546 114.605 330.542C113.643 330.498 112.683 330.662 111.787 331.023C110.89 331.384 110.078 331.934 109.401 332.637C109.365 332.679 109.32 332.71 109.269 332.73C109.218 332.749 109.163 332.755 109.11 332.747Z" fill="#F5F5F5"/>
<path d="M106.57 330.881C106.5 330.881 106.431 330.857 106.376 330.811C106.346 330.782 106.322 330.747 106.306 330.708C106.29 330.67 106.282 330.628 106.282 330.586C106.282 330.544 106.29 330.503 106.306 330.464C106.322 330.425 106.346 330.391 106.376 330.362C107.116 329.575 108.013 328.961 109.004 328.56C109.996 328.159 111.06 327.98 112.124 328.036C112.205 328.047 112.279 328.089 112.33 328.154C112.381 328.219 112.405 328.303 112.396 328.386C112.387 328.469 112.345 328.545 112.282 328.597C112.218 328.649 112.137 328.674 112.056 328.665C111.095 328.626 110.136 328.792 109.24 329.153C108.344 329.514 107.531 330.061 106.852 330.761C106.819 330.804 106.776 330.838 106.727 330.859C106.677 330.88 106.623 330.887 106.57 330.881Z" fill="#F5F5F5"/>
<path d="M104.091 329.015C104.021 329.011 103.953 328.987 103.896 328.945C103.838 328.885 103.806 328.804 103.806 328.72C103.806 328.636 103.838 328.556 103.896 328.496C104.698 327.639 105.68 326.982 106.767 326.574C107.854 326.166 109.018 326.018 110.17 326.141C110.211 326.143 110.251 326.154 110.287 326.173C110.324 326.193 110.356 326.22 110.382 326.253C110.408 326.286 110.426 326.324 110.437 326.365C110.447 326.406 110.449 326.448 110.442 326.49C110.432 326.573 110.391 326.649 110.327 326.701C110.264 326.753 110.183 326.778 110.101 326.769C109.055 326.663 107.998 326.798 107.009 327.164C106.02 327.53 105.122 328.118 104.382 328.885C104.348 328.93 104.304 328.966 104.253 328.988C104.202 329.011 104.146 329.02 104.091 329.015Z" fill="#F5F5F5"/>
<path d="M80.4072 300.055L66.3916 299.795C66.5959 309.396 68.084 320.043 68.3369 329.045C68.3369 330.741 68.3369 342.217 68.9204 345.71C69.8931 350.949 75.9234 350.241 76.2443 347.107C76.5653 343.974 75.8553 330.572 75.8747 329.145C75.8164 323.377 78.4522 313.627 79.843 303.258C79.9014 302.789 80.3391 300.554 80.4072 300.055Z" fill="#FFA8A7"/>
<path d="M78.5198 349.282C78.7801 351.684 78.4456 354.114 77.5472 356.348C77.1024 357.235 76.3847 357.947 75.5053 358.372C74.626 358.798 73.6343 358.914 72.6841 358.703C70.6124 358.393 67.8793 357.256 67.0428 354.711C66.2508 352.367 65.9718 349.873 66.2258 347.406L78.5198 349.282Z" fill="#263238"/>
<path d="M68.2981 327.947C67.4713 328.096 67.627 332.238 67.5492 336.399C67.4616 340.87 66.3625 342.826 66.2556 346.488C66.1291 350.68 66.5279 352.476 68.2008 354.851C69.8737 357.226 75.0967 359.142 77.2073 355.31C78.9289 352.187 78.6955 348.943 78.1022 344.832C77.5089 340.72 77.042 337.607 76.8864 334.354C76.7308 331.1 76.6627 328.216 75.9138 327.947C75.9138 328.406 75.9138 328.995 75.9138 329.444C75.9138 329.893 75.9818 331.44 75.515 331.539C75.443 331.154 75.4007 330.764 75.3885 330.372C75.4102 330.009 75.2953 329.652 75.0676 329.374C74.7862 329.161 74.4445 329.049 74.0949 329.054C73.2618 328.958 72.4239 328.912 71.5856 328.915C71.1673 328.915 70.7394 328.915 70.3309 328.985C69.9715 329.013 69.6195 329.104 69.2902 329.254C69.1932 329.297 69.1059 329.359 69.0339 329.438C68.9619 329.517 68.9067 329.611 68.8719 329.713C68.8427 329.871 68.8427 330.034 68.8719 330.192C68.906 330.477 68.906 330.765 68.8719 331.05C68.8719 331.18 68.7844 331.34 68.6579 331.32C68.5315 331.3 68.512 331.18 68.5023 331.08C68.444 330.581 68.5023 330.212 68.444 329.633C68.444 329.364 68.444 328.995 68.444 328.725C68.444 328.456 68.3078 328.216 68.2981 327.947Z" fill="#455A64"/>
<path d="M66.3237 345.291C66.3237 345.899 66.1973 349.901 67.2963 350.5C68.3954 351.099 68.8233 347.985 68.8233 347.985C68.8233 347.985 71.4008 346.877 75.4469 348.215C75.3108 348.873 76.1083 350.929 77.1296 350.37C78.1509 349.811 78.1022 345.251 78.1022 345.191C78.6566 349.183 78.8317 352.276 77.1296 355.31C75.019 359.142 69.7765 357.206 68.1231 354.851C66.4696 352.496 66.0708 350.68 66.1778 346.488C66.2264 346.069 66.2945 345.68 66.3237 345.291Z" fill="#37474F"/>
<path d="M69.1439 348.215C69.2704 349.712 67.792 349.362 67.5197 347.217C67.2473 345.071 67.8893 339.992 67.5197 336.359C67.5975 332.198 67.4418 328.056 68.2686 327.907C68.2638 327.957 68.2638 328.007 68.2686 328.056L68.3658 330.162C68.3467 330.461 68.3467 330.761 68.3658 331.06C68.6382 334.114 68.8035 340.042 68.8133 342.856C68.8304 344.647 68.9408 346.436 69.1439 348.215Z" fill="#263238"/>
<path d="M74.9798 348.215C75.1704 346.449 75.2646 344.673 75.2619 342.896C75.2619 340.102 75.437 334.244 75.7093 331.17C75.8147 330.601 75.8571 330.022 75.8357 329.444C75.8357 329.025 75.8357 328.446 75.8357 328.047C75.8357 328.047 75.8357 327.987 75.8357 327.947C76.3804 328.156 76.5749 329.803 76.6917 331.879C76.6917 333.086 76.6917 334.583 76.5847 336.399C76.2151 340.032 76.857 345.181 76.5847 347.287C76.3123 349.392 74.8826 349.712 74.9798 348.215Z" fill="#263238"/>
<path d="M75.5539 348.324H75.4469C73.3453 347.58 71.0611 347.58 68.9595 348.324C68.9212 348.339 68.8803 348.347 68.8393 348.345C68.7983 348.344 68.7579 348.335 68.7204 348.318C68.6829 348.301 68.6491 348.276 68.6209 348.246C68.5926 348.215 68.5705 348.179 68.5559 348.14C68.5412 348.1 68.5342 348.059 68.5353 348.016C68.5364 347.974 68.5455 347.933 68.5622 347.894C68.5789 347.856 68.6029 347.821 68.6326 347.792C68.6624 347.763 68.6975 347.741 68.7358 347.726C70.9781 346.904 73.4284 346.904 75.6706 347.726C75.7089 347.74 75.7439 347.762 75.7735 347.791C75.8032 347.819 75.8269 347.854 75.8433 347.892C75.8597 347.93 75.8683 347.971 75.8687 348.013C75.8691 348.055 75.8613 348.096 75.8457 348.135C75.8219 348.193 75.7811 348.243 75.7289 348.277C75.6767 348.311 75.6156 348.327 75.5539 348.324Z" fill="#F5F5F5"/>
<path d="M75.9524 345.011C75.9172 345.02 75.8805 345.02 75.8454 345.011C73.4824 344.259 70.9526 344.259 68.5896 345.011C68.5506 345.025 68.5094 345.031 68.4681 345.029C68.4269 345.027 68.3866 345.016 68.3494 344.997C68.3123 344.979 68.2792 344.953 68.252 344.921C68.2247 344.889 68.2039 344.852 68.1908 344.812C68.1772 344.772 68.1714 344.731 68.1739 344.689C68.1764 344.648 68.187 344.607 68.2052 344.57C68.2233 344.532 68.2487 344.499 68.2796 344.472C68.3106 344.445 68.3465 344.425 68.3853 344.413C70.8816 343.597 73.5631 343.597 76.0594 344.413C76.1277 344.439 76.185 344.488 76.2212 344.553C76.2574 344.618 76.2703 344.694 76.2575 344.768C76.2448 344.841 76.2073 344.908 76.1515 344.956C76.0957 345.004 76.0253 345.031 75.9524 345.031V345.011Z" fill="#F5F5F5"/>
<path d="M68.4632 341.878C68.4037 341.876 68.3458 341.858 68.296 341.824C68.2461 341.791 68.2064 341.744 68.1812 341.688C68.1482 341.612 68.146 341.525 68.1752 341.446C68.2043 341.368 68.2623 341.304 68.3368 341.269C70.7937 340.278 73.5223 340.26 75.9914 341.219C76.0296 341.234 76.0646 341.256 76.0943 341.284C76.1239 341.313 76.1477 341.347 76.164 341.386C76.1804 341.424 76.189 341.465 76.1894 341.507C76.1898 341.549 76.182 341.59 76.1664 341.629C76.1361 341.706 76.0773 341.768 76.0028 341.802C75.9282 341.835 75.8438 341.838 75.7676 341.808C75.7676 341.808 71.955 340.271 68.5994 341.808C68.5597 341.842 68.5132 341.866 68.4632 341.878Z" fill="#F5F5F5"/>
<path d="M68.3951 338.944C68.3364 338.945 68.2787 338.928 68.2288 338.896C68.1789 338.864 68.1387 338.819 68.113 338.765C68.0794 338.689 68.0759 338.603 68.1031 338.525C68.1303 338.446 68.1862 338.382 68.2589 338.345C69.4783 337.775 70.8003 337.473 72.1402 337.457C73.4801 337.442 74.8084 337.714 76.0399 338.256C76.0768 338.273 76.11 338.297 76.1374 338.328C76.1648 338.358 76.186 338.394 76.1996 338.433C76.2132 338.472 76.219 338.514 76.2166 338.555C76.2143 338.597 76.2038 338.637 76.1858 338.675C76.1692 338.713 76.1452 338.747 76.1154 338.775C76.0857 338.803 76.0507 338.825 76.0126 338.838C75.9744 338.852 75.934 338.858 75.8935 338.856C75.8531 338.854 75.8136 338.843 75.7773 338.824C74.6219 338.333 73.3813 338.088 72.1307 338.104C70.8802 338.119 69.6457 338.395 68.5021 338.914C68.4683 338.93 68.4321 338.94 68.3951 338.944Z" fill="#F5F5F5"/>
<path d="M68.3271 335.661C68.2559 335.662 68.1865 335.638 68.1304 335.593C68.0743 335.548 68.0351 335.484 68.0191 335.413C68.0032 335.342 68.0115 335.267 68.0428 335.201C68.0741 335.136 68.1264 335.083 68.191 335.052C71.8967 333.176 75.8942 334.972 76.0595 335.052C76.0982 335.067 76.1334 335.09 76.1626 335.12C76.1919 335.15 76.2147 335.186 76.2294 335.226C76.2441 335.265 76.2504 335.308 76.248 335.35C76.2455 335.392 76.2343 335.434 76.2152 335.471C76.1812 335.548 76.1193 335.607 76.0428 335.637C75.9664 335.667 75.8815 335.665 75.8066 335.631C75.8066 335.631 71.9161 333.884 68.473 335.631C68.4281 335.655 68.3775 335.665 68.3271 335.661Z" fill="#F5F5F5"/>
<path d="M71.002 206.698C66.0611 220.739 66.9267 229.551 67.7729 244.27C68.551 257.762 69.7862 269.648 69.7862 269.648C69.5917 272.043 66.3431 276.713 65.8957 287.291C65.7523 294.739 66.0772 302.189 66.8684 309.595C66.8684 309.595 73.3363 312.02 78.8025 309.595C78.8025 309.595 84.3951 284.257 85.9221 271.873C87.2449 261.065 89.5598 247.254 89.5598 247.254L94.4229 271.823C93.4723 275.125 92.9844 278.549 92.9737 281.992C92.9737 287.77 95.5901 303.837 95.5901 303.837C95.5901 303.837 102.836 306.242 107.427 302.06C107.427 302.06 109.246 278.938 109.888 270.127C110.744 258.371 109.499 226.148 106.746 209.652L71.002 206.698Z" fill="#455A64"/>
<path d="M89.6182 247.214L91.6412 228.732C91.6412 228.732 100.696 227.495 104.801 223.533C103.623 225.423 102.054 227.022 100.205 228.218C98.3552 229.413 96.2714 230.175 94.102 230.449L91.1841 247.653L94.491 271.783L89.6182 247.214Z" fill="#37474F"/>
<path d="M112.008 192.997C107.602 188.347 99.6459 177.828 99.6459 177.828L95.1523 161.861C96.1567 161.915 97.1631 161.915 98.1675 161.861C103.031 162.191 104.46 162.62 107.485 166.013C109.888 168.717 119.05 181.551 122.23 185.872L130.682 174.825C132.715 171.681 132.385 168.158 133.435 165.594C134.485 163.029 136.188 161.901 137.549 159.606C138.911 157.311 139.232 155.774 140.35 156.962C141.469 158.149 140.175 161.343 140.01 162.071C139.845 162.8 138.133 164.965 140.983 163.837C143.832 162.71 148.229 157.371 149.357 156.283C150.485 155.195 151.088 156.882 150.835 158.219C150.582 159.556 151.808 162.57 151.361 164.775C151.082 166.994 150.007 169.026 148.345 170.474C146.293 172.589 141.274 175.194 139.31 177.978C137.345 180.762 133.153 189.414 130.556 194.624C127.298 201.25 124.526 203.435 120.83 201.2C117.134 198.965 113.632 194.723 112.008 192.997Z" fill="#FFA8A7"/>
<path d="M96.582 161.691C99.0689 161.436 101.579 161.778 103.916 162.689C106.551 163.907 108.341 166.521 110.919 170.064C113.496 173.607 118.097 179.804 118.097 179.804C118.097 179.804 116.852 185.183 108.643 190.013L95.2397 175.852L96.582 161.691Z" fill="#37474F"/>
<path d="M122.23 185.861C120.627 187.413 119.553 189.453 119.166 191.679C119.166 191.679 118.194 188.476 121.51 184.874L122.23 185.861Z" fill="#F28F8F"/>
<path d="M106.289 190.043C112.271 184.993 110.296 178.417 108.117 173.986C103.75 165.135 99.2082 161.652 97.3115 161.682L85.4163 161.802C79.7361 162.6 75.3399 162.201 73.9685 162.53C70.467 163.378 70.3892 166.332 70.253 170.154C70.1071 174.346 68.016 173.637 69.0761 180.563C70.3265 183.137 71.4244 185.786 72.3636 188.496C73.0056 190.891 74.8146 194.703 73.8517 198.575C73.4821 200.072 72.4901 201.569 71.0019 205.671C69.3146 210.281 68.0607 215.046 67.2573 219.901C67.2573 219.901 70.7296 219.073 74.6785 214.762C74.6785 214.762 80.0766 222.176 93.0611 221.428C106.532 220.65 107.719 213.444 107.719 213.444L105.657 200.471C105.968 195.232 106.104 193.336 106.289 190.043Z" fill="#603E94"/>
<path opacity="0.1" d="M98.5175 188.735C98.5175 188.735 93.6544 192.727 87.9451 190.811C86.3547 190.322 84.9128 189.423 83.7568 188.2C82.6008 186.978 81.7691 185.472 81.3409 183.826C81.3409 183.826 80.8546 190.462 88.0326 192.597C89.9527 193.195 92.0094 193.142 93.8979 192.447C95.7864 191.751 97.4063 190.45 98.5175 188.735Z" fill="black"/>
<path d="M64.4657 155.983C62.7053 154.666 53.2221 167.689 57.6573 170.952C62.0925 174.216 66.8195 164.965 65.8663 160.594C64.9131 156.223 64.4657 155.983 64.4657 155.983Z" fill="#37474F"/>
<path d="M55.8578 149.517C58.231 146.144 59.8456 143.599 62.0145 140.705C63.24 139.059 64.0279 137.891 65.2047 136.204C66.0217 135.047 66.4983 134.069 67.4126 133.7C68.4333 133.239 69.3455 132.558 70.0873 131.704C70.5416 131.164 70.9607 130.594 71.342 129.997C72.713 128.05 74.3509 126.315 76.2052 124.848C78.1504 123.301 80.2805 122.104 82.2646 120.627C83.4415 119.749 84.7059 118.302 83.2373 116.994C82.7808 116.616 82.2389 116.362 81.6616 116.256C78.1212 115.527 75.0575 116.835 71.6144 117.803C70.1172 118.221 68.6538 118.759 67.2375 119.409C66.5344 119.702 65.8786 120.102 65.2923 120.597C64.4778 121.47 63.8194 122.483 63.347 123.591C61.8395 126.435 58.659 128.969 56.4316 131.195C53.8153 133.809 51.481 136.184 48.495 139.088C45.8105 141.683 43.1747 144.078 40.714 146.912C38.6812 149.247 39.469 151.044 39.7413 151.652C41.4921 155.185 43.3984 156.432 45.6938 158.638C46.4525 159.356 47.2209 160.065 47.9892 160.773C50.9655 163.528 53.9417 166.102 57.0347 168.757C60.3416 171.551 61.7033 172.908 64.6503 175.623C66.51 177.375 68.06 179.445 69.2314 181.74C74.3377 182.608 79.3565 174.595 74.9797 165.224C74.2598 163.709 73.171 162.41 71.8186 161.452C66.4303 157.51 55.8578 149.517 55.8578 149.517Z" fill="#FFA8A7"/>
<path d="M55.8579 149.517C54.2649 151.592 52.1246 153.154 49.6914 154.017C49.6914 154.017 52.9497 154.816 57.3265 150.634L55.8579 149.517Z" fill="#F28F8F"/>
<path d="M74.3769 162.45C73.1805 161.602 70.2724 159.795 64.4658 155.983C64.4658 155.983 65.3606 157.909 63.9503 162.749C62.54 167.589 59.5637 170.653 57.6963 171.002C57.6963 171.002 60.9449 173.637 63.9406 176.611C66.9363 179.584 69.397 181.69 71.1283 185.143C71.1283 185.143 75.4078 184.015 76.3805 176.571C77.0613 171.352 76.6528 165.224 74.3769 162.45Z" fill="#455A64"/>
<path d="M106.863 138.48C107.718 136.626 108.094 134.578 107.956 132.531C107.819 130.485 107.171 128.51 106.075 126.794C102.389 121.415 96.1736 118.811 89.3068 118.89H87.1768C77.9076 119.05 69.4847 127.213 69.3193 136.404C69.3193 142.871 69.3193 148.848 72.7916 153.259C75.9916 157.361 80.9811 158.708 85.1926 159.367C93.246 160.624 102.291 159.666 105.949 154.038C105.949 154.038 101.085 155.036 101.698 149.866C101.786 149.048 101.027 148.15 99.6945 147.222C100.628 145.563 101.726 144.008 102.972 142.581C104.344 141.174 105.929 140.386 106.863 138.48Z" fill="#263238"/>
<path d="M104.46 143.2C104.412 152.83 101.406 155.255 99.8988 155.974C98.3912 156.692 95.4345 156.313 92.5652 155.884L92.6625 161.662C92.6625 161.662 96.018 165.144 95.8235 167.799C95.629 170.453 90.688 170.793 86.9434 168.308C84.8806 166.906 83.0096 165.228 81.38 163.318C81.069 162.949 80.8935 162.479 80.8839 161.991L80.6505 148.409C80.6505 148.409 79.1138 150.136 76.3126 148.24C75.7074 147.86 75.1858 147.356 74.7808 146.758C74.3759 146.161 74.0964 145.484 73.9601 144.769C73.8238 144.055 73.8337 143.32 73.9892 142.61C74.1447 141.9 74.4424 141.231 74.8634 140.645C75.2591 140.251 75.7344 139.95 76.2558 139.764C76.7771 139.578 77.3319 139.512 77.8809 139.57C78.4299 139.628 78.9599 139.809 79.4334 140.1C79.9069 140.391 80.3124 140.785 80.6213 141.254C81.4772 142.891 81.3994 144.048 82.5666 143.859C83.7337 143.669 83.7824 142.372 83.8602 141.444C83.938 140.516 83.8602 140.216 83.9769 138.999C86.7489 138.39 89.6181 134.428 89.9391 131.534C91.817 132.482 93.8866 132.961 95.9791 132.931C99.0818 132.712 100.687 132.073 102.214 129.778C102.578 130.303 102.869 130.877 103.079 131.484C103.511 132.713 103.837 133.979 104.052 135.266C104.398 137.895 104.535 140.548 104.46 143.2Z" fill="#FFA8A7"/>
<path d="M92.5649 155.884C89.54 155.524 83.3055 153.808 82.2939 151.313C82.7028 152.58 83.4801 153.687 84.5213 154.486C86.4082 156.083 92.5941 157.81 92.5941 157.81L92.5649 155.884Z" fill="#F28F8F"/>
<path d="M95.6093 150.695C95.615 150.946 95.548 151.193 95.4167 151.405C95.2854 151.616 95.0957 151.783 94.8717 151.885C94.6477 151.986 94.3995 152.016 94.1585 151.972C93.9176 151.928 93.6948 151.812 93.5184 151.638C93.342 151.464 93.2199 151.24 93.1676 150.995C93.1154 150.75 93.1353 150.494 93.2249 150.26C93.3145 150.027 93.4697 149.826 93.6708 149.683C93.8719 149.54 94.1099 149.461 94.3546 149.457C94.6806 149.452 94.9954 149.579 95.2304 149.811C95.4654 150.043 95.6016 150.36 95.6093 150.695Z" fill="#B16668"/>
<path d="M94.0239 141.214C94.0399 141.391 94.0216 141.57 93.97 141.739C93.9185 141.909 93.8347 142.067 93.7235 142.203C93.6122 142.34 93.4758 142.452 93.322 142.534C93.1683 142.616 93.0002 142.666 92.8275 142.681C92.5615 142.71 92.2931 142.657 92.0568 142.529C91.8204 142.4 91.6268 142.202 91.5009 141.96C91.3749 141.718 91.3224 141.443 91.3499 141.17C91.3775 140.897 91.4839 140.638 91.6556 140.428C91.8273 140.217 92.0563 140.064 92.3133 139.988C92.5704 139.912 92.8437 139.917 93.0982 140.001C93.3527 140.086 93.5768 140.247 93.7417 140.463C93.9066 140.679 94.0049 140.94 94.0239 141.214Z" fill="#263238"/>
<path d="M102.797 140.645C102.821 140.971 102.719 141.292 102.513 141.541C102.308 141.79 102.015 141.945 101.698 141.973C101.538 141.993 101.376 141.977 101.223 141.928C101.07 141.878 100.929 141.794 100.81 141.684C100.691 141.573 100.596 141.437 100.533 141.285C100.47 141.134 100.439 140.97 100.443 140.805C100.427 140.644 100.443 140.48 100.489 140.325C100.535 140.17 100.612 140.026 100.713 139.901C100.815 139.776 100.939 139.674 101.08 139.599C101.221 139.525 101.375 139.48 101.532 139.468C101.852 139.454 102.163 139.57 102.4 139.791C102.637 140.011 102.779 140.318 102.797 140.645Z" fill="#263238"/>
<path d="M96.7373 139.398L97.671 147.441L101.688 145.725L96.7373 139.398Z" fill="#F28F8F"/>
<path d="M89.3359 137.741L91.6702 135.466C91.9609 135.798 92.116 136.231 92.1033 136.677C92.0907 137.123 91.9112 137.547 91.6022 137.861C91.4482 138.011 91.2661 138.127 91.067 138.202C90.8679 138.278 90.656 138.311 90.444 138.3C90.2321 138.288 90.0245 138.233 89.8341 138.137C89.6436 138.041 89.4741 137.906 89.3359 137.741Z" fill="#263238"/>
<path d="M101.017 134.728L103.604 136.723C103.485 136.904 103.331 137.057 103.153 137.174C102.974 137.291 102.773 137.369 102.564 137.404C102.354 137.438 102.14 137.428 101.934 137.375C101.728 137.322 101.536 137.225 101.367 137.093C101.029 136.817 100.804 136.419 100.739 135.981C100.674 135.542 100.774 135.094 101.017 134.728Z" fill="#263238"/>
<path d="M63.7264 61.6291C65.5914 61.2642 67.4979 61.1768 69.3871 61.3696C71.1926 61.5321 72.955 62.0256 74.5907 62.8266C76.1601 63.5952 77.5474 64.7054 78.6563 66.0799C79.8255 67.5509 80.603 69.3079 80.9128 71.1793C81.2044 72.6478 81.2044 74.1615 80.9128 75.6301C80.6513 76.9082 80.2055 78.1393 79.59 79.2825C78.9926 80.395 78.2992 81.4503 77.5183 82.4359C76.7402 83.4339 76.001 84.352 75.3104 85.2401C74.65 86.076 74.064 86.9711 73.5597 87.9146C73.0961 88.7523 72.8704 89.7064 72.908 90.6689C72.9137 91.1164 72.8029 91.5573 72.5871 91.9462C72.4853 92.1301 72.3454 92.2888 72.1774 92.4112C72.0093 92.5336 71.8172 92.6167 71.6144 92.6547L67.0334 93.5429C66.8158 93.5873 66.5917 93.5864 66.3745 93.5401C66.1572 93.4938 65.9513 93.4031 65.769 93.2735C65.5792 93.162 65.4188 93.0046 65.3019 92.815C65.1849 92.6254 65.1149 92.4094 65.0978 92.1857C64.8745 90.7092 64.9473 89.2015 65.3118 87.7549C65.6576 86.4659 66.1644 85.2282 66.8194 84.0725C67.4527 82.9719 68.1784 81.9301 68.9883 80.959C69.7956 79.9611 70.5251 79.0629 71.1962 78.1848C71.8132 77.3961 72.3478 76.5432 72.7913 75.64C73.1728 74.8563 73.2924 73.9656 73.1317 73.1053C73.0026 72.347 72.695 71.6325 72.2356 71.0238C71.7763 70.4152 71.1791 69.9307 70.4959 69.6125C68.8013 68.8223 66.8978 68.6362 65.0881 69.0836C61.6774 69.7489 59.489 71.9909 58.5229 75.8097C58.4379 76.2122 58.2866 76.597 58.0755 76.9473C57.8057 77.2672 57.4258 77.4674 57.0153 77.5062L52.1522 78.4542C51.8163 78.5155 51.4701 78.4481 51.1795 78.2646C51.0268 78.1611 50.8968 78.0259 50.798 77.8678C50.6992 77.7097 50.6337 77.5321 50.6057 77.3465C50.3956 75.7723 50.5625 74.1693 51.092 72.6762C51.6426 70.9516 52.4855 69.3402 53.5819 67.916C54.8113 66.3567 56.2757 65.0091 57.9198 63.9243C59.6918 62.7797 61.664 62.0001 63.7264 61.6291ZM72.6065 96.3072C73.039 96.2304 73.4836 96.3291 73.8466 96.5823C74.2095 96.8355 74.4623 97.2235 74.5518 97.6644L75.5244 103.113C75.5688 103.331 75.5684 103.557 75.5231 103.775C75.4779 103.993 75.3889 104.199 75.2618 104.38C75.1423 104.566 74.9878 104.725 74.8074 104.849C74.627 104.972 74.4243 105.057 74.2114 105.099L69.0273 106.097C68.8129 106.143 68.5915 106.142 68.3773 106.096C68.163 106.05 67.9604 105.958 67.7823 105.827C67.6014 105.705 67.4462 105.546 67.3259 105.361C67.2056 105.176 67.1227 104.968 67.082 104.75L66.1094 99.301C66.0687 99.0818 66.0719 98.8564 66.1187 98.6386C66.1655 98.4207 66.255 98.2149 66.3817 98.0336C66.4982 97.8452 66.6518 97.6839 66.8327 97.5601C67.0137 97.4364 67.2178 97.3529 67.4321 97.3151L72.6065 96.3072Z" fill="#603E94"/>
<path d="M113.155 84.1122C114.302 84.7648 115.351 85.585 116.268 86.5472C117.159 87.4488 117.881 88.511 118.398 89.6807C118.893 90.7994 119.149 92.0144 119.147 93.2433C119.146 94.5532 118.81 95.8399 118.174 96.9756C117.698 97.8857 117.054 98.6923 116.277 99.3506C115.582 99.9044 114.812 100.352 113.992 100.678C113.194 100.998 112.371 101.245 111.531 101.416L109.158 101.895C108.446 102.036 107.749 102.246 107.076 102.524C106.471 102.755 105.942 103.156 105.549 103.682C105.358 103.923 105.106 104.106 104.82 104.211C104.686 104.262 104.542 104.283 104.399 104.271C104.256 104.259 104.117 104.214 103.993 104.141L101.182 102.524C100.909 102.371 100.706 102.112 100.618 101.806C100.57 101.66 100.556 101.505 100.576 101.352C100.597 101.2 100.651 101.055 100.735 100.927C101.253 100.045 101.941 99.2809 102.758 98.682C103.498 98.1516 104.302 97.7222 105.151 97.4047C105.964 97.1077 106.8 96.8808 107.65 96.7261C108.496 96.5764 109.284 96.4267 110.023 96.267C110.691 96.124 111.342 95.9134 111.969 95.6383C112.509 95.3936 112.959 94.9774 113.253 94.4508C113.508 93.9877 113.65 93.4681 113.667 92.9362C113.684 92.4044 113.575 91.8763 113.35 91.3971C112.794 90.2087 111.866 89.2458 110.714 88.6628C109.722 88.0744 108.576 87.8142 107.435 87.9178C106.293 88.0214 105.21 88.4836 104.334 89.2416C104.117 89.4224 103.87 89.5611 103.604 89.6508C103.326 89.6982 103.04 89.6339 102.807 89.4711L99.8109 87.7547C99.5989 87.6324 99.4393 87.433 99.3635 87.1959C99.3256 87.0718 99.3138 86.941 99.3289 86.812C99.344 86.683 99.3856 86.5587 99.451 86.4474C100.019 85.5197 100.796 84.7461 101.717 84.1921C102.766 83.5428 103.918 83.09 105.121 82.8549C106.438 82.59 107.788 82.5462 109.119 82.7251C110.539 82.9169 111.909 83.3879 113.155 84.1122ZM102.904 106.516C103.036 106.591 103.152 106.692 103.246 106.814C103.339 106.936 103.408 107.075 103.449 107.224C103.492 107.371 103.505 107.526 103.488 107.679C103.472 107.831 103.425 107.979 103.351 108.112L101.532 111.456C101.385 111.728 101.138 111.929 100.847 112.015C100.555 112.101 100.242 112.065 99.9762 111.915L96.7957 110.088C96.6618 110.017 96.5447 109.917 96.4523 109.794C96.3599 109.672 96.2946 109.531 96.2608 109.38C96.2145 109.234 96.1984 109.079 96.2135 108.926C96.2286 108.773 96.2745 108.625 96.3483 108.492L98.1671 105.149C98.2409 105.015 98.34 104.897 98.4585 104.803C98.5771 104.709 98.7128 104.64 98.8577 104.6C99.0007 104.553 99.1517 104.538 99.3009 104.555C99.45 104.572 99.5939 104.622 99.7233 104.7L102.904 106.516Z" fill="#603E94"/>
<g opacity="0.2">
<path opacity="0.2" d="M113.155 84.1122C114.302 84.7648 115.351 85.585 116.268 86.5472C117.159 87.4488 117.881 88.511 118.398 89.6807C118.893 90.7994 119.149 92.0144 119.147 93.2433C119.146 94.5532 118.81 95.8399 118.174 96.9756C117.698 97.8857 117.054 98.6923 116.277 99.3506C115.582 99.9044 114.812 100.352 113.992 100.678C113.194 100.998 112.371 101.245 111.531 101.416L109.158 101.895C108.446 102.036 107.749 102.246 107.076 102.524C106.471 102.755 105.942 103.156 105.549 103.682C105.358 103.923 105.106 104.106 104.82 104.211C104.686 104.262 104.542 104.283 104.399 104.271C104.256 104.259 104.117 104.214 103.993 104.141L101.182 102.524C100.909 102.371 100.706 102.112 100.618 101.806C100.57 101.66 100.556 101.505 100.576 101.352C100.597 101.2 100.651 101.055 100.735 100.927C101.253 100.045 101.941 99.2809 102.758 98.682C103.498 98.1516 104.302 97.7222 105.151 97.4047C105.964 97.1077 106.8 96.8808 107.65 96.7261C108.496 96.5764 109.284 96.4267 110.023 96.267C110.691 96.124 111.342 95.9134 111.969 95.6383C112.509 95.3936 112.959 94.9774 113.253 94.4508C113.508 93.9877 113.65 93.4681 113.667 92.9362C113.684 92.4044 113.575 91.8763 113.35 91.3971C112.794 90.2087 111.866 89.2458 110.714 88.6628C109.722 88.0744 108.576 87.8142 107.435 87.9178C106.293 88.0214 105.21 88.4836 104.334 89.2416C104.117 89.4224 103.87 89.5611 103.604 89.6508C103.326 89.6982 103.04 89.6339 102.807 89.4711L99.8109 87.7547C99.5989 87.6324 99.4393 87.433 99.3635 87.1959C99.3256 87.0718 99.3138 86.941 99.3289 86.812C99.344 86.683 99.3856 86.5587 99.451 86.4474C100.019 85.5197 100.796 84.7461 101.717 84.1921C102.766 83.5428 103.918 83.09 105.121 82.8549C106.438 82.59 107.788 82.5462 109.119 82.7251C110.539 82.9169 111.909 83.3879 113.155 84.1122ZM102.904 106.516C103.036 106.591 103.152 106.692 103.246 106.814C103.339 106.936 103.408 107.075 103.449 107.224C103.492 107.371 103.505 107.526 103.488 107.679C103.472 107.831 103.425 107.979 103.351 108.112L101.532 111.456C101.385 111.728 101.138 111.929 100.847 112.015C100.555 112.101 100.242 112.065 99.9762 111.915L96.7957 110.088C96.6618 110.017 96.5447 109.917 96.4523 109.794C96.3599 109.672 96.2946 109.531 96.2608 109.38C96.2145 109.234 96.1984 109.079 96.2135 108.926C96.2286 108.773 96.2745 108.625 96.3483 108.492L98.1671 105.149C98.2409 105.015 98.34 104.897 98.4585 104.803C98.5771 104.709 98.7128 104.64 98.8577 104.6C99.0007 104.553 99.1517 104.538 99.3009 104.555C99.45 104.572 99.5939 104.622 99.7233 104.7L102.904 106.516Z" fill="black"/>
</g>
<path d="M44.6437 120.757C44.7732 120.631 44.9261 120.533 45.0932 120.47C45.2604 120.407 45.4383 120.378 45.6163 120.387C45.7988 120.39 45.979 120.43 46.1461 120.505C46.3132 120.581 46.4637 120.69 46.5889 120.826L49.5846 124.159C49.7079 124.295 49.8037 124.455 49.8665 124.629C49.9293 124.803 49.958 124.989 49.9507 125.174C49.9435 125.36 49.9006 125.542 49.8244 125.71C49.7482 125.879 49.6402 126.03 49.5068 126.155L46.336 129.149C46.2035 129.276 46.0479 129.374 45.8782 129.438C45.7085 129.503 45.528 129.532 45.3472 129.525C45.1664 129.517 44.9888 129.473 44.8246 129.395C44.6605 129.317 44.513 129.206 44.3908 129.069L41.3951 125.736C41.2706 125.601 41.1737 125.441 41.1102 125.267C41.0466 125.093 41.0176 124.907 41.0248 124.721C41.0321 124.536 41.0754 124.353 41.1524 124.185C41.2293 124.016 41.3383 123.865 41.4729 123.74L44.6437 120.757ZM23.8294 100.648C24.9668 99.5577 26.2507 98.6402 27.6421 97.9239C28.9633 97.2388 30.3926 96.7995 31.8633 96.6266C33.2752 96.4667 34.7041 96.6163 36.0553 97.0657C37.491 97.5684 38.7747 98.4453 39.7805 99.6104C40.6222 100.488 41.2836 101.53 41.7258 102.674C42.0825 103.678 42.2923 104.731 42.3482 105.798C42.4038 106.836 42.3712 107.878 42.251 108.911C42.1245 109.909 42.0078 110.907 41.9008 111.835C41.7953 112.709 41.766 113.59 41.8133 114.47C41.8456 115.26 42.0952 116.024 42.5331 116.675C42.7216 116.973 42.829 117.318 42.8443 117.673C42.8528 117.848 42.8221 118.022 42.7547 118.183C42.6872 118.344 42.5848 118.487 42.4552 118.601L39.6541 121.265C39.3884 121.513 39.0399 121.645 38.6814 121.635C38.5036 121.641 38.3268 121.604 38.166 121.526C38.0052 121.448 37.865 121.331 37.7574 121.186C36.9792 120.257 36.3905 119.178 36.0262 118.012C35.7216 116.965 35.5515 115.881 35.5204 114.789C35.49 113.735 35.5486 112.679 35.6955 111.635C35.8414 110.638 35.9581 109.64 36.0553 108.741C36.1425 107.916 36.1425 107.082 36.0553 106.257C35.9919 105.545 35.7013 104.875 35.2286 104.351C34.8174 103.883 34.3014 103.525 33.7253 103.308C33.1492 103.09 32.5302 103.02 31.9217 103.103C30.4209 103.302 29.0261 104.004 27.9534 105.099C25.8655 107.095 25.2916 109.626 26.2318 112.693C26.3471 113.013 26.4064 113.351 26.4069 113.691C26.3828 113.859 26.3266 114.021 26.2414 114.166C26.1563 114.312 26.0439 114.439 25.9108 114.539L22.9249 117.374C22.7162 117.58 22.4369 117.695 22.1468 117.693C21.9982 117.69 21.8519 117.655 21.7177 117.59C21.5835 117.524 21.4645 117.43 21.3687 117.314C20.5418 116.332 19.9639 115.156 19.686 113.891C19.356 112.443 19.2802 110.945 19.4623 109.47C19.662 107.852 20.1153 106.279 20.8045 104.81C21.5386 103.233 22.5662 101.82 23.8294 100.648Z" fill="#603E94"/>
<g opacity="0.6">
<path opacity="0.6" d="M44.6437 120.757C44.7732 120.631 44.9261 120.533 45.0932 120.47C45.2604 120.407 45.4383 120.378 45.6163 120.387C45.7988 120.39 45.979 120.43 46.1461 120.505C46.3132 120.581 46.4637 120.69 46.5889 120.826L49.5846 124.159C49.7079 124.295 49.8037 124.455 49.8665 124.629C49.9293 124.803 49.958 124.989 49.9507 125.174C49.9435 125.36 49.9006 125.542 49.8244 125.71C49.7482 125.879 49.6402 126.03 49.5068 126.155L46.336 129.149C46.2035 129.276 46.0479 129.374 45.8782 129.438C45.7085 129.503 45.528 129.532 45.3472 129.525C45.1664 129.517 44.9888 129.473 44.8246 129.395C44.6605 129.317 44.513 129.206 44.3908 129.069L41.3951 125.736C41.2706 125.601 41.1737 125.441 41.1102 125.267C41.0466 125.093 41.0176 124.907 41.0248 124.721C41.0321 124.536 41.0754 124.353 41.1524 124.185C41.2293 124.016 41.3383 123.865 41.4729 123.74L44.6437 120.757ZM23.8294 100.648C24.9668 99.5577 26.2507 98.6402 27.6421 97.9239C28.9633 97.2388 30.3926 96.7995 31.8633 96.6266C33.2752 96.4667 34.7041 96.6163 36.0553 97.0657C37.491 97.5684 38.7747 98.4453 39.7805 99.6104C40.6222 100.488 41.2836 101.53 41.7258 102.674C42.0825 103.678 42.2923 104.731 42.3482 105.798C42.4038 106.836 42.3712 107.878 42.251 108.911C42.1245 109.909 42.0078 110.907 41.9008 111.835C41.7953 112.709 41.766 113.59 41.8133 114.47C41.8456 115.26 42.0952 116.024 42.5331 116.675C42.7216 116.973 42.829 117.318 42.8443 117.673C42.8528 117.848 42.8221 118.022 42.7547 118.183C42.6872 118.344 42.5848 118.487 42.4552 118.601L39.6541 121.265C39.3884 121.513 39.0399 121.645 38.6814 121.635C38.5036 121.641 38.3268 121.604 38.166 121.526C38.0052 121.448 37.865 121.331 37.7574 121.186C36.9792 120.257 36.3905 119.178 36.0262 118.012C35.7216 116.965 35.5515 115.881 35.5204 114.789C35.49 113.735 35.5486 112.679 35.6955 111.635C35.8414 110.638 35.9581 109.64 36.0553 108.741C36.1425 107.916 36.1425 107.082 36.0553 106.257C35.9919 105.545 35.7013 104.875 35.2286 104.351C34.8174 103.883 34.3014 103.525 33.7253 103.308C33.1492 103.09 32.5302 103.02 31.9217 103.103C30.4209 103.302 29.0261 104.004 27.9534 105.099C25.8655 107.095 25.2916 109.626 26.2318 112.693C26.3471 113.013 26.4064 113.351 26.4069 113.691C26.3828 113.859 26.3266 114.021 26.2414 114.166C26.1563 114.312 26.0439 114.439 25.9108 114.539L22.9249 117.374C22.7162 117.58 22.4369 117.695 22.1468 117.693C21.9982 117.69 21.8519 117.655 21.7177 117.59C21.5835 117.524 21.4645 117.43 21.3687 117.314C20.5418 116.332 19.9639 115.156 19.686 113.891C19.356 112.443 19.2802 110.945 19.4623 109.47C19.662 107.852 20.1153 106.279 20.8045 104.81C21.5386 103.233 22.5662 101.82 23.8294 100.648Z" fill="white"/>
</g>
<path d="M242.7 190.382C239.928 188.755 228.256 181.83 224.288 179.475C223.5 179.016 223.004 178.716 222.965 178.686C220.992 177.558 218.686 177.203 216.477 177.688C214.581 178.083 212.765 178.809 211.109 179.834C210.836 179.994 210.564 180.183 210.301 180.363C205.817 183.267 201.966 187.837 198.756 194.124C195.488 200.248 193.735 207.102 193.65 214.083C193.65 220.696 195.368 225.336 198.805 228.004C199.153 228.27 199.517 228.513 199.894 228.733C203.114 230.609 219.259 240.209 219.619 240.418H219.707C219.309 240.195 218.929 239.942 218.569 239.66C215.126 236.999 213.407 232.362 213.414 225.749C213.498 218.767 215.252 211.914 218.52 205.79C221.911 199.137 226.025 194.37 230.863 191.49C235.466 188.762 239.441 188.406 242.787 190.422L242.7 190.382Z" fill="#603E94"/>
<path opacity="0.4" d="M242.787 190.442C239.441 188.446 235.467 188.799 230.863 191.5C226.369 194.161 222.495 198.485 219.24 204.473L199.476 192.727C202.53 187.129 206.139 183.008 210.292 180.323C210.554 180.153 210.827 179.954 211.099 179.794C212.754 178.768 214.571 178.045 216.468 177.659C218.677 177.168 220.984 177.523 222.955 178.657L224.278 179.445C228.246 181.79 239.918 188.716 242.69 190.342L242.787 190.442Z" fill="black"/>
<path opacity="0.3" d="M219.707 240.389H219.619C219.259 240.179 203.084 230.579 199.894 228.703C199.517 228.483 199.153 228.24 198.805 227.974C195.368 225.313 193.65 220.676 193.65 214.063C193.732 207.081 195.486 200.227 198.756 194.104C198.99 193.635 199.233 193.176 199.486 192.737L219.24 204.443C218.997 204.882 218.753 205.341 218.52 205.8C215.252 211.924 213.498 218.777 213.414 225.759C213.414 232.372 215.132 237.009 218.569 239.67C218.93 239.938 219.311 240.178 219.707 240.389Z" fill="black"/>
<path d="M234.082 19.1374C243.672 13.4492 251.836 11.0309 258.573 11.8824C261.315 12.2185 263.962 13.1215 266.354 14.5369C266.287 14.5007 266.222 14.4607 266.159 14.4172C263.845 13.08 249.897 4.82708 246.707 2.90107C244.273 1.44175 241.571 0.5174 238.77 0.186702C232.027 -0.658213 223.86 1.75678 214.27 7.43168C199.356 16.26 187.36 29.2331 178.283 46.351C169.205 63.4688 164.714 80.9426 164.812 98.7723L184.566 110.478C184.43 92.635 188.92 75.1579 198.037 58.0467C207.153 40.9355 219.169 27.9658 234.082 19.1374Z" fill="#603E94"/>
<path opacity="0.2" d="M266.199 14.4269C263.841 13.0798 261.252 12.2156 258.573 11.8822C251.843 11.0306 243.679 13.449 234.082 19.1372C219.169 27.9589 207.173 40.932 198.095 58.0564C197.716 58.765 197.346 59.4835 196.986 60.192L177.184 48.4663C177.543 47.7578 177.913 47.0393 178.292 46.3308C187.409 29.2262 199.405 16.2531 214.28 7.41147C223.883 1.72992 232.05 -0.685069 238.78 0.166498C241.581 0.500553 244.284 1.42829 246.717 2.89085C249.936 4.83681 263.884 13.0997 266.199 14.4269Z" fill="black"/>
<path opacity="0.3" d="M196.938 60.172C188.567 76.598 184.446 93.3599 184.576 110.458L164.822 98.752C164.698 81.6475 168.819 64.8856 177.184 48.4663L196.938 60.172Z" fill="black"/>
<path d="M247.504 52.3084C243.919 50.3525 239.13 51.1175 233.139 54.6036C232.936 58.2611 232.202 61.8669 230.96 65.3014C229.462 69.4395 225.105 77.9752 217.888 90.9083C210.412 104.281 205.004 117.051 201.664 129.219C198.352 141.233 196.67 153.657 196.665 166.142L196.762 172.359L210.243 180.343L216.526 184.065L216.419 177.838V177.758C216.441 165.314 218.123 152.931 221.418 140.955C224.758 128.786 230.169 116.02 237.652 102.654C244.862 89.7208 249.216 81.1819 250.714 77.0371C252.21 72.9396 252.974 68.5992 252.97 64.2237C252.97 58.2694 251.148 54.2976 247.504 52.3084Z" fill="#603E94"/>
<path opacity="0.3" d="M248.778 81.5178C246.548 86.2812 242.839 93.3133 237.652 102.614C230.162 115.986 224.751 128.756 221.418 140.925C218.119 152.91 216.437 165.304 216.419 177.758V177.918L216.526 184.145L210.243 180.433L196.762 172.449L196.665 166.222C196.671 153.737 198.353 141.312 201.664 129.299C205.004 117.131 210.412 104.36 217.888 90.9881C223.075 81.6741 226.791 74.6454 229.034 69.9019L248.778 81.5178Z" fill="black"/>
<path opacity="0.4" d="M252.971 64.2237C252.973 68.5852 252.212 72.9116 250.724 76.9972C250.306 78.1648 249.654 79.6716 248.779 81.5178L229.034 69.8221C229.897 67.9726 230.545 66.4657 230.979 65.3014C232.221 61.8669 232.956 58.2611 233.158 54.6036C239.15 51.1175 243.938 50.3525 247.524 52.3084C251.11 54.2643 252.925 58.2361 252.971 64.2237Z" fill="black"/>
<path d="M211.313 94.6107L184.575 110.458C184.439 92.6149 188.929 75.1378 198.046 58.0266C207.163 40.9154 219.159 27.9423 234.033 19.1073C243.624 13.4191 251.787 11.0008 258.524 11.8524C265.261 12.7039 270.653 16.4927 274.699 23.2188C278.752 29.9448 280.778 38.3341 280.778 48.3866C280.738 54.2228 280.086 60.0376 278.833 65.7306C277.317 72.5407 275.271 79.215 272.715 85.6892C271.081 89.9205 267.168 97.7309 260.975 109.121C255.055 119.978 251.346 127.366 249.848 131.285C248.186 135.936 246.952 140.737 246.162 145.625C244.985 152.931 244.334 160.315 244.217 167.719L216.565 184.105L216.458 177.878C216.464 165.393 218.146 152.968 221.457 140.955C224.797 128.787 230.208 116.02 237.691 102.654C244.901 89.7209 249.255 81.1819 250.753 77.0372C252.235 72.9371 252.987 68.5968 252.97 64.2238C252.97 58.2362 251.152 54.2644 247.514 52.3085C243.876 50.3525 238.994 51.1708 232.866 54.7634C226.603 58.4757 221.464 64.0441 217.45 71.4687C213.525 78.524 211.413 86.4876 211.313 94.6107Z" fill="#603E94"/>
<path d="M230.814 191.56C235.775 188.613 240.009 188.43 243.517 191.011C247.025 193.592 248.779 198.186 248.779 204.792C248.672 211.812 246.885 218.697 243.575 224.841C240.112 231.593 235.927 236.423 231.018 239.331C226.11 242.238 221.941 242.358 218.51 239.69C215.074 237.029 213.355 232.389 213.355 225.769C213.44 218.788 215.194 211.934 218.462 205.81C221.866 199.171 225.983 194.421 230.814 191.56Z" fill="#603E94"/>
</svg>
