<svg width="12" height="12" viewBox="0 0 12 12" fill="none" xmlns="http://www.w3.org/2000/svg">
<path d="M10.5 1C10.3674 1 10.2402 1.05268 10.1464 1.14645C10.0527 1.24021 10 1.36739 10 1.5V3H8V2.5C8 2.36739 7.94732 2.24021 7.85355 2.14645C7.75978 2.05268 7.63261 2 7.5 2C7.36739 2 7.24021 2.05268 7.14645 2.14645C7.05268 2.24021 7 2.36739 7 2.5V3H6V2.5C6 2.36739 5.94732 2.24021 5.85355 2.14645C5.75978 2.05268 5.63261 2 5.5 2C5.36739 2 5.24021 2.05268 5.14645 2.14645C5.05268 2.24021 5 2.36739 5 2.5V3H4V2.5C4 2.36739 3.94732 2.24021 3.85355 2.14645C3.75978 2.05268 3.63261 2 3.5 2C3.36739 2 3.24021 2.05268 3.14645 2.14645C3.05268 2.24021 3 2.36739 3 2.5V3H2V1.5C2 1.36739 1.94732 1.24021 1.85355 1.14645C1.75979 1.05268 1.63261 1 1.5 1C1.36739 1 1.24021 1.05268 1.14645 1.14645C1.05268 1.24021 1 1.36739 1 1.5V9.5C1 9.89782 1.15804 10.2794 1.43934 10.5607C1.72064 10.842 2.10218 11 2.5 11H9.5C9.89782 11 10.2794 10.842 10.5607 10.5607C10.842 10.2794 11 9.89782 11 9.5V1.5C11 1.36739 10.9473 1.24021 10.8536 1.14645C10.7598 1.05268 10.6326 1 10.5 1ZM10 9.5C10 9.63261 9.94732 9.75979 9.85355 9.85355C9.75978 9.94732 9.63261 10 9.5 10H2.5C2.36739 10 2.24021 9.94732 2.14645 9.85355C2.05268 9.75979 2 9.63261 2 9.5V8H3V8.5C3 8.63261 3.05268 8.75979 3.14645 8.85355C3.24021 8.94732 3.36739 9 3.5 9C3.63261 9 3.75978 8.94732 3.85355 8.85355C3.94732 8.75979 4 8.63261 4 8.5V8H5V8.5C5 8.63261 5.05268 8.75979 5.14645 8.85355C5.24021 8.94732 5.36739 9 5.5 9C5.63261 9 5.75978 8.94732 5.85355 8.85355C5.94732 8.75979 6 8.63261 6 8.5V8H8V8.5C8 8.63261 8.05268 8.75979 8.14645 8.85355C8.24021 8.94732 8.36739 9 8.5 9C8.63261 9 8.75978 8.94732 8.85355 8.85355C8.94732 8.75979 9 8.63261 9 8.5V8H10V9.5ZM10 7H9V6.5C9 6.36739 8.94732 6.24021 8.85355 6.14645C8.75978 6.05268 8.63261 6 8.5 6C8.36739 6 8.24021 6.05268 8.14645 6.14645C8.05268 6.24021 8 6.36739 8 6.5V7H6V6.5C6 6.36739 5.94732 6.24021 5.85355 6.14645C5.75978 6.05268 5.63261 6 5.5 6C5.36739 6 5.24021 6.05268 5.14645 6.14645C5.05268 6.24021 5 6.36739 5 6.5V7H4V6.5C4 6.36739 3.94732 6.24021 3.85355 6.14645C3.75978 6.05268 3.63261 6 3.5 6C3.36739 6 3.24021 6.05268 3.14645 6.14645C3.05268 6.24021 3 6.36739 3 6.5V7H2V4H3V4.5C3 4.63261 3.05268 4.75979 3.14645 4.85355C3.24021 4.94732 3.36739 5 3.5 5C3.63261 5 3.75978 4.94732 3.85355 4.85355C3.94732 4.75979 4 4.63261 4 4.5V4H5V4.5C5 4.63261 5.05268 4.75979 5.14645 4.85355C5.24021 4.94732 5.36739 5 5.5 5C5.63261 5 5.75978 4.94732 5.85355 4.85355C5.94732 4.75979 6 4.63261 6 4.5V4H7V4.5C7 4.63261 7.05268 4.75979 7.14645 4.85355C7.24021 4.94732 7.36739 5 7.5 5C7.63261 5 7.75978 4.94732 7.85355 4.85355C7.94732 4.75979 8 4.63261 8 4.5V4H10V7Z" fill="#495057"/>
</svg>
