<svg width="12" height="12" viewBox="0 0 12 12" fill="none" xmlns="http://www.w3.org/2000/svg">
<path d="M6 0.999756C5.0111 0.999756 4.0444 1.293 3.22215 1.84241C2.39991 2.39181 1.75904 3.17271 1.3806 4.08634C1.00217 4.99997 0.90315 6.0053 1.09608 6.97521C1.289 7.94511 1.76521 8.83603 2.46447 9.53529C3.16373 10.2346 4.05465 10.7108 5.02455 10.9037C5.99446 11.0966 6.99979 10.9976 7.91342 10.6192C8.82705 10.2407 9.60794 9.59985 10.1573 8.77761C10.7068 7.95536 11 6.98866 11 5.99976C11 5.34315 10.8707 4.69297 10.6194 4.08634C10.3681 3.47971 9.99983 2.92851 9.53553 2.46422C9.07124 1.99993 8.52005 1.63163 7.91342 1.38036C7.30679 1.12908 6.65661 0.999756 6 0.999756ZM6 9.99976C5.20888 9.99976 4.43552 9.76516 3.77772 9.32563C3.11992 8.88611 2.60723 8.26139 2.30448 7.53049C2.00173 6.79958 1.92252 5.99532 2.07686 5.21939C2.2312 4.44347 2.61216 3.73074 3.17157 3.17133C3.73098 2.61192 4.44372 2.23096 5.21964 2.07661C5.99556 1.92227 6.79983 2.00149 7.53074 2.30424C8.26164 2.60699 8.88635 3.11968 9.32588 3.77747C9.7654 4.43527 10 5.20863 10 5.99976C10 7.06062 9.57857 8.07804 8.82843 8.82818C8.07828 9.57833 7.06087 9.99976 6 9.99976ZM7.05 4.81476L6.5 5.13476V3.49976C6.5 3.36715 6.44732 3.23997 6.35356 3.1462C6.25979 3.05243 6.13261 2.99976 6 2.99976C5.86739 2.99976 5.74022 3.05243 5.64645 3.1462C5.55268 3.23997 5.5 3.36715 5.5 3.49976V5.99976C5.5 5.99976 5.5 5.99976 5.5 6.02976C5.49765 6.06305 5.49765 6.09646 5.5 6.12976C5.50774 6.16046 5.51777 6.19055 5.53 6.21976C5.53 6.21976 5.53 6.21976 5.53 6.24976C5.55388 6.28523 5.58064 6.31867 5.61 6.34976C5.65039 6.38981 5.69786 6.42202 5.75 6.44476H5.79C5.85513 6.47825 5.92682 6.49702 6 6.49976C6.05828 6.49809 6.11581 6.48624 6.17 6.46476H6.215H6.25L7.55 5.71476C7.66537 5.64845 7.74968 5.53903 7.78437 5.41057C7.81906 5.28211 7.80131 5.14513 7.735 5.02976C7.6687 4.91439 7.55928 4.83008 7.43082 4.79539C7.30235 4.76069 7.16537 4.77845 7.05 4.84476V4.81476Z" fill="#495057"/>
</svg>
