<svg width="12" height="12" viewBox="0 0 12 12" fill="none" xmlns="http://www.w3.org/2000/svg">
<path d="M10.5005 2.99976H8.50049V2.49976C8.50049 2.10193 8.34245 1.7204 8.06115 1.4391C7.77984 1.15779 7.39831 0.999756 7.00049 0.999756H5.00049C4.60266 0.999756 4.22113 1.15779 3.93983 1.4391C3.65852 1.7204 3.50049 2.10193 3.50049 2.49976V2.99976H1.50049C1.36788 2.99976 1.2407 3.05243 1.14693 3.1462C1.05317 3.23997 1.00049 3.36715 1.00049 3.49976V5.49975C1.00161 5.70944 1.04669 5.91657 1.13281 6.10776C1.21894 6.29895 1.34419 6.46996 1.50049 6.60976V9.49975C1.50049 9.89758 1.65852 10.2791 1.93983 10.5604C2.22113 10.8417 2.60266 10.9998 3.00049 10.9998H9.00049C9.39831 10.9998 9.77984 10.8417 10.0611 10.5604C10.3425 10.2791 10.5005 9.89758 10.5005 9.49975V6.60976C10.6568 6.46996 10.782 6.29895 10.8682 6.10776C10.9543 5.91657 10.9994 5.70944 11.0005 5.49975V3.49976C11.0005 3.36715 10.9478 3.23997 10.854 3.1462C10.7603 3.05243 10.6331 2.99976 10.5005 2.99976ZM4.50049 2.49976C4.50049 2.36715 4.55317 2.23997 4.64693 2.1462C4.7407 2.05243 4.86788 1.99976 5.00049 1.99976H7.00049C7.1331 1.99976 7.26027 2.05243 7.35404 2.1462C7.44781 2.23997 7.50049 2.36715 7.50049 2.49976V2.99976H4.50049V2.49976ZM9.50049 9.49975C9.50049 9.63236 9.44781 9.75954 9.35404 9.85331C9.26027 9.94708 9.1331 9.99975 9.00049 9.99975H3.00049C2.86788 9.99975 2.7407 9.94708 2.64693 9.85331C2.55317 9.75954 2.50049 9.63236 2.50049 9.49975V6.99975H3.50049V7.49975C3.50049 7.63236 3.55317 7.75954 3.64693 7.85331C3.7407 7.94708 3.86788 7.99975 4.00049 7.99975C4.1331 7.99975 4.26027 7.94708 4.35404 7.85331C4.44781 7.75954 4.50049 7.63236 4.50049 7.49975V6.99975H7.50049V7.49975C7.50049 7.63236 7.55317 7.75954 7.64693 7.85331C7.7407 7.94708 7.86788 7.99975 8.00049 7.99975C8.1331 7.99975 8.26027 7.94708 8.35404 7.85331C8.44781 7.75954 8.50049 7.63236 8.50049 7.49975V6.99975H9.50049V9.49975ZM10.0005 5.49975C10.0005 5.63236 9.94781 5.75954 9.85404 5.85331C9.76027 5.94708 9.6331 5.99975 9.50049 5.99975H8.50049V5.49975C8.50049 5.36715 8.44781 5.23997 8.35404 5.1462C8.26027 5.05243 8.1331 4.99976 8.00049 4.99976C7.86788 4.99976 7.7407 5.05243 7.64693 5.1462C7.55317 5.23997 7.50049 5.36715 7.50049 5.49975V5.99975H4.50049V5.49975C4.50049 5.36715 4.44781 5.23997 4.35404 5.1462C4.26027 5.05243 4.1331 4.99976 4.00049 4.99976C3.86788 4.99976 3.7407 5.05243 3.64693 5.1462C3.55317 5.23997 3.50049 5.36715 3.50049 5.49975V5.99975H2.50049C2.36788 5.99975 2.2407 5.94708 2.14693 5.85331C2.05317 5.75954 2.00049 5.63236 2.00049 5.49975V3.99976H10.0005V5.49975Z" fill="#495057"/>
</svg>
