<svg width="12" height="12" viewBox="0 0 12 12" fill="none" xmlns="http://www.w3.org/2000/svg">
<path d="M9.00045 2.23996C8.2048 1.44431 7.12567 0.997314 6.00045 0.997314C4.87523 0.997314 3.7961 1.44431 3.00045 2.23996C2.2048 3.0356 1.75781 4.11474 1.75781 5.23996C1.75781 6.36517 2.2048 7.44431 3.00045 8.23995L5.63545 10.88C5.68193 10.9268 5.73723 10.964 5.79816 10.9894C5.85909 11.0148 5.92445 11.0279 5.99045 11.0279C6.05646 11.0279 6.12181 11.0148 6.18274 10.9894C6.24367 10.964 6.29897 10.9268 6.34545 10.88L9.00045 8.21496C9.79278 7.42262 10.2379 6.34798 10.2379 5.22746C10.2379 4.10693 9.79278 3.03229 9.00045 2.23996ZM8.28545 7.49996L6.00045 9.79496L3.71545 7.49996C3.26402 7.04811 2.95669 6.47258 2.8323 5.8461C2.70791 5.21962 2.77205 4.57033 3.01661 3.9803C3.26116 3.39026 3.67516 2.88598 4.20627 2.53119C4.73737 2.17641 5.36174 1.98705 6.00045 1.98705C6.63916 1.98705 7.26353 2.17641 7.79464 2.53119C8.32574 2.88598 8.73974 3.39026 8.9843 3.9803C9.22886 4.57033 9.293 5.21962 9.1686 5.8461C9.04421 6.47258 8.73688 7.04811 8.28545 7.49996ZM4.50045 3.70496C4.09681 4.10984 3.87015 4.65824 3.87015 5.22996C3.87015 5.80167 4.09681 6.35007 4.50045 6.75496C4.80033 7.05535 5.18225 7.2605 5.59828 7.34466C6.01431 7.42882 6.44593 7.38825 6.83899 7.22803C7.23205 7.06782 7.56904 6.79509 7.80769 6.44408C8.04634 6.09306 8.17602 5.67939 8.18045 5.25496C8.18271 4.97156 8.12811 4.69058 8.0199 4.42865C7.9117 4.16671 7.75207 3.92913 7.55045 3.72996C7.35229 3.52724 7.11599 3.36572 6.85516 3.25469C6.59434 3.14365 6.31412 3.08529 6.03065 3.08297C5.74718 3.08065 5.46605 3.1344 5.20344 3.24115C4.94082 3.34789 4.70191 3.50552 4.50045 3.70496ZM6.84545 6.04496C6.65597 6.23733 6.40556 6.35791 6.13702 6.38608C5.86847 6.41426 5.59848 6.34828 5.37321 6.19942C5.14793 6.05056 4.98135 5.82808 4.90196 5.57C4.82256 5.31192 4.83528 5.03427 4.93793 4.78453C5.04059 4.53479 5.2268 4.32846 5.46475 4.20082C5.70269 4.07318 5.97758 4.03216 6.24242 4.08476C6.50726 4.13737 6.74561 4.28033 6.91671 4.48922C7.08781 4.69811 7.18104 4.95994 7.18045 5.22996C7.17318 5.53859 7.0437 5.83172 6.82045 6.04496H6.84545Z" fill="#495057"/>
</svg>
