<svg width="12" height="12" viewBox="0 0 12 12" fill="none" xmlns="http://www.w3.org/2000/svg">
<path d="M3 5.5C2.90111 5.5 2.80444 5.52932 2.72221 5.58427C2.63999 5.63921 2.5759 5.7173 2.53806 5.80866C2.50022 5.90002 2.49031 6.00055 2.50961 6.09755C2.5289 6.19454 2.57652 6.28363 2.64645 6.35355C2.71637 6.42348 2.80546 6.4711 2.90245 6.49039C2.99945 6.50969 3.09998 6.49978 3.19134 6.46194C3.2827 6.4241 3.36079 6.36001 3.41573 6.27779C3.47068 6.19556 3.5 6.09889 3.5 6C3.5 5.86739 3.44732 5.74021 3.35355 5.64645C3.25979 5.55268 3.13261 5.5 3 5.5ZM9 5.5C8.90111 5.5 8.80444 5.52932 8.72221 5.58427C8.63999 5.63921 8.5759 5.7173 8.53806 5.80866C8.50022 5.90002 8.49031 6.00055 8.50961 6.09755C8.5289 6.19454 8.57652 6.28363 8.64645 6.35355C8.71637 6.42348 8.80546 6.4711 8.90245 6.49039C8.99944 6.50969 9.09998 6.49978 9.19134 6.46194C9.2827 6.4241 9.36079 6.36001 9.41574 6.27779C9.47068 6.19556 9.5 6.09889 9.5 6C9.5 5.86739 9.44732 5.74021 9.35355 5.64645C9.25979 5.55268 9.13261 5.5 9 5.5ZM10 2.5H2C1.60218 2.5 1.22064 2.65804 0.93934 2.93934C0.658035 3.22064 0.5 3.60218 0.5 4V8C0.5 8.39782 0.658035 8.77936 0.93934 9.06066C1.22064 9.34196 1.60218 9.5 2 9.5H10C10.3978 9.5 10.7794 9.34196 11.0607 9.06066C11.342 8.77936 11.5 8.39782 11.5 8V4C11.5 3.60218 11.342 3.22064 11.0607 2.93934C10.7794 2.65804 10.3978 2.5 10 2.5ZM10.5 8C10.5 8.13261 10.4473 8.25979 10.3536 8.35355C10.2598 8.44732 10.1326 8.5 10 8.5H2C1.86739 8.5 1.74021 8.44732 1.64645 8.35355C1.55268 8.25979 1.5 8.13261 1.5 8V4C1.5 3.86739 1.55268 3.74021 1.64645 3.64645C1.74021 3.55268 1.86739 3.5 2 3.5H10C10.1326 3.5 10.2598 3.55268 10.3536 3.64645C10.4473 3.74021 10.5 3.86739 10.5 4V8ZM6 4.5C5.70333 4.5 5.41332 4.58797 5.16664 4.7528C4.91997 4.91762 4.72771 5.15189 4.61418 5.42597C4.50065 5.70006 4.47094 6.00166 4.52882 6.29264C4.5867 6.58361 4.72956 6.85088 4.93934 7.06066C5.14912 7.27044 5.41639 7.4133 5.70736 7.47118C5.99834 7.52906 6.29994 7.49935 6.57403 7.38582C6.84811 7.27229 7.08238 7.08003 7.2472 6.83336C7.41203 6.58668 7.5 6.29667 7.5 6C7.5 5.60218 7.34196 5.22064 7.06066 4.93934C6.77936 4.65804 6.39782 4.5 6 4.5ZM6 6.5C5.90111 6.5 5.80444 6.47068 5.72221 6.41573C5.63999 6.36079 5.5759 6.2827 5.53806 6.19134C5.50022 6.09998 5.49031 5.99945 5.50961 5.90245C5.5289 5.80546 5.57652 5.71637 5.64645 5.64645C5.71637 5.57652 5.80546 5.5289 5.90245 5.50961C5.99945 5.49031 6.09998 5.50022 6.19134 5.53806C6.2827 5.5759 6.36079 5.63999 6.41573 5.72221C6.47068 5.80444 6.5 5.90111 6.5 6C6.5 6.13261 6.44732 6.25979 6.35355 6.35355C6.25979 6.44732 6.13261 6.5 6 6.5Z" fill="#495057"/>
</svg>
