<svg width="230" height="230" viewBox="0 0 230 230" fill="none" xmlns="http://www.w3.org/2000/svg">
<path d="M58.9811 185.78C91.5261 203.15 144.293 203.15 176.838 185.78C209.383 168.411 209.387 140.24 176.838 122.871C144.288 105.501 91.5261 105.496 58.9811 122.871C26.4361 140.245 26.4361 168.406 58.9811 185.78Z" fill="#EBEBEB"/>
<path d="M186.411 142.683L181.663 139.923C181.663 139.923 180.5 129.752 181.272 121.877C182.363 110.805 189.511 97.497 198.035 100.616C206.559 103.735 194.12 115.037 191.36 124.421C188.6 133.805 186.411 142.683 186.411 142.683Z" fill="#E8417C"/>
<path opacity="0.1" d="M186.411 142.683L181.663 139.923C181.663 139.923 180.5 129.752 181.272 121.877C182.363 110.805 189.511 97.497 198.035 100.616C206.559 103.735 194.12 115.037 191.36 124.421C188.6 133.805 186.411 142.683 186.411 142.683Z" fill="#23272E"/>
<path d="M183.94 141.436C183.896 141.437 183.853 141.421 183.819 141.392C183.785 141.364 183.763 141.324 183.756 141.28C182.142 128.86 186.562 110.087 195.486 102.966C195.505 102.952 195.526 102.94 195.548 102.934C195.571 102.927 195.595 102.925 195.618 102.928C195.642 102.93 195.665 102.937 195.686 102.949C195.706 102.96 195.724 102.976 195.739 102.994C195.77 103.032 195.784 103.08 195.778 103.128C195.773 103.177 195.749 103.221 195.712 103.252C186.884 110.299 182.519 128.924 184.12 141.229C184.126 141.277 184.113 141.326 184.084 141.365C184.055 141.404 184.011 141.429 183.963 141.436H183.94Z" fill="white"/>
<path d="M188.945 144.647L185.569 142.692C185.569 142.692 184.994 135.714 188.416 127.236C191.392 119.876 198.785 113.73 202.501 115.018C206.218 116.306 206.126 118.942 204.314 121.707C202.501 124.471 191.475 131.063 188.945 144.647Z" fill="#E8417C"/>
<path d="M186.852 144.826C186.828 144.825 186.805 144.819 186.783 144.809C186.761 144.799 186.742 144.784 186.726 144.766C186.71 144.748 186.698 144.727 186.691 144.704C186.683 144.681 186.68 144.657 186.682 144.633C187.795 127.264 196.581 118.721 201.862 117.42C201.909 117.408 201.959 117.416 202.001 117.441C202.044 117.466 202.074 117.506 202.087 117.553C202.098 117.6 202.091 117.649 202.066 117.691C202.041 117.732 202.001 117.762 201.954 117.774C196.392 119.154 188.094 128.4 187.054 144.656C187.053 144.681 187.046 144.705 187.035 144.727C187.024 144.749 187.008 144.768 186.989 144.784C186.97 144.8 186.949 144.812 186.925 144.819C186.901 144.827 186.877 144.829 186.852 144.826Z" fill="white"/>
<path d="M49.6801 144.035C49.6801 144.035 50.3103 133.837 44.3855 126.845C38.4607 119.853 30.7465 119.881 28.1935 121.182C25.6405 122.484 23.9247 126.206 28.3177 128.869C32.7107 131.532 42.0533 136.864 43.6081 141.62L49.6801 144.035Z" fill="#E8417C"/>
<path opacity="0.1" d="M49.6801 144.035C49.6801 144.035 50.3103 133.837 44.3855 126.845C38.4607 119.853 30.7465 119.881 28.1935 121.182C25.6405 122.484 23.9247 126.206 28.3177 128.869C32.7107 131.532 42.0533 136.864 43.6081 141.62L49.6801 144.035Z" fill="#23272E"/>
<path d="M46.8924 141.482C46.8355 141.482 46.7808 141.46 46.7384 141.422C46.6961 141.384 46.6691 141.332 46.6624 141.275C45.4434 129.991 34.1642 123.74 29.67 123.032C29.6398 123.027 29.6108 123.017 29.5846 123.001C29.5585 122.985 29.5356 122.964 29.5175 122.94C29.4993 122.915 29.4862 122.887 29.4788 122.858C29.4714 122.828 29.47 122.797 29.4745 122.767C29.479 122.737 29.4895 122.708 29.5052 122.682C29.521 122.656 29.5417 122.633 29.5663 122.615C29.5908 122.596 29.6187 122.583 29.6484 122.576C29.678 122.569 29.7088 122.567 29.739 122.572C34.339 123.294 45.8712 129.688 47.1224 141.225C47.1256 141.255 47.1227 141.285 47.114 141.315C47.1053 141.344 47.0909 141.371 47.0717 141.394C47.0524 141.418 47.0287 141.437 47.0019 141.452C46.9751 141.466 46.9457 141.475 46.9154 141.478L46.8924 141.482Z" fill="white"/>
<path d="M44.6983 138.892C43.2125 135.507 41.5335 133.989 36.7035 134.798C31.8735 135.608 32.5635 135.484 26.6525 133.97C24.1593 133.336 21.3579 133.234 18.9659 134.311C16.9465 135.231 15.4377 137.071 17.3927 139.03C19.5915 141.22 22.8713 141.97 25.3001 143.897C25.8511 144.287 26.2891 144.815 26.5697 145.429C27.2091 147.057 25.9303 148.893 26.3029 150.599C26.6755 152.306 28.4695 153.217 30.1531 153.327C31.8367 153.438 33.4973 152.932 35.1763 152.738C36.8553 152.545 38.7413 152.738 39.9005 153.985C41.1425 155.305 41.1747 157.417 42.3293 158.82C44.0589 160.922 48.3093 161.506 50.6093 160.2L56.6307 156.727C60.6097 151.363 54.3307 147.113 51.0417 142.95C49.4455 140.921 45.5907 140.93 44.6983 138.892Z" fill="#E8417C"/>
<path d="M52.9001 153.488C52.8609 153.489 52.8223 153.479 52.7882 153.46C52.7542 153.44 52.7261 153.412 52.7069 153.378C45.8391 142.25 27.1401 136.62 20.5253 136.16C20.4651 136.155 20.4092 136.127 20.3696 136.081C20.33 136.036 20.3099 135.976 20.3137 135.916C20.3184 135.856 20.3465 135.799 20.392 135.759C20.4374 135.719 20.4968 135.697 20.5575 135.7C27.2597 136.16 46.1381 141.873 53.0979 153.148C53.1287 153.2 53.1378 153.263 53.1232 153.322C53.1086 153.382 53.0715 153.433 53.0197 153.465C52.9821 153.482 52.9412 153.49 52.9001 153.488Z" fill="white"/>
<path d="M31.1466 148.244C31.1108 148.245 31.0753 148.237 31.0432 148.221C31.0112 148.205 30.9835 148.181 30.9626 148.152C30.926 148.103 30.9103 148.042 30.9189 147.982C30.9276 147.921 30.9598 147.867 31.0086 147.83C31.2478 147.651 36.9518 143.465 42.5086 143.382C42.5386 143.381 42.5684 143.387 42.5963 143.398C42.6242 143.409 42.6495 143.425 42.671 143.446C42.6924 143.467 42.7094 143.492 42.721 143.52C42.7326 143.548 42.7386 143.577 42.7386 143.607C42.7392 143.638 42.7339 143.668 42.7229 143.696C42.7119 143.724 42.6954 143.75 42.6745 143.771C42.6536 143.793 42.6286 143.811 42.6009 143.823C42.5732 143.835 42.5434 143.841 42.5132 143.842C37.1174 143.92 31.3536 148.157 31.2938 148.198C31.2523 148.232 31.1997 148.248 31.1466 148.244Z" fill="white"/>
<path d="M52.4723 157.398C52.5214 158.067 52.7274 158.715 53.0734 159.29C53.4194 159.864 53.8958 160.349 54.4641 160.706L110.276 192.929C110.893 193.242 111.576 193.405 112.268 193.405C112.96 193.405 113.642 193.242 114.26 192.929L190.62 148.838C191.221 148.52 191.725 148.044 192.077 147.461C192.428 146.878 192.614 146.211 192.614 145.53C192.614 144.85 192.428 144.182 192.077 143.599C191.725 143.016 191.221 142.54 190.62 142.223L134.812 110.023C134.195 109.71 133.513 109.546 132.82 109.546C132.128 109.546 131.446 109.71 130.829 110.023L54.4641 154.1C53.897 154.455 53.4213 154.939 53.0754 155.512C52.7294 156.085 52.5228 156.731 52.4723 157.398Z" fill="#37474F"/>
<path d="M75.4997 141.947L54.4639 154.1C53.8621 154.418 53.3583 154.894 53.0069 155.476C52.6555 156.059 52.4698 156.727 52.4698 157.407C52.4698 158.088 52.6555 158.756 53.0069 159.338C53.3583 159.921 53.8621 160.397 54.4639 160.715L110.276 192.938C110.89 193.258 111.575 193.417 112.268 193.398V141.947H75.4997Z" fill="#23272E"/>
<path d="M50.6 154.164C50.0456 153.787 49.5878 153.284 49.2634 152.696C48.939 152.109 48.7571 151.454 48.7324 150.783V84.18C48.7695 83.4888 48.9692 82.816 49.3153 82.2165C49.6614 81.617 50.1441 81.1077 50.7242 80.73L127.084 36.639C127.661 36.2775 128.325 36.0798 129.005 36.0673C129.685 36.0548 130.356 36.2278 130.945 36.5679C131.535 36.9079 132.02 37.4022 132.35 37.9974C132.679 38.5927 132.84 39.2665 132.816 39.9464V106.554C132.778 107.245 132.578 107.918 132.232 108.517C131.886 109.117 131.404 109.626 130.824 110.004L54.464 154.1C53.8702 154.413 53.211 154.582 52.5397 154.593C51.8684 154.605 51.204 154.458 50.6 154.164Z" fill="#455A64"/>
<path d="M58.0796 87.2758L49.3166 82.2158C48.9676 82.8128 48.7761 83.4887 48.76 84.18V150.783C48.7847 151.454 48.9666 152.109 49.291 152.696C49.6154 153.284 50.0732 153.787 50.6276 154.164C51.2317 154.455 51.8957 154.6 52.5661 154.588C53.2365 154.575 53.8945 154.405 54.487 154.091L63.1994 149.063L58.0796 87.2758Z" fill="#23272E"/>
<path d="M52.4723 86.342V152.941C52.4723 154.21 53.3647 154.726 54.4641 154.091L130.824 110.004C131.404 109.626 131.886 109.117 132.232 108.517C132.578 107.918 132.778 107.245 132.816 106.554V39.951C132.816 38.6814 131.923 38.1662 130.824 38.801L54.4641 82.892C53.884 83.2697 53.4012 83.779 53.0551 84.3785C52.709 84.978 52.5093 85.6507 52.4723 86.342Z" fill="#37474F"/>
<path d="M54.464 156.4L110.276 188.6C110.893 188.913 111.575 189.076 112.268 189.076C112.96 189.076 113.642 188.913 114.259 188.6L190.619 144.509C191.723 143.874 191.723 142.844 190.619 142.209L134.812 110.009C134.195 109.696 133.513 109.533 132.82 109.533C132.128 109.533 131.446 109.696 130.829 110.009L54.464 154.1C53.36 154.726 53.36 155.756 54.464 156.4Z" fill="#455A64"/>
<path d="M55.5358 86.5859L129.757 43.7369C130.415 43.3551 130.953 43.6633 130.953 44.4269V102.079C130.93 102.493 130.809 102.897 130.602 103.256C130.394 103.616 130.104 103.921 129.757 104.149L55.5358 146.998C54.8734 147.379 54.3398 147.071 54.3398 146.308V88.6559C54.3619 88.241 54.4818 87.8372 54.6897 87.4775C54.8975 87.1177 55.1875 86.8122 55.5358 86.5859Z" fill="white"/>
<path d="M60.9409 154.666L131.822 113.726C132.131 113.569 132.472 113.488 132.818 113.488C133.164 113.488 133.505 113.569 133.814 113.726L137.443 115.819C137.564 115.86 137.668 115.937 137.742 116.04C137.816 116.143 137.856 116.267 137.856 116.394C137.856 116.521 137.816 116.644 137.742 116.747C137.668 116.851 137.564 116.928 137.443 116.969L66.5483 157.904C66.2396 158.061 65.8984 158.142 65.5524 158.142C65.2063 158.142 64.8651 158.061 64.5565 157.904L60.9409 155.816C60.8207 155.775 60.7164 155.698 60.6424 155.594C60.5685 155.491 60.5288 155.368 60.5288 155.241C60.5288 155.114 60.5685 154.99 60.6424 154.887C60.7164 154.784 60.8207 154.707 60.9409 154.666Z" fill="#23272E"/>
<path d="M70.288 160.08L141.165 119.14C141.474 118.984 141.816 118.902 142.163 118.902C142.51 118.902 142.852 118.984 143.161 119.14L165.457 132.02C165.578 132.061 165.682 132.138 165.756 132.241C165.83 132.344 165.87 132.468 165.87 132.595C165.87 132.722 165.83 132.846 165.756 132.949C165.682 133.052 165.578 133.129 165.457 133.17L94.6588 174.027C94.3493 174.184 94.0074 174.265 93.6606 174.265C93.3138 174.265 92.9719 174.184 92.6624 174.027L70.288 161.207C70.1737 161.164 70.0752 161.087 70.0057 160.986C69.9362 160.885 69.899 160.766 69.899 160.644C69.899 160.521 69.9362 160.402 70.0057 160.301C70.0752 160.201 70.1737 160.123 70.288 160.08Z" fill="#23272E"/>
<path d="M133.823 137.54L136.045 136.257C136.137 136.201 136.132 136.114 136.045 136.054L133.478 134.573C133.424 134.545 133.363 134.53 133.301 134.53C133.24 134.53 133.179 134.545 133.124 134.573L130.907 135.856C130.81 135.912 130.815 135.999 130.907 136.059L133.474 137.54C133.528 137.567 133.588 137.582 133.648 137.582C133.709 137.582 133.769 137.567 133.823 137.54ZM129.444 132.48L127.227 133.763C127.13 133.814 127.135 133.906 127.227 133.966L129.794 135.447C129.848 135.475 129.909 135.49 129.971 135.49C130.032 135.49 130.093 135.475 130.148 135.447L132.37 134.164C132.462 134.108 132.457 134.016 132.37 133.961L129.798 132.48C129.744 132.452 129.683 132.437 129.621 132.437C129.56 132.437 129.499 132.452 129.444 132.48ZM122.277 136.62L118.519 138.787C118.427 138.842 118.432 138.934 118.519 138.994L121.086 140.475C121.141 140.503 121.201 140.518 121.263 140.518C121.325 140.518 121.385 140.503 121.44 140.475L125.194 138.308C125.29 138.253 125.281 138.161 125.194 138.106L122.627 136.62C122.573 136.592 122.513 136.577 122.452 136.577C122.391 136.577 122.331 136.592 122.277 136.62ZM126.201 134.352L123.984 135.636C123.887 135.691 123.892 135.783 123.984 135.838L126.551 137.319C126.605 137.347 126.666 137.362 126.728 137.362C126.789 137.362 126.85 137.347 126.905 137.319L129.127 136.036C129.219 135.981 129.214 135.893 129.127 135.833L126.555 134.32C126.5 134.292 126.44 134.277 126.378 134.277C126.317 134.277 126.256 134.292 126.201 134.32V134.352ZM117.493 139.38L115.276 140.659C115.179 140.714 115.189 140.806 115.276 140.866L117.843 142.347C117.897 142.374 117.957 142.388 118.018 142.388C118.078 142.388 118.138 142.374 118.192 142.347L120.414 141.064C120.506 141.008 120.502 140.916 120.414 140.861L117.847 139.38C117.793 139.352 117.732 139.337 117.67 139.337C117.609 139.337 117.548 139.352 117.493 139.38ZM114.273 141.252L112.056 142.536C111.959 142.586 111.969 142.678 112.056 142.738L114.623 144.219C114.678 144.247 114.738 144.262 114.8 144.262C114.862 144.262 114.922 144.247 114.977 144.219L117.199 142.936C117.291 142.881 117.286 142.789 117.199 142.733L114.604 141.22C114.55 141.192 114.489 141.177 114.427 141.177C114.366 141.177 114.305 141.192 114.25 141.22L114.273 141.252ZM124.37 147.278L126.587 145.995C126.684 145.94 126.675 145.852 126.587 145.792L124.021 144.311C123.967 144.283 123.907 144.268 123.846 144.268C123.785 144.268 123.725 144.283 123.671 144.311L121.449 145.595C121.357 145.65 121.362 145.737 121.449 145.797L124.016 147.278C124.07 147.299 124.127 147.308 124.184 147.304C124.242 147.3 124.297 147.283 124.347 147.255L124.37 147.278ZM121.123 149.15L123.344 147.867C123.436 147.816 123.432 147.724 123.344 147.665L120.778 146.183C120.723 146.155 120.662 146.14 120.601 146.14C120.539 146.14 120.478 146.155 120.423 146.183L118.206 147.467C118.11 147.522 118.119 147.614 118.206 147.669L120.773 149.15C120.826 149.171 120.882 149.18 120.939 149.176C120.996 149.172 121.05 149.156 121.1 149.127L121.123 149.15ZM117.88 151.023L120.101 149.744C120.193 149.689 120.189 149.597 120.101 149.537L117.535 148.056C117.48 148.028 117.419 148.014 117.358 148.014C117.296 148.014 117.236 148.028 117.18 148.056L114.963 149.339C114.867 149.394 114.876 149.486 114.963 149.541L117.525 151.023C117.579 151.044 117.636 151.052 117.694 151.049C117.751 151.045 117.807 151.028 117.857 151L117.88 151.023ZM114.66 152.895L116.881 151.616C116.973 151.561 116.969 151.469 116.881 151.409L114.315 149.928C114.26 149.9 114.199 149.885 114.138 149.885C114.076 149.885 114.015 149.9 113.96 149.928L111.743 151.207C111.647 151.262 111.651 151.354 111.743 151.414L114.31 152.895C114.41 152.927 114.519 152.919 114.614 152.872L114.66 152.895ZM130.626 139.444L132.848 138.161C132.94 138.11 132.935 138.018 132.848 137.959L130.281 136.477C130.226 136.45 130.166 136.436 130.104 136.436C130.043 136.436 129.982 136.45 129.927 136.477L127.71 137.761C127.613 137.816 127.618 137.908 127.71 137.963L130.277 139.444C130.326 139.461 130.379 139.468 130.431 139.464C130.483 139.46 130.534 139.446 130.58 139.421L130.626 139.444ZM127.636 145.424L132.586 142.563C132.678 142.513 132.673 142.421 132.586 142.361L126.353 138.764C126.298 138.735 126.237 138.721 126.176 138.721C126.114 138.721 126.053 138.735 125.999 138.764L123.441 140.245C123.344 140.295 123.354 140.387 123.441 140.447L126.744 142.352C126.845 142.411 126.85 142.503 126.744 142.559L124.66 143.69C124.568 143.741 124.573 143.833 124.66 143.893L127.236 145.36C127.289 145.392 127.349 145.411 127.41 145.415C127.472 145.419 127.534 145.408 127.59 145.383L127.636 145.424ZM111.053 143.124L108.836 144.408C108.739 144.463 108.744 144.55 108.836 144.61L111.403 146.091C111.458 146.12 111.518 146.134 111.58 146.134C111.642 146.134 111.702 146.12 111.757 146.091L113.979 144.808C114.071 144.753 114.066 144.665 113.979 144.606L111.412 143.124C111.353 143.083 111.284 143.06 111.213 143.056C111.141 143.051 111.07 143.067 111.007 143.101L111.053 143.124ZM107.833 144.997L105.542 146.28C105.45 146.335 105.455 146.427 105.542 146.482L108.109 147.964C108.164 147.992 108.225 148.007 108.286 148.007C108.348 148.007 108.409 147.992 108.463 147.964L110.685 146.68C110.777 146.63 110.773 146.538 110.685 146.478L108.1 144.983C108.048 144.956 107.991 144.941 107.933 144.94C107.875 144.938 107.817 144.95 107.764 144.974L107.833 144.997ZM91.5401 165.973C91.5948 166.001 91.6556 166.016 91.7172 166.016C91.7788 166.016 91.8395 166.001 91.8943 165.973L94.1161 164.689C94.2081 164.639 94.2035 164.547 94.1161 164.487L91.5401 163.015C91.4853 162.987 91.4246 162.972 91.363 162.972C91.3014 162.972 91.2406 162.987 91.1859 163.015L88.9687 164.298C88.8721 164.353 88.8767 164.445 88.9687 164.501L91.5401 165.973ZM81.8019 159.956L79.5801 161.239C79.4881 161.294 79.4927 161.382 79.5801 161.442L82.1469 162.923C82.2016 162.951 82.2624 162.966 82.324 162.966C82.3856 162.966 82.4463 162.951 82.5011 162.923L84.7229 161.639C84.8149 161.584 84.8103 161.497 84.7229 161.437L82.1561 159.956C82.1031 159.93 82.0449 159.916 81.9859 159.916C81.9269 159.916 81.8686 159.93 81.8157 159.956H81.8019ZM87.0229 164.349C87.0776 164.377 87.1384 164.392 87.2 164.392C87.2616 164.392 87.3223 164.377 87.3771 164.349L89.5943 163.065C89.6909 163.015 89.6817 162.923 89.5943 162.863L87.0321 161.382C86.9773 161.354 86.9166 161.339 86.855 161.339C86.7934 161.339 86.7326 161.354 86.6779 161.382L84.4561 162.665C84.3641 162.72 84.3687 162.812 84.4561 162.868L87.0229 164.349ZM97.2671 167.109L99.4889 165.825C99.5809 165.77 99.5763 165.683 99.4889 165.623L96.9221 164.142C96.8673 164.114 96.8066 164.099 96.745 164.099C96.6834 164.099 96.6226 164.114 96.5679 164.142L94.3507 165.425C94.2541 165.476 94.2633 165.568 94.3507 165.628L96.9129 167.109C96.969 167.14 97.032 167.157 97.0963 167.158C97.1605 167.159 97.224 167.143 97.2809 167.113L97.2671 167.109ZM93.6699 168.949C93.7246 168.977 93.7854 168.992 93.847 168.992C93.9086 168.992 93.9693 168.977 94.0241 168.949L96.2459 167.665C96.3379 167.615 96.3333 167.523 96.2459 167.463L93.6791 165.982C93.6243 165.954 93.5636 165.939 93.502 165.939C93.4404 165.939 93.3796 165.954 93.3249 165.982L91.1077 167.265C91.0111 167.32 91.0157 167.412 91.1077 167.468L93.6699 168.949ZM85.0449 158.056L82.8277 159.339C82.7311 159.39 82.7357 159.482 82.8277 159.542L85.3945 161.023C85.4492 161.051 85.51 161.066 85.5716 161.066C85.6332 161.066 85.6939 161.051 85.7487 161.023L87.9705 159.74C88.0625 159.684 88.0579 159.592 87.9705 159.537L85.4037 158.056C85.348 158.033 85.2878 158.024 85.2279 158.029C85.168 158.034 85.1101 158.053 85.0587 158.084L85.0449 158.056ZM101.264 148.695L99.0427 149.974C98.9507 150.029 98.9553 150.121 99.0427 150.176L101.609 151.662C101.665 151.689 101.725 151.703 101.787 151.703C101.848 151.703 101.909 151.689 101.964 151.662L104.181 150.383C104.277 150.328 104.273 150.236 104.181 150.176L101.614 148.695C101.56 148.674 101.501 148.666 101.443 148.67C101.385 148.675 101.329 148.693 101.278 148.723L101.264 148.695ZM88.3201 156.211L86.1029 157.49C86.0063 157.545 86.0109 157.637 86.1029 157.697L88.6697 159.178C88.7248 159.206 88.7854 159.22 88.8468 159.22C88.9082 159.22 88.9688 159.206 89.0239 159.178L91.2457 157.895C91.3377 157.84 91.3331 157.748 91.2457 157.693L88.6789 156.207C88.6228 156.18 88.5612 156.166 88.4989 156.167C88.4366 156.167 88.3754 156.183 88.3201 156.211ZM104.54 146.846L102.299 148.12C102.207 148.175 102.212 148.267 102.299 148.322L104.866 149.804C104.921 149.832 104.982 149.847 105.043 149.847C105.105 149.847 105.166 149.832 105.22 149.804L107.438 148.525C107.534 148.47 107.53 148.378 107.438 148.318L104.88 146.855C104.825 146.826 104.764 146.81 104.702 146.808C104.639 146.806 104.578 146.819 104.521 146.846H104.54ZM98.0537 150.595L95.8319 151.874C95.7399 151.929 95.7445 152.021 95.8319 152.081L98.3987 153.562C98.4538 153.589 98.5143 153.603 98.5758 153.603C98.6372 153.603 98.6978 153.589 98.7529 153.562L100.97 152.283C101.067 152.228 101.057 152.136 100.97 152.076L98.4079 150.595C98.3504 150.565 98.2865 150.549 98.2216 150.549C98.1567 150.549 98.0927 150.565 98.0353 150.595H98.0537ZM94.8061 152.467L92.5889 153.746C92.4923 153.801 92.5015 153.893 92.5889 153.953L95.1557 155.434C95.2108 155.461 95.2713 155.475 95.3328 155.475C95.3942 155.475 95.4548 155.461 95.5099 155.434L97.7271 154.155C97.8191 154.1 97.8145 154.008 97.7271 153.948L95.1603 152.467C95.1028 152.437 95.0389 152.421 94.974 152.421C94.9091 152.421 94.8451 152.437 94.7877 152.467H94.8061ZM91.5401 154.339L89.3229 155.618C89.2263 155.673 89.2355 155.765 89.3229 155.825L91.8851 157.306C91.9398 157.334 92.0006 157.349 92.0622 157.349C92.1238 157.349 92.1845 157.334 92.2393 157.306L94.4611 156.027C94.5531 155.972 94.5485 155.88 94.4611 155.82L91.8943 154.339C91.8392 154.312 91.7786 154.298 91.7172 154.298C91.6557 154.298 91.5952 154.312 91.5401 154.339ZM108.123 156.639L110.34 155.36C110.437 155.305 110.432 155.213 110.34 155.153L107.769 153.64C107.714 153.613 107.653 153.599 107.592 153.599C107.53 153.599 107.47 153.613 107.415 153.64L105.193 154.919C105.101 154.974 105.105 155.066 105.193 155.126L107.76 156.607C107.815 156.639 107.878 156.657 107.943 156.658C108.007 156.66 108.07 156.645 108.128 156.616L108.123 156.639ZM136.62 128.34L134.398 129.623C134.306 129.679 134.311 129.766 134.398 129.826L136.965 131.307C137.02 131.335 137.081 131.35 137.142 131.35C137.204 131.35 137.264 131.335 137.319 131.307L139.536 130.024C139.633 129.968 139.628 129.881 139.536 129.821L136.97 128.34C136.915 128.313 136.856 128.298 136.795 128.298C136.734 128.298 136.674 128.313 136.62 128.34ZM132.692 130.608L130.474 131.891C130.378 131.942 130.387 132.034 130.474 132.094L133.037 133.575C133.092 133.602 133.152 133.616 133.214 133.616C133.275 133.616 133.336 133.602 133.391 133.575L135.613 132.291C135.705 132.236 135.7 132.144 135.613 132.089L133.046 130.608C132.992 130.575 132.932 130.556 132.869 130.552C132.807 130.548 132.744 130.559 132.687 130.585L132.692 130.608ZM139.863 126.468L137.646 127.751C137.549 127.802 137.554 127.894 137.646 127.954L140.213 129.435C140.267 129.463 140.328 129.478 140.39 129.478C140.451 129.478 140.512 129.463 140.567 129.435L142.789 128.151C142.881 128.096 142.876 128.004 142.789 127.949L140.222 126.468C140.166 126.431 140.101 126.41 140.034 126.406C139.967 126.402 139.9 126.415 139.84 126.445L139.863 126.468ZM123.073 143.782L125.295 142.499C125.387 142.444 125.382 142.352 125.295 142.296L122.728 140.815C122.673 140.787 122.613 140.772 122.551 140.772C122.489 140.772 122.429 140.787 122.374 140.815L120.157 142.099C120.06 142.149 120.065 142.241 120.157 142.301L122.723 143.782C122.779 143.805 122.839 143.815 122.899 143.811C122.959 143.807 123.017 143.79 123.068 143.759L123.073 143.782ZM143.46 124.605C143.405 124.577 143.345 124.562 143.283 124.562C143.222 124.562 143.161 124.577 143.106 124.605L140.889 125.888C140.792 125.939 140.797 126.031 140.889 126.091L143.456 127.572C143.511 127.599 143.571 127.613 143.633 127.613C143.694 127.613 143.755 127.599 143.81 127.572L146.032 126.288C146.124 126.233 146.119 126.141 146.032 126.086L143.46 124.605ZM111.371 154.744L113.592 153.465C113.684 153.41 113.68 153.318 113.592 153.258L111.012 151.8C110.957 151.772 110.896 151.757 110.835 151.757C110.773 151.757 110.712 151.772 110.658 151.8L108.44 153.079C108.344 153.134 108.348 153.226 108.44 153.286L111.007 154.767C111.065 154.792 111.129 154.803 111.192 154.799C111.255 154.795 111.316 154.776 111.371 154.744ZM151.147 131.781L153.369 130.497C153.461 130.447 153.456 130.355 153.369 130.295L150.788 128.8C150.733 128.772 150.673 128.757 150.611 128.757C150.549 128.757 150.489 128.772 150.434 128.8L148.217 130.083C148.12 130.139 148.125 130.231 148.217 130.286L150.783 131.767C150.838 131.799 150.9 131.817 150.963 131.819C151.027 131.822 151.09 131.809 151.147 131.781ZM144.247 131.537L146.469 130.254C146.561 130.198 146.556 130.111 146.469 130.051L143.902 128.57C143.847 128.542 143.786 128.527 143.725 128.527C143.663 128.527 143.602 128.542 143.548 128.57L141.33 129.853C141.234 129.909 141.238 129.996 141.33 130.056L143.897 131.537C143.948 131.567 144.006 131.584 144.065 131.588C144.124 131.592 144.183 131.582 144.238 131.56L144.247 131.537ZM147.131 126.698C147.076 126.67 147.016 126.655 146.954 126.655C146.892 126.655 146.832 126.67 146.777 126.698L144.56 127.981C144.463 128.032 144.468 128.124 144.56 128.184L147.126 129.665C147.181 129.693 147.242 129.708 147.304 129.708C147.365 129.708 147.426 129.693 147.481 129.665L149.702 128.381C149.794 128.326 149.79 128.234 149.702 128.179L147.131 126.698ZM147.816 126.302L154.045 129.899C154.1 129.928 154.16 129.942 154.222 129.942C154.284 129.942 154.344 129.928 154.399 129.899L156.621 128.616C156.713 128.561 156.708 128.473 156.621 128.414L150.388 124.816C150.333 124.788 150.272 124.773 150.211 124.773C150.149 124.773 150.088 124.788 150.034 124.816L147.816 126.1C147.697 126.15 147.706 126.242 147.807 126.302H147.816ZM140.291 130.442L138.069 131.726C137.977 131.781 137.982 131.873 138.069 131.928L140.636 133.409C140.691 133.437 140.751 133.452 140.813 133.452C140.875 133.452 140.935 133.437 140.99 133.409L143.207 132.126C143.304 132.075 143.299 131.983 143.207 131.923L140.64 130.442C140.588 130.415 140.53 130.4 140.471 130.398C140.412 130.397 140.354 130.408 140.3 130.433L140.291 130.442ZM115.879 144.537L113.648 145.82C113.556 145.875 113.56 145.967 113.648 146.022L116.214 147.504C116.269 147.532 116.33 147.547 116.392 147.547C116.453 147.547 116.514 147.532 116.569 147.504L118.786 146.22C118.882 146.17 118.878 146.078 118.786 146.018L116.219 144.537C116.166 144.508 116.106 144.492 116.045 144.49C115.985 144.489 115.924 144.501 115.869 144.527L115.879 144.537ZM147.559 133.653C147.614 133.681 147.674 133.696 147.736 133.696C147.798 133.696 147.858 133.681 147.913 133.653L150.135 132.37C150.227 132.319 150.222 132.227 150.135 132.167L147.568 130.686C147.513 130.659 147.452 130.645 147.391 130.645C147.33 130.645 147.269 130.659 147.214 130.686L144.997 131.969C144.9 132.025 144.905 132.117 144.997 132.172L147.559 133.653ZM119.122 142.664L116.904 143.948C116.808 144.003 116.812 144.09 116.904 144.15L119.471 145.631C119.526 145.66 119.587 145.674 119.648 145.674C119.71 145.674 119.771 145.66 119.825 145.631L122.047 144.348C122.139 144.293 122.135 144.205 122.047 144.146L119.48 142.664C119.425 142.632 119.362 142.615 119.298 142.613C119.233 142.612 119.17 142.626 119.112 142.655L119.122 142.664ZM94.8061 164.11C94.8608 164.138 94.9216 164.153 94.9832 164.153C95.0448 164.153 95.1055 164.138 95.1603 164.11L97.3821 162.826C97.4741 162.771 97.4695 162.684 97.3821 162.624L94.8153 161.143C94.7605 161.114 94.6998 161.1 94.6382 161.1C94.5766 161.1 94.5158 161.114 94.4611 161.143L92.2439 162.426C92.1473 162.481 92.1565 162.569 92.2439 162.628L94.8061 164.11ZM89.9301 159.51L87.7083 160.793C87.6163 160.848 87.6209 160.936 87.7083 160.995L90.2751 162.477C90.3298 162.505 90.3906 162.52 90.4522 162.52C90.5138 162.52 90.5745 162.505 90.6293 162.477L92.8465 161.193C92.9431 161.138 92.9385 161.051 92.8465 160.991L90.2797 159.51C90.2243 159.481 90.1628 159.465 90.1003 159.465C90.0378 159.465 89.9762 159.481 89.9209 159.51H89.9301ZM98.4079 162.237L100.625 160.954C100.717 160.899 100.712 160.807 100.625 160.752L98.0583 159.27C98.0035 159.242 97.9428 159.227 97.8812 159.227C97.8196 159.227 97.7588 159.242 97.7041 159.27L95.4639 160.54C95.3719 160.591 95.3765 160.683 95.4639 160.742L98.0307 162.224C98.086 162.256 98.1487 162.275 98.2129 162.277C98.2772 162.28 98.341 162.266 98.3987 162.237H98.4079ZM101.651 160.365L103.868 159.082C103.965 159.027 103.955 158.935 103.868 158.879L101.306 157.398C101.251 157.37 101.19 157.355 101.129 157.355C101.067 157.355 101.006 157.37 100.952 157.398L98.7299 158.677C98.6379 158.732 98.6425 158.824 98.7299 158.884L101.297 160.365C101.353 160.394 101.415 160.409 101.478 160.409C101.542 160.409 101.604 160.394 101.66 160.365H101.651ZM104.871 158.488L107.088 157.21C107.185 157.154 107.18 157.062 107.088 157.007L104.521 155.521C104.466 155.494 104.406 155.48 104.344 155.48C104.283 155.48 104.222 155.494 104.167 155.521L101.945 156.8C101.853 156.855 101.858 156.947 101.945 157.007L104.512 158.488C104.569 158.519 104.632 158.535 104.696 158.535C104.76 158.535 104.824 158.519 104.88 158.488H104.871ZM93.1501 157.637L90.9283 158.921C90.8363 158.971 90.8409 159.063 90.9283 159.123L93.4951 160.604C93.5498 160.633 93.6106 160.647 93.6722 160.647C93.7338 160.647 93.7945 160.633 93.8493 160.604L96.0711 159.321C96.1631 159.266 96.1585 159.174 96.0711 159.119L93.5043 157.637C93.4513 157.611 93.3931 157.598 93.3341 157.598C93.2751 157.598 93.2168 157.611 93.1639 157.637H93.1501ZM96.3931 155.765L94.1759 157.044C94.0793 157.099 94.0839 157.191 94.1759 157.251L96.7427 158.732C96.7978 158.759 96.8584 158.774 96.9198 158.774C96.9812 158.774 97.0418 158.759 97.0969 158.732L99.3601 157.458C99.4521 157.403 99.4475 157.311 99.3601 157.256L96.7933 155.774C96.7353 155.739 96.6691 155.72 96.6013 155.718C96.5335 155.716 96.4664 155.733 96.4069 155.765H96.3931ZM109.37 148.276L107.18 149.555C107.088 149.61 107.093 149.702 107.18 149.762L109.747 151.243C109.802 151.271 109.863 151.285 109.924 151.285C109.985 151.285 110.046 151.271 110.101 151.243L112.318 149.965C112.415 149.909 112.406 149.817 112.318 149.758L109.756 148.276C109.699 148.245 109.635 148.229 109.57 148.229C109.505 148.229 109.441 148.245 109.383 148.276H109.37ZM106.122 150.149L103.905 151.427C103.813 151.483 103.817 151.575 103.905 151.634L106.472 153.116C106.527 153.143 106.587 153.157 106.649 153.157C106.71 153.157 106.771 153.143 106.826 153.116L109.043 151.837C109.14 151.782 109.13 151.69 109.043 151.63L106.476 150.149C106.423 150.124 106.365 150.111 106.306 150.111C106.247 150.111 106.189 150.124 106.136 150.149H106.122ZM112.613 146.4L110.4 147.683C110.308 147.738 110.313 147.83 110.4 147.885L112.967 149.371C113.022 149.398 113.083 149.413 113.144 149.413C113.205 149.413 113.266 149.398 113.321 149.371L115.538 148.088C115.635 148.037 115.63 147.945 115.538 147.885L112.971 146.404C112.918 146.378 112.859 146.364 112.799 146.363C112.74 146.362 112.681 146.375 112.626 146.4H112.613ZM99.6361 153.893L97.4189 155.172C97.3223 155.227 97.3269 155.319 97.4189 155.379L99.9857 156.86C100.041 156.887 100.101 156.901 100.163 156.901C100.224 156.901 100.285 156.887 100.34 156.86L102.562 155.577C102.654 155.521 102.649 155.429 102.562 155.374L99.9949 153.888C99.9407 153.863 99.8815 153.851 99.8218 153.852C99.7621 153.852 99.7034 153.867 99.6499 153.893H99.6361ZM102.879 152.021L100.662 153.3C100.565 153.355 100.574 153.447 100.662 153.507L103.229 154.988C103.283 155.016 103.343 155.031 103.403 155.031C103.464 155.031 103.524 155.016 103.578 154.988L105.8 153.709C105.892 153.654 105.887 153.562 105.8 153.502L103.233 152.021C103.18 151.996 103.122 151.983 103.063 151.983C103.004 151.983 102.946 151.996 102.893 152.021H102.879ZM100.515 165.241L102.732 163.958C102.824 163.903 102.819 163.811 102.732 163.755L100.165 162.274C100.11 162.246 100.05 162.231 99.988 162.231C99.9264 162.231 99.8656 162.246 99.8109 162.274L97.5937 163.558C97.4971 163.608 97.5063 163.7 97.5937 163.76L100.16 165.241C100.217 165.272 100.28 165.288 100.344 165.288C100.409 165.288 100.472 165.272 100.528 165.241H100.515ZM81.4937 163.3L78.9269 161.819C78.8721 161.791 78.8114 161.776 78.7498 161.776C78.6882 161.776 78.6274 161.791 78.5727 161.819L76.3601 163.111C76.2681 163.167 76.2727 163.254 76.3601 163.314L78.9269 164.795C78.9816 164.823 79.0424 164.838 79.104 164.838C79.1656 164.838 79.2263 164.823 79.2811 164.795L81.4983 163.512C81.5995 163.47 81.5949 163.378 81.4937 163.3ZM86.3513 164.726L83.7845 163.245C83.7302 163.218 83.6703 163.204 83.6097 163.204C83.549 163.204 83.4892 163.218 83.4349 163.245L80.0401 165.227C79.9481 165.283 79.9527 165.375 80.0401 165.43L82.6069 166.911C82.6616 166.939 82.7224 166.954 82.784 166.954C82.8456 166.954 82.9063 166.939 82.9611 166.911L86.3743 164.942C86.4801 164.896 86.4525 164.804 86.3513 164.744V164.726ZM77.5561 160.434L74.9801 158.971C74.9253 158.943 74.8646 158.928 74.803 158.928C74.7414 158.928 74.6806 158.943 74.6259 158.971L71.9027 160.54C71.8107 160.595 71.8153 160.687 71.9027 160.747L74.4695 162.228C74.5242 162.256 74.585 162.271 74.6466 162.271C74.7082 162.271 74.7689 162.256 74.8237 162.228L77.5515 160.655C77.6619 160.604 77.6573 160.512 77.5561 160.453V160.434ZM79.6491 159.224C79.7038 159.253 79.7646 159.267 79.8262 159.267C79.8878 159.267 79.9485 159.253 80.0033 159.224L82.2205 157.941C82.3171 157.89 82.3125 157.798 82.2205 157.739L79.6537 156.257C79.5989 156.229 79.5382 156.214 79.4766 156.214C79.415 156.214 79.3542 156.229 79.2995 156.257L77.0777 157.541C76.9857 157.596 76.9903 157.688 77.0777 157.743L79.6491 159.224ZM90.8731 166.35L88.3201 164.887C88.265 164.86 88.2044 164.846 88.143 164.846C88.0816 164.846 88.021 164.86 87.9659 164.887L83.6971 167.353C83.6051 167.408 83.6097 167.5 83.6971 167.555L86.2639 169.041C86.319 169.068 86.3795 169.082 86.441 169.082C86.5024 169.082 86.563 169.068 86.6181 169.041L90.8869 166.575C90.9789 166.52 90.9743 166.428 90.8731 166.368V166.35ZM93.0029 169.354L90.4361 167.9C90.3813 167.872 90.3206 167.857 90.259 167.857C90.1974 167.857 90.1366 167.872 90.0819 167.9L87.3495 169.478C87.2575 169.533 87.2621 169.625 87.3495 169.685L89.9163 171.166C89.9714 171.193 90.0319 171.207 90.0934 171.207C90.1548 171.207 90.2154 171.193 90.2705 171.166L93.0029 169.588C93.1087 169.524 93.1041 169.432 93.0029 169.372V169.354ZM103.767 145.3C103.822 145.328 103.882 145.343 103.944 145.343C104.006 145.343 104.066 145.328 104.121 145.3L106.338 144.021C106.435 143.966 106.426 143.874 106.338 143.814L103.771 142.333C103.716 142.306 103.656 142.292 103.594 142.292C103.533 142.292 103.472 142.306 103.417 142.333L101.2 143.635C101.108 143.69 101.113 143.782 101.2 143.837L103.767 145.3ZM97.2763 149.049C97.3314 149.076 97.3919 149.091 97.4534 149.091C97.5148 149.091 97.5754 149.076 97.6305 149.049L99.8523 147.77C99.9443 147.715 99.9397 147.623 99.8523 147.563L97.2855 146.082C97.2304 146.055 97.1698 146.041 97.1084 146.041C97.0469 146.041 96.9864 146.055 96.9313 146.082L94.7141 147.361C94.6175 147.416 94.6267 147.508 94.7141 147.568L97.2763 149.049ZM82.8921 157.371C82.9468 157.399 83.0076 157.414 83.0692 157.414C83.1308 157.414 83.1915 157.399 83.2463 157.371L85.4635 156.087C85.5601 156.032 85.5555 155.945 85.4635 155.885L82.8967 154.404C82.8419 154.375 82.7812 154.361 82.7196 154.361C82.658 154.361 82.5972 154.375 82.5425 154.404L80.3207 155.687C80.2287 155.742 80.2333 155.83 80.3207 155.889L82.8921 157.371ZM100.524 147.2C100.578 147.227 100.638 147.241 100.699 147.241C100.759 147.241 100.819 147.227 100.873 147.2L103.095 145.921C103.187 145.866 103.183 145.774 103.095 145.714L100.528 144.233C100.474 144.205 100.413 144.19 100.351 144.19C100.29 144.19 100.229 144.205 100.174 144.233L97.9571 145.512C97.8605 145.567 97.8697 145.659 97.9571 145.719L100.524 147.2ZM94.0333 150.944C94.088 150.973 94.1488 150.987 94.2104 150.987C94.272 150.987 94.3327 150.973 94.3875 150.944L96.6093 149.666C96.7013 149.61 96.6967 149.518 96.6093 149.459L94.0425 147.977C93.9874 147.95 93.9268 147.936 93.8654 147.936C93.8039 147.936 93.7434 147.95 93.6883 147.977L91.4711 149.256C91.3745 149.311 91.3791 149.403 91.4711 149.463L94.0333 150.944ZM94.7831 169.616C94.728 169.589 94.6674 169.574 94.606 169.574C94.5445 169.574 94.484 169.589 94.4289 169.616L91.0157 171.58C90.9237 171.635 90.9283 171.727 91.0157 171.787L93.5825 173.268C93.6372 173.296 93.698 173.311 93.7596 173.311C93.8212 173.311 93.8819 173.296 93.9367 173.268L97.3499 171.299C97.4465 171.244 97.4373 171.152 97.3499 171.092L94.7831 169.616ZM89.3781 153.64C89.4332 153.667 89.4937 153.681 89.5552 153.681C89.6166 153.681 89.6772 153.667 89.7323 153.64L91.9541 152.357C92.0461 152.301 92.0415 152.209 91.9541 152.154L89.3873 150.673C89.3325 150.645 89.2718 150.63 89.2102 150.63C89.1486 150.63 89.0878 150.645 89.0331 150.673L86.8159 151.956C86.7193 152.007 86.7239 152.099 86.8159 152.159L89.3781 153.64ZM86.1351 155.48C86.1898 155.508 86.2506 155.523 86.3122 155.523C86.3738 155.523 86.4345 155.508 86.4893 155.48L88.7111 154.197C88.8031 154.141 88.7985 154.049 88.7111 153.994L86.1443 152.513C86.0895 152.485 86.0288 152.47 85.9672 152.47C85.9056 152.47 85.8448 152.485 85.7901 152.513L83.5729 153.796C83.4763 153.847 83.4809 153.939 83.5729 153.999L86.1351 155.48ZM154.877 134.918C154.823 134.89 154.762 134.875 154.7 134.875C154.639 134.875 154.578 134.89 154.523 134.918L149.04 138.064C148.948 138.12 148.953 138.212 149.04 138.271L151.607 139.753C151.662 139.78 151.723 139.794 151.784 139.794C151.845 139.794 151.906 139.78 151.961 139.753L157.453 136.62C157.55 136.565 157.545 136.473 157.453 136.413L154.877 134.918ZM147.706 139.058C147.651 139.03 147.591 139.015 147.529 139.015C147.467 139.015 147.407 139.03 147.352 139.058L145.135 140.337C145.038 140.392 145.043 140.484 145.135 140.544L147.701 142.025C147.757 142.052 147.817 142.066 147.879 142.066C147.94 142.066 148.001 142.052 148.056 142.025L150.277 140.746C150.369 140.691 150.365 140.599 150.277 140.539L147.706 139.058ZM103.771 163.369L105.989 162.086C106.085 162.03 106.076 161.938 105.989 161.883L103.426 160.397C103.371 160.37 103.311 160.356 103.249 160.356C103.188 160.356 103.127 160.37 103.072 160.397L100.85 161.676C100.758 161.731 100.763 161.823 100.85 161.883L103.417 163.364C103.472 163.392 103.532 163.407 103.594 163.408C103.655 163.409 103.716 163.395 103.771 163.369ZM141.22 142.802C141.165 142.775 141.104 142.761 141.043 142.761C140.982 142.761 140.921 142.775 140.866 142.802L138.644 144.081C138.552 144.136 138.557 144.228 138.644 144.288L141.211 145.769C141.266 145.798 141.326 145.812 141.388 145.812C141.45 145.812 141.51 145.798 141.565 145.769L143.782 144.491C143.879 144.435 143.874 144.343 143.782 144.284L141.22 142.802ZM158.12 133.046C158.065 133.019 158.005 133.004 157.943 133.004C157.882 133.004 157.821 133.019 157.766 133.046L155.549 134.32C155.452 134.375 155.457 134.467 155.549 134.522L158.116 136.008C158.171 136.035 158.232 136.05 158.293 136.05C158.354 136.05 158.415 136.035 158.47 136.008L160.692 134.729C160.784 134.674 160.779 134.582 160.692 134.522L158.12 133.046ZM163.93 132.655L157.697 129.058C157.643 129.029 157.582 129.015 157.52 129.015C157.459 129.015 157.398 129.029 157.343 129.058L155.126 130.341C155.029 130.396 155.034 130.488 155.126 130.543L161.359 134.141C161.414 134.169 161.474 134.184 161.536 134.184C161.598 134.184 161.658 134.169 161.713 134.141L163.935 132.857C164.036 132.807 164.031 132.715 163.93 132.655ZM129.099 149.804C129.044 149.775 128.984 149.761 128.922 149.761C128.86 149.761 128.8 149.775 128.745 149.804L126.012 151.381C125.92 151.437 125.925 151.529 126.012 151.584L128.579 153.065C128.634 153.093 128.695 153.108 128.756 153.108C128.818 153.108 128.879 153.093 128.933 153.065L131.666 151.487C131.758 151.432 131.753 151.34 131.666 151.285L129.099 149.804ZM137.292 145.07C137.237 145.042 137.176 145.027 137.115 145.027C137.053 145.027 136.992 145.042 136.937 145.07L133.524 147.039C133.432 147.094 133.437 147.186 133.524 147.241L136.091 148.727C136.146 148.754 136.207 148.769 136.268 148.769C136.33 148.769 136.39 148.754 136.445 148.727L139.858 146.758C139.95 146.703 139.946 146.611 139.858 146.551L137.292 145.07ZM121.587 154.137C121.532 154.11 121.472 154.096 121.41 154.096C121.349 154.096 121.288 154.11 121.233 154.137L102.966 164.68C102.874 164.735 102.879 164.827 102.966 164.887L105.533 166.368C105.588 166.395 105.649 166.41 105.71 166.41C105.772 166.41 105.832 166.395 105.887 166.368L124.154 155.82C124.246 155.765 124.241 155.673 124.154 155.613L121.587 154.137ZM102.295 165.278C102.24 165.25 102.179 165.235 102.118 165.235C102.056 165.235 101.995 165.25 101.941 165.278L99.2129 166.856C99.1163 166.911 99.1209 167.003 99.2129 167.058L101.78 168.539C101.834 168.568 101.895 168.582 101.957 168.582C102.018 168.582 102.079 168.568 102.134 168.539L104.88 166.98C104.972 166.925 104.967 166.833 104.88 166.778L102.295 165.278ZM125.341 151.97C125.286 151.943 125.225 151.929 125.164 151.929C125.102 151.929 125.042 151.943 124.987 151.97L122.259 153.548C122.162 153.603 122.167 153.695 122.259 153.755L124.826 155.236C124.881 155.263 124.941 155.278 125.003 155.278C125.064 155.278 125.125 155.263 125.18 155.236L127.912 153.658C128.009 153.608 128 153.516 127.912 153.456L125.341 151.97ZM98.5413 167.44C98.4862 167.413 98.4256 167.399 98.3642 167.399C98.3028 167.399 98.2421 167.413 98.1871 167.44L95.4547 169.018C95.3627 169.073 95.3673 169.165 95.4547 169.225L98.0215 170.706C98.0765 170.733 98.1372 170.747 98.1986 170.747C98.26 170.747 98.3206 170.733 98.3757 170.706L101.103 169.133C101.2 169.078 101.195 168.986 101.103 168.926L98.5413 167.44ZM132.853 147.628C132.798 147.601 132.737 147.587 132.676 147.587C132.614 147.587 132.554 147.601 132.498 147.628L129.771 149.201C129.674 149.256 129.679 149.348 129.771 149.408L132.337 150.889C132.393 150.916 132.453 150.931 132.515 150.931C132.576 150.931 132.637 150.916 132.692 150.889L135.424 149.311C135.521 149.256 135.511 149.164 135.424 149.104L132.853 147.628ZM144.463 140.926C144.408 140.897 144.348 140.883 144.286 140.883C144.224 140.883 144.164 140.897 144.109 140.926L141.892 142.204C141.795 142.26 141.8 142.352 141.892 142.411L144.458 143.893C144.514 143.92 144.574 143.934 144.636 143.934C144.697 143.934 144.758 143.92 144.813 143.893L147.034 142.614C147.126 142.559 147.122 142.467 147.034 142.407L144.463 140.926ZM151.57 135.764L153.787 134.486C153.884 134.43 153.879 134.338 153.787 134.279L151.22 132.797C151.165 132.77 151.105 132.756 151.043 132.756C150.982 132.756 150.921 132.77 150.866 132.797L148.644 134.081C148.552 134.136 148.557 134.228 148.644 134.283L151.211 135.769C151.267 135.797 151.328 135.811 151.391 135.811C151.453 135.811 151.514 135.797 151.57 135.769V135.764ZM137.08 135.7L139.302 134.417C139.394 134.361 139.389 134.269 139.302 134.214L136.735 132.733C136.68 132.705 136.62 132.69 136.558 132.69C136.496 132.69 136.436 132.705 136.381 132.733L134.164 134.016C134.067 134.072 134.076 134.159 134.164 134.219L136.726 135.7C136.781 135.728 136.841 135.743 136.903 135.743C136.965 135.743 137.025 135.728 137.08 135.7ZM129.72 148.41L136.206 144.665C136.298 144.61 136.293 144.518 136.206 144.458L133.639 142.977C133.584 142.95 133.524 142.936 133.462 142.936C133.401 142.936 133.34 142.95 133.285 142.977L126.799 146.726C126.707 146.777 126.712 146.869 126.799 146.929L129.366 148.41C129.422 148.435 129.484 148.445 129.546 148.441C129.607 148.437 129.667 148.419 129.72 148.387V148.41ZM147.973 137.66C148.028 137.687 148.089 137.701 148.15 137.701C148.211 137.701 148.272 137.687 148.327 137.66L150.544 136.381C150.641 136.326 150.636 136.234 150.544 136.174L147.977 134.693C147.923 134.664 147.862 134.65 147.8 134.65C147.739 134.65 147.678 134.664 147.623 134.693L145.401 135.971C145.309 136.027 145.314 136.119 145.401 136.178L147.973 137.66ZM144.661 135.548L146.878 134.269C146.975 134.214 146.97 134.122 146.878 134.062L144.311 132.581C144.256 132.554 144.196 132.54 144.134 132.54C144.073 132.54 144.012 132.554 143.957 132.581L141.735 133.865C141.643 133.92 141.648 134.012 141.735 134.067L144.302 135.553C144.36 135.577 144.422 135.586 144.485 135.582C144.547 135.577 144.607 135.558 144.661 135.525V135.548ZM126.477 150.268L128.694 148.985C128.791 148.93 128.782 148.842 128.694 148.782L126.127 147.301C126.073 147.273 126.012 147.258 125.95 147.258C125.889 147.258 125.828 147.273 125.773 147.301L123.542 148.58C123.446 148.635 123.455 148.723 123.542 148.782L126.109 150.264C126.169 150.298 126.236 150.315 126.305 150.314C126.374 150.314 126.441 150.294 126.5 150.259L126.477 150.268ZM140.801 141.786C140.857 141.813 140.917 141.827 140.979 141.827C141.04 141.827 141.101 141.813 141.156 141.786L143.377 140.507C143.469 140.452 143.465 140.36 143.377 140.3L140.811 138.819C140.756 138.792 140.695 138.778 140.634 138.778C140.572 138.778 140.512 138.792 140.456 138.819L138.239 140.102C138.143 140.157 138.147 140.249 138.239 140.305L140.801 141.786ZM110.257 159.62L112.475 158.341C112.571 158.286 112.567 158.194 112.475 158.134L109.908 156.653C109.853 156.626 109.792 156.612 109.731 156.612C109.669 156.612 109.609 156.626 109.554 156.653L107.332 157.932C107.24 157.987 107.244 158.079 107.332 158.139L109.899 159.62C109.954 159.648 110.016 159.662 110.078 159.662C110.14 159.662 110.202 159.648 110.257 159.62ZM113.5 157.748L115.722 156.469C115.814 156.414 115.81 156.322 115.722 156.262L113.16 154.781C113.105 154.753 113.045 154.738 112.983 154.738C112.921 154.738 112.861 154.753 112.806 154.781L110.584 156.06C110.492 156.115 110.497 156.207 110.584 156.267L113.151 157.748C113.205 157.774 113.265 157.788 113.326 157.788C113.386 157.788 113.446 157.774 113.5 157.748ZM107.014 161.492L109.232 160.213C109.328 160.158 109.324 160.066 109.232 160.006L106.669 158.525C106.614 158.498 106.554 158.484 106.492 158.484C106.431 158.484 106.37 158.498 106.315 158.525L104.093 159.804C104.001 159.859 104.006 159.951 104.093 160.011L106.66 161.492C106.715 161.52 106.776 161.535 106.837 161.535C106.899 161.535 106.96 161.52 107.014 161.492ZM119.986 154.003L122.208 152.725C122.3 152.669 122.296 152.577 122.208 152.518L119.641 151.036C119.586 151.009 119.526 150.995 119.464 150.995C119.403 150.995 119.342 151.009 119.287 151.036L117.07 152.32C116.973 152.375 116.978 152.467 117.07 152.522L119.637 154.003C119.691 154.031 119.751 154.045 119.812 154.045C119.872 154.045 119.932 154.031 119.986 154.003ZM116.766 155.876L118.988 154.597C119.08 154.542 119.076 154.45 118.988 154.39L116.38 152.909C116.325 152.88 116.265 152.866 116.203 152.866C116.141 152.866 116.081 152.88 116.026 152.909L113.809 154.187C113.712 154.243 113.717 154.335 113.809 154.39L116.375 155.876C116.432 155.905 116.495 155.92 116.559 155.92C116.624 155.92 116.687 155.905 116.743 155.876H116.766ZM123.252 152.131L125.474 150.848C125.566 150.797 125.562 150.705 125.474 150.645L122.907 149.164C122.853 149.136 122.792 149.121 122.73 149.121C122.669 149.121 122.608 149.136 122.553 149.164L120.299 150.42C120.203 150.475 120.212 150.567 120.299 150.622L122.861 152.104C122.916 152.139 122.978 152.159 123.042 152.164C123.106 152.169 123.171 152.158 123.229 152.131H123.252ZM138.092 124.425C138.147 124.454 138.208 124.468 138.269 124.468C138.331 124.468 138.392 124.454 138.446 124.425L140.668 123.142C140.76 123.091 140.755 122.999 140.668 122.94L139.987 122.544C139.932 122.517 139.872 122.503 139.81 122.503C139.749 122.503 139.688 122.517 139.633 122.544L137.411 123.823C137.319 123.878 137.324 123.97 137.411 124.03L138.092 124.425ZM122.135 134.729C122.189 134.758 122.25 134.772 122.312 134.772C122.373 134.772 122.434 134.758 122.489 134.729L124.706 133.451C124.803 133.395 124.798 133.303 124.706 133.244L122.139 131.762C122.084 131.735 122.024 131.721 121.962 131.721C121.901 131.721 121.84 131.735 121.785 131.762L119.563 133.041C119.471 133.096 119.476 133.188 119.563 133.248L122.135 134.729ZM128.621 130.985C128.676 131.012 128.736 131.026 128.798 131.026C128.859 131.026 128.92 131.012 128.975 130.985L131.197 129.706C131.289 129.651 131.284 129.559 131.197 129.499L128.63 128.018C128.575 127.99 128.514 127.975 128.453 127.975C128.391 127.975 128.33 127.99 128.276 128.018L126.04 129.297C125.943 129.352 125.948 129.444 126.04 129.504L128.621 130.985ZM118.174 137.016C118.229 137.043 118.29 137.057 118.351 137.057C118.413 137.057 118.473 137.043 118.528 137.016L120.745 135.732C120.842 135.677 120.837 135.585 120.745 135.53L118.179 134.044C118.124 134.017 118.063 134.003 118.002 134.003C117.94 134.003 117.88 134.017 117.824 134.044L115.603 135.323C115.511 135.378 115.515 135.47 115.603 135.53L118.174 137.016ZM125.378 132.876C125.433 132.903 125.493 132.917 125.555 132.917C125.616 132.917 125.677 132.903 125.732 132.876L127.954 131.597C128.046 131.542 128.041 131.45 127.954 131.39L125.387 129.909C125.332 129.881 125.271 129.867 125.21 129.867C125.148 129.867 125.088 129.881 125.033 129.909L122.815 131.187C122.719 131.243 122.723 131.335 122.815 131.394L125.378 132.876ZM111.665 140.76C111.72 140.788 111.781 140.803 111.842 140.803C111.904 140.803 111.965 140.788 112.019 140.76L114.236 139.477C114.333 139.421 114.324 139.329 114.236 139.274L111.674 137.793C111.62 137.765 111.559 137.75 111.497 137.75C111.436 137.75 111.375 137.765 111.32 137.793L109.098 139.076C109.006 139.127 109.011 139.219 109.098 139.279L111.665 140.76ZM114.908 138.888C114.963 138.915 115.024 138.929 115.085 138.929C115.147 138.929 115.207 138.915 115.262 138.888L117.479 137.604C117.576 137.549 117.571 137.457 117.479 137.402L114.917 135.921C114.863 135.893 114.802 135.878 114.74 135.878C114.679 135.878 114.618 135.893 114.563 135.921L112.341 137.204C112.249 137.255 112.254 137.347 112.341 137.407L114.908 138.888ZM131.583 128.174C131.638 128.202 131.699 128.216 131.76 128.216C131.822 128.216 131.882 128.202 131.937 128.174L134.159 126.896C134.251 126.84 134.246 126.748 134.159 126.689L133.474 126.293C133.419 126.266 133.358 126.252 133.297 126.252C133.235 126.252 133.175 126.266 133.119 126.293L130.902 127.572C130.806 127.627 130.815 127.719 130.902 127.779L131.583 128.174ZM141.317 122.553C141.371 122.581 141.431 122.596 141.491 122.596C141.552 122.596 141.612 122.581 141.666 122.553L143.888 121.27C143.98 121.215 143.975 121.127 143.888 121.067L143.207 120.672C143.153 120.644 143.092 120.629 143.03 120.629C142.969 120.629 142.908 120.644 142.853 120.672L140.631 121.951C140.539 122.006 140.544 122.098 140.631 122.158L141.317 122.553ZM146.703 125.667C146.758 125.695 146.819 125.709 146.88 125.709C146.942 125.709 147.002 125.695 147.057 125.667L149.279 124.384C149.371 124.329 149.367 124.237 149.279 124.182L146.712 122.696C146.657 122.669 146.597 122.654 146.535 122.654C146.474 122.654 146.413 122.669 146.358 122.696L144.141 123.975C144.044 124.03 144.054 124.122 144.141 124.182L146.703 125.667ZM154.813 133.897L157.035 132.613C157.127 132.563 157.122 132.471 157.035 132.411L154.468 130.93C154.413 130.903 154.352 130.888 154.291 130.888C154.23 130.888 154.169 130.903 154.114 130.93L151.897 132.213C151.8 132.268 151.805 132.36 151.897 132.416L154.463 133.897C154.518 133.924 154.578 133.939 154.638 133.939C154.699 133.939 154.759 133.924 154.813 133.897ZM134.826 126.302C134.881 126.329 134.942 126.344 135.003 126.344C135.065 126.344 135.125 126.329 135.18 126.302L137.402 125.023C137.494 124.968 137.489 124.876 137.402 124.816L136.717 124.421C136.662 124.394 136.601 124.379 136.54 124.379C136.478 124.379 136.418 124.394 136.362 124.421L134.145 125.7C134.053 125.755 134.058 125.847 134.145 125.907L134.826 126.302ZM108.422 142.632C108.477 142.66 108.538 142.675 108.599 142.675C108.661 142.675 108.722 142.66 108.776 142.632L110.993 141.349C111.085 141.294 111.081 141.206 110.993 141.146L108.427 139.665C108.372 139.637 108.311 139.622 108.25 139.622C108.188 139.622 108.127 139.637 108.072 139.665L105.855 140.949C105.763 141.004 105.768 141.091 105.855 141.151L108.422 142.632Z" fill="#455A64"/>
<path d="M121.61 162.794L145.898 148.769L160.848 157.398L136.556 171.424L121.61 162.794Z" fill="#23272E"/>
<path d="M67.6201 92.1196L140.006 50.3286C141.418 49.5098 142.577 50.1814 142.577 51.8144V107.875C142.554 108.289 142.434 108.693 142.226 109.052C142.018 109.412 141.729 109.717 141.381 109.945L67.1601 152.798C66.5023 153.175 65.9641 152.867 65.9641 152.108V94.9854C65.9971 94.4116 66.1641 93.8535 66.4517 93.3558C66.7392 92.8582 67.1394 92.4348 67.6201 92.1196Z" fill="#FCFDFF"/>
<path d="M142.6 53.1579V51.8147C142.6 50.1817 141.441 49.5147 140.029 50.3289L67.6201 92.1199C67.1394 92.4351 66.7392 92.8585 66.4517 93.3561C66.1641 93.8538 65.9971 94.4119 65.9641 94.9857V97.3915L142.6 53.1579Z" fill="#603E94"/>
<path d="M131.799 56.2166C131.541 56.3848 131.326 56.6116 131.172 56.8786C131.017 57.1455 130.928 57.4451 130.911 57.753C130.911 58.3188 131.307 58.5488 131.799 58.2636C132.057 58.0959 132.271 57.8697 132.424 57.6035C132.578 57.3373 132.666 57.0387 132.682 56.7318C132.682 56.166 132.287 55.936 131.799 56.2166Z" fill="white"/>
<path d="M135.314 54.188C135.056 54.3567 134.842 54.5837 134.689 54.8507C134.535 55.1176 134.447 55.4169 134.431 55.7244C134.431 56.2902 134.826 56.5156 135.314 56.235C135.572 56.0668 135.787 55.84 135.941 55.5731C136.096 55.3061 136.185 55.0065 136.201 54.6986C136.201 54.1328 135.806 53.9028 135.314 54.188Z" fill="white"/>
<path d="M138.833 52.1548C138.575 52.3238 138.36 52.5508 138.206 52.8176C138.052 53.0844 137.963 53.3836 137.945 53.6912C137.945 54.257 138.345 54.487 138.833 54.2018C139.091 54.0343 139.306 53.8083 139.46 53.5421C139.614 53.276 139.703 52.9772 139.72 52.67C139.72 52.1042 139.32 51.8742 138.833 52.1548Z" fill="white"/>
<path d="M83.8382 124.838L81.0218 123.212L74.1241 135.159L76.9406 136.785L83.8382 124.838Z" fill="#37474F"/>
<path d="M83.844 124.834L82.4377 124.022L75.54 135.97L76.9463 136.782L83.844 124.834Z" fill="#23272E"/>
<path d="M66.5619 158.488C65.2785 160.719 59.2019 157.177 60.4807 154.979L76.3277 130.263C76.3704 130.196 76.4373 130.148 76.5144 130.129C76.5915 130.11 76.673 130.122 76.7417 130.162L79.9249 132.002C79.9935 132.04 80.0443 132.104 80.0666 132.18C80.0889 132.255 80.081 132.337 80.0445 132.406L66.5619 158.488Z" fill="#603E94"/>
<path opacity="0.1" d="M66.562 158.488L80.04 132.406C80.0765 132.337 80.0844 132.255 80.0621 132.18C80.0398 132.104 79.989 132.04 79.9204 132.002L78.4714 131.164L63.02 158.631C64.4276 159.326 65.9824 159.496 66.562 158.488Z" fill="#23272E"/>
<path d="M113.16 100.303C113.16 100.114 113.16 99.9304 113.132 99.7464C113.105 99.5624 113.132 99.383 113.091 99.2036C113.049 99.0242 113.091 98.9644 113.054 98.8448C113.022 98.532 112.976 98.2238 112.925 97.9248C112.902 97.7914 112.879 97.6534 112.852 97.52C112.824 97.3866 112.801 97.267 112.773 97.1428C112.695 96.8024 112.612 96.4712 112.516 96.1538C112.465 96.002 112.419 95.8502 112.369 95.6938C112.359 95.6715 112.351 95.6484 112.346 95.6248C112.29 95.4776 112.24 95.335 112.185 95.197C112.129 95.059 112.056 94.875 111.982 94.737C111.909 94.599 111.881 94.5116 111.821 94.4012C111.788 94.3184 111.748 94.2384 111.702 94.162C111.656 94.0654 111.605 93.9688 111.55 93.8768C111.495 93.7848 111.527 93.8308 111.513 93.8124C111.499 93.794 111.416 93.6468 111.366 93.564C111.315 93.4812 111.297 93.4582 111.265 93.4076C111.029 93.0363 110.764 92.6841 110.473 92.3542L110.326 92.1886L110.202 92.0598C110.151 92.0046 110.096 91.954 110.041 91.8988C109.897 91.747 109.743 91.6041 109.581 91.471C109.503 91.402 109.42 91.3376 109.337 91.2778L109.084 91.0938C108.953 90.9974 108.816 90.9084 108.675 90.827L108.564 90.758H108.541L102.023 86.9952L101.986 86.9722C100.736 86.2748 99.3242 85.9179 97.8924 85.9372C95.758 85.9372 93.3476 86.6364 90.7946 88.1084C82.027 93.1684 74.9154 105.487 74.9154 115.616C74.9154 120.676 76.6818 124.218 79.5384 125.884H79.566L86.0888 129.642H86.1164L86.1946 129.683C86.317 129.755 86.4428 129.821 86.5718 129.881C86.7282 129.959 86.8892 130.028 87.0318 130.093C87.1744 130.157 87.3216 130.208 87.4688 130.254L87.7034 130.323C87.7856 130.354 87.8702 130.379 87.9564 130.396C88.0412 130.422 88.1271 130.443 88.214 130.461C88.2759 130.479 88.3389 130.493 88.4026 130.502C88.513 130.525 88.6326 130.548 88.7476 130.562C88.7735 130.566 88.8 130.566 88.8258 130.562C88.9638 130.586 89.1018 130.605 89.2398 130.617C91.6042 130.865 94.355 130.198 97.299 128.501C106.071 123.441 113.183 111.118 113.183 100.993C113.16 100.781 113.16 100.542 113.16 100.303ZM102.52 93.1408C102.865 94.3995 103.033 95.6998 103.021 97.0048C103.021 105.938 96.4848 117.245 88.7614 121.725C87.6324 122.396 86.4134 122.903 85.1412 123.229C84.7987 121.969 84.63 120.667 84.6398 119.361C84.6398 110.428 91.1764 99.1208 98.8998 94.6404C100.025 93.9718 101.239 93.4668 102.506 93.1408H102.52Z" fill="#603E94"/>
<path opacity="0.1" d="M85.8222 129.513L79.488 125.861C76.6314 124.191 74.865 120.64 74.865 115.598C74.865 111.081 76.2818 106.131 78.6232 101.586L85.146 105.34C82.8 109.885 81.3878 114.834 81.3878 119.352C81.3878 124.301 83.0714 127.802 85.8222 129.513Z" fill="#23272E"/>
<path opacity="0.4" d="M113.16 100.303C113.16 100.114 113.16 99.9304 113.132 99.7464C113.105 99.5624 113.132 99.383 113.091 99.2036C113.05 99.0242 113.091 98.9644 113.054 98.8448C113.022 98.532 112.976 98.2238 112.925 97.9248C112.902 97.7914 112.879 97.6534 112.852 97.52C112.824 97.3866 112.801 97.267 112.774 97.1428C112.695 96.8024 112.613 96.4712 112.516 96.1538C112.465 96.002 112.419 95.8502 112.369 95.6938C112.359 95.6715 112.351 95.6485 112.346 95.6248C112.29 95.4776 112.24 95.335 112.185 95.197C112.13 95.059 112.056 94.875 111.982 94.737C111.909 94.599 111.881 94.5116 111.821 94.4012C111.788 94.3184 111.748 94.2384 111.702 94.162C111.656 94.0654 111.605 93.9688 111.55 93.8768C111.495 93.7848 111.527 93.8308 111.513 93.8124C111.499 93.794 111.417 93.6468 111.366 93.564C111.315 93.4812 111.297 93.4582 111.265 93.4076C111.029 93.0363 110.764 92.6841 110.474 92.3542L110.326 92.1886L110.202 92.0598C110.152 92.0046 110.096 91.954 110.041 91.8988C109.897 91.747 109.743 91.6041 109.581 91.471C109.503 91.402 109.42 91.3376 109.337 91.2778L109.084 91.0938C108.953 90.9974 108.816 90.9084 108.675 90.827C105.791 89.0744 101.775 89.2814 97.3083 91.8528C88.5361 96.9128 81.4245 109.232 81.4245 119.361C81.4245 124.49 83.2645 128.073 86.1855 129.702C86.3078 129.774 86.4337 129.84 86.5627 129.899C86.7191 129.978 86.8801 130.047 87.0227 130.111C87.1653 130.175 87.3125 130.226 87.4597 130.272L87.6943 130.341C87.7765 130.372 87.8611 130.397 87.9473 130.415C88.032 130.44 88.118 130.462 88.2049 130.479C88.2667 130.497 88.3297 130.511 88.3935 130.52C88.5039 130.543 88.6235 130.566 88.7385 130.58C88.7644 130.585 88.7908 130.585 88.8167 130.58C88.9547 130.605 89.0927 130.623 89.2307 130.635C91.5951 130.884 94.3459 130.217 97.2899 128.519C106.062 123.459 113.174 111.136 113.174 101.011C113.16 100.781 113.16 100.542 113.16 100.303ZM95.6799 125.746C93.7111 126.882 91.8159 127.48 90.1967 127.48C87.1561 127.48 85.7577 125.405 85.1367 123.229C84.7942 121.969 84.6255 120.667 84.6353 119.361C84.6353 110.428 91.1719 99.1208 98.8953 94.6404C100.024 93.9705 101.243 93.4656 102.515 93.1408C103.118 92.9916 103.735 92.9129 104.355 92.9062C109.383 92.9062 109.922 98.5826 109.922 101.025C109.94 109.94 103.403 121.279 95.6799 125.746Z" fill="white"/>
<path opacity="0.1" d="M109.94 101.025C109.94 109.958 103.408 121.265 95.68 125.746C93.7112 126.882 91.816 127.48 90.1968 127.48C87.1562 127.48 85.7578 125.405 85.1368 123.229C86.409 122.903 87.628 122.396 88.757 121.725C96.4942 117.259 103.017 105.938 103.017 97.0048C103.029 95.6998 102.86 94.3995 102.516 93.1408C103.118 92.9916 103.735 92.9129 104.356 92.9062C109.397 92.92 109.94 98.5826 109.94 101.025Z" fill="#23272E"/>
<path opacity="0.7" d="M107.18 99.4657C107.18 108.399 100.648 119.706 92.9199 124.186C90.9511 125.322 89.0559 125.92 87.4367 125.92C87.1147 125.921 86.7931 125.895 86.4753 125.842C85.8537 125.074 85.4008 124.184 85.1459 123.229C84.8034 121.969 84.6347 120.667 84.6445 119.361C84.6445 110.428 91.1811 99.1207 98.9045 94.6403C100.034 93.9705 101.253 93.4655 102.525 93.1407C103.127 92.9915 103.744 92.9128 104.365 92.9061C104.688 92.9053 105.011 92.9315 105.331 92.9843C106.922 94.8565 107.18 97.8603 107.18 99.4657Z" fill="white"/>
<path d="M118.298 90.16V100.344C118.298 101.108 118.836 101.416 119.494 101.034L186.24 62.5002C186.588 62.273 186.877 61.9673 187.085 61.6077C187.293 61.2482 187.413 60.8448 187.436 60.4302V50.232C187.436 49.4684 186.898 49.1602 186.24 49.542L119.494 88.0762C119.145 88.305 118.855 88.6129 118.647 88.975C118.439 89.3371 118.32 89.7431 118.298 90.16Z" fill="#E6E6E6"/>
<path d="M119.494 88.0762L131.381 81.2176V94.162L119.494 101.021C118.836 101.402 118.298 101.094 118.298 100.331V90.16C118.32 89.7431 118.439 89.3371 118.647 88.975C118.855 88.6129 119.145 88.305 119.494 88.0762Z" fill="#603E94"/>
<path d="M127.448 86.8664C126.698 86.434 125.75 86.503 124.78 87.0642C123.857 87.6551 123.09 88.4584 122.542 89.4068C121.993 90.3551 121.68 91.421 121.629 92.5152C121.596 93.2243 121.82 93.9215 122.259 94.4794L120.98 96.669C120.897 96.8257 120.876 97.0082 120.924 97.1793C120.971 97.3504 121.081 97.497 121.233 97.589C121.338 97.6482 121.457 97.6799 121.578 97.681C121.699 97.6811 121.818 97.6492 121.923 97.5887C122.028 97.5281 122.115 97.441 122.176 97.336L123.441 95.1464C123.578 95.172 123.716 95.1859 123.855 95.1878C124.42 95.1775 124.972 95.0189 125.456 94.7278C126.376 94.1355 127.142 93.3318 127.69 92.3837C128.237 91.4355 128.55 90.3703 128.602 89.2768C128.616 88.159 128.202 87.3034 127.448 86.8664ZM124.78 93.5364C124.618 93.7102 124.402 93.8241 124.168 93.8595C123.933 93.8948 123.693 93.8495 123.487 93.7309C123.282 93.6124 123.123 93.4276 123.036 93.2068C122.949 92.9859 122.939 92.7421 123.009 92.5152C123.062 91.6641 123.312 90.8369 123.739 90.0987C124.166 89.3604 124.759 88.7311 125.47 88.2602C125.745 88.0845 126.063 87.9846 126.39 87.9704C126.524 87.9653 126.658 87.9971 126.776 88.0624C126.949 88.2104 127.082 88.3998 127.162 88.6129C127.243 88.826 127.268 89.0559 127.236 89.2814C127.183 90.1322 126.933 90.959 126.507 91.6973C126.081 92.4355 125.49 93.065 124.78 93.5364Z" fill="white"/>
</svg>
