<svg width="264" height="230" viewBox="0 0 264 230" fill="none" xmlns="http://www.w3.org/2000/svg">
<path d="M132.72 219.701C192.496 219.701 240.954 191.722 240.954 157.21C240.954 122.697 192.496 94.7186 132.72 94.7186C72.9446 94.7186 24.4868 122.697 24.4868 157.21C24.4868 191.722 72.9446 219.701 132.72 219.701Z" fill="#F5F5F5"/>
<path d="M204.085 187.855C221.043 187.855 234.79 179.918 234.79 170.127C234.79 160.335 221.043 152.398 204.085 152.398C187.127 152.398 173.38 160.335 173.38 170.127C173.38 179.918 187.127 187.855 204.085 187.855Z" fill="#DDE2E5"/>
<path d="M126.377 179.69L91.7389 159.685L131.331 136.827L165.974 156.828L126.377 179.69Z" fill="#DDE2E5"/>
<path d="M32.0586 173.503L76.7338 199.295L114.205 177.666L69.5302 151.874L32.0586 173.503Z" fill="#DDE2E5"/>
<path d="M98.1193 52.2698V49.7306C98.1003 49.5839 98.0437 49.4446 97.955 49.3261C97.8664 49.2077 97.7487 49.1141 97.6133 49.0544L82.2815 40.2592C81.9162 40.0755 81.5129 39.9799 81.1039 39.9799C80.695 39.9799 80.2917 40.0755 79.9263 40.2592L35.8629 65.5592C35.7276 65.6189 35.6099 65.7124 35.5212 65.8309C35.4326 65.9494 35.376 66.0887 35.3569 66.2354V68.7746C35.3756 68.9214 35.432 69.0609 35.5207 69.1795C35.6094 69.298 35.7273 69.3915 35.8629 69.4508L51.1901 78.2322C51.5555 78.4158 51.9588 78.5115 52.3677 78.5115C52.7767 78.5115 53.18 78.4158 53.5453 78.2322L97.6087 52.9322C97.7444 52.8729 97.8623 52.7794 97.951 52.6609C98.0397 52.5423 98.0961 52.4028 98.1147 52.256L98.1193 52.2698Z" fill="#F0F0F0"/>
<path d="M35.8627 66.8978L51.1899 75.693C51.5546 75.8788 51.9581 75.9756 52.3675 75.9756C52.7768 75.9756 53.1803 75.8788 53.5451 75.693L97.6085 50.393C98.2571 50.0204 98.2571 49.4178 97.6085 49.0406L82.2813 40.2592C81.9159 40.0755 81.5126 39.9799 81.1037 39.9799C80.6947 39.9799 80.2915 40.0755 79.9261 40.2592L35.8627 65.5592C35.2141 65.9226 35.2141 66.5252 35.8627 66.8978Z" fill="#FAFAFA"/>
<path d="M52.3677 75.9782V78.5128C51.958 78.5188 51.5532 78.4223 51.1901 78.2322L35.8629 69.46C35.7273 69.4007 35.6094 69.3072 35.5207 69.1887C35.432 69.0702 35.3756 68.9307 35.3569 68.7838V66.24C35.3659 66.1372 35.399 66.0379 35.4535 65.9502C35.2741 66.2768 35.4075 66.654 35.8629 66.9162L51.1901 75.6976C51.5522 75.8904 51.9577 75.987 52.3677 75.9782Z" fill="#DDE2E5"/>
<path d="M60.6018 54.5238L73.5876 61.9252L95.0374 49.6156L82.0562 42.2096L60.6018 54.5238Z" fill="#DDE2E5"/>
<path d="M73.7349 61.364L61.2091 54.1742C61.5346 53.1123 61.5104 51.9738 61.1401 50.9266L73.5877 58.0382C73.5877 58.0382 73.8269 58.8248 73.7349 61.364Z" fill="white"/>
<path d="M72.9481 57.04C73.2977 57.2659 73.589 57.5711 73.7985 57.9307C74.0079 58.2904 74.1295 58.6945 74.1533 59.11V61.5296C74.1533 62.2932 73.6105 62.6014 72.9481 62.2242L60.6201 55.1218V54.5238L72.8009 61.4698C73.2011 61.6998 73.5231 61.5112 73.5231 61.0558V58.811C73.5093 58.5617 73.4366 58.3192 73.3111 58.1033C73.1856 57.8874 73.0108 57.7043 72.8009 57.569L60.6201 50.6V49.9192L72.9481 57.04Z" fill="#EBEBEB"/>
<path d="M60.6199 49.9422L82.0559 37.628L94.3977 44.712C94.7481 44.938 95.04 45.2439 95.2495 45.6045C95.459 45.9651 95.5801 46.3702 95.6029 46.7866V49.22C95.6192 49.3688 95.5949 49.5192 95.5325 49.6553C95.4702 49.7914 95.3721 49.908 95.2487 49.9928L73.7989 62.307C73.92 62.2203 74.0161 62.1032 74.0775 61.9675C74.1388 61.8318 74.1633 61.6824 74.1485 61.5342V59.11C74.1261 58.6941 74.0051 58.2895 73.7956 57.9296C73.586 57.5697 73.2939 57.2648 72.9433 57.04L60.6199 49.9422Z" fill="#FAFAFA"/>
<path d="M73.7991 57.9185C74.0177 58.2735 74.1398 58.6795 74.1533 59.0961V61.5203C74.1681 61.6685 74.1436 61.818 74.0823 61.9537C74.0209 62.0894 73.9248 62.2065 73.8037 62.2931L95.2535 49.9789C95.3769 49.8942 95.475 49.7776 95.5373 49.6415C95.5997 49.5054 95.624 49.3549 95.6077 49.2061V46.7865C95.5943 46.3699 95.4722 45.9639 95.2535 45.6089L73.7991 57.9185Z" fill="#F0F0F0"/>
<path d="M47.3998 36.1007L47.2756 37.7383L61.7748 45.5169L62.1014 44.5601L47.3998 36.1007Z" fill="#EBEBEB"/>
<path d="M61.9083 44.942L47.8645 36.8368L45.4219 38.2444L59.7417 46.621L61.9083 44.942Z" fill="white"/>
<path d="M57.1058 45.7515L55.7258 62.0263C55.7326 62.2101 55.7834 62.3895 55.8738 62.5496C55.9642 62.7096 56.0918 62.8457 56.2456 62.9463L64.3922 67.6613C64.5222 67.7332 64.667 67.7741 64.8154 67.7809L59.7554 47.1683C59.6078 47.1602 59.4636 47.1211 59.3322 47.0533L58.748 46.7129L57.1058 45.7515Z" fill="#DDE2E5"/>
<path d="M60.3627 47.035L61.8163 45.7884L62.8789 44.8684C62.9893 44.6936 63.1181 44.5648 63.0491 44.4084L68.0447 64.8692C68.1137 65.0118 68.1321 65.3292 67.9343 65.4488L65.4181 67.6016C65.2276 67.7025 65.0114 67.7441 64.7971 67.7212L59.7371 47.1086C59.9483 47.1451 60.1656 47.1195 60.3627 47.035Z" fill="#F0F0F0"/>
<path d="M62.8835 44.275C63.1687 44.4406 63.0997 44.6246 62.8835 44.873L60.3627 47.0304C60.2023 47.1142 60.0239 47.158 59.8429 47.158C59.6619 47.158 59.4835 47.1142 59.3231 47.0304L57.1059 45.7516C56.8161 45.586 56.7655 45.3468 56.9909 45.218C57.139 45.1579 57.2989 45.1324 57.4584 45.1436C57.6178 45.1548 57.7726 45.2022 57.9109 45.2824L59.6589 46.2944C59.7124 46.3214 59.7715 46.3355 59.8314 46.3355C59.8913 46.3355 59.9504 46.3214 60.0039 46.2944L61.8439 44.6936C61.9405 44.6384 61.9405 44.551 61.8439 44.4958L47.3999 36.1008L48.0899 35.7006L62.8835 44.275Z" fill="#FAFAFA"/>
<path d="M43.2136 36.8875L57.0274 44.8639V71.1483L43.2136 63.1673V36.8875Z" fill="#EBEBEB"/>
<path d="M56.5811 45.3008L43.2135 37.628C42.396 38.4948 41.3253 39.0808 40.1545 39.3024L53.4117 46.943C53.4117 46.943 54.2673 46.7406 56.5811 45.3008Z" fill="white"/>
<path d="M52.1285 46.92C52.5269 47.1196 52.9663 47.2235 53.4119 47.2235C53.8574 47.2235 54.2969 47.1196 54.6953 46.92L56.9401 45.6044C57.6485 45.195 57.6485 44.5372 56.9401 44.1278L43.7703 36.5654L43.2137 36.8874L56.1719 44.3716C56.2674 44.3995 56.3513 44.4576 56.4111 44.5372C56.4708 44.6168 56.5031 44.7137 56.5031 44.8132C56.5031 44.9128 56.4708 45.0096 56.4111 45.0892C56.3513 45.1688 56.2674 45.227 56.1719 45.2548L54.0789 46.46C53.8398 46.5802 53.5759 46.6428 53.3084 46.6428C53.0408 46.6428 52.7769 46.5802 52.5379 46.46L39.5843 38.9712L38.9495 39.3346L52.1285 46.92Z" fill="#FAFAFA"/>
<path d="M38.9541 39.3346V65.6144L52.1285 73.1768C52.5269 73.3763 52.9663 73.4802 53.4119 73.4802C53.8575 73.4802 54.2969 73.3763 54.6953 73.1768L56.9493 71.8842C57.0958 71.8196 57.2222 71.7167 57.3153 71.5864C57.4084 71.4561 57.4647 71.3031 57.4783 71.1436V44.8638C57.464 45.0238 57.4064 45.1769 57.3115 45.3066C57.2167 45.4363 57.0883 45.5377 56.9401 45.5998L54.6953 46.92C54.2969 47.1195 53.8575 47.2234 53.4119 47.2234C52.9663 47.2234 52.5269 47.1195 52.1285 46.92L38.9541 39.3346Z" fill="#EBEBEB"/>
<path d="M53.4118 47.2006C53.8584 47.2094 54.2999 47.105 54.6952 46.897L56.94 45.5998C57.0864 45.5364 57.213 45.4345 57.3061 45.3049C57.3992 45.1753 57.4555 45.0229 57.469 44.8638V71.1436C57.4554 71.3032 57.3991 71.4561 57.306 71.5864C57.2129 71.7167 57.0865 71.8196 56.94 71.8842L54.686 73.1768C54.2907 73.3848 53.8492 73.4892 53.4026 73.4804L53.4118 47.2006Z" fill="#F0F0F0"/>
<path d="M164.382 142.6C164.313 141.436 164.157 140.042 163.968 138.423C163.264 132.278 162.303 123.86 164.851 115.796C166.401 110.888 170.137 105.069 175.969 103.454C177.267 103.095 180.404 102.566 181.609 105.349C181.778 105.751 181.88 106.179 181.908 106.614C182.032 108.381 181.236 109.94 180.353 111.361C179.337 113.013 178.159 114.581 177.018 116.109C175.942 117.553 174.824 119.043 173.849 120.589C172.796 122.268 171.873 124.026 171.089 125.847L170.716 125.686C171.499 123.847 172.422 122.07 173.476 120.373C174.456 118.813 175.578 117.314 176.664 115.865C177.796 114.347 178.964 112.783 179.976 111.15C180.822 109.77 181.586 108.293 181.471 106.642C181.446 106.252 181.356 105.87 181.204 105.51C180.128 103.022 177.239 103.518 176.048 103.845C170.371 105.418 166.723 111.113 165.205 115.915C162.685 123.901 163.641 132.268 164.341 138.377C164.525 140.001 164.686 141.404 164.755 142.577L164.382 142.6Z" fill="#E8417C"/>
<path d="M164.796 149.288C164.766 149.293 164.735 149.293 164.704 149.288C164.616 149.271 164.533 149.233 164.462 149.178C164.391 149.123 164.334 149.052 164.295 148.971C164.215 148.743 164.215 148.495 164.295 148.267C164.36 147.826 164.36 147.379 164.295 146.938C164.295 146.689 164.253 146.427 164.253 146.193V143.336C164.621 138.205 166.124 133.219 168.656 128.74C170.9 124.835 173.384 122.236 176.476 120.552C178.142 119.637 179.969 119.051 181.858 118.827C183.525 118.643 185.2 119.086 186.559 120.069C187.962 121.178 188.592 123.078 188.063 124.582C187.69 125.635 186.839 126.422 185.97 127.135C184.42 128.4 182.727 129.531 181.094 130.626C179.737 131.546 178.334 132.466 177.023 133.478C173.012 136.574 169.647 140.426 167.119 144.817C166.705 145.53 166.314 146.266 165.955 147.002L165.808 147.292C165.665 147.555 165.539 147.827 165.431 148.106C165.408 148.166 165.385 148.29 165.353 148.433C165.329 148.695 165.246 148.948 165.109 149.173C165.023 149.249 164.911 149.29 164.796 149.288ZM182.52 119.209C182.313 119.209 182.106 119.209 181.894 119.237C180.062 119.45 178.289 120.019 176.673 120.911C173.656 122.553 171.222 125.106 169.014 128.943C166.517 133.366 165.033 138.288 164.667 143.354V146.183C164.667 146.404 164.667 146.643 164.709 146.896C164.783 147.378 164.783 147.868 164.709 148.35C164.659 148.499 164.659 148.661 164.709 148.81C164.721 148.833 164.738 148.854 164.758 148.87C164.779 148.885 164.803 148.897 164.828 148.902C164.911 148.732 164.966 148.55 164.994 148.364C165.016 148.236 165.047 148.11 165.086 147.987C165.198 147.691 165.33 147.404 165.482 147.126L165.624 146.841C165.992 146.096 166.388 145.355 166.802 144.633C167.662 143.145 168.616 141.713 169.658 140.346C171.719 137.653 174.124 135.242 176.811 133.175C178.136 132.163 179.544 131.22 180.905 130.309C182.534 129.219 184.213 128.092 185.754 126.84C186.573 126.173 187.378 125.424 187.718 124.467C188.178 123.119 187.612 121.412 186.338 120.405C185.238 119.585 183.892 119.163 182.52 119.209Z" fill="#E8417C"/>
<path d="M164.451 145.36H164.4C164.375 145.354 164.35 145.343 164.329 145.327C164.307 145.312 164.289 145.292 164.275 145.269C164.261 145.247 164.252 145.221 164.249 145.195C164.245 145.169 164.246 145.142 164.253 145.116C168.048 129.982 178.541 123.229 184.144 121.624C184.195 121.61 184.25 121.616 184.296 121.642C184.343 121.668 184.377 121.711 184.392 121.762C184.406 121.814 184.4 121.869 184.374 121.916C184.349 121.964 184.305 121.999 184.254 122.015C178.734 123.593 168.398 130.258 164.649 145.213C164.636 145.255 164.61 145.293 164.574 145.319C164.539 145.346 164.495 145.36 164.451 145.36Z" fill="#E8417C"/>
<path d="M164.428 132.94C164.374 132.935 164.324 132.909 164.289 132.868C164.253 132.827 164.236 132.773 164.24 132.719C165.449 116.375 176.14 107.419 177.354 106.458C177.375 106.44 177.399 106.428 177.424 106.42C177.45 106.412 177.477 106.41 177.504 106.413C177.53 106.416 177.556 106.424 177.579 106.437C177.603 106.451 177.623 106.469 177.639 106.49C177.656 106.511 177.668 106.535 177.676 106.56C177.683 106.586 177.685 106.613 177.682 106.639C177.68 106.666 177.671 106.691 177.658 106.715C177.645 106.738 177.628 106.759 177.607 106.775C176.407 107.727 165.84 116.578 164.649 132.751C164.643 132.805 164.617 132.854 164.576 132.889C164.535 132.925 164.482 132.943 164.428 132.94Z" fill="#E8417C"/>
<path d="M163.154 75.9414L137.573 61.18C137.376 61.038 137.144 60.9509 136.901 60.9274C136.659 60.904 136.415 60.9451 136.193 61.0466L134.353 62.1092C134.151 62.2501 133.99 62.4425 133.887 62.6666C133.785 62.8907 133.744 63.1382 133.769 63.3834V133.4C133.807 134.082 134.005 134.746 134.347 135.337C134.689 135.929 135.165 136.431 135.738 136.804L161.314 151.547C161.511 151.69 161.743 151.778 161.985 151.802C162.228 151.826 162.472 151.786 162.694 151.685L164.534 150.618C164.734 150.476 164.892 150.284 164.993 150.061C165.095 149.838 165.134 149.592 165.109 149.348V79.3454C165.073 78.6644 164.878 78.0013 164.538 77.4099C164.198 76.8185 163.724 76.3154 163.154 75.9414Z" fill="#495057"/>
<path d="M139.28 134.601L137.44 135.663V141.487C137.449 141.657 137.499 141.823 137.584 141.971C137.67 142.119 137.789 142.245 137.932 142.338L138.792 142.835C138.945 142.912 139.113 142.952 139.284 142.952C139.455 142.952 139.624 142.912 139.777 142.835L140.637 142.338C140.942 142.14 141.179 141.853 141.313 141.514L142.974 136.73L139.28 134.601Z" fill="#495057"/>
<path d="M137.44 141.487C137.449 141.657 137.499 141.823 137.584 141.971C137.67 142.119 137.789 142.245 137.932 142.338L138.792 142.835C138.852 142.871 138.918 142.893 138.988 142.899C139.057 142.906 139.127 142.896 139.192 142.872C139.257 142.848 139.315 142.809 139.363 142.759C139.411 142.708 139.447 142.648 139.468 142.582L141.12 137.793L137.44 135.663V141.487Z" fill="#37474F"/>
<path d="M157.735 145.222L155.895 146.289V152.108C155.904 152.279 155.952 152.446 156.037 152.594C156.122 152.743 156.24 152.869 156.383 152.964L157.248 153.461C157.399 153.538 157.567 153.578 157.737 153.578C157.908 153.578 158.076 153.538 158.227 153.461L159.092 152.964C159.398 152.766 159.634 152.479 159.768 152.14L161.424 147.352L157.735 145.222Z" fill="#495057"/>
<path d="M155.895 152.108C155.904 152.279 155.952 152.446 156.037 152.594C156.122 152.743 156.24 152.869 156.383 152.964L157.248 153.461C157.307 153.497 157.374 153.519 157.443 153.525C157.512 153.532 157.582 153.522 157.647 153.498C157.712 153.474 157.771 153.435 157.819 153.384C157.867 153.334 157.903 153.274 157.924 153.208L159.584 148.419L155.904 146.289L155.895 152.108Z" fill="#37474F"/>
<path d="M135.857 62.2979L161.433 77.0178C162.006 77.3916 162.483 77.8949 162.825 78.4871C163.167 79.0793 163.365 79.7436 163.402 80.4265V150.443C163.451 150.689 163.421 150.944 163.318 151.172C163.214 151.401 163.042 151.591 162.825 151.716C162.607 151.841 162.357 151.895 162.107 151.871C161.858 151.846 161.622 151.744 161.433 151.579L135.857 136.832C135.285 136.459 134.809 135.956 134.468 135.365C134.127 134.773 133.93 134.11 133.893 133.428V63.4295C133.844 63.184 133.873 62.9292 133.976 62.7011C134.08 62.4731 134.252 62.2831 134.469 62.1582C134.686 62.0332 134.936 61.9794 135.186 62.0045C135.435 62.0295 135.67 62.1322 135.857 62.2979Z" fill="#37474F"/>
<path d="M98.717 158.001L126.381 173.972L165.113 151.611L163.269 150.544L135.604 134.573L98.717 155.871V158.001Z" fill="#E8417C"/>
<path d="M126.381 173.972V171.842L165.113 149.482V151.611L126.381 173.972Z" fill="#495057"/>
<path d="M126.556 170.872L126.276 170.683C131.184 163.254 131.152 150.42 130.751 147.2C130.719 146.984 130.696 146.85 130.692 146.8L131.027 146.745C131.027 146.846 131.064 146.965 131.083 147.108C131.441 149.385 133.47 161.754 135.871 165.508L135.586 165.692C133.686 162.743 132.062 154.785 131.248 150.195C131.299 155.406 130.54 164.878 126.556 170.872Z" fill="#FAFAFA"/>
<path d="M142.711 159.528C142.293 159.404 132.513 156.441 131.612 152.127L131.947 152.058C132.803 156.175 142.707 159.174 142.808 159.206L142.711 159.528Z" fill="#FAFAFA"/>
<path d="M132.84 157.78L132.591 156.727C132.557 156.533 132.459 156.357 132.312 156.227C132.165 156.096 131.978 156.02 131.782 156.009C131.62 155.985 131.455 156.012 131.308 156.085C131.162 156.158 131.041 156.275 130.963 156.418L130.646 156.285C130.752 156.075 130.921 155.902 131.13 155.792C131.338 155.682 131.576 155.638 131.809 155.669C131.979 155.679 132.144 155.726 132.294 155.805C132.443 155.884 132.575 155.995 132.679 156.129C132.734 155.692 132.957 155.295 133.3 155.02C133.43 154.952 133.575 154.919 133.722 154.924C133.869 154.929 134.012 154.971 134.137 155.048L133.985 155.351C133.909 155.302 133.821 155.273 133.73 155.267C133.639 155.262 133.548 155.28 133.465 155.319C133.074 155.54 132.923 156.391 132.9 156.699L132.84 157.78Z" fill="#FAFAFA"/>
<path d="M133.801 161.29L133.498 160.333C133.153 159.252 132.578 158.631 131.897 158.59C131.613 158.584 131.333 158.662 131.092 158.813C130.851 158.964 130.659 159.182 130.54 159.441L130.232 159.293C130.377 158.97 130.615 158.698 130.916 158.51C131.217 158.323 131.566 158.229 131.92 158.24C132.329 158.263 133.033 158.484 133.558 159.551C133.673 158.709 134.018 157.357 134.905 156.791C135.224 156.616 135.582 156.527 135.946 156.531C136.309 156.535 136.665 156.632 136.98 156.814L136.837 157.122C136.574 156.966 136.275 156.881 135.969 156.873C135.663 156.866 135.36 156.938 135.089 157.081C133.907 157.817 133.829 160.25 133.829 160.278L133.801 161.29Z" fill="#FAFAFA"/>
<path d="M129.647 163.627L129.344 163.47C130.025 162.159 131.52 161.216 132.817 161.281C133.092 161.284 133.363 161.349 133.61 161.471C133.857 161.592 134.073 161.768 134.243 161.984C134.368 161.323 134.625 160.693 135 160.133C135.375 159.573 135.859 159.095 136.423 158.728C137.029 158.325 137.728 158.086 138.453 158.032C139.178 157.978 139.905 158.111 140.563 158.419L140.43 158.728C139.823 158.447 139.155 158.326 138.488 158.376C137.822 158.425 137.179 158.645 136.621 159.013C136.024 159.399 135.527 159.92 135.167 160.534C134.808 161.147 134.597 161.836 134.551 162.546V163.415L134.229 162.605C134.122 162.318 133.931 162.069 133.679 161.893C133.428 161.717 133.128 161.622 132.821 161.621C131.63 161.561 130.273 162.426 129.647 163.627Z" fill="#FAFAFA"/>
<path d="M127.78 168.705L127.481 168.539C127.895 167.785 130.098 163.995 132.707 163.309C133.075 163.204 133.461 163.177 133.84 163.232C134.219 163.287 134.582 163.421 134.905 163.627L134.731 163.916C134.446 163.736 134.126 163.618 133.792 163.57C133.458 163.522 133.118 163.544 132.794 163.636C130.88 164.142 128.902 166.681 127.78 168.705Z" fill="#FAFAFA"/>
<path d="M161.424 128.184V130.313L126.381 150.544L98.717 134.573V132.443L133.76 112.212L161.424 128.184Z" fill="#495057"/>
<path d="M161.424 128.184L126.381 148.414L98.717 132.443L133.76 112.212L161.424 128.184Z" fill="#E8417C"/>
<path d="M161.424 104.76V106.886L126.381 127.121L98.717 111.145V109.02L133.76 88.7846L161.424 104.76Z" fill="#495057"/>
<path d="M161.424 104.76L126.381 124.991L98.717 109.02L133.76 88.7846L161.424 104.76Z" fill="#E8417C"/>
<path d="M126.262 97.2118L100.686 82.4688C100.488 82.3261 100.257 82.2381 100.014 82.2139C99.7721 82.1896 99.5276 82.23 99.3059 82.3308C98.9747 82.5194 97.7971 83.2048 97.4659 83.3934C97.2644 83.5348 97.1044 83.7275 97.0025 83.9516C96.9006 84.1756 96.8605 84.4229 96.8863 84.6676V154.666C96.9238 155.348 97.1217 156.012 97.4637 156.603C97.8058 157.195 98.2825 157.697 98.8551 158.07L124.431 172.817C124.628 172.96 124.86 173.048 125.102 173.072C125.345 173.097 125.589 173.056 125.811 172.955C126.142 172.762 127.329 172.081 127.651 171.884C127.853 171.744 128.015 171.552 128.118 171.329C128.222 171.106 128.264 170.859 128.24 170.614V100.62C128.202 99.9366 128.003 99.2714 127.659 98.6791C127.316 98.0868 126.837 97.584 126.262 97.2118Z" fill="#495057"/>
<path opacity="0.2" d="M126.381 107.957L128.231 106.89V100.496L126.377 101.563L126.381 107.957Z" fill="#23272E"/>
<path opacity="0.2" d="M163.274 86.6594L165.123 85.5968V79.2028L163.269 80.27L163.274 86.6594Z" fill="#23272E"/>
<path d="M102.406 155.871L100.566 156.934V162.757C100.576 162.928 100.625 163.094 100.711 163.242C100.796 163.39 100.915 163.515 101.058 163.608L101.919 164.105C102.071 164.182 102.24 164.223 102.411 164.223C102.582 164.223 102.751 164.182 102.903 164.105L103.763 163.608C104.068 163.412 104.304 163.126 104.439 162.789L106.1 158.001L102.406 155.871Z" fill="#495057"/>
<path d="M100.562 162.757C100.571 162.928 100.62 163.094 100.706 163.242C100.791 163.389 100.911 163.515 101.054 163.608L101.914 164.105C101.973 164.141 102.04 164.163 102.109 164.169C102.179 164.176 102.248 164.167 102.313 164.142C102.378 164.118 102.437 164.079 102.485 164.029C102.533 163.979 102.569 163.918 102.59 163.852L104.251 159.063L100.571 156.934L100.562 162.757Z" fill="#37474F"/>
<path d="M120.848 166.52L119.008 167.583V173.406C119.016 173.576 119.065 173.742 119.149 173.89C119.234 174.038 119.353 174.164 119.495 174.257L120.36 174.754C120.512 174.831 120.68 174.871 120.85 174.871C121.02 174.871 121.188 174.831 121.34 174.754L122.205 174.257C122.508 174.059 122.744 173.774 122.881 173.438L124.537 168.65L120.848 166.52Z" fill="#495057"/>
<path d="M119.008 173.383C119.016 173.553 119.065 173.719 119.149 173.867C119.234 174.015 119.353 174.141 119.495 174.234L120.36 174.731C120.419 174.767 120.486 174.789 120.555 174.795C120.625 174.802 120.694 174.793 120.759 174.768C120.824 174.744 120.883 174.705 120.931 174.655C120.979 174.605 121.015 174.544 121.036 174.478L122.692 169.689L119.012 167.56L119.008 173.383Z" fill="#37474F"/>
<path d="M98.8366 83.536L124.417 98.279C124.989 98.653 125.465 99.1565 125.807 99.7487C126.148 100.341 126.345 101.005 126.381 101.688V173.972C126.381 173.972 124.96 173.13 124.417 172.817L98.8412 158.07C98.2686 157.697 97.792 157.195 97.4499 156.603C97.1078 156.012 96.91 155.348 96.8724 154.666V84.6676C96.8232 84.4221 96.8523 84.1674 96.9556 83.9393C97.0589 83.7112 97.2311 83.5213 97.4481 83.3963C97.665 83.2713 97.9157 83.2176 98.1648 83.2426C98.414 83.2677 98.6489 83.3703 98.8366 83.536Z" fill="#37474F"/>
<path opacity="0.2" d="M124.417 98.279L98.8366 83.536C98.6489 83.3703 98.414 83.2677 98.1648 83.2426C97.9157 83.2176 97.665 83.2713 97.4481 83.3963C97.2311 83.5213 97.0589 83.7112 96.9556 83.9393C96.8523 84.1674 96.8232 84.4221 96.8724 84.6676V90.919L126.381 107.939V101.688C126.345 101.005 126.148 100.341 125.807 99.7487C125.465 99.1565 124.989 98.653 124.417 98.279Z" fill="#23272E"/>
<path d="M159.58 104.931C159.535 104.929 159.492 104.911 159.461 104.879C159.429 104.848 159.411 104.805 159.41 104.76V83.7568L139.377 95.3212C139.358 95.3334 139.337 95.3415 139.315 95.3451C139.293 95.3487 139.27 95.3476 139.248 95.342C139.227 95.3364 139.207 95.3263 139.189 95.3124C139.171 95.2986 139.157 95.2812 139.147 95.2614C139.135 95.2421 139.127 95.2207 139.124 95.1984C139.121 95.1762 139.122 95.1534 139.127 95.1316C139.133 95.1098 139.143 95.0893 139.156 95.0713C139.17 95.0533 139.187 95.0382 139.206 95.0268L159.52 83.3152C159.545 83.2993 159.575 83.2909 159.605 83.2909C159.635 83.2909 159.665 83.2993 159.69 83.3152C159.716 83.3304 159.737 83.352 159.751 83.3778C159.766 83.4036 159.773 83.4328 159.773 83.4624V104.76C159.773 104.785 159.768 104.809 159.758 104.831C159.748 104.854 159.734 104.874 159.715 104.89C159.697 104.906 159.675 104.918 159.652 104.925C159.629 104.932 159.604 104.934 159.58 104.931Z" fill="#FAFAFA"/>
<path d="M155.89 99.6039H155.84C155.796 99.594 155.758 99.5671 155.734 99.5292C155.71 99.4913 155.701 99.4454 155.711 99.4014L159.143 84.5389L152.335 96.3287C152.324 96.3483 152.31 96.3656 152.292 96.3796C152.275 96.3935 152.255 96.4038 152.233 96.4098C152.212 96.4159 152.189 96.4175 152.167 96.4146C152.145 96.4117 152.124 96.4044 152.105 96.3931C152.085 96.3821 152.067 96.3672 152.053 96.3494C152.039 96.3316 152.029 96.3111 152.023 96.2893C152.017 96.2674 152.016 96.2446 152.019 96.2221C152.021 96.1997 152.029 96.178 152.04 96.1584L159.4 83.3797C159.421 83.3445 159.454 83.318 159.493 83.3045C159.531 83.291 159.574 83.2916 159.612 83.3061C159.65 83.3214 159.681 83.3499 159.699 83.3862C159.718 83.4225 159.723 83.4642 159.713 83.5039L156.033 99.4796C156.025 99.5124 156.007 99.5419 155.981 99.5641C155.956 99.5863 155.924 99.6002 155.89 99.6039Z" fill="#FAFAFA"/>
<path d="M148.517 94.3C148.493 94.3001 148.47 94.2952 148.449 94.2857C148.427 94.2762 148.408 94.2623 148.392 94.2448C148.361 94.2129 148.343 94.17 148.343 94.1252C148.343 94.0804 148.361 94.0374 148.392 94.0056L159.46 83.3566C159.492 83.3251 159.535 83.3075 159.58 83.3075C159.624 83.3075 159.667 83.3251 159.699 83.3566C159.731 83.3892 159.749 83.433 159.749 83.4785C159.749 83.524 159.731 83.5678 159.699 83.6004L148.632 94.2448C148.617 94.2611 148.599 94.2744 148.58 94.2839C148.56 94.2934 148.539 94.2988 148.517 94.3Z" fill="#FAFAFA"/>
<path d="M159.58 101.531C159.535 101.53 159.492 101.512 159.461 101.48C159.429 101.448 159.411 101.406 159.409 101.361C159.409 98.5734 156.3 98.3848 156.166 98.3802C156.141 98.3784 156.117 98.3713 156.095 98.3594C156.073 98.3475 156.053 98.3311 156.038 98.3112C156.023 98.2916 156.013 98.2691 156.008 98.2453C156.004 98.2214 156.004 98.1968 156.01 98.1732C156.124 97.6037 156.085 97.0144 155.899 96.4645C155.712 95.9146 155.384 95.4235 154.947 95.0406C154.788 94.8814 154.596 94.7581 154.385 94.6788C154.174 94.5995 153.949 94.566 153.724 94.5806C153.604 94.6009 153.49 94.6468 153.389 94.715C153.288 94.7833 153.203 94.8723 153.14 94.9762C153.12 95.0098 153.09 95.0358 153.054 95.05C153.019 95.0642 152.979 95.0658 152.942 95.0544C152.905 95.0431 152.873 95.0196 152.852 94.9879C152.83 94.9561 152.82 94.918 152.822 94.8796C152.822 94.7738 153.011 92.2944 150.83 92.0506C150.802 92.0472 150.776 92.037 150.752 92.021C150.729 92.005 150.71 91.9836 150.697 91.9586C150.685 91.9344 150.678 91.9076 150.678 91.8804C150.678 91.8532 150.685 91.8264 150.697 91.8022C150.697 91.8022 151.663 89.9944 151.29 89.1066C151.247 89.0023 151.18 88.9097 151.095 88.8362C151.009 88.7626 150.908 88.7103 150.798 88.6834C150.776 88.6776 150.756 88.6675 150.738 88.6535C150.721 88.6396 150.706 88.6222 150.695 88.6024C150.684 88.5826 150.678 88.5608 150.676 88.5383C150.674 88.5159 150.676 88.4932 150.683 88.4718C150.697 88.4292 150.727 88.3934 150.766 88.372C150.805 88.3506 150.852 88.3452 150.895 88.3568C151.053 88.3976 151.2 88.475 151.323 88.5829C151.446 88.6907 151.542 88.826 151.603 88.9778C151.957 89.8196 151.359 91.2134 151.102 91.7378C152.795 92.0644 153.107 93.6606 153.153 94.4518C153.305 94.3444 153.477 94.2707 153.659 94.2356C153.936 94.2088 154.215 94.245 154.475 94.3414C154.736 94.4378 154.971 94.5919 155.164 94.7922C155.621 95.1953 155.971 95.7055 156.182 96.2772C156.393 96.8488 156.459 97.464 156.373 98.0674C157.119 98.164 159.75 98.6838 159.745 101.37C159.743 101.413 159.725 101.453 159.694 101.483C159.663 101.513 159.622 101.53 159.58 101.531Z" fill="#FAFAFA"/>
<path d="M159.58 96.9404C159.537 96.9406 159.496 96.9245 159.464 96.8955C159.432 96.8665 159.413 96.8267 159.41 96.784C159.336 95.8088 158.77 94.5484 158.057 94.2356C157.916 94.1725 157.759 94.1519 157.606 94.1765C157.454 94.201 157.311 94.2695 157.197 94.3736C157.169 94.3917 157.136 94.4012 157.103 94.4012C157.069 94.4012 157.036 94.3917 157.008 94.3736C156.979 94.3576 156.955 94.3334 156.94 94.3039C156.924 94.2745 156.918 94.2411 156.921 94.208C156.921 94.208 157.073 92.483 156.295 91.77C156.127 91.6292 155.927 91.5307 155.712 91.4827C155.498 91.4347 155.275 91.4385 155.063 91.494C155.033 91.5002 155.003 91.4984 154.974 91.4887C154.946 91.479 154.921 91.4617 154.902 91.4388C154.882 91.4157 154.869 91.3878 154.863 91.358C154.857 91.3281 154.859 91.2973 154.869 91.2686C155.026 90.8408 155.329 89.6402 154.92 89.2124C154.727 89.0146 154.373 88.9962 153.862 89.1618C153.827 89.1733 153.789 89.1733 153.755 89.1617C153.72 89.1501 153.69 89.1275 153.669 89.0974C153.648 89.0678 153.636 89.0325 153.636 88.9962C153.636 88.96 153.648 88.9246 153.669 88.895C153.954 88.5362 154.658 87.4874 154.483 86.986C154.454 86.9168 154.407 86.8564 154.348 86.8112C154.288 86.7659 154.217 86.7373 154.143 86.7284C154.121 86.723 154.1 86.7134 154.082 86.7001C154.064 86.6867 154.049 86.67 154.037 86.6507C154.026 86.6315 154.018 86.6102 154.015 86.588C154.012 86.5658 154.013 86.5432 154.018 86.5214C154.023 86.4995 154.031 86.4787 154.044 86.4603C154.057 86.442 154.073 86.4264 154.092 86.4148C154.111 86.4031 154.133 86.3955 154.155 86.3925C154.177 86.3894 154.199 86.3911 154.221 86.3972C154.35 86.416 154.472 86.4684 154.574 86.5491C154.677 86.6299 154.756 86.7361 154.805 86.8572C154.994 87.4046 154.534 88.2372 154.212 88.6972C154.377 88.6578 154.55 88.6594 154.716 88.7018C154.881 88.7443 155.033 88.8264 155.159 88.941C155.665 89.4654 155.421 90.574 155.27 91.0938C155.494 91.067 155.721 91.088 155.937 91.1554C156.153 91.2228 156.352 91.335 156.521 91.4848C157.206 92.1104 157.28 93.3248 157.271 93.8814C157.414 93.8137 157.572 93.7787 157.731 93.7787C157.89 93.7787 158.047 93.8137 158.191 93.8814C159.06 94.2632 159.663 95.6202 159.75 96.7196C159.752 96.7417 159.749 96.764 159.742 96.7851C159.735 96.8062 159.724 96.8257 159.71 96.8425C159.695 96.8592 159.677 96.8728 159.657 96.8825C159.637 96.8923 159.616 96.8979 159.594 96.899L159.58 96.9404Z" fill="#FAFAFA"/>
<path d="M169.489 76.0104C169.468 75.7662 169.381 75.5322 169.239 75.3325C169.096 75.1328 168.903 74.9746 168.68 74.8742L141.259 59.041C140.649 58.7326 139.976 58.5719 139.293 58.5719C138.609 58.5719 137.936 58.7326 137.326 59.041L95.1534 83.3934C94.9296 83.4938 94.7367 83.652 94.5944 83.8517C94.4521 84.0514 94.3656 84.2854 94.3438 84.5296V86.6594C94.3656 86.9037 94.4521 87.1377 94.5944 87.3374C94.7367 87.5371 94.9296 87.6952 95.1534 87.7956L122.574 103.624C123.183 103.935 123.857 104.097 124.54 104.097C125.224 104.097 125.898 103.935 126.507 103.624L168.68 79.2764C168.903 79.176 169.096 79.0179 169.239 78.8182C169.381 78.6185 169.468 78.3845 169.489 78.1402V76.0104Z" fill="#37474F"/>
<path d="M122.573 101.494L95.1521 85.6658C94.0665 85.0356 94.0665 84.019 95.1521 83.3934L137.325 59.041C137.935 58.7326 138.608 58.5719 139.291 58.5719C139.975 58.5719 140.648 58.7326 141.258 59.041L168.678 74.8742C169.769 75.5044 169.769 76.5164 168.678 77.1466L126.506 101.494C125.897 101.805 125.223 101.967 124.539 101.967C123.856 101.967 123.182 101.805 122.573 101.494Z" fill="#455A64"/>
<path opacity="0.1" d="M163.269 82.3952L150.361 98.371L128.231 111.15L128.226 102.631L163.269 82.3952Z" fill="#23272E"/>
<path opacity="0.1" d="M161.424 106.886L150.361 121.794L128.231 134.578V126.054L161.424 106.886Z" fill="#23272E"/>
<path opacity="0.1" d="M161.424 130.313L150.361 145.222L128.231 158.005V149.482L161.424 130.313Z" fill="#23272E"/>
<path d="M110.659 176.842L76.7293 196.434L38.5217 174.322L72.4513 154.735L110.659 176.842Z" fill="#603E94"/>
<path opacity="0.5" d="M110.659 176.842L76.7293 196.434L38.5217 174.322L72.4513 154.735L110.659 176.842Z" fill="#23272E"/>
<path d="M72.4513 128.179V154.735L38.5217 174.322V147.77L72.4513 128.179Z" fill="#603E94"/>
<path opacity="0.23" d="M72.4513 128.179V154.735L38.5217 174.322V147.77L72.4513 128.179Z" fill="#23272E"/>
<path d="M76.7293 169.878V196.434L38.5217 174.322V147.77L76.7293 169.878Z" fill="#603E94"/>
<path opacity="0.38" d="M76.7293 169.878V196.434L38.5217 174.322V147.77L76.7293 169.878Z" fill="#23272E"/>
<path d="M110.659 150.287V176.842L72.4512 154.735V128.179L110.659 150.287Z" fill="#603E94"/>
<path opacity="0.4" d="M110.659 150.287V176.842L72.4512 154.735V128.179L110.659 150.287Z" fill="#23272E"/>
<path d="M110.659 176.842V150.287L76.7295 169.878V196.434L110.659 176.842Z" fill="#603E94"/>
<path opacity="0.23" d="M110.659 176.842V150.287L76.7295 169.878V196.434L110.659 176.842Z" fill="#23272E"/>
<path d="M72.4512 128.179L72.4972 113.477L110.613 135.613L110.659 150.287L72.4512 128.179Z" fill="#603E94"/>
<path opacity="0.2" d="M72.4512 128.179L72.4972 113.477L110.613 135.613L110.659 150.287L72.4512 128.179Z" fill="#23272E"/>
<path d="M76.7295 169.878L79.9127 157.016L113.534 137.604L110.659 150.287L76.7295 169.878Z" fill="#603E94"/>
<path opacity="0.3" d="M76.7295 169.878L79.9127 157.016L113.534 137.604L110.659 150.287L76.7295 169.878Z" fill="#23272E"/>
<path d="M38.5216 147.77L34.4736 134.43L68.4032 114.844L72.4512 128.179L38.5216 147.77Z" fill="#603E94"/>
<path opacity="0.1" d="M38.5216 147.77L34.4736 134.43L68.4032 114.844L72.4512 128.179L38.5216 147.77Z" fill="#23272E"/>
<path d="M38.5217 147.77L30.5361 136.744L68.7483 158.852L76.7293 169.878L38.5217 147.77Z" fill="#603E94"/>
<path opacity="0.45" d="M38.5217 147.77L30.5361 136.744L68.7483 158.852L76.7293 169.878L38.5217 147.77Z" fill="#23272E"/>
<g opacity="0.7">
<path opacity="0.7" d="M86.7204 188.536C86.6651 188.536 86.6119 188.514 86.5724 188.475C86.5328 188.437 86.51 188.384 86.5088 188.329V183.655C86.51 183.599 86.5326 183.546 86.5721 183.507C86.6115 183.467 86.6646 183.445 86.7204 183.443C86.7757 183.445 86.8284 183.467 86.867 183.507C86.9057 183.546 86.9274 183.6 86.9274 183.655V188.329C86.9274 188.383 86.9056 188.436 86.8668 188.475C86.8279 188.514 86.7753 188.536 86.7204 188.536Z" fill="white"/>
<path opacity="0.7" d="M86.1087 185.274C86.0813 185.279 86.0533 185.279 86.0259 185.274C85.9757 185.251 85.9363 185.21 85.9157 185.158C85.8952 185.107 85.8951 185.05 85.9155 184.998L86.6607 183.282L87.4887 184.239C87.5183 184.282 87.5311 184.334 87.5246 184.386C87.5181 184.438 87.4928 184.485 87.4535 184.519C87.4142 184.554 87.3637 184.572 87.3116 184.571C87.2596 184.57 87.2096 184.551 87.1713 184.515L86.7803 184.055L86.3203 185.159C86.3004 185.197 86.2697 185.228 86.232 185.249C86.1943 185.269 86.1514 185.278 86.1087 185.274Z" fill="white"/>
<path opacity="0.7" d="M88.6479 187.436C88.5926 187.435 88.54 187.412 88.5013 187.373C88.4626 187.333 88.4409 187.28 88.4409 187.225V182.556C88.4409 182.501 88.4627 182.448 88.5015 182.409C88.5404 182.37 88.593 182.349 88.6479 182.349C88.7028 182.349 88.7555 182.37 88.7943 182.409C88.8331 182.448 88.8549 182.501 88.8549 182.556V187.22C88.8555 187.248 88.8507 187.275 88.8406 187.301C88.8305 187.327 88.8154 187.351 88.7962 187.371C88.777 187.391 88.754 187.407 88.7286 187.418C88.7031 187.43 88.6757 187.436 88.6479 187.436Z" fill="white"/>
<path opacity="0.7" d="M88.0361 184.175C88.0087 184.179 87.9807 184.179 87.9533 184.175C87.9281 184.164 87.9052 184.148 87.8862 184.128C87.8672 184.108 87.8523 184.085 87.8424 184.059C87.8326 184.033 87.828 184.006 87.8288 183.978C87.8297 183.951 87.8361 183.924 87.8475 183.899L88.5881 182.16L89.4161 183.112C89.4543 183.152 89.4757 183.204 89.4757 183.259C89.4757 183.314 89.4543 183.367 89.4161 183.407C89.3969 183.426 89.3739 183.442 89.3487 183.452C89.3234 183.463 89.2963 183.468 89.2689 183.468C89.2415 183.468 89.2144 183.463 89.1891 183.452C89.1639 183.442 89.141 183.426 89.1217 183.407L88.7307 182.947L88.2707 184.051C88.2516 184.095 88.218 184.131 88.1753 184.154C88.1326 184.177 88.0835 184.184 88.0361 184.175Z" fill="white"/>
</g>
<g opacity="0.7">
<path opacity="0.7" d="M81.1591 191.705C81.0804 191.706 81.0028 191.687 80.9337 191.65C80.8505 191.597 80.7831 191.522 80.7386 191.434C80.6941 191.346 80.6741 191.247 80.6807 191.148V190.573C80.6819 190.518 80.7047 190.465 80.7442 190.427C80.7838 190.388 80.8369 190.366 80.8923 190.366C80.9472 190.366 80.9998 190.388 81.0386 190.427C81.0775 190.466 81.0993 190.519 81.0993 190.573V191.148C81.0993 191.231 81.0993 191.277 81.1407 191.286C81.1821 191.296 81.2051 191.286 81.2741 191.25C81.4035 191.13 81.5055 190.984 81.573 190.821C81.6405 190.658 81.6719 190.483 81.6651 190.307V187.915C81.6651 187.86 81.6869 187.807 81.7257 187.768C81.7645 187.729 81.8172 187.708 81.8721 187.708C81.927 187.708 81.9796 187.729 82.0184 187.768C82.0573 187.807 82.0791 187.86 82.0791 187.915V190.307C82.0893 190.555 82.041 190.802 81.9379 191.028C81.8348 191.255 81.6799 191.453 81.4857 191.608C81.3873 191.669 81.2746 191.703 81.1591 191.705Z" fill="white"/>
<path opacity="0.7" d="M78.965 189.778V189.419C79.0196 188.498 79.2889 187.602 79.7514 186.803C80.2138 186.004 80.8566 185.325 81.6284 184.819C82.3828 184.386 83.1004 184.322 83.6524 184.644C83.9468 184.846 84.1815 185.123 84.3321 185.447C84.4826 185.771 84.5433 186.129 84.508 186.484V186.604L78.965 189.778ZM82.8796 184.837C82.5112 184.854 82.1534 184.965 81.84 185.159C81.1786 185.594 80.6186 186.167 80.198 186.837C79.7773 187.508 79.5058 188.261 79.402 189.046L84.0802 186.341C84.1001 186.075 84.0509 185.808 83.9373 185.566C83.8236 185.324 83.6494 185.116 83.4316 184.961C83.2616 184.872 83.0713 184.83 82.8796 184.837Z" fill="white"/>
</g>
<path opacity="0.7" d="M30.5361 136.744L68.7483 158.852L76.7293 169.878L68.3251 159.243L30.5361 136.744Z" fill="white"/>
<path opacity="0.7" d="M110.659 150.287L76.7295 169.878V196.434L77.3643 170.412L110.659 150.287Z" fill="white"/>
<path d="M60.8685 139.665C64.3691 139.159 67.5661 136.905 69.6085 134.072C70.561 132.748 71.2626 131.26 71.6785 129.683C72.1202 128.208 72.1929 126.648 71.8901 125.138C71.2599 122.613 68.9231 121.118 66.4529 120.805C65.1994 120.64 63.9249 120.765 62.7269 121.169C61.4847 121.595 60.4071 122.399 59.6449 123.469C59.167 124.038 58.8664 124.736 58.7801 125.474C58.7727 125.763 58.8747 126.045 59.0657 126.262C59.2567 126.48 59.5227 126.617 59.8105 126.647C60.5512 126.71 61.2914 126.522 61.9127 126.114C62.6703 125.689 63.3375 125.12 63.8769 124.439C65.0339 123.011 65.8997 121.37 66.4253 119.609C66.7941 118.098 66.7941 116.52 66.4253 115.009C66.1451 113.428 65.4226 111.959 64.3415 110.773C63.1021 109.645 61.5293 108.953 59.8611 108.799C58.2008 108.571 56.5103 108.728 54.9207 109.259C54.2225 109.471 53.5756 109.825 53.0209 110.299C52.6253 110.667 52.1745 111.274 52.3355 111.872C52.4965 112.47 53.3705 112.737 53.9639 112.659C54.8421 112.494 55.6466 112.058 56.2639 111.412C56.9519 110.735 57.5362 109.96 57.9981 109.112C58.3413 108.503 58.5204 107.815 58.5179 107.116C58.4581 104.199 55.2335 102.313 52.7081 101.78C52.0264 101.637 51.3281 101.591 50.6335 101.642C50.3989 101.642 50.5415 102.028 50.7301 102.014C52.0891 101.952 53.4396 102.257 54.6401 102.897C55.8245 103.442 56.8192 104.328 57.4967 105.441C57.7986 105.99 57.9476 106.61 57.9282 107.236C57.9088 107.863 57.7216 108.472 57.3863 109.002C56.9359 109.786 56.3751 110.502 55.7211 111.127C55.1737 111.624 54.3411 112.199 53.5729 112.143C53.4461 112.143 53.3219 112.107 53.2145 112.04C53.1071 111.972 53.0209 111.876 52.9657 111.762C52.9425 111.611 52.955 111.456 53.0021 111.311C53.0492 111.165 53.1297 111.033 53.2371 110.924C53.6433 110.487 54.1457 110.15 54.7045 109.94C56.0845 109.366 57.5788 109.121 59.0699 109.222C60.6065 109.25 62.1009 109.73 63.3663 110.602C64.4687 111.518 65.2515 112.76 65.6019 114.149C66.0457 115.56 66.1837 117.05 66.0067 118.519C65.7335 119.997 65.1656 121.405 64.3369 122.659C63.4859 124.067 62.4187 125.419 60.8179 125.971C60.4223 126.114 59.5943 126.321 59.4379 125.746C59.2815 125.171 59.7323 124.462 60.0221 124.016C60.6629 123.007 61.5972 122.219 62.6993 121.757C63.7628 121.331 64.9108 121.158 66.0527 121.251C68.2193 121.412 70.4181 122.544 71.1725 124.697C71.5509 125.983 71.5921 127.346 71.2921 128.653C71.0215 130.085 70.5064 131.461 69.7695 132.719C68.1843 135.392 65.7836 137.487 62.9201 138.695C62.2393 138.989 61.5401 139.237 60.8271 139.467C60.7535 139.495 60.7857 139.679 60.8685 139.665Z" fill="#DDE2E5"/>
<path d="M46.245 99.7279C44.4051 99.5945 41.8705 101.044 42.7721 102.102C43.6737 103.16 46.0656 101.448 46.0656 101.448C46.0656 101.448 45.8402 103.587 46.6222 103.831C47.4042 104.075 48.4622 102.033 47.6803 100.726C48.0574 100.875 48.466 100.926 48.8681 100.874C49.2702 100.823 49.6527 100.671 49.9802 100.432C51.0934 99.6129 49.9158 98.8401 48.3472 98.9781C48.3472 98.9781 49.4696 95.2981 47.2018 96.0019C46.0657 96.3469 45.6654 97.6763 46.245 99.7279Z" fill="#E8417C"/>
<path opacity="0.65" d="M46.245 99.7279C44.4051 99.5945 41.8705 101.044 42.7721 102.102C43.6737 103.16 46.0656 101.448 46.0656 101.448C46.0656 101.448 45.8402 103.587 46.6222 103.831C47.4042 104.075 48.4622 102.033 47.6803 100.726C48.0574 100.875 48.466 100.926 48.8681 100.874C49.2702 100.823 49.6527 100.671 49.9802 100.432C51.0934 99.6129 49.9158 98.8401 48.3472 98.9781C48.3472 98.9781 49.4696 95.2981 47.2018 96.0019C46.0657 96.3469 45.6654 97.6763 46.245 99.7279Z" fill="white"/>
<path d="M47.9563 100.51C47.8545 100.41 47.747 100.317 47.6343 100.229C47.4733 100.105 47.3031 99.9856 47.1421 99.866C46.9854 99.752 46.8209 99.649 46.6499 99.5578C46.5515 99.5032 46.4502 99.454 46.3464 99.4106C46.203 99.3433 46.0436 99.3177 45.8864 99.337C45.8452 99.3381 45.805 99.3503 45.7702 99.3723C45.7353 99.3943 45.707 99.4253 45.6882 99.4619C45.6694 99.4986 45.6608 99.5397 45.6633 99.5808C45.6658 99.6219 45.6793 99.6616 45.7024 99.6958C45.8288 99.8328 45.9867 99.937 46.1624 99.9994L46.4107 100.133C46.5809 100.234 46.7327 100.349 46.8707 100.464C47.0087 100.579 47.1927 100.689 47.3307 100.804C47.568 100.997 47.8333 101.152 48.1173 101.264C48.1301 101.271 48.1443 101.275 48.1587 101.275C48.1732 101.275 48.1874 101.271 48.2001 101.264C48.4347 101.08 48.0897 100.643 47.9563 100.51Z" fill="#455A64"/>
<path d="M194.609 49.1234C192.599 51.8282 189.908 66.7 188.891 71.4702C184.001 71.3276 177.46 71.0976 174.985 70.84C172.225 70.5502 166.333 69.9844 163.439 70.38C156.259 71.3 156.539 76.0196 156.714 77.2524C156.903 78.66 157.91 79.304 161.774 78.4254C162.639 78.2354 163.52 78.1321 164.405 78.1172C164.778 78.1172 165.564 77.9286 165.859 78.246C166.319 78.706 164.989 79.4788 164.658 79.6904C164.148 80.0216 163.614 80.4402 163.508 81.0382C163.478 81.1475 163.48 81.2633 163.513 81.3717C163.546 81.4801 163.61 81.5767 163.697 81.65C163.884 81.7264 164.094 81.7264 164.281 81.65C166.045 81.2314 167.746 80.5834 169.341 79.7226C169.942 79.36 170.575 79.0521 171.232 78.8026C172.23 78.4806 173.26 78.6692 174.263 78.6692C176.42 78.6692 187.824 79.8008 192.893 80.316C196.403 80.6702 196.775 77.2064 197.985 73.6966C199.471 69.345 202.99 46.46 202.99 46.46C199.439 45.9448 197.001 45.9126 194.609 49.1234Z" fill="#FFA8A7"/>
<path d="M203.045 46.1011C201.348 45.7883 197.525 45.3145 195.446 47.6375C193.367 49.9605 192.875 52.3985 191.959 55.9175C191.044 59.4365 189.42 65.7385 189.42 65.7385C189.42 65.7385 192.102 69.5887 200.497 68.4985L203.045 46.1011Z" fill="#37474F"/>
<path d="M224.127 167.734L218.225 167.739L216.528 154.928L223.975 154.634L224.127 167.734Z" fill="#FFA8A7"/>
<path d="M204.531 161.336C203.528 163.079 200.304 162.937 197.631 162.32L197.323 149.725L205.212 149.413L204.531 161.336Z" fill="#FFA8A7"/>
<path d="M223.727 86.7836C223.938 92.2346 223.216 124.467 223.216 124.467C223.414 126.031 225.033 128.759 225.369 134.403C225.861 142.6 224.191 160.08 224.191 160.08C224.191 160.08 220.81 161.846 217.167 160.494C217.167 160.494 213.46 135.194 212.107 127.107C210.939 120.069 209.439 101.191 209.439 101.191L206.527 125.387C207.061 128.251 207.282 131.164 207.185 134.076C207.066 137.839 204.922 156.11 204.922 156.11C202.477 156.91 199.85 156.973 197.369 156.29C197.369 156.29 195.612 127.935 195.409 124.499C195.179 120.58 195.336 85.9832 195.336 85.9832L223.727 86.7836Z" fill="#603E94"/>
<path opacity="0.2" d="M209.448 101.2C209.448 101.2 204.292 99.7372 200.777 96.6C200.777 96.6 202.424 99.4106 207.089 101.904L206.822 123.022L209.448 101.2Z" fill="#23272E"/>
<path d="M211.5 178.42C211.311 178.613 211.422 179.888 211.652 180.219C211.882 180.55 213.289 181.672 215.732 181.755C218.064 181.829 220.125 181.433 221.454 180.513C222.784 179.593 223.409 178.613 223.488 177.293C223.566 175.973 223.368 174.69 223.948 173.645C224.495 172.684 225.383 171.585 225.562 171.065C225.962 169.938 225.475 168.369 225.475 168.369L211.5 178.42Z" fill="#495057"/>
<path d="M217.388 166.612C217.391 167.115 217.32 167.616 217.176 168.098C216.677 169.666 215.927 171.144 214.955 172.472C214.283 173.333 213.437 174.055 212.724 174.887C211.961 175.677 211.493 176.705 211.399 177.799C211.371 179.639 213.377 180.168 214.909 180.38C216.569 180.599 218.258 180.442 219.849 179.92C220.687 179.667 221.435 179.178 222.001 178.51C222.567 177.842 222.929 177.025 223.041 176.157C223.106 175.646 223.041 175.131 223.097 174.621C223.253 173.448 223.697 172.332 224.389 171.373C224.79 170.818 225.132 170.223 225.41 169.597C225.838 168.447 225.41 167.192 225.061 166.083C224.762 165.122 224.421 164.031 224.086 164.137C224.086 164.648 224.086 164.694 223.759 165.057C223.299 165.517 223.322 166.157 222.839 166.557C222.979 166.132 223.074 165.694 223.124 165.25C223.147 165.069 223.103 164.886 223 164.735C222.834 164.6 222.639 164.506 222.43 164.459C221.702 164.244 220.955 164.104 220.199 164.041C219.479 163.946 218.749 163.969 218.037 164.11C217.826 164.158 217.638 164.277 217.503 164.445C217.385 164.634 217.325 164.853 217.333 165.076C217.333 165.375 217.383 166.124 217.388 166.612Z" fill="#455A64"/>
<path d="M215.64 171.456C216.302 170.922 217.82 170.853 218.658 170.913C219.506 170.951 220.33 171.205 221.054 171.649C221.161 171.72 221.289 171.751 221.417 171.736C221.544 171.721 221.662 171.66 221.749 171.566C221.8 171.512 221.838 171.448 221.862 171.378C221.885 171.308 221.894 171.234 221.886 171.161C221.878 171.087 221.854 171.016 221.816 170.953C221.778 170.889 221.727 170.835 221.666 170.793C220.867 170.251 219.931 169.945 218.966 169.91C216.914 169.85 216.33 170.223 216.33 170.223C216.33 170.223 215.415 170.858 215.64 171.456Z" fill="#F5F5F5"/>
<path d="M214.15 173.388C214.982 172.85 216.661 172.854 217.494 172.928C218.328 172.981 219.134 173.252 219.831 173.714C219.937 173.785 220.064 173.816 220.191 173.801C220.318 173.785 220.434 173.725 220.521 173.632C220.572 173.579 220.612 173.515 220.636 173.445C220.661 173.375 220.67 173.301 220.662 173.227C220.655 173.153 220.631 173.082 220.593 173.018C220.555 172.955 220.504 172.9 220.442 172.859C219.63 172.289 218.674 171.957 217.682 171.902C215.626 171.838 215.111 172.275 215.111 172.275C214.877 172.376 214.67 172.529 214.503 172.721C214.337 172.914 214.216 173.142 214.15 173.388Z" fill="#F5F5F5"/>
<path d="M219.702 167.923C218.834 167.804 217.949 167.912 217.135 168.236C216.785 168.452 216.569 169.032 216.804 169.156C217.516 168.836 218.297 168.697 219.076 168.751C219.846 168.796 220.602 168.974 221.312 169.275C221.491 169.344 221.703 169.446 221.887 169.538C221.946 169.568 222.01 169.586 222.076 169.59C222.142 169.594 222.208 169.585 222.271 169.563C222.333 169.542 222.39 169.507 222.439 169.462C222.488 169.418 222.527 169.363 222.554 169.303C222.597 169.198 222.601 169.081 222.563 168.974C222.526 168.868 222.451 168.778 222.351 168.723C221.536 168.269 220.632 167.996 219.702 167.923Z" fill="#F5F5F5"/>
<path d="M184.144 169.192C183.935 169.718 183.935 170.304 184.144 170.83C184.346 171.322 186.784 172.849 190.17 172.785C192.687 172.724 195.143 171.99 197.281 170.66C198.611 169.869 199.959 169.772 201.633 169.74C203.307 169.708 205.543 168.995 205.948 168.231C206.353 167.468 205.994 166.101 205.994 166.101L184.144 169.192Z" fill="#495057"/>
<path d="M198.266 159.303L198.004 159.234C197.855 159.188 197.698 159.174 197.544 159.192C197.378 159.232 197.228 159.322 197.116 159.45C196.768 159.858 196.46 160.298 196.196 160.765C195.437 161.883 193.896 162.771 192.24 163.567C191.108 164.105 190.009 164.514 188.845 164.97C187.681 165.425 186.085 165.683 185.165 166.253C183.785 167.086 183.523 169.317 184.986 170.274C186.255 171.102 189.641 172.091 193.266 171.244C195.248 170.784 197.521 168.797 200.097 168.719C201.739 168.668 204.848 168.355 205.957 167.164C206.376 166.635 205.957 164.864 205.584 163.337C205.198 161.672 205.373 159.197 204.628 159.197L204.582 160.029C204.513 160.278 203.928 160.522 203.744 160.715L203.082 161.414C202.811 161.738 202.48 162.006 202.107 162.205C201.449 162.5 200.681 162.325 199.977 162.141C199.949 162.141 200.331 160.862 200.373 160.738C200.414 160.641 200.427 160.534 200.409 160.43C200.374 160.328 200.304 160.241 200.212 160.186C199.631 159.76 198.968 159.46 198.266 159.303Z" fill="#455A64"/>
<path d="M193.813 162.748C193.942 162.529 194.123 162.345 194.341 162.215C194.559 162.084 194.806 162.009 195.059 161.998C195.809 161.897 197.093 162.504 197.879 163.217C197.953 163.284 198.01 163.368 198.044 163.462C198.079 163.555 198.089 163.656 198.076 163.755C198.062 163.854 198.025 163.948 197.966 164.029C197.908 164.11 197.831 164.176 197.741 164.22C197.629 164.275 197.502 164.295 197.379 164.275C197.255 164.255 197.141 164.197 197.051 164.11C196.19 163.252 195.028 162.763 193.813 162.748Z" fill="#F5F5F5"/>
<path d="M191.449 163.93C191.621 163.71 191.844 163.534 192.099 163.418C192.353 163.302 192.632 163.249 192.911 163.263C192.911 163.263 194.853 163.41 195.998 164.588C196.069 164.653 196.123 164.733 196.156 164.823C196.188 164.913 196.199 165.01 196.186 165.105C196.173 165.2 196.138 165.29 196.083 165.368C196.028 165.446 195.954 165.51 195.869 165.554C195.761 165.607 195.638 165.625 195.519 165.606C195.4 165.587 195.289 165.532 195.202 165.448C194.731 164.929 194.149 164.523 193.499 164.261C192.849 163.998 192.148 163.885 191.449 163.93Z" fill="#F5F5F5"/>
<path d="M188.85 164.97C189.045 164.767 189.282 164.61 189.544 164.507C189.806 164.405 190.087 164.36 190.368 164.376C191.467 164.498 192.501 164.963 193.321 165.706C193.391 165.771 193.445 165.852 193.478 165.942C193.511 166.033 193.521 166.129 193.509 166.225C193.496 166.32 193.461 166.411 193.406 166.489C193.35 166.568 193.277 166.632 193.192 166.676C193.083 166.73 192.96 166.748 192.841 166.729C192.721 166.709 192.611 166.652 192.525 166.566C192.079 166.033 191.514 165.611 190.876 165.334C190.238 165.057 189.544 164.932 188.85 164.97Z" fill="#F5F5F5"/>
<path d="M212.88 46.2023C215.051 46.4507 217.618 46.5841 219.693 46.8555C222.365 47.2051 224.449 49.9697 225.102 54.2477C225.82 58.9581 222.802 72.4637 222.802 72.4637L223.764 88.3889C219.849 91.2731 203.179 92.7865 194.871 86.7881C194.871 86.7881 195.064 59.6849 195.713 55.5081C196.605 49.7811 198.013 46.2253 204.453 45.8159L212.88 46.2023Z" fill="#455A64"/>
<path d="M227.724 80.7023C227.02 81.8799 226.312 83.0575 225.585 84.2213C225.318 84.6537 225.047 85.0815 224.766 85.5047C224.614 85.7119 224.437 85.8989 224.237 86.0613C223.888 86.3005 223.161 86.1487 222.738 86.1625C220.659 86.2331 218.586 86.3864 216.519 86.6225C216.346 86.6171 216.174 86.6497 216.015 86.7181C215.856 86.7864 215.714 86.8889 215.599 87.0181C215.514 87.1962 215.497 87.3993 215.551 87.589C215.605 87.7787 215.727 87.9422 215.893 88.0485C216.232 88.2518 216.616 88.3657 217.011 88.3797L218.805 88.5913C219.061 88.5999 219.309 88.6796 219.522 88.8213C220.176 89.3503 218.929 89.9851 218.556 90.2427C217.807 90.7633 217.007 91.2071 216.169 91.5675C212.429 93.1407 211.974 94.2815 212.664 95.5787C213.262 96.7057 215.847 100.804 222.416 97.2761C225.061 95.8547 229.086 91.3651 230.921 89.1939C233.562 86.0613 238.028 79.0739 238.028 79.0739C240.567 75.5871 240.894 74.1565 240.954 72.7075C241.014 71.2585 233.134 60.1127 230.457 56.1981C227.779 52.2835 226.505 47.5225 219.693 46.8693C219.693 46.8693 217.098 55.0941 221.395 60.4163L231.317 74.2577C231.317 74.2577 228.69 79.0877 227.724 80.7023Z" fill="#FFA8A7"/>
<path d="M234.923 61.5066C233.649 59.6666 232.32 57.7714 231.036 55.8946C225.631 48.0056 226.087 46.5612 218.294 46.4508C217.604 47.5088 217.195 52.0628 218.234 56.6352C219.104 60.4762 222.374 63.1856 222.374 63.1856L226.275 68.471C226.275 68.471 228.663 68.3974 231.524 66.2998C233.176 65.1423 234.377 63.4488 234.923 61.5066Z" fill="#37474F"/>
<path d="M218.018 25.4701C217.627 24.8864 217.084 24.4198 216.448 24.1201C215.812 23.8204 215.107 23.6988 214.407 23.7681L214.002 33.6443L213.34 37.2921L213.455 41.3539C213.84 41.2995 214.204 41.1487 214.515 40.9154C214.825 40.6822 215.071 40.3741 215.231 40.0199C215.838 38.8515 217.531 33.2027 217.531 33.2027C219.049 28.5613 218.727 26.4637 218.018 25.4701Z" fill="#495057"/>
<path d="M213.542 33.6904C213.713 33.0901 214.042 32.5468 214.495 32.1172C215.06 31.51 217.314 30.8522 218.34 32.7658C219.366 34.6794 217.636 37.2048 216.302 37.9776C214.596 38.9712 213.593 37.6188 213.593 37.6188L213.634 46.713C212.839 48.553 209.246 50.1906 207.107 49.933C205.405 49.7168 203.836 48.3782 205.359 46.4278L205.235 43.8334C205.235 43.8334 202.958 44.2934 201.831 44.1784C199.959 43.9852 198.712 42.573 198.05 40.5858C196.982 37.3934 196.509 34.799 196.959 28.3958C197.456 21.3808 205.566 20.907 210.088 23.4462C214.61 25.9854 213.542 33.6904 213.542 33.6904Z" fill="#FFA8A7"/>
<path d="M194.379 21.1094C194.172 19.5776 194.701 17.9354 196.306 17.3926C196.895 17.1461 197.542 17.0711 198.172 17.176C198.802 17.281 199.389 17.5618 199.867 17.986C200.068 17.4456 200.416 16.972 200.871 16.6185C201.327 16.265 201.872 16.0456 202.446 15.9849C203.019 15.9242 203.598 16.0246 204.118 16.2749C204.637 16.5252 205.077 16.9155 205.387 17.4018C205.813 16.7541 206.471 16.2947 207.227 16.1184C207.692 16.0144 208.174 16.0048 208.643 16.0901C209.112 16.1755 209.56 16.354 209.959 16.6152C210.612 17.0982 211.38 17.9952 211.187 19.159C212.48 18.6392 213.828 19.0716 214.789 20.2124C215.361 20.9109 215.685 21.7799 215.709 22.6826C215.742 23.1514 215.675 23.6219 215.511 24.0626C215.327 24.4812 214.95 24.7572 214.84 25.231C214.679 25.6478 214.596 26.0906 214.596 26.5374C214.702 27.3102 214.872 28.083 214.973 28.8374C215.082 29.5888 215.145 30.3461 215.162 31.1052C215.138 31.2837 215.075 31.455 214.979 31.6073C214.883 31.7597 214.756 31.8897 214.605 31.9884C214.176 32.364 213.843 32.8372 213.634 33.3684C213.473 33.6996 213.317 34.5184 213 34.7484C212.02 35.4338 211.909 33.2166 211.863 32.7888C211.8 31.8069 211.8 30.822 211.863 29.8402C211.369 29.8338 210.882 29.7241 210.433 29.5181C209.983 29.3121 209.582 29.0144 209.255 28.6442C208.916 28.2281 208.692 27.7299 208.607 27.1998C208.553 26.896 208.529 26.588 208.533 26.2798C207.894 27.3378 206.408 27.7702 205.35 27.6598C203.574 27.4988 202.962 26.7398 202.677 26.1832C202.565 26.7318 202.324 27.2458 201.973 27.6828C201.52 28.109 200.973 28.4239 200.377 28.6028C199.863 28.74 199.321 28.7345 198.81 28.587C198.298 28.4395 197.837 28.1556 197.475 27.7656C196.752 28.8006 194.921 28.3406 194.517 28.0508C193.597 27.3838 193.298 26.588 193.196 25.4518C193.095 24.3156 193.555 23.0184 194.816 22.5722C194.589 22.1127 194.441 21.6181 194.379 21.1094Z" fill="#495057"/>
<path d="M205.235 43.8195C205.235 43.8195 209.347 42.78 210.755 41.9336C211.587 41.446 212.253 40.718 212.664 39.8452C212.486 40.7062 212.137 41.5227 211.638 42.2463C210.644 43.6585 205.281 44.9281 205.281 44.9281L205.235 43.8195Z" fill="#F28F8F"/>
<path d="M205.465 33.3868C205.48 33.561 205.547 33.7269 205.656 33.8637C205.765 34.0005 205.911 34.1022 206.078 34.1563C206.244 34.2104 206.423 34.2143 206.591 34.1677C206.76 34.1211 206.911 34.0259 207.026 33.8941C207.141 33.7622 207.215 33.5995 207.238 33.4261C207.261 33.2528 207.233 33.0764 207.157 32.9189C207.081 32.7614 206.96 32.6298 206.81 32.5404C206.659 32.4511 206.486 32.4078 206.311 32.4162C206.071 32.435 205.848 32.5472 205.69 32.7287C205.532 32.9101 205.451 33.1464 205.465 33.3868Z" fill="#495057"/>
<path d="M204.089 40.043C204.11 40.2674 204.197 40.4807 204.338 40.6563C204.479 40.832 204.669 40.9622 204.884 41.0309C205.099 41.0996 205.329 41.1037 205.546 41.0427C205.763 40.9817 205.957 40.8582 206.104 40.6877C206.252 40.5172 206.346 40.3071 206.375 40.0836C206.404 39.8601 206.366 39.6329 206.267 39.4305C206.168 39.228 206.012 39.059 205.818 38.9447C205.624 38.8303 205.4 38.7755 205.175 38.7872C204.865 38.8119 204.578 38.9575 204.375 39.1925C204.171 39.4275 204.069 39.733 204.089 40.043Z" fill="#F28F8F"/>
<path d="M206.205 30.3231L208.101 31.2431C208.219 30.9834 208.232 30.6882 208.139 30.4186C208.046 30.1489 207.852 29.9254 207.599 29.7941C207.473 29.734 207.337 29.7001 207.198 29.6943C207.058 29.6885 206.919 29.711 206.789 29.7604C206.659 29.8099 206.54 29.8852 206.44 29.982C206.339 30.0787 206.26 30.1947 206.205 30.3231Z" fill="#495057"/>
<path d="M197.962 31.119L199.577 29.739C199.492 29.6289 199.387 29.5372 199.266 29.4695C199.145 29.4018 199.011 29.3595 198.873 29.3453C198.736 29.3311 198.596 29.3452 198.464 29.3868C198.332 29.4284 198.21 29.4966 198.105 29.5872C197.889 29.7757 197.754 30.0397 197.728 30.3247C197.701 30.6096 197.785 30.894 197.962 31.119Z" fill="#495057"/>
<path d="M198.445 33.2074C198.456 33.3775 198.517 33.5406 198.621 33.6761C198.725 33.8116 198.866 33.9135 199.027 33.9689C199.188 34.0243 199.362 34.0308 199.527 33.9876C199.692 33.9444 199.841 33.8534 199.954 33.726C200.068 33.5986 200.141 33.4406 200.165 33.2717C200.188 33.1029 200.162 32.9307 200.088 32.777C200.014 32.6232 199.897 32.4947 199.75 32.4076C199.603 32.3205 199.434 32.2787 199.264 32.2874C199.034 32.3028 198.82 32.4078 198.666 32.5799C198.513 32.752 198.434 32.9773 198.445 33.2074Z" fill="#495057"/>
<path d="M202.714 32.1862L202.686 37.628L199.807 36.8L202.714 32.1862Z" fill="#F28F8F"/>
<path d="M195.487 39.7992C195.514 39.7933 195.539 39.7821 195.561 39.7663C195.583 39.7505 195.602 39.7304 195.616 39.7072C195.633 39.6845 195.644 39.6587 195.65 39.6313C195.656 39.604 195.657 39.5757 195.652 39.5482C195.646 39.5207 195.636 39.4945 195.62 39.4712C195.605 39.448 195.584 39.4281 195.561 39.4128L193.059 37.7476C193.035 37.7321 193.009 37.7213 192.982 37.716C192.955 37.7106 192.926 37.7107 192.899 37.7162C192.872 37.7218 192.846 37.7327 192.822 37.7483C192.799 37.764 192.78 37.7841 192.764 37.8074C192.748 37.8304 192.737 37.8565 192.731 37.884C192.725 37.9115 192.725 37.9399 192.731 37.9675C192.736 37.995 192.748 38.0211 192.764 38.0442C192.78 38.0673 192.8 38.0869 192.824 38.1018L195.322 39.767C195.345 39.7843 195.372 39.7961 195.401 39.8017C195.43 39.8072 195.459 39.8064 195.487 39.7992Z" fill="#DDE2E5"/>
<path d="M195.221 40.8756C195.26 40.8659 195.295 40.8458 195.324 40.8174C195.352 40.7891 195.372 40.7535 195.382 40.7146C195.394 40.6591 195.384 40.6009 195.354 40.5527C195.324 40.5045 195.276 40.4701 195.221 40.457L192.295 39.7808C192.268 39.7739 192.24 39.7725 192.212 39.7767C192.184 39.7809 192.157 39.7905 192.134 39.8051C192.11 39.8196 192.089 39.8388 192.072 39.8615C192.056 39.8842 192.044 39.9099 192.037 39.9372C192.025 39.9926 192.035 40.0508 192.065 40.099C192.095 40.1472 192.143 40.1816 192.198 40.1948L195.124 40.8756C195.156 40.8802 195.189 40.8802 195.221 40.8756Z" fill="#DDE2E5"/>
<path d="M192.502 42.8213H192.53L195.349 41.7909C195.403 41.7714 195.446 41.7316 195.469 41.6803C195.493 41.6289 195.496 41.5703 195.476 41.5172C195.456 41.4642 195.417 41.421 195.365 41.3973C195.314 41.3736 195.255 41.3712 195.202 41.3907L192.382 42.4211C192.356 42.4308 192.332 42.4457 192.311 42.4649C192.29 42.4841 192.274 42.5073 192.262 42.533C192.251 42.5587 192.244 42.5865 192.244 42.6147C192.243 42.6428 192.248 42.6709 192.258 42.6971C192.278 42.7433 192.313 42.7812 192.357 42.8039C192.402 42.8267 192.453 42.8328 192.502 42.8213Z" fill="#DDE2E5"/>
<path d="M168.646 64.8876C168.705 65.0043 168.796 65.1014 168.909 65.1669C169.021 65.2324 169.151 65.2633 169.281 65.256C169.411 65.2487 169.536 65.2033 169.641 65.1256C169.746 65.0478 169.825 64.9411 169.87 64.8186L171.968 59.6436C172.002 59.5606 172.019 59.4716 172.018 59.382C172.016 59.2923 171.997 59.2038 171.961 59.1217C171.925 59.0396 171.873 58.9657 171.807 58.9042C171.742 58.8428 171.665 58.7952 171.581 58.7643C171.497 58.7334 171.407 58.7197 171.317 58.7242C171.228 58.7286 171.14 58.7511 171.059 58.7902C170.979 58.8294 170.907 58.8844 170.848 58.952C170.789 59.0195 170.744 59.0983 170.716 59.1836L168.614 64.3586C168.583 64.4443 168.57 64.5354 168.576 64.6264C168.581 64.7174 168.605 64.8063 168.646 64.8876Z" fill="#DDE2E5"/>
<path d="M165.192 64.86C165.259 64.9956 165.37 65.1044 165.507 65.1686C165.644 65.2328 165.798 65.2485 165.945 65.2132C166.093 65.1779 166.223 65.0937 166.316 64.9743C166.409 64.855 166.459 64.7076 166.457 64.5564L166.388 58.1164C166.374 57.9496 166.298 57.7942 166.175 57.6809C166.052 57.5676 165.89 57.5047 165.723 57.5047C165.556 57.5047 165.395 57.5676 165.271 57.6809C165.148 57.7942 165.072 57.9496 165.058 58.1164L165.123 64.5564C165.121 64.6616 165.145 64.7656 165.192 64.86Z" fill="#DDE2E5"/>
<path d="M159.336 61.2766L159.377 61.3548L162.547 65.9548C162.645 66.1004 162.797 66.2014 162.969 66.2359C163.141 66.2703 163.32 66.2354 163.467 66.1388C163.61 66.0383 163.708 65.8864 163.742 65.7149C163.775 65.5434 163.741 65.3656 163.646 65.2188L160.477 60.6188C160.385 60.4761 160.241 60.3744 160.076 60.3346C159.91 60.2948 159.736 60.3201 159.589 60.4052C159.442 60.4903 159.333 60.6287 159.285 60.7917C159.237 60.9548 159.254 61.13 159.331 61.2812L159.336 61.2766Z" fill="#DDE2E5"/>
</svg>
