<svg width="24" height="24" viewBox="0 0 24 24" fill="none" xmlns="http://www.w3.org/2000/svg">
<path fill-rule="evenodd" clip-rule="evenodd" d="M0 12C0 5.37258 5.33177 0 11.9088 0C18.4859 0 23.8177 5.37258 23.8177 12C23.8177 18.6274 18.4859 24 11.9088 24C5.33177 24 0 18.6274 0 12ZM11.9094 5.6C10.1845 5.6 9.96802 5.6076 9.29053 5.63867C8.61436 5.66987 8.15282 5.77773 7.74898 5.936C7.33124 6.09947 6.97688 6.31814 6.62384 6.67401C6.27055 7.02975 6.05354 7.38682 5.89078 7.80762C5.73332 8.21469 5.62614 8.6799 5.5957 9.36097C5.5654 10.0436 5.55746 10.2619 5.55746 12.0001C5.55746 13.7382 5.56514 13.9557 5.59584 14.6384C5.62693 15.3197 5.73398 15.7848 5.89091 16.1917C6.05327 16.6126 6.27028 16.9697 6.62345 17.3255C6.97635 17.6815 7.33071 17.9007 7.74818 18.0641C8.1523 18.2224 8.61397 18.3303 9.29 18.3615C9.96749 18.3925 10.1838 18.4001 11.9086 18.4001C13.6337 18.4001 13.8495 18.3925 14.527 18.3615C15.2032 18.3303 15.6653 18.2224 16.0694 18.0641C16.487 17.9007 16.8408 17.6815 17.1937 17.3255C17.547 16.9697 17.764 16.6126 17.9268 16.1918C18.0829 15.7848 18.1901 15.3196 18.2219 14.6385C18.2523 13.9558 18.2602 13.7382 18.2602 12.0001C18.2602 10.2619 18.2523 10.0438 18.2219 9.3611C18.1901 8.67976 18.0829 8.21469 17.9268 7.80776C17.764 7.38682 17.547 7.02975 17.1937 6.67401C16.8404 6.31801 16.4871 6.09934 16.069 5.936C15.6641 5.77773 15.2023 5.66987 14.5261 5.63867C13.8486 5.6076 13.6329 5.6 11.9075 5.6H11.9094Z" fill="#603E94"/>
<path fill-rule="evenodd" clip-rule="evenodd" d="M11.3397 6.75335C11.5088 6.75308 11.6975 6.75335 11.9094 6.75335C13.6053 6.75335 13.8063 6.75948 14.476 6.79014C15.0952 6.81868 15.4313 6.92295 15.6552 7.01055C15.9516 7.12655 16.1629 7.26522 16.3851 7.48922C16.6074 7.71322 16.745 7.92656 16.8604 8.22523C16.9473 8.45056 17.0509 8.78923 17.0791 9.41324C17.1096 10.0879 17.1162 10.2906 17.1162 11.9986C17.1162 13.7066 17.1096 13.9093 17.0791 14.584C17.0508 15.208 16.9473 15.5466 16.8604 15.772C16.7453 16.0706 16.6074 16.2833 16.3851 16.5072C16.1628 16.7312 15.9517 16.8698 15.6552 16.9858C15.4316 17.0739 15.0952 17.1779 14.476 17.2064C13.8064 17.2371 13.6053 17.2437 11.9094 17.2437C10.2135 17.2437 10.0125 17.2371 9.34293 17.2064C8.72366 17.1776 8.38756 17.0733 8.16354 16.9857C7.86714 16.8697 7.65543 16.731 7.43313 16.507C7.21082 16.283 7.07321 16.0702 6.95783 15.7714C6.87089 15.5461 6.76728 15.2074 6.7391 14.5834C6.70866 13.9088 6.70258 13.7061 6.70258 11.997C6.70258 10.2879 6.70866 10.0863 6.7391 9.41164C6.76741 8.78763 6.87089 8.44896 6.95783 8.22336C7.07295 7.92469 7.21082 7.71135 7.43313 7.48735C7.65543 7.26335 7.86714 7.12468 8.16354 7.00841C8.38743 6.92041 8.72366 6.81641 9.34293 6.78774C9.92885 6.76108 10.1559 6.75308 11.3397 6.75174V6.75335ZM15.2998 7.81602C14.879 7.81602 14.5376 8.15963 14.5376 8.58376C14.5376 9.00777 14.879 9.35177 15.2998 9.35177C15.7206 9.35177 16.062 9.00777 16.062 8.58376C16.062 8.15976 15.7206 7.81602 15.2998 7.81602ZM11.9094 8.71336C10.1081 8.71336 8.64771 10.185 8.64771 12.0001C8.64771 13.8152 10.1081 15.2861 11.9094 15.2861C13.7107 15.2861 15.1706 13.8152 15.1706 12.0001C15.1706 10.185 13.7107 8.71336 11.9094 8.71336Z" fill="#603E94"/>
<path fill-rule="evenodd" clip-rule="evenodd" d="M11.9094 9.86671C13.0786 9.86671 14.0266 10.8218 14.0266 12.0001C14.0266 13.1782 13.0786 14.1334 11.9094 14.1334C10.7401 14.1334 9.79229 13.1782 9.79229 12.0001C9.79229 10.8218 10.7401 9.86671 11.9094 9.86671Z" fill="#603E94"/>
</svg>
