<svg width="24" height="24" viewBox="0 0 24 24" fill="none" xmlns="http://www.w3.org/2000/svg">
<path fill-rule="evenodd" clip-rule="evenodd" d="M0 12C0 5.37258 5.33177 0 11.9088 0C18.4859 0 23.8177 5.37258 23.8177 12C23.8177 18.6274 18.4859 24 11.9088 24C5.33177 24 0 18.6274 0 12ZM8.41582 9.93894H5.71702V18.1098H8.41582V9.93894ZM8.5936 7.41135C8.57608 6.6102 8.00753 6 7.08429 6C6.16104 6 5.55746 6.6102 5.55746 7.41135C5.55746 8.1959 6.1432 8.82367 7.04925 8.82367H7.0665C8.00753 8.82367 8.5936 8.1959 8.5936 7.41135ZM18.1488 13.4249C18.1488 10.9151 16.8174 9.74706 15.0415 9.74706C13.6086 9.74706 12.9671 10.5401 12.6089 11.0965V9.93915H9.90975C9.94532 10.7059 9.90975 18.11 9.90975 18.11H12.6089V13.5467C12.6089 13.3025 12.6264 13.0589 12.6978 12.8841C12.8928 12.3962 13.3369 11.8911 14.0825 11.8911C15.0595 11.8911 15.45 12.6404 15.45 13.7384V18.1098H18.1487L18.1488 13.4249Z" fill="#603E94"/>
</svg>
