<svg width="24" height="24" viewBox="0 0 24 24" fill="none" xmlns="http://www.w3.org/2000/svg">
<path fill-rule="evenodd" clip-rule="evenodd" d="M0 12C0 5.37258 5.33177 0 11.9088 0C18.4859 0 23.8177 5.37258 23.8177 12C23.8177 18.6274 18.4859 24 11.9088 24C5.33177 24 0 18.6274 0 12ZM11.5522 9.75375L11.5772 10.169L11.1607 10.1181C9.64461 9.92323 8.32014 9.26226 7.19559 8.15216L6.64581 7.60135L6.5042 8.0081C6.20432 8.91482 6.39591 9.87239 7.02066 10.5164C7.35386 10.8723 7.27889 10.9232 6.70412 10.7113C6.5042 10.6435 6.32927 10.5927 6.31261 10.6181C6.2543 10.6774 6.45422 11.4486 6.61249 11.7536C6.82907 12.1773 7.27056 12.5925 7.7537 12.8383L8.16187 13.0332L7.67873 13.0417C7.21225 13.0417 7.19559 13.0501 7.24557 13.2281C7.41217 13.7789 8.07024 14.3636 8.80328 14.6178L9.31974 14.7958L8.86992 15.067C8.20352 15.4568 7.4205 15.6771 6.63748 15.694C6.26263 15.7025 5.95442 15.7364 5.95442 15.7618C5.95442 15.8466 6.97068 16.3211 7.56211 16.5075C9.3364 17.0584 11.4439 16.8211 13.0266 15.8805C14.1511 15.211 15.2757 13.8806 15.8005 12.5925C16.0837 11.9062 16.3669 10.652 16.3669 10.0503C16.3669 9.66053 16.3919 9.60969 16.8584 9.14362C17.1333 8.87245 17.3915 8.57586 17.4415 8.49112C17.5248 8.33011 17.5165 8.33011 17.0916 8.47417C16.3836 8.72839 16.2836 8.6945 16.6335 8.31317C16.8917 8.042 17.1999 7.5505 17.1999 7.40645C17.1999 7.38102 17.075 7.42339 16.9334 7.49966C16.7834 7.5844 16.4502 7.71151 16.2003 7.78778L15.7505 7.93183L15.3423 7.65219C15.1174 7.49966 14.8009 7.33018 14.6343 7.27934C14.2094 7.1607 13.5597 7.17765 13.1765 7.31323C12.1353 7.69456 11.4772 8.67755 11.5522 9.75375Z" fill="#603E94"/>
</svg>
