<svg width="90" height="33" viewBox="0 0 60 24" fill="none" xmlns="http://www.w3.org/2000/svg">
        <path d="M6.96683 0.171972C3.79621 0.229298 1.13744 0.315287 1.03792 0.34395C0.952607 0.386944 0.682465 0.702238 0.440759 1.06053L0 1.69111L0.0995261 12.2248L0.184834 22.7584L1.19431 23.3317L2.20379 23.905L8.84361 23.8333L15.4834 23.7473L16.0379 22.6581L16.5924 21.5689L16.5213 16.5099L16.4645 11.4652H13.3649C11.673 11.4652 9.88152 11.4222 9.39811 11.3792L8.53081 11.2789V13.6579V16.037L9.54029 16.1373L10.5498 16.2376L10.4929 17.5704C10.4787 18.3013 10.4076 18.9319 10.3507 18.9893C10.2654 19.0752 6.56873 18.8603 6.4692 18.76C6.45498 18.7313 6.38389 15.693 6.32702 12.0098L6.21327 5.33132L7.12323 5.24533C8.64456 5.11635 10.3792 5.05902 10.3792 5.14501C10.3934 5.28832 10.6493 7.22308 10.7346 7.69602L10.8199 8.16896H13.5782H16.3507V7.76768C16.3507 7.30907 16.6066 3.16726 16.692 2.17838C16.7488 1.57646 16.7204 1.5478 15.8247 0.788227L14.9147 -5.72205e-06L13.8199 0.028656C13.2228 0.028656 10.1374 0.100315 6.96683 0.171972Z" fill="#603E94"/>
        <path d="M32.7012 0.171972C29.5306 0.229298 26.8718 0.315287 26.7723 0.34395C26.687 0.386944 26.4168 0.702238 26.1751 1.06053L25.7344 1.69111L25.8339 12.2248L25.9192 22.7584L26.9287 23.3317L27.9382 23.905L34.578 23.8333L41.2178 23.7473L41.7723 22.6581L42.3268 21.5689L42.2557 16.5099L42.1988 11.4652H39.0993C37.4074 11.4652 35.6159 11.4222 35.1325 11.3792L34.2652 11.2789V13.6579V16.037L35.2747 16.1373L36.2841 16.2376L36.2273 17.5704C36.2131 18.3013 36.142 18.9319 36.0851 18.9893C35.9998 19.0752 32.3031 18.8603 32.2036 18.76C32.1894 18.7313 32.1183 15.693 32.0614 12.0098L31.9476 5.33132L32.8576 5.24533C34.3789 5.11635 36.1135 5.05902 36.1135 5.14501C36.1277 5.28832 36.3837 7.22308 36.469 7.69602L36.5543 8.16896H39.3126H42.0851V7.76768C42.0851 7.30907 42.341 3.16726 42.4263 2.17838C42.4832 1.57646 42.4548 1.5478 41.559 0.788227L40.6491 -5.72205e-06L39.5543 0.028656C38.9571 0.028656 35.8718 0.100315 32.7012 0.171972Z" fill="#603E94"/>
        <path d="M46.1094 0.544825C43.7492 0.974771 43.3937 1.07509 43.4932 1.27573C43.5643 1.40472 44.8013 4.1277 46.2657 7.33797L48.9103 13.1709L47.4885 17.37C46.2089 21.1106 46.0667 21.6408 46.152 22.2427C46.2089 22.7014 46.3084 22.945 46.4648 22.988C47.7018 23.3319 51.6544 24.0915 51.7397 23.9912C51.7966 23.9195 53.6876 19.4051 55.9198 13.9735L60.0004 4.08471V3.00985V1.93498L57.2847 0.96044C55.7918 0.415842 54.5122 0.0288906 54.4553 0.100548C54.3985 0.157873 53.8866 1.43338 53.3179 2.90953C52.5075 5.01626 52.2373 5.57519 52.1236 5.40321C52.0383 5.28856 51.3558 4.02739 50.6165 2.59423C49.7492 0.931776 49.1947 0.000226974 49.0525 0.0145588C48.9387 0.0288906 47.6165 0.258194 46.1094 0.544825Z" fill="#603E94"/>
        <path d="M19.3932 0.243595L18.0994 0.30092L18.0141 12.0814C17.9714 18.5593 17.943 23.8763 17.9714 23.8906C18.0425 23.9623 23.815 23.4607 23.9145 23.3747C23.9572 23.3317 24.0709 19.4192 24.1562 14.6898C24.2416 9.96037 24.3553 4.75802 24.398 3.1099L24.4833 0.143274L22.5923 0.171938C21.5401 0.18627 20.1041 0.229263 19.3932 0.243595Z" fill="#603E94"/>
        </svg>