<svg width="24" height="24" viewBox="0 0 16 16" fill="none" xmlns="http://www.w3.org/2000/svg">
       <path d="M14.6663 8H10.6663L9.33301 10H6.66634L5.33301 8H1.33301" stroke="#8C949C" stroke-width="2" stroke-linecap="round" stroke-linejoin="round"/>
       <path d="M3.63301 3.40669L1.33301 8.00002V12C1.33301 12.3536 1.47348 12.6928 1.72353 12.9428C1.97358 13.1929 2.31272 13.3334 2.66634 13.3334H13.333C13.6866 13.3334 14.0258 13.1929 14.2758 12.9428C14.5259 12.6928 14.6663 12.3536 14.6663 12V8.00002L12.3663 3.40669C12.256 3.18455 12.0858 2.9976 11.875 2.86687C11.6642 2.73615 11.4211 2.66682 11.173 2.66669H4.82634C4.57829 2.66682 4.33518 2.73615 4.12437 2.86687C3.91356 2.9976 3.74339 3.18455 3.63301 3.40669V3.40669Z" stroke="#8C949C" stroke-width="2" stroke-linecap="round" stroke-linejoin="round"/>
</svg>