<svg width="16" height="16" viewBox="0 0 16 16" fill="none" xmlns="http://www.w3.org/2000/svg">
<path d="M11.333 7.33333H10.6663C10.4895 7.33333 10.32 7.40357 10.1949 7.5286C10.0699 7.65362 9.99967 7.82319 9.99967 8C9.99967 8.17681 10.0699 8.34638 10.1949 8.4714C10.32 8.59643 10.4895 8.66667 10.6663 8.66667H11.333C11.5098 8.66667 11.6794 8.59643 11.8044 8.4714C11.9294 8.34638 11.9997 8.17681 11.9997 8C11.9997 7.82319 11.9294 7.65362 11.8044 7.5286C11.6794 7.40357 11.5098 7.33333 11.333 7.33333ZM11.333 10H10.6663C10.4895 10 10.32 10.0702 10.1949 10.1953C10.0699 10.3203 9.99967 10.4899 9.99967 10.6667C9.99967 10.8435 10.0699 11.013 10.1949 11.1381C10.32 11.2631 10.4895 11.3333 10.6663 11.3333H11.333C11.5098 11.3333 11.6794 11.2631 11.8044 11.1381C11.9294 11.013 11.9997 10.8435 11.9997 10.6667C11.9997 10.4899 11.9294 10.3203 11.8044 10.1953C11.6794 10.0702 11.5098 10 11.333 10ZM7.33301 6H11.333C11.5098 6 11.6794 5.92976 11.8044 5.80474C11.9294 5.67971 11.9997 5.51014 11.9997 5.33333C11.9997 5.15652 11.9294 4.98695 11.8044 4.86193C11.6794 4.7369 11.5098 4.66667 11.333 4.66667H7.33301C7.1562 4.66667 6.98663 4.7369 6.8616 4.86193C6.73658 4.98695 6.66634 5.15652 6.66634 5.33333C6.66634 5.51014 6.73658 5.67971 6.8616 5.80474C6.98663 5.92976 7.1562 6 7.33301 6ZM13.9997 2H4.66634C4.48953 2 4.31996 2.07024 4.19494 2.19526C4.06991 2.32029 3.99967 2.48986 3.99967 2.66667V4.66667H1.99967C1.82286 4.66667 1.65329 4.7369 1.52827 4.86193C1.40325 4.98695 1.33301 5.15652 1.33301 5.33333V12C1.33301 12.5304 1.54372 13.0391 1.91879 13.4142C2.29387 13.7893 2.80257 14 3.33301 14H11.9997C12.7069 14 13.3852 13.719 13.8853 13.219C14.3854 12.7189 14.6663 12.0406 14.6663 11.3333V2.66667C14.6663 2.48986 14.5961 2.32029 14.4711 2.19526C14.3461 2.07024 14.1765 2 13.9997 2ZM3.99967 12C3.99967 12.1768 3.92944 12.3464 3.80441 12.4714C3.67939 12.5964 3.50982 12.6667 3.33301 12.6667C3.1562 12.6667 2.98663 12.5964 2.8616 12.4714C2.73658 12.3464 2.66634 12.1768 2.66634 12V6H3.99967V12ZM13.333 11.3333C13.333 11.687 13.1925 12.0261 12.9425 12.2761C12.6924 12.5262 12.3533 12.6667 11.9997 12.6667H5.21301C5.29062 12.4529 5.3312 12.2274 5.33301 12V3.33333H13.333V11.3333ZM7.33301 8.66667H7.99967C8.17649 8.66667 8.34606 8.59643 8.47108 8.4714C8.5961 8.34638 8.66634 8.17681 8.66634 8C8.66634 7.82319 8.5961 7.65362 8.47108 7.5286C8.34606 7.40357 8.17649 7.33333 7.99967 7.33333H7.33301C7.1562 7.33333 6.98663 7.40357 6.8616 7.5286C6.73658 7.65362 6.66634 7.82319 6.66634 8C6.66634 8.17681 6.73658 8.34638 6.8616 8.4714C6.98663 8.59643 7.1562 8.66667 7.33301 8.66667ZM7.33301 11.3333H7.99967C8.17649 11.3333 8.34606 11.2631 8.47108 11.1381C8.5961 11.013 8.66634 10.8435 8.66634 10.6667C8.66634 10.4899 8.5961 10.3203 8.47108 10.1953C8.34606 10.0702 8.17649 10 7.99967 10H7.33301C7.1562 10 6.98663 10.0702 6.8616 10.1953C6.73658 10.3203 6.66634 10.4899 6.66634 10.6667C6.66634 10.8435 6.73658 11.013 6.8616 11.1381C6.98663 11.2631 7.1562 11.3333 7.33301 11.3333Z" fill="#8C949C"/>
</svg>
