<svg width="750" height="500" viewBox="0 0 750 500" fill="none" xmlns="http://www.w3.org/2000/svg">
<path d="M143.51 342.55C150.89 337.89 153.58 331.86 154.8 323.21C155.382 318.872 155.026 314.46 153.756 310.271C152.486 306.082 150.332 302.215 147.44 298.93C142.6 293.49 135.76 289.76 132.26 283.38C128.54 276.57 129.09 267.56 123.74 261.95C120.06 258.1 114.48 256.85 109.92 254.09C106.2 251.84 103.2 248.6 99.83 245.85C96.46 243.1 92.41 240.77 88.06 240.85C81.51 241.04 76.12 247.22 75.51 253.75C74.9 260.28 78.26 266.75 83.06 271.19C86.54 274.43 90.89 276.99 93.06 281.19C97.16 289.13 92 299.66 96.44 307.41C99.68 313.08 107.44 316.08 108.28 322.56C108.58 324.94 107.8 327.32 107.71 329.72C107.41 337.22 114.14 343.58 121.46 345.25C128.78 346.92 136.41 344.96 143.46 342.48" fill="#F5F5F5"/>
<path d="M101 267.9C101.213 268.229 101.461 268.534 101.74 268.81L104 271.31C105 272.37 106.21 273.69 107.51 275.31C108.81 276.93 110.41 278.67 111.94 280.79L114.41 284.05C115.27 285.19 116.06 286.44 116.94 287.7C118.72 290.19 120.38 293.02 122.19 295.96C125.926 302.433 129.204 309.16 132 316.09C134.698 323.067 136.9 330.224 138.59 337.51C139.28 340.89 140 344.09 140.4 347.13C140.62 348.64 140.89 350.13 141.05 351.52C141.21 352.91 141.33 354.29 141.47 355.59C141.8 358.18 141.84 360.59 141.97 362.59C142.1 364.59 142.14 366.45 142.14 367.91C142.14 369.37 142.14 370.41 142.19 371.27C142.176 371.665 142.203 372.061 142.27 372.45C142.34 372.064 142.373 371.673 142.37 371.28C142.37 370.42 142.44 369.28 142.49 367.91C142.54 366.54 142.58 364.65 142.49 362.57C142.4 360.49 142.41 358.12 142.12 355.51C142 354.21 141.88 352.84 141.75 351.42C141.62 350 141.36 348.52 141.15 347C140.78 343.93 140.09 340.71 139.41 337.31C137.76 329.968 135.567 322.758 132.85 315.74C130.043 308.761 126.724 302 122.92 295.51C121.08 292.57 119.39 289.74 117.57 287.25C116.68 285.99 115.86 284.74 114.99 283.61L112.46 280.37C110.89 278.27 109.27 276.53 107.91 274.95C106.55 273.37 105.32 272.08 104.28 271.05L101.89 268.67C101.619 268.385 101.321 268.127 101 267.9V267.9Z" fill="#E0E0E0"/>
<path d="M698.94 174.32C698.94 174.32 689.54 168.1 678.09 190.59C666.64 213.08 662.29 226 662.29 226C662.29 226 659.29 230.71 656.02 227.63C652.75 224.55 648.35 215.81 642.85 217.39C637.15 219.02 635.27 225.39 636.36 234.74C637.45 244.09 639.08 264.68 639.22 266.54C639.36 268.4 638.31 271.06 635.77 269.31C633.23 267.56 618.61 251.31 611.31 258.69C604.01 266.07 611.31 291.69 612.06 294.46C612.81 297.23 612.25 298.46 610.92 299.16C609.59 299.86 605.19 293.93 600.84 289.47C596.49 285.01 590.67 280.6 586.84 285.22C583.01 289.84 581.75 309.02 600 340.22L609.41 354.1L626.22 353.17C662.09 348.98 676.65 336.44 678.02 330.58C679.39 324.72 672.36 322.72 666.18 321.94C660 321.16 652.62 321.22 652.37 319.73C652.12 318.24 652.75 317.09 655.44 315.99C658.13 314.89 682.95 305.33 684.44 295.05C685.93 284.77 664.15 282.89 661.23 281.91C658.31 280.93 659.82 278.48 661.37 277.49C662.92 276.5 680.37 265.39 688.47 260.62C696.57 255.85 700.55 250.52 698.42 244.99C696.36 239.65 686.72 241.37 682.31 240.64C677.9 239.91 679.84 234.64 679.84 234.64C679.84 234.64 687.58 223.36 698.62 200.64C709.66 177.92 698.76 174.15 698.76 174.15" fill="#F683AC"/>
<path d="M688.65 194.44L688.44 194.92L687.78 196.33L685.21 201.71C682.97 206.39 679.69 213.13 675.59 221.44C667.41 238.07 655.92 260.95 643.15 286.18C630.38 311.41 618.83 334.26 610.57 350.85L600.8 370.5L598.14 375.84L597.44 377.22C597.362 377.381 597.275 377.538 597.18 377.69L597.39 377.2L598.05 375.8L600.62 370.41C602.86 365.74 606.14 359 610.24 350.68C618.42 334.05 629.91 311.17 642.69 285.94C655.47 260.71 667 237.87 675.26 221.28L685 201.63L687.66 196.28L688.36 194.9C688.55 194.59 688.65 194.44 688.65 194.44Z" fill="#E0E0E0"/>
<path d="M648.56 229.9C648.749 230.249 648.897 230.618 649 231C649.25 231.74 649.57 232.82 649.95 234.16C650.71 236.84 651.66 240.57 652.64 244.71L655.11 255.3C655.41 256.57 655.67 257.64 655.88 258.5C656.003 258.887 656.081 259.286 656.11 259.69C655.93 259.329 655.786 258.95 655.68 258.56C655.44 257.82 655.12 256.73 654.75 255.39C654.02 252.7 653.11 248.96 652.13 244.83C651.15 240.7 650.27 237.08 649.59 234.26L648.81 231.06C648.688 230.683 648.604 230.294 648.56 229.9V229.9Z" fill="#E0E0E0"/>
<path d="M657.63 260C657.63 259.86 665.19 257.56 674.63 254.85C684.07 252.14 691.71 250.06 691.75 250.2C691.79 250.34 684.19 252.64 674.75 255.35C665.31 258.06 657.67 260.16 657.63 260Z" fill="#E0E0E0"/>
<path d="M636.27 297.88C636.677 297.816 637.089 297.796 637.5 297.82H640.87C643.71 297.82 647.63 297.82 651.96 297.64C656.29 297.46 660.2 297.21 663.03 296.98L666.39 296.72C666.802 296.672 667.218 296.672 667.63 296.72C667.234 296.847 666.825 296.927 666.41 296.96C665.62 297.08 664.48 297.23 663.07 297.39C660.24 297.71 656.32 298.05 651.98 298.2C647.64 298.35 643.71 298.32 640.86 298.2C639.44 298.15 638.29 298.09 637.5 298.03C637.085 298.03 636.672 297.98 636.27 297.88V297.88Z" fill="#E0E0E0"/>
<path d="M622.06 272.44C622.325 272.719 622.547 273.036 622.72 273.38L624.34 276.03C625.69 278.28 627.53 281.41 629.53 284.89C631.53 288.37 633.31 291.52 634.58 293.82L636.05 296.56C636.249 296.875 636.413 297.21 636.54 297.56C636.278 297.278 636.056 296.962 635.88 296.62L634.26 294C632.91 291.75 631.07 288.62 629.07 285.15C627.07 281.68 625.29 278.51 624.02 276.21L622.55 273.48C622.351 273.151 622.187 272.803 622.06 272.44Z" fill="#E0E0E0"/>
<path d="M599 303.46C599.306 303.842 599.584 304.246 599.83 304.67C600.37 305.56 601.07 306.67 601.92 308.07C603.66 310.94 606.05 314.94 608.65 319.37C611.25 323.8 613.58 327.82 615.25 330.74C616.04 332.15 616.69 333.32 617.2 334.22C617.457 334.635 617.675 335.074 617.85 335.53C617.537 335.153 617.26 334.748 617.02 334.32L614.93 330.93C613.19 328.05 610.8 324.06 608.2 319.63C605.6 315.2 603.27 311.18 601.6 308.25L599.65 304.78C599.392 304.362 599.174 303.92 599 303.46Z" fill="#E0E0E0"/>
<path d="M617.58 334.64C618.096 334.558 618.618 334.521 619.14 334.53L623.41 334.39C627.01 334.27 631.98 334.08 637.47 333.72C642.96 333.36 647.92 332.92 651.47 332.57L655.72 332.15C656.24 332.073 656.765 332.043 657.29 332.06C656.787 332.204 656.271 332.302 655.75 332.35C654.75 332.51 653.3 332.71 651.51 332.93C647.93 333.38 642.97 333.93 637.51 334.24C632.05 334.55 627.03 334.73 623.43 334.76C621.62 334.76 620.16 334.76 619.15 334.76C618.624 334.772 618.098 334.732 617.58 334.64Z" fill="#E0E0E0"/>
<path d="M698.4 458.17C698.4 458.32 555.18 458.44 378.56 458.44C201.94 458.44 58.6899 458.32 58.6899 458.17C58.6899 458.02 201.88 457.91 378.56 457.91C555.24 457.91 698.4 458 698.4 458.17Z" fill="#263238"/>
<path d="M88.13 388.43C89.9847 388.573 91.7913 389.09 93.4411 389.949C95.0909 390.808 96.5498 391.992 97.7301 393.43C100.079 396.327 101.731 399.724 102.56 403.36C104.35 410.36 103.14 418.51 101.1 425.36C93.61 422.61 89.0401 414.55 86.9801 410.36C83.7301 403.67 81.91 389.6 88.13 388.41" fill="#E8417C"/>
<path d="M111.85 433.93C110.735 432.171 110.106 430.147 110.027 428.066C109.948 425.984 110.422 423.919 111.4 422.08C112.405 420.26 113.763 418.658 115.394 417.368C117.025 416.079 118.897 415.127 120.9 414.57C122.74 414.02 124.9 413.8 126.46 414.88C127.175 415.427 127.729 416.158 128.064 416.994C128.398 417.83 128.5 418.741 128.36 419.63C128.068 421.41 127.309 423.08 126.16 424.47C122.46 429.39 117.98 433.47 111.85 433.93" fill="#E8417C"/>
<path d="M112.47 457.13C112.327 456.659 112.22 456.177 112.15 455.69C111.96 454.69 111.71 453.33 111.41 451.69C110.85 448.36 109.95 443.62 110.7 438.4C111.249 433.936 112.974 429.698 115.7 426.12C116.541 425.057 117.508 424.1 118.58 423.27C118.864 423.035 119.165 422.822 119.48 422.63C119.693 422.49 119.803 422.43 119.81 422.45C118.408 423.618 117.128 424.924 115.99 426.35C113.392 429.921 111.738 434.09 111.18 438.47C110.43 443.59 111.26 448.29 111.73 451.64C111.99 453.32 112.19 454.64 112.31 455.64C112.419 456.129 112.472 456.629 112.47 457.13V457.13Z" fill="#263238"/>
<path d="M90.4601 399C90.5809 399.182 90.6815 399.376 90.7601 399.58C90.9601 400.01 91.2101 400.58 91.5201 401.26C92.1701 402.72 93.0901 404.85 94.2001 407.49C96.4201 412.76 99.3801 420.1 102.47 428.27C105.56 436.44 108.19 443.91 110.01 449.33C110.93 452.05 111.65 454.25 112.13 455.78L112.67 457.54C112.747 457.739 112.797 457.948 112.82 458.16C112.718 457.972 112.634 457.774 112.57 457.57C112.4 457.13 112.19 456.57 111.93 455.84C111.38 454.27 110.61 452.11 109.67 449.45C107.75 444.06 105.07 436.62 101.98 428.45C98.8901 420.28 96.0001 413 93.8601 407.64L91.3301 401.34C91.0601 400.64 90.8401 400.07 90.6601 399.63C90.5728 399.427 90.5058 399.216 90.4601 399Z" fill="#263238"/>
<path d="M103.68 441.71C101.456 437.926 98.3619 434.728 94.6539 432.38C90.9459 430.032 86.7313 428.602 82.36 428.21C80.14 428.03 77.47 428.38 76.46 430.36C75.45 432.34 76.76 434.73 78.26 436.36C81.4498 439.756 85.5738 442.132 90.1119 443.187C94.65 444.242 99.3991 443.93 103.76 442.29" fill="#E8417C"/>
<path d="M85.7 434.18C86.1645 434.161 86.6297 434.185 87.09 434.25C87.6336 434.284 88.1746 434.351 88.71 434.45C89.4238 434.551 90.1315 434.692 90.83 434.87C91.6857 435.064 92.5303 435.305 93.36 435.59C94.3157 435.906 95.2538 436.273 96.17 436.69C98.273 437.655 100.259 438.856 102.09 440.27C103.9 441.711 105.537 443.355 106.97 445.17C107.587 445.97 108.158 446.805 108.68 447.67C109.164 448.421 109.604 449.199 110 450C110.326 450.649 110.613 451.317 110.86 452C111.079 452.499 111.259 453.014 111.4 453.54C111.565 453.976 111.682 454.429 111.75 454.89C111.64 454.89 111.12 453 109.67 450.18C109.275 449.407 108.837 448.656 108.36 447.93C107.827 447.095 107.253 446.288 106.64 445.51C105.215 443.741 103.599 442.134 101.82 440.72C100.021 439.33 98.0764 438.14 96.02 437.17C95.1088 436.729 94.1741 436.339 93.22 436C92.35 435.66 91.51 435.44 90.74 435.22C87.67 434.42 85.68 434.3 85.7 434.18Z" fill="#263238"/>
<path d="M592.11 69.8301H152.46C148.821 69.8301 145.331 71.2756 142.758 73.8486C140.185 76.4216 138.74 79.9113 138.74 83.5501V394.09C138.74 397.729 140.185 401.219 142.758 403.792C145.331 406.365 148.821 407.81 152.46 407.81H321.2C321.2 407.81 331.93 441 298.66 458.17H456.43C456.43 458.17 418.87 445.3 428.52 407.81H592.11C595.749 407.81 599.239 406.365 601.812 403.792C604.385 401.219 605.83 397.729 605.83 394.09V83.5501C605.83 79.9113 604.385 76.4216 601.812 73.8486C599.239 71.2756 595.749 69.8301 592.11 69.8301Z" fill="#263238"/>
<path d="M378.15 375.15C384.15 383.7 374.77 393.06 366.22 387.08C365.935 386.878 365.688 386.627 365.49 386.34C359.49 377.8 368.87 368.45 377.42 374.42C377.706 374.617 377.954 374.864 378.15 375.15V375.15Z" fill="#455A64"/>
<path d="M591.73 88.4502H151.93C150.124 88.4502 148.66 89.9142 148.66 91.7202V349.93C148.66 351.736 150.124 353.2 151.93 353.2H591.73C593.536 353.2 595 351.736 595 349.93V91.7202C595 89.9142 593.536 88.4502 591.73 88.4502Z" fill="#E0E0E0"/>
<path d="M595 107.84H148.66V353.19H595V107.84Z" fill="white"/>
<path d="M185.26 98.6699C185.262 99.3768 185.054 100.068 184.663 100.657C184.271 101.246 183.714 101.705 183.061 101.976C182.408 102.248 181.689 102.319 180.996 102.182C180.303 102.044 179.666 101.704 179.166 101.204C178.666 100.704 178.326 100.067 178.188 99.3739C178.051 98.6804 178.122 97.9618 178.394 97.3091C178.665 96.6563 179.124 96.0989 179.713 95.7074C180.301 95.3158 180.993 95.1079 181.7 95.1099C182.644 95.1099 183.55 95.4849 184.217 96.1526C184.885 96.8202 185.26 97.7257 185.26 98.6699Z" fill="#455A64"/>
<path d="M163.66 98.6699C163.662 99.3764 163.454 100.068 163.063 100.656C162.672 101.244 162.115 101.704 161.463 101.975C160.811 102.247 160.093 102.319 159.4 102.182C158.707 102.046 158.069 101.707 157.569 101.208C157.069 100.709 156.728 100.073 156.589 99.38C156.451 98.6873 156.521 97.9689 156.791 97.316C157.061 96.6631 157.518 96.105 158.106 95.7122C158.693 95.3195 159.384 95.1099 160.09 95.1099C160.558 95.1086 161.022 95.1997 161.455 95.378C161.889 95.5563 162.282 95.8183 162.614 96.149C162.945 96.4797 163.209 96.8726 163.388 97.3052C163.568 97.7378 163.66 98.2015 163.66 98.6699Z" fill="#455A64"/>
<path d="M174 98.6699C174.002 99.3764 173.794 100.068 173.403 100.656C173.012 101.244 172.455 101.704 171.803 101.975C171.151 102.247 170.433 102.319 169.74 102.182C169.046 102.046 168.409 101.707 167.909 101.208C167.409 100.709 167.068 100.073 166.929 99.38C166.791 98.6873 166.861 97.9689 167.131 97.316C167.401 96.6631 167.858 96.105 168.446 95.7122C169.033 95.3195 169.723 95.1099 170.43 95.1099C170.898 95.1086 171.362 95.1997 171.795 95.378C172.228 95.5563 172.622 95.8183 172.954 96.149C173.285 96.4797 173.548 96.8726 173.728 97.3052C173.908 97.7378 174 98.2015 174 98.6699V98.6699Z" fill="#455A64"/>
<path d="M581.12 122.63H463.58V319.01H581.12V122.63Z" fill="#F5F5F5"/>
<path d="M494.76 238.27L496.02 240.82L498.84 241.24L496.8 243.22L497.28 246.03L494.76 244.7L492.24 246.03L492.73 243.22L490.69 241.24L493.5 240.82L494.76 238.27Z" fill="#603E94"/>
<path d="M508.76 238.27L510.02 240.82L512.84 241.24L510.8 243.22L511.28 246.03L508.76 244.7L506.24 246.03L506.72 243.22L504.68 241.24L507.5 240.82L508.76 238.27Z" fill="#603E94"/>
<path d="M522.75 238.27L524.01 240.82L526.83 241.24L524.79 243.22L525.27 246.03L522.75 244.7L520.24 246.03L520.72 243.22L518.68 241.24L521.49 240.82L522.75 238.27Z" fill="#603E94"/>
<path d="M536.75 238.27L538.01 240.82L540.83 241.24L538.79 243.22L539.27 246.03L536.75 244.7L534.23 246.03L534.71 243.22L532.67 241.24L535.49 240.82L536.75 238.27Z" fill="#603E94"/>
<path d="M550.74 238.27L552 240.82L554.82 241.24L552.78 243.22L553.26 246.03L550.74 244.7L548.23 246.03L548.71 243.22L546.67 241.24L549.49 240.82L550.74 238.27Z" fill="#603E94"/>
<path d="M517.55 261.29C517.55 261.44 508.63 261.55 497.62 261.55C486.61 261.55 477.69 261.44 477.69 261.29C477.69 261.14 486.61 261.03 497.62 261.03C508.63 261.03 517.55 261.15 517.55 261.29Z" fill="#603E94"/>
<path d="M567.64 270C567.64 270.14 547.74 270.26 523.19 270.26C498.64 270.26 478.74 270.14 478.74 270C478.74 269.86 498.64 269.74 523.19 269.74C547.74 269.74 567.64 269.8 567.64 270Z" fill="#263238"/>
<path d="M567.64 277.38C567.64 277.52 547.74 277.64 523.19 277.64C498.64 277.64 478.74 277.52 478.74 277.38C478.74 277.24 498.64 277.12 523.19 277.12C547.74 277.12 567.64 277.24 567.64 277.38Z" fill="#263238"/>
<path d="M567.64 284.82C567.64 284.96 547.74 285.08 523.19 285.08C498.64 285.08 478.74 284.96 478.74 284.82C478.74 284.68 498.64 284.56 523.19 284.56C547.74 284.56 567.64 284.67 567.64 284.82Z" fill="#263238"/>
<path d="M567.64 292.25C567.64 292.4 547.74 292.51 523.19 292.51C498.64 292.51 478.74 292.4 478.74 292.25C478.74 292.1 498.64 291.99 523.19 291.99C547.74 291.99 567.64 292.11 567.64 292.25Z" fill="#263238"/>
<path d="M567.64 299.69C567.64 299.83 547.74 299.95 523.19 299.95C498.64 299.95 478.74 299.83 478.74 299.69C478.74 299.55 498.64 299.43 523.19 299.43C547.74 299.43 567.64 299.54 567.64 299.69Z" fill="#263238"/>
<path d="M572.56 132.6H471.31V229.8H572.56V132.6Z" fill="#E0E0E0"/>
<path d="M557.52 212.86L564.1 229.81H548.16L544.57 220.58L557.52 212.86Z" fill="#FFBE9D"/>
<path d="M496.83 229.81H540C540.67 223.43 541.09 217.4 541.09 217.4L543.31 223.4L561.44 214.33C561.44 214.33 554.85 196.76 549.33 190.81C542.33 183.28 529.82 184.03 529.82 184.03L513.54 184.3C509.374 184.793 505.318 185.976 501.54 187.8L501.14 187.92V188C497.62 191 487.04 205.18 487.04 205.18L490.94 208.97L498.94 216.42C498.93 216.444 498.925 216.469 498.925 216.495C498.925 216.521 498.93 216.546 498.94 216.57C499 217.38 496.83 229.81 496.83 229.81Z" fill="#603E94"/>
<path d="M530.28 183.45C530.28 183.45 530.33 183.55 530.37 183.74C530.429 184.023 530.466 184.311 530.48 184.6C530.531 185.671 530.382 186.743 530.04 187.76C529.524 189.283 528.609 190.64 527.39 191.69C525.859 192.95 523.951 193.665 521.968 193.721C519.985 193.777 518.04 193.171 516.44 192C515.169 191.015 514.182 189.71 513.58 188.22C513.182 187.224 512.975 186.162 512.97 185.09C512.963 184.798 512.983 184.507 513.03 184.22C513.03 184.03 513.08 183.93 513.1 183.93C513.113 185.352 513.391 186.759 513.92 188.08C514.542 189.476 515.509 190.691 516.73 191.61C518.254 192.694 520.089 193.253 521.959 193.201C523.828 193.148 525.63 192.488 527.09 191.32C528.259 190.337 529.154 189.07 529.69 187.64C530.15 186.293 530.35 184.871 530.28 183.45V183.45Z" fill="#263238"/>
<path d="M545.7 187.31C545.7 187.36 545.26 187.31 544.55 187.61C543.546 187.99 542.672 188.649 542.03 189.51C541.111 190.812 540.549 192.333 540.4 193.92C540.16 195.71 540.11 197.73 540.03 199.83C539.92 204.05 540.08 207.83 540.28 210.63C540.37 211.92 540.46 213.01 540.52 213.89C540.587 214.29 540.604 214.696 540.57 215.1C540.449 214.716 540.366 214.32 540.32 213.92C540.21 213.15 540.05 212.04 539.91 210.66C539.548 207.059 539.414 203.438 539.51 199.82C539.545 197.814 539.685 195.811 539.93 193.82C540.107 192.159 540.737 190.578 541.75 189.25C542.448 188.36 543.406 187.71 544.49 187.39C544.779 187.303 545.078 187.256 545.38 187.25C545.59 187.28 545.7 187.29 545.7 187.31Z" fill="#263238"/>
<path d="M507 185.49C506.938 185.905 506.837 186.313 506.7 186.71C506.43 187.59 506.1 188.71 505.7 190C504.87 192.77 503.76 196.61 502.64 200.89C501.52 205.17 500.64 209.06 500.02 211.89C499.72 213.22 499.47 214.34 499.27 215.24C499.205 215.657 499.094 216.066 498.94 216.46C498.946 216.037 498.99 215.615 499.07 215.2C499.19 214.4 499.39 213.2 499.65 211.82C500.19 208.96 501.03 205.04 502.14 200.76C503.25 196.48 504.43 192.64 505.35 189.89C505.81 188.51 506.2 187.41 506.49 186.65C506.62 186.247 506.791 185.858 507 185.49V185.49Z" fill="#263238"/>
<path opacity="0.2" d="M539.74 201L545.74 222.26L543.35 223.46L541.13 217.46C541.13 217.46 538.93 204.8 539.74 201Z" fill="black"/>
<g opacity="0.2">
<path opacity="0.2" d="M507.7 185.51C504.23 187.27 512.75 191.83 516.64 191.79L514 184.23C514 184.23 508.86 184.92 507.7 185.51Z" fill="black"/>
</g>
<path d="M522.35 193.24C521.145 193.322 519.936 193.15 518.802 192.734C517.668 192.319 516.634 191.669 515.767 190.828C514.9 189.987 514.22 188.973 513.771 187.851C513.322 186.73 513.114 185.527 513.16 184.32C513.26 181.55 513.35 179.32 513.35 179.32C513.35 179.32 506.48 178.72 505.94 171.93C505.4 165.14 505.52 149.45 505.52 149.45C509.273 147.53 513.471 146.646 517.679 146.89C521.888 147.135 525.955 148.498 529.46 150.84L530.52 151.54L530.39 184.72C530.37 186.892 529.53 188.976 528.04 190.555C526.549 192.135 524.517 193.094 522.35 193.24V193.24Z" fill="#FFBE9D"/>
<path d="M509.21 161.41C509.353 161.271 509.452 161.093 509.493 160.898C509.535 160.704 509.517 160.501 509.442 160.316C509.368 160.131 509.239 159.973 509.074 159.862C508.909 159.75 508.714 159.691 508.515 159.691C508.316 159.691 508.121 159.75 507.956 159.862C507.791 159.973 507.663 160.131 507.588 160.316C507.513 160.501 507.496 160.704 507.537 160.898C507.578 161.093 507.677 161.271 507.82 161.41C508.007 161.59 508.256 161.691 508.515 161.691C508.774 161.691 509.024 161.59 509.21 161.41V161.41Z" fill="#263238"/>
<path d="M506.2 159.39C506.31 159.5 506.94 158.95 507.88 158.88C508.82 158.81 509.53 159.25 509.62 159.12C509.71 158.99 509.55 158.86 509.24 158.65C508.817 158.392 508.324 158.273 507.83 158.31C507.338 158.35 506.872 158.546 506.5 158.87C506.23 159.12 506.14 159.34 506.2 159.39Z" fill="#263238"/>
<path d="M517.75 159.92C517.587 160.034 517.462 160.193 517.39 160.379C517.318 160.564 517.303 160.766 517.347 160.96C517.391 161.154 517.491 161.33 517.636 161.467C517.78 161.603 517.962 161.693 518.158 161.726C518.354 161.759 518.555 161.732 518.736 161.65C518.917 161.568 519.069 161.434 519.174 161.265C519.278 161.095 519.33 160.899 519.322 160.701C519.314 160.502 519.247 160.31 519.13 160.15C518.976 159.939 518.745 159.796 518.487 159.753C518.229 159.71 517.964 159.77 517.75 159.92V159.92Z" fill="#263238"/>
<path d="M516.1 159.42C516.22 159.53 516.85 158.97 517.79 158.9C518.73 158.83 519.43 159.27 519.53 159.14C519.63 159.01 519.46 158.88 519.14 158.68C518.725 158.413 518.232 158.294 517.74 158.34C517.248 158.372 516.781 158.565 516.41 158.89C516.13 159.15 516.05 159.37 516.1 159.42Z" fill="#263238"/>
<path d="M513.12 167.66C512.622 167.504 512.102 167.433 511.58 167.45C511.33 167.45 511.14 167.39 511.11 167.26C511.087 167.016 511.132 166.77 511.24 166.55L511.85 164.55C512.442 162.893 512.867 161.181 513.12 159.44C512.356 161.023 511.759 162.682 511.34 164.39C511.14 165.07 510.95 165.72 510.77 166.39C510.639 166.707 510.614 167.058 510.7 167.39C510.741 167.482 510.803 167.564 510.881 167.628C510.96 167.692 511.052 167.738 511.15 167.76C511.289 167.784 511.431 167.784 511.57 167.76C512.089 167.817 512.613 167.783 513.12 167.66V167.66Z" fill="#263238"/>
<path d="M513.34 179.19C516.483 179.037 519.508 177.951 522.03 176.07C522.03 176.07 520.26 181.07 513.44 180.95L513.34 179.19Z" fill="#EB996E"/>
<path d="M530.22 158.74C530.35 158.69 535.78 158.1 534.92 163.35C534.18 167.88 529.3 166.5 529.31 166.35C529.32 166.2 530.22 158.74 530.22 158.74Z" fill="#FFBE9D"/>
<path d="M531.21 164.35C531.21 164.35 531.28 164.41 531.41 164.48C531.592 164.575 531.803 164.596 532 164.54C532.297 164.369 532.544 164.125 532.719 163.831C532.894 163.536 532.991 163.202 533 162.86C533.046 162.475 533.001 162.085 532.87 161.72C532.837 161.576 532.77 161.441 532.674 161.328C532.578 161.215 532.457 161.127 532.32 161.07C532.23 161.042 532.134 161.045 532.046 161.08C531.959 161.115 531.886 161.178 531.84 161.26C531.77 161.38 531.84 161.47 531.77 161.47C531.7 161.47 531.68 161.39 531.77 161.21C531.806 161.101 531.876 161.006 531.97 160.94C532.101 160.857 532.259 160.828 532.41 160.86C532.593 160.909 532.761 161.004 532.896 161.138C533.031 161.271 533.129 161.437 533.18 161.62C533.339 162.023 533.4 162.458 533.36 162.89C533.351 163.292 533.224 163.683 532.995 164.014C532.766 164.345 532.444 164.601 532.07 164.75C531.947 164.777 531.819 164.776 531.696 164.746C531.573 164.717 531.458 164.66 531.36 164.58C531.21 164.46 531.19 164.36 531.21 164.35Z" fill="#EB996E"/>
<path d="M529.08 163.46C528.03 164.09 526.6 163.3 526.08 162.2C525.656 161.046 525.475 159.817 525.55 158.59C525.49 156.918 525.2 155.263 524.69 153.67C524.625 153.087 524.412 152.531 524.071 152.053C523.731 151.575 523.275 151.192 522.745 150.94C522.216 150.688 521.631 150.575 521.045 150.612C520.46 150.648 519.894 150.834 519.4 151.15C518.302 151.699 517.097 151.999 515.87 152.03C514.26 151.89 512.93 150.62 511.32 150.4C509.71 150.18 508.41 150.91 506.96 151.32C505.519 151.798 503.958 151.763 502.54 151.22C501.842 150.938 501.245 150.452 500.826 149.826C500.407 149.2 500.185 148.463 500.19 147.71C500.218 147.34 500.323 146.979 500.499 146.652C500.674 146.324 500.916 146.037 501.208 145.808C501.501 145.58 501.838 145.415 502.199 145.324C502.559 145.233 502.934 145.218 503.3 145.28C503.042 145.104 502.824 144.875 502.663 144.607C502.501 144.34 502.4 144.04 502.365 143.73C502.329 143.42 502.362 143.105 502.459 142.808C502.557 142.511 502.717 142.239 502.93 142.01C503.397 141.573 503.977 141.276 504.604 141.15C505.231 141.025 505.881 141.077 506.48 141.3C507.668 141.759 508.745 142.464 509.64 143.37C509.763 142.815 510.067 142.316 510.506 141.954C510.944 141.591 511.491 141.386 512.06 141.37C513.217 141.375 514.341 141.758 515.26 142.46C516.26 143.1 517.07 143.88 518.08 144.46C520.08 145.57 522.46 145.69 524.71 146.1C526.96 146.51 529.37 147.42 530.46 149.44C531.46 151.21 530.78 153.34 530.7 155.36C530.62 157.38 530.61 157.93 530.51 159.9C530.49 159.83 530.62 162.57 529.08 163.46Z" fill="#263238"/>
<path d="M512.27 170.41C512.27 170.47 512.52 170.58 512.98 170.57C513.58 170.551 514.16 170.349 514.643 169.992C515.125 169.635 515.487 169.138 515.68 168.57C515.82 168.13 515.78 167.85 515.68 167.84C515.58 167.83 515.31 168.84 514.32 169.62C513.683 169.99 512.991 170.256 512.27 170.41V170.41Z" fill="white"/>
<path d="M504.46 146.67C504.303 146.78 504.181 146.932 504.108 147.11C504.036 147.287 504.016 147.481 504.05 147.67C504.094 148.096 504.293 148.492 504.61 148.78C504.831 148.956 505.088 149.081 505.363 149.147C505.638 149.212 505.924 149.217 506.2 149.16C506.863 149.033 507.495 148.778 508.06 148.41C508.677 147.985 509.35 147.648 510.06 147.41C510.871 147.238 511.716 147.366 512.44 147.77C513.21 148.15 513.93 148.7 514.73 149.19C515.483 149.728 516.385 150.018 517.31 150.02C518.168 149.909 518.969 149.531 519.6 148.94C520.165 148.442 520.82 148.059 521.53 147.81C522.16 147.657 522.822 147.696 523.43 147.92C524.331 148.244 525.073 148.903 525.5 149.76C525.631 150.082 525.729 150.417 525.79 150.76C525.79 150.415 525.715 150.073 525.57 149.76C525.367 149.315 525.078 148.914 524.719 148.581C524.36 148.248 523.939 147.989 523.48 147.82C522.843 147.573 522.146 147.524 521.48 147.68C520.741 147.92 520.06 148.312 519.48 148.83C518.862 149.373 518.096 149.721 517.28 149.83C516.393 149.823 515.53 149.539 514.81 149.02C514.03 148.54 513.3 148.02 512.5 147.6C511.738 147.18 510.851 147.049 510 147.23C509.291 147.47 508.618 147.807 508 148.23C507.454 148.594 506.843 148.848 506.2 148.98C505.941 149.04 505.672 149.041 505.413 148.984C505.154 148.927 504.91 148.813 504.7 148.65C504.403 148.392 504.205 148.038 504.14 147.65C504.109 147.473 504.122 147.291 504.178 147.12C504.234 146.949 504.331 146.795 504.46 146.67V146.67Z" fill="#455A64"/>
<path d="M507.47 143.09C507.42 143.016 507.351 142.957 507.27 142.92C507.153 142.863 507.025 142.834 506.895 142.834C506.765 142.834 506.637 142.863 506.52 142.92C506.328 143 506.167 143.142 506.064 143.323C505.961 143.504 505.921 143.714 505.95 143.92C505.988 144.193 506.102 144.451 506.279 144.663C506.456 144.875 506.688 145.033 506.95 145.12C507.579 145.304 508.251 145.272 508.86 145.03C509.53 144.761 510.223 144.553 510.93 144.41C511.319 144.382 511.71 144.441 512.073 144.583C512.436 144.724 512.763 144.946 513.03 145.23C513.608 145.88 514.283 146.436 515.03 146.88C515.45 147.028 515.896 147.091 516.34 147.065C516.785 147.039 517.22 146.925 517.62 146.73C518.343 146.394 519.106 146.152 519.89 146.01C521.011 145.858 522.152 146.047 523.164 146.554C524.176 147.061 525.011 147.861 525.56 148.85C525.88 149.42 525.98 149.77 526 149.76C525.918 149.432 525.793 149.116 525.63 148.82C525.201 147.992 524.572 147.284 523.8 146.76C522.645 145.979 521.243 145.648 519.86 145.83C519.063 145.972 518.287 146.214 517.55 146.55C517.174 146.737 516.765 146.846 516.345 146.872C515.926 146.898 515.506 146.839 515.11 146.7C514.368 146.265 513.694 145.722 513.11 145.09C512.826 144.787 512.477 144.552 512.089 144.403C511.701 144.254 511.284 144.195 510.87 144.23C510.15 144.375 509.446 144.592 508.77 144.88C508.208 145.107 507.588 145.149 507 145C506.759 144.926 506.544 144.785 506.38 144.594C506.215 144.403 506.108 144.169 506.07 143.92C506.037 143.733 506.069 143.54 506.159 143.373C506.25 143.205 506.395 143.074 506.57 143C506.68 142.948 506.799 142.922 506.92 142.922C507.041 142.922 507.161 142.948 507.27 143C507.41 143 507.46 143.1 507.47 143.09Z" fill="#455A64"/>
<path d="M527.55 148.41C527.68 148.46 528.05 147.64 528.93 147.1C529.81 146.56 530.69 146.57 530.7 146.43C530.71 146.29 530.49 146.27 530.1 146.26C529.593 146.272 529.099 146.421 528.67 146.69C528.241 146.959 527.892 147.339 527.66 147.79C527.5 148.15 527.49 148.39 527.55 148.41Z" fill="#263238"/>
<path d="M528.35 143.38C528.21 143.38 528.41 144.44 528.24 145.69C528.07 146.94 527.65 147.88 527.77 147.95C528.294 147.323 528.626 146.56 528.729 145.75C528.832 144.94 528.7 144.117 528.35 143.38Z" fill="#263238"/>
<path d="M529.94 161.61C530.125 161.326 530.247 161.006 530.297 160.672C530.347 160.337 530.324 159.995 530.23 159.67C530.026 158.969 529.652 158.33 529.14 157.81C528.877 157.5 528.698 157.128 528.62 156.73C528.585 156.29 528.64 155.848 528.78 155.43C529.056 154.577 529.107 153.668 528.93 152.79C528.771 152.063 528.338 151.425 527.72 151.01C527.305 150.738 526.816 150.601 526.32 150.62C526.14 150.627 525.963 150.672 525.8 150.75C525.8 150.75 525.99 150.75 526.32 150.7C526.793 150.707 527.253 150.857 527.64 151.13C528.217 151.531 528.615 152.14 528.75 152.83C528.914 153.68 528.858 154.557 528.59 155.38C528.442 155.824 528.388 156.294 528.43 156.76C528.516 157.189 528.713 157.589 529 157.92C529.502 158.417 529.876 159.027 530.09 159.7C530.195 160.164 530.195 160.646 530.09 161.11C530.057 161.281 530.006 161.448 529.94 161.61V161.61Z" fill="#455A64"/>
<path d="M525 210C525.013 210.217 525.013 210.434 525 210.65C525 211.12 525 211.65 525.05 212.37C525.05 213.85 525.14 215.93 525.16 218.44L525.1 218.28L528.18 221.15H527.92L533.22 219L533.07 219.2C533.091 219.032 533.121 218.865 533.16 218.7C533.74 215.55 534.28 212.58 534.76 210L534.99 210.27C532.04 210.27 529.56 210.2 527.79 210.16L525.72 210.1C525.478 210.086 525.237 210.053 525 210C525.225 209.966 525.453 209.949 525.68 209.95L527.68 209.89C529.43 209.89 531.97 209.79 535.02 209.77H535.29V210.04C534.83 212.63 534.29 215.6 533.75 218.75L533.66 219.25V219.39L533.53 219.45L528.22 221.56L528.07 221.62L527.96 221.51L524.96 218.6L524.89 218.53V218.44C524.89 215.84 524.96 213.7 525 212.24C525 211.57 525 211.02 525.06 210.56C525.017 210.377 524.996 210.188 525 210Z" fill="#263238"/>
<path d="M534.41 212.61C532.862 212.953 531.274 213.084 529.69 213C528.105 213.089 526.514 212.968 524.96 212.64C526.529 212.45 528.112 212.397 529.69 212.48C531.264 212.39 532.843 212.434 534.41 212.61Z" fill="#263238"/>
<path d="M489.27 207.39C489.48 207.6 473.27 229.81 473.27 229.81H489.16L498.91 216.45L489.27 207.39Z" fill="#FFBE9D"/>
<path d="M457.08 86.1099H289.54V366.02H457.08V86.1099Z" fill="#F5F5F5"/>
<path d="M333.99 250.94L335.78 254.57L339.8 255.16L336.89 257.99L337.58 261.99L333.99 260.1L330.39 261.99L331.08 257.99L328.18 255.16L332.19 254.57L333.99 250.94Z" fill="#603E94"/>
<path d="M353.93 250.94L355.73 254.57L359.74 255.16L356.84 257.99L357.52 261.99L353.93 260.1L350.34 261.99L351.03 257.99L348.12 255.16L352.14 254.57L353.93 250.94Z" fill="#603E94"/>
<path d="M373.88 250.94L375.68 254.57L379.69 255.16L376.79 257.99L377.47 261.99L373.88 260.1L370.29 261.99L370.98 257.99L368.07 255.16L372.09 254.57L373.88 250.94Z" fill="#603E94"/>
<path d="M393.83 250.94L395.63 254.57L399.64 255.16L396.74 257.99L397.42 261.99L393.83 260.1L390.24 261.99L390.93 257.99L388.02 255.16L392.03 254.57L393.83 250.94Z" fill="#603E94"/>
<path d="M413.78 250.94L415.57 254.57L419.59 255.16L416.68 257.99L417.37 261.99L413.78 260.1L410.19 261.99L410.87 257.99L407.97 255.16L411.98 254.57L413.78 250.94Z" fill="#603E94"/>
<path d="M366.47 283.75C366.47 283.89 353.75 284.01 338.06 284.01C322.37 284.01 309.65 283.89 309.65 283.75C309.65 283.61 322.37 283.49 338.06 283.49C353.75 283.49 366.47 283.6 366.47 283.75Z" fill="#603E94"/>
<path d="M437.86 296.08C437.86 296.23 409.49 296.34 374.51 296.34C339.53 296.34 311.15 296.23 311.15 296.08C311.15 295.93 339.51 295.82 374.51 295.82C409.51 295.82 437.86 295.94 437.86 296.08Z" fill="#263238"/>
<path d="M437.86 306.68C437.86 306.82 409.49 306.94 374.51 306.94C339.53 306.94 311.15 306.82 311.15 306.68C311.15 306.54 339.51 306.42 374.51 306.42C409.51 306.42 437.86 306.54 437.86 306.68Z" fill="#263238"/>
<path d="M437.86 317.28C437.86 317.42 409.49 317.54 374.51 317.54C339.53 317.54 311.15 317.42 311.15 317.28C311.15 317.14 339.51 317.02 374.51 317.02C409.51 317.02 437.86 317.13 437.86 317.28Z" fill="#263238"/>
<path d="M437.86 327.88C437.86 328.02 409.49 328.14 374.51 328.14C339.53 328.14 311.15 328.02 311.15 327.88C311.15 327.74 339.51 327.62 374.51 327.62C409.51 327.62 437.86 327.73 437.86 327.88Z" fill="#263238"/>
<path d="M437.86 338.47C437.86 338.62 409.49 338.73 374.51 338.73C339.53 338.73 311.15 338.62 311.15 338.47C311.15 338.32 339.51 338.21 374.51 338.21C409.51 338.21 437.86 338.33 437.86 338.47Z" fill="#263238"/>
<path d="M444.88 100.32H300.56V238.87H444.88V100.32Z" fill="#E0E0E0"/>
<path d="M364.45 123.28C365.96 118.21 370.6 114.42 375.74 113.19C380.88 111.96 387.26 110.28 391.97 112.68C394.91 114.18 397.73 116.36 398.89 119.45C400.26 123.12 398.15 129.96 397.1 133.73C396.05 137.5 395.26 141.81 397.33 145.13C399.4 148.45 403.47 149.61 406.03 152.43C407.73 154.458 408.573 157.069 408.381 159.708C408.189 162.348 406.976 164.809 405 166.57C409.55 166.3 413.39 170.94 413.23 175.49C413.07 180.04 409.74 184.04 405.68 186.1C401.62 188.16 396.93 188.59 392.38 188.6C386.731 188.608 381.096 188.021 375.57 186.85C371.02 185.85 366.27 184.36 363.31 180.77C360.58 177.47 359.83 172.97 359.82 168.69C359.82 153.56 367.74 138.56 364.29 123.82" fill="#263238"/>
<path d="M368.14 119.8C365.759 118.171 362.958 117.262 360.073 117.185C357.189 117.107 354.343 117.863 351.878 119.362C349.412 120.86 347.431 123.039 346.172 125.635C344.913 128.231 344.43 131.136 344.78 134C345.15 137 346.4 140 345.64 142.85C344.21 148.28 336.56 150.39 335.56 155.91C335.16 158.09 335.93 160.28 336.51 162.41C337.09 164.54 337.51 166.95 336.37 168.87C335.55 170.29 334.07 171.18 332.91 172.33C329.19 176.05 329.26 182.58 332.38 186.83C335.5 191.08 341.02 193.11 346.28 192.94C351.54 192.77 356.58 190.64 361.07 187.89" fill="#263238"/>
<path d="M357.09 125.88L357.16 129.47L357.88 183.34C357.96 189.6 363.41 194.51 370.1 194.34C376.87 194.19 382.36 188.96 382.38 182.64C382.38 176.01 382.54 169.03 382.54 169.03C382.54 169.03 391.09 167.61 392.86 156.46C393.74 150.92 393.46 141.83 392.99 134.4C392.895 132.811 392.478 131.257 391.766 129.834C391.053 128.41 390.059 127.146 388.844 126.118C387.629 125.09 386.217 124.319 384.696 123.851C383.174 123.384 381.573 123.23 379.99 123.4L357.09 125.88Z" fill="#B78876"/>
<path d="M388.7 140.76C388.703 141.132 388.56 141.491 388.302 141.76C388.045 142.029 387.692 142.187 387.32 142.2C387.138 142.215 386.955 142.193 386.782 142.136C386.609 142.079 386.449 141.987 386.311 141.867C386.174 141.746 386.063 141.6 385.983 141.435C385.904 141.271 385.859 141.092 385.85 140.91C385.845 140.538 385.985 140.179 386.241 139.91C386.497 139.641 386.849 139.483 387.22 139.47C387.402 139.455 387.586 139.477 387.76 139.534C387.934 139.591 388.094 139.682 388.232 139.803C388.37 139.923 388.483 140.069 388.563 140.234C388.643 140.398 388.69 140.577 388.7 140.76Z" fill="#263238"/>
<path d="M391 139.16C390.82 139.34 389.74 138.54 388.2 138.54C386.66 138.54 385.53 139.32 385.37 139.13C385.21 138.94 385.46 138.71 385.96 138.35C386.626 137.894 387.413 137.65 388.22 137.65C389.021 137.649 389.801 137.901 390.45 138.37C390.94 138.73 391.1 139.07 391 139.16Z" fill="#263238"/>
<path d="M373.88 140.76C373.883 141.132 373.74 141.491 373.482 141.76C373.225 142.029 372.872 142.187 372.5 142.2C372.319 142.212 372.137 142.188 371.965 142.13C371.792 142.072 371.634 141.98 371.497 141.86C371.36 141.74 371.249 141.595 371.169 141.432C371.089 141.269 371.041 141.091 371.03 140.91C371.025 140.537 371.166 140.176 371.425 139.907C371.683 139.637 372.037 139.48 372.41 139.47C372.592 139.455 372.775 139.477 372.948 139.534C373.121 139.591 373.281 139.683 373.419 139.803C373.556 139.923 373.667 140.07 373.747 140.235C373.826 140.399 373.871 140.578 373.88 140.76Z" fill="#263238"/>
<path d="M375.9 139.44C375.72 139.63 374.63 138.83 373.1 138.83C371.57 138.83 370.43 139.61 370.26 139.42C370.09 139.23 370.36 139 370.85 138.64C371.518 138.182 372.31 137.938 373.12 137.94C373.921 137.939 374.701 138.191 375.35 138.66C375.82 139 376 139.36 375.9 139.44Z" fill="#263238"/>
<path d="M381.48 150.85C382.291 150.596 383.131 150.445 383.98 150.4C384.37 150.4 384.74 150.28 384.81 150.01C384.843 149.606 384.752 149.201 384.55 148.85L383.38 145.85C381.77 141.59 380.6 138.09 380.78 138.02C380.96 137.95 382.39 141.36 384.01 145.62C384.4 146.67 384.77 147.67 385.12 148.62C385.371 149.092 385.442 149.639 385.32 150.16C385.263 150.298 385.177 150.422 385.066 150.523C384.955 150.623 384.823 150.697 384.68 150.74C384.461 150.796 384.236 150.827 384.01 150.83C383.171 150.945 382.321 150.951 381.48 150.85V150.85Z" fill="#263238"/>
<path d="M382.54 169.06C377.289 169.134 372.121 167.75 367.61 165.06C367.61 165.06 371.23 172.72 382.39 171.68L382.54 169.06Z" fill="#AA6550"/>
<path d="M380.83 154.56C380.532 154.197 380.148 153.916 379.713 153.741C379.278 153.566 378.806 153.504 378.34 153.56C378.001 153.59 377.672 153.688 377.373 153.85C377.073 154.012 376.81 154.233 376.6 154.5C376.392 154.754 376.268 155.067 376.244 155.394C376.221 155.722 376.3 156.049 376.47 156.33C376.717 156.602 377.038 156.795 377.393 156.886C377.749 156.977 378.123 156.961 378.47 156.84C379.207 156.586 379.887 156.188 380.47 155.67C380.639 155.54 380.787 155.385 380.91 155.21C380.967 155.126 380.997 155.027 380.997 154.925C380.997 154.823 380.967 154.724 380.91 154.64" fill="#AA6550"/>
<path d="M377 151.92C377.25 151.92 377.25 153.57 378.68 154.76C380.11 155.95 381.89 155.76 381.9 155.99C381.91 156.22 381.51 156.32 380.76 156.34C379.781 156.349 378.83 156.017 378.07 155.4C377.345 154.804 376.876 153.952 376.76 153.02C376.65 152.32 376.84 151.91 377 151.92Z" fill="#263238"/>
<path d="M366.16 120.66C366.16 120.52 366.34 120.45 366.43 120.49C366.52 120.53 366.56 120.67 366.5 120.81C366.482 120.866 366.443 120.914 366.391 120.944C366.339 120.973 366.278 120.983 366.22 120.97C366.172 120.935 366.14 120.884 366.128 120.827C366.117 120.769 366.129 120.709 366.16 120.66V120.66Z" fill="#263238"/>
<path d="M356.5 178.62C358.135 178.003 359.618 177.04 360.846 175.798C362.075 174.555 363.021 173.062 363.62 171.42C364.794 168.106 364.878 164.505 363.86 161.14C363.42 159.59 362.8 157.89 363.48 156.43C364.114 155.445 364.941 154.598 365.91 153.94C367.819 152.096 368.949 149.591 369.07 146.94C369.172 144.298 368.691 141.665 367.66 139.23C367.13 137.88 366.49 136.4 366.98 135.04C367.429 134.113 368.094 133.307 368.92 132.69C370.506 131.202 371.816 129.445 372.79 127.5C373.47 126.13 373.98 124.5 373.32 123.09C372.51 121.41 370.41 120.89 368.56 120.75C364.14 120.41 359.26 121.39 356.45 124.81C353.94 127.87 353.65 132.14 353.45 136.11C352.89 148.59 352.33 161.2 354.45 173.51" fill="#263238"/>
<path d="M397.22 124.64C396.604 125.012 395.967 125.346 395.31 125.64C394.733 126.058 394.194 126.526 393.7 127.04C393.41 127.32 393.1 127.63 392.82 127.95L392.62 128.19L392.3 128.51L391.53 129.24C390.787 129.932 389.987 130.561 389.14 131.12C387.886 131.993 386.483 132.631 385 133C382.148 133.637 379.165 133.284 376.54 132C374.73 131.129 373.144 129.857 371.9 128.28C370 125.75 369.71 123.7 370.58 122.59C371.45 121.48 373.66 121.59 376.12 122.24C377.318 122.552 378.533 122.793 379.76 122.96C380.724 123.098 381.705 123.071 382.66 122.88C383.128 122.774 383.581 122.613 384.01 122.4C384.64 122.12 385.42 121.71 386.32 121.28C386.77 121.07 387.24 120.86 387.75 120.66C388 120.56 388.27 120.47 388.53 120.38C388.79 120.29 389.12 120.18 389.41 120.11C390.499 119.827 391.629 119.736 392.75 119.84C393.639 119.874 394.509 120.105 395.298 120.517C396.087 120.928 396.774 121.51 397.31 122.22C397.59 122.566 397.736 123.002 397.719 123.447C397.703 123.892 397.525 124.316 397.22 124.64Z" fill="#263238"/>
<path d="M340.88 186.3C340.823 186.25 340.77 186.197 340.72 186.14C340.569 185.976 340.429 185.802 340.3 185.62C339.794 184.928 339.411 184.153 339.17 183.33C338.796 182.03 338.728 180.661 338.97 179.33C339.325 177.536 340.276 175.915 341.67 174.73C343.16 173.37 345.11 172.35 346.9 170.93C347.831 170.211 348.63 169.334 349.26 168.34C349.912 167.297 350.178 166.058 350.01 164.84C349.67 162.32 347.59 160.11 347.41 157.09C347.337 155.568 347.704 154.057 348.466 152.738C349.229 151.419 350.355 150.347 351.71 149.65C353.057 149.071 354.335 148.343 355.52 147.48C356.036 147.023 356.441 146.456 356.706 145.821C356.971 145.185 357.089 144.498 357.05 143.81C356.982 142.45 356.642 141.117 356.05 139.89C355.47 138.68 354.77 137.53 354.17 136.36C353.551 135.218 353.125 133.981 352.91 132.7C352.747 131.465 352.902 130.209 353.36 129.05C354.209 127.009 355.692 125.294 357.59 124.16C359.148 123.244 360.871 122.643 362.66 122.39C363.984 122.194 365.322 122.107 366.66 122.13C367.77 122.13 368.66 122.21 369.2 122.26L369.86 122.33C370.01 122.33 370.08 122.33 370.08 122.33C369.787 122.35 369.493 122.35 369.2 122.33C368.62 122.33 367.76 122.33 366.66 122.33C365.32 122.336 363.982 122.45 362.66 122.67C360.923 122.946 359.256 123.553 357.75 124.46C355.945 125.573 354.544 127.234 353.75 129.2C353.33 130.288 353.193 131.464 353.35 132.62C353.567 133.85 353.986 135.036 354.59 136.13C355.18 137.28 355.89 138.42 356.49 139.67C357.133 140.953 357.505 142.356 357.58 143.79C357.626 144.551 357.498 145.312 357.205 146.016C356.912 146.719 356.462 147.347 355.89 147.85C354.679 148.749 353.366 149.505 351.98 150.1C350.711 150.759 349.659 151.77 348.95 153.011C348.24 154.253 347.904 155.672 347.98 157.1C348.11 159.88 350.16 162.1 350.54 164.8C350.722 166.128 350.428 167.478 349.71 168.61C349.047 169.645 348.208 170.555 347.23 171.3C345.37 172.75 343.43 173.73 341.98 175.03C340.623 176.147 339.686 177.691 339.32 179.41C339.053 180.711 339.09 182.056 339.43 183.34C339.741 184.402 340.232 185.403 340.88 186.3V186.3Z" fill="#455A64"/>
<path d="M403.08 184.15C403.32 184.026 403.532 183.855 403.704 183.647C403.876 183.439 404.004 183.199 404.08 182.94C404.237 182.339 404.192 181.702 403.95 181.13C403.578 180.393 403.006 179.776 402.3 179.35C401.53 178.82 400.58 178.4 399.63 177.75C399.096 177.429 398.639 176.993 398.294 176.474C397.948 175.956 397.721 175.367 397.63 174.75C397.601 173.368 398.05 172.019 398.9 170.93C399.7 169.78 400.74 168.8 401.54 167.64C402.36 166.554 402.719 165.189 402.54 163.84C402.308 162.586 401.784 161.404 401.01 160.39C399.57 158.39 397.78 156.93 396.65 155.39C395.661 154.221 395.002 152.809 394.74 151.3C394.683 150.892 394.683 150.478 394.74 150.07C394.74 149.79 394.82 149.64 394.84 149.65C394.829 150.191 394.86 150.733 394.93 151.27C395.258 152.715 395.946 154.053 396.93 155.16C398.07 156.65 399.87 158.06 401.39 160.16C402.219 161.233 402.781 162.487 403.03 163.82C403.14 164.544 403.099 165.283 402.91 165.99C402.696 166.71 402.357 167.386 401.91 167.99C401.07 169.22 400.02 170.2 399.25 171.28C398.466 172.273 398.043 173.504 398.05 174.77C398.129 175.326 398.331 175.858 398.64 176.326C398.95 176.795 399.36 177.189 399.84 177.48C400.73 178.11 401.68 178.56 402.46 179.12C403.214 179.607 403.812 180.301 404.18 181.12C404.435 181.759 404.453 182.469 404.23 183.12C404.107 183.532 403.841 183.886 403.48 184.12C403.351 184.163 403.214 184.174 403.08 184.15V184.15Z" fill="#455A64"/>
<path d="M398 120.08C398 120.08 398 120.2 398 120.43C397.998 120.766 397.961 121.101 397.89 121.43C397.643 122.653 397.041 123.777 396.16 124.66C395.505 125.323 394.709 125.832 393.832 126.149C392.955 126.465 392.018 126.582 391.09 126.49C389.981 126.408 388.913 126.039 387.99 125.42C387.06 124.719 386.226 123.898 385.51 122.98C384.814 122.105 384.003 121.329 383.1 120.67C382.248 120.075 381.311 119.613 380.32 119.3C378.631 118.774 376.833 118.709 375.11 119.11C373.944 119.388 372.832 119.858 371.82 120.5C371.1 120.96 370.74 121.27 370.72 121.24C370.998 120.881 371.336 120.573 371.72 120.33C372.714 119.602 373.837 119.069 375.03 118.76C376.816 118.283 378.699 118.311 380.47 118.84C381.513 119.157 382.501 119.633 383.4 120.25C384.346 120.927 385.194 121.731 385.92 122.64C386.607 123.524 387.403 124.317 388.29 125C389.142 125.565 390.122 125.909 391.14 126C392.007 126.093 392.883 125.997 393.709 125.717C394.534 125.437 395.289 124.981 395.92 124.38C396.775 123.559 397.394 122.523 397.71 121.38C397.92 120.56 397.92 120.08 398 120.08Z" fill="#455A64"/>
<path d="M376.29 133.41C376.14 133.83 374.6 133.63 372.8 133.85C371 134.07 369.54 134.56 369.3 134.19C369.19 134.01 369.44 133.61 370.03 133.19C370.815 132.693 371.703 132.382 372.627 132.28C373.55 132.178 374.485 132.287 375.36 132.6C376 132.89 376.36 133.22 376.29 133.41Z" fill="#263238"/>
<path d="M390.45 134.7C390.18 135.05 389.12 134.7 387.85 134.7C386.58 134.7 385.49 134.94 385.24 134.57C385.14 134.39 385.31 134.04 385.78 133.71C386.409 133.302 387.151 133.102 387.9 133.14C388.645 133.157 389.367 133.401 389.97 133.84C390.42 134.17 390.57 134.53 390.45 134.7Z" fill="#263238"/>
<path d="M346.9 239.32C347.44 240.25 343.49 226.94 343.49 226.94L340.18 239.1L315.63 239.28C315.63 239.28 329.5 193.94 336.09 187.61C344.69 179.35 360.81 178.9 360.81 178.9L370.46 187.13L385.7 179.3L386.26 179.36C391.256 179.975 396.023 181.816 400.136 184.719C404.248 187.622 407.578 191.498 409.83 196L426.36 238.83H404.54L399.88 226.19L401.44 238.83" fill="#603E94"/>
<path d="M353 179.88L375.12 230.2L386.3 179.36C386.3 179.36 383.2 179.18 378.77 179.01C376.32 178.92 373.46 188.61 370.5 188.56C368.6 188.56 366.67 178.73 364.76 178.74C362.35 178.74 360 178.74 357.86 178.9C356 179 354.37 179.75 353 179.88Z" fill="#FAFAFA"/>
<path d="M357.16 180.35V175.73C357.16 175.73 370.34 175.91 370.57 186.46C370.57 186.46 372.44 176.06 383.08 175.73L383.76 179.27L380.76 191.4L373.08 196.51H362.73L358.45 190.88L357.16 180.35Z" fill="#FAFAFA"/>
<path d="M374.93 231.54C374.949 231.348 374.993 231.16 375.06 230.98C375.228 230.449 375.442 229.933 375.7 229.44C376.126 228.666 376.65 227.95 377.26 227.31C377.96 226.55 378.8 225.75 379.65 224.8C381.766 222.674 383.613 220.296 385.15 217.72C385.986 216.179 386.468 214.471 386.56 212.72C386.695 210.846 386.152 208.986 385.03 207.48L384.68 207.03H385.26C385.483 207.054 385.707 207.054 385.93 207.03C386.852 206.839 387.672 206.321 388.24 205.57C388.806 204.833 389.168 203.961 389.29 203.04C389.427 201.243 389.288 199.435 388.88 197.68C388.31 194.24 387.79 191.14 387.36 188.51C386.93 185.88 386.62 183.86 386.36 182.33C386.27 181.64 386.19 181.09 386.12 180.64C386.085 180.445 386.069 180.248 386.07 180.05C386.144 180.237 386.198 180.431 386.23 180.63C386.31 181.06 386.43 181.63 386.56 182.29C386.85 183.82 387.24 185.9 387.71 188.45L389.34 197.59C389.779 199.398 389.928 201.265 389.78 203.12C389.654 204.13 389.256 205.087 388.63 205.89C387.988 206.747 387.051 207.335 386 207.54C385.737 207.569 385.472 207.569 385.21 207.54L385.43 207.12C386.631 208.721 387.21 210.704 387.06 212.7C386.96 214.528 386.447 216.309 385.56 217.91C383.987 220.51 382.088 222.9 379.91 225.02C379.03 225.96 378.17 226.75 377.46 227.48C376.848 228.08 376.311 228.751 375.86 229.48C375.17 230.77 375 231.56 374.93 231.54Z" fill="#263238"/>
<path d="M374.93 231.11C374.774 230.975 374.636 230.821 374.52 230.65L373.39 229.3C372.39 228.13 370.96 226.47 369.13 224.45C367.3 222.43 365.13 220.02 362.9 217.14C361.696 215.659 360.66 214.049 359.81 212.34C358.881 210.433 358.748 208.235 359.44 206.23C359.55 205.96 359.68 205.7 359.83 205.45L359.96 205.83C358.038 205.135 356.329 203.953 355 202.4C353.775 200.982 352.813 199.357 352.16 197.6C351.11 194.633 350.691 191.479 350.93 188.34C351.062 186.248 351.312 184.164 351.68 182.1C351.81 181.42 351.91 180.87 352 180.43C352.021 180.231 352.068 180.036 352.14 179.85C352.162 180.049 352.162 180.251 352.14 180.45C352.08 180.89 352.01 181.45 351.92 182.13C351.74 183.6 351.43 185.72 351.34 188.36C351.149 191.44 351.591 194.527 352.64 197.43C353.287 199.128 354.228 200.699 355.42 202.07C356.689 203.545 358.314 204.67 360.14 205.34L360.43 205.44L360.27 205.72C360.141 205.947 360.025 206.181 359.92 206.42C359.284 208.297 359.413 210.348 360.28 212.13C361.1 213.811 362.107 215.394 363.28 216.85C365.44 219.72 367.61 222.14 369.4 224.2C371.19 226.26 372.61 227.96 373.54 229.2C374.01 229.81 374.36 230.28 374.59 230.62C374.721 230.77 374.835 230.935 374.93 231.11V231.11Z" fill="#263238"/>
<path d="M374.69 239.21C374.465 237.718 374.415 236.204 374.54 234.7C374.501 233.194 374.628 231.688 374.92 230.21C375.184 233.209 375.107 236.228 374.69 239.21V239.21Z" fill="#263238"/>
<path d="M342.85 229.94C342.957 229.355 343.101 228.777 343.28 228.21C343.57 227.1 343.99 225.49 344.39 223.48C345.431 218.248 345.833 212.909 345.59 207.58C345.503 204.653 345.107 201.744 344.41 198.9C343.845 196.583 342.784 194.417 341.3 192.55C340.298 191.297 339.062 190.251 337.66 189.47C336.66 188.93 336.03 188.76 336.05 188.71C336.203 188.727 336.354 188.761 336.5 188.81C336.93 188.933 337.348 189.094 337.75 189.29C339.226 190.01 340.535 191.032 341.59 192.29C343.144 194.178 344.267 196.383 344.88 198.75C345.608 201.627 346.02 204.574 346.11 207.54C346.363 212.91 345.906 218.29 344.75 223.54C344.3 225.54 343.83 227.15 343.48 228.25C343.3 228.79 343.14 229.25 343.04 229.5C342.94 229.75 342.87 230 342.85 229.94Z" fill="#263238"/>
<path d="M400.07 221.79C400.005 221.236 399.981 220.677 400 220.12C400 219.04 400 217.49 399.9 215.57C399.728 210.573 399.291 205.59 398.59 200.64C397.617 194.071 396.21 187.573 394.38 181.19L394.31 180.93L394.51 181.09C394.87 181.341 395.204 181.625 395.51 181.94C395.126 181.736 394.761 181.499 394.42 181.23L394.56 181.14C396.666 187.464 398.189 193.968 399.11 200.57C399.825 205.539 400.215 210.55 400.28 215.57C400.28 217.5 400.28 219.06 400.21 220.13C400.211 220.686 400.164 221.241 400.07 221.79V221.79Z" fill="#263238"/>
<path d="M368.12 180.48C368.12 180.53 367.87 180.48 367.53 180.75C367.085 181.13 366.742 181.615 366.53 182.16C365.578 183.977 364.984 185.959 364.78 188L364.71 188.65L364.31 188.12L363.59 187.12C361.92 184.95 360.28 183.12 359.07 181.76C358.373 181.083 357.728 180.354 357.14 179.58C357.942 180.141 358.68 180.788 359.34 181.51C361.011 183.166 362.568 184.934 364 186.8L364.73 187.8L364.26 187.92C364.494 185.82 365.176 183.794 366.26 181.98C366.54 181.399 366.976 180.907 367.52 180.56C367.85 180.37 368.13 180.46 368.12 180.48Z" fill="#263238"/>
<path d="M383.59 179.49C383.075 180.358 382.483 181.178 381.82 181.94C380.68 183.42 379.07 185.44 377.27 187.65L376.32 188.81L375.88 189.35V188.65C375.889 187.502 375.806 186.354 375.63 185.22C375.482 184.324 375.163 183.465 374.69 182.69C374.23 181.999 373.647 181.399 372.97 180.92C373.201 180.959 373.42 181.052 373.61 181.19C374.162 181.522 374.636 181.969 375 182.5C375.543 183.295 375.918 184.194 376.1 185.14C376.314 186.294 376.421 187.466 376.42 188.64L375.96 188.49L376.91 187.32C378.71 185.11 380.36 183.13 381.58 181.71C382.185 180.913 382.857 180.17 383.59 179.49V179.49Z" fill="#263238"/>
<path d="M374.49 229C374.369 228.45 374.288 227.892 374.25 227.33C374.12 226.16 373.96 224.63 373.76 222.77C373.37 218.91 372.88 213.58 372.36 207.69C371.84 201.8 371.36 196.47 371.1 192.6C370.97 190.74 370.87 189.2 370.78 188.03C370.732 187.468 370.732 186.902 370.78 186.34C370.902 186.89 370.986 187.448 371.03 188.01C371.15 189.18 371.31 190.71 371.51 192.57C371.9 196.43 372.4 201.76 372.92 207.65C373.44 213.54 373.92 218.87 374.17 222.73C374.3 224.6 374.41 226.14 374.49 227.31C374.538 227.872 374.538 228.438 374.49 229V229Z" fill="#263238"/>
<path d="M374.52 195.53C374.52 195.48 374.89 195.23 375.43 195.59C375.585 195.696 375.713 195.838 375.803 196.003C375.894 196.168 375.944 196.352 375.95 196.54C375.927 196.777 375.836 197.002 375.687 197.187C375.538 197.373 375.338 197.511 375.112 197.584C374.885 197.658 374.642 197.663 374.413 197.6C374.183 197.537 373.977 197.409 373.82 197.23C373.713 197.076 373.645 196.898 373.621 196.712C373.596 196.526 373.617 196.337 373.68 196.16C373.91 195.55 374.39 195.51 374.38 195.57C374.37 195.63 374.11 195.8 374.04 196.25C374.016 196.368 374.018 196.49 374.046 196.607C374.074 196.725 374.126 196.835 374.2 196.93C374.295 197.028 374.416 197.097 374.55 197.127C374.683 197.157 374.822 197.148 374.95 197.1C375.084 197.065 375.204 196.991 375.297 196.888C375.389 196.785 375.449 196.657 375.47 196.52C375.472 196.4 375.449 196.282 375.403 196.171C375.356 196.061 375.287 195.962 375.2 195.88C374.87 195.55 374.53 195.61 374.52 195.53Z" fill="#263238"/>
<path d="M376.44 208C376.44 207.94 376.88 207.78 377.33 208.26C377.463 208.399 377.56 208.568 377.612 208.753C377.665 208.937 377.671 209.132 377.63 209.32C377.559 209.557 377.414 209.764 377.216 209.912C377.017 210.06 376.777 210.14 376.53 210.14C376.285 210.163 376.038 210.105 375.829 209.975C375.619 209.845 375.458 209.65 375.37 209.42C375.311 209.236 375.298 209.04 375.333 208.85C375.368 208.66 375.449 208.481 375.57 208.33C375.98 207.82 376.47 207.94 376.43 208C376.39 208.06 376.09 208.12 375.88 208.54C375.819 208.647 375.781 208.766 375.771 208.888C375.761 209.011 375.777 209.135 375.82 209.25C375.883 209.375 375.983 209.478 376.106 209.544C376.23 209.611 376.371 209.637 376.51 209.62C376.651 209.624 376.789 209.585 376.907 209.509C377.025 209.432 377.117 209.321 377.17 209.19C377.199 209.071 377.203 208.948 377.183 208.828C377.162 208.707 377.117 208.592 377.05 208.49C376.79 208.05 376.44 208 376.44 208Z" fill="#263238"/>
<g opacity="0.3">
<path opacity="0.3" d="M351.7 180.48C349.83 187.13 348.06 194.66 351.54 200.63C352.54 202.43 354.06 203.96 355.04 205.8C356.73 208.95 356.84 212.69 357.89 216.1C360 223.01 367.54 229.73 374.69 230.78C371 226.29 365.29 220.44 361.89 215.35C360.809 214.023 360.012 212.488 359.55 210.84C359.13 208.99 358.82 207.03 360.05 205.58C355.27 204.84 352.55 199.9 351.69 195.14C350.895 190.354 351.096 185.455 352.28 180.75" fill="black"/>
</g>
<g opacity="0.3">
<path opacity="0.3" d="M400.27 215.85C399.08 222.99 399.88 232.35 404.27 238.11C405.88 230.27 405.08 220.02 400.27 213.59" fill="black"/>
</g>
<path d="M283.41 128.3H165.87V324.68H283.41V128.3Z" fill="#F5F5F5"/>
<path d="M197.05 243.94L198.31 246.49L201.13 246.9L199.09 248.88L199.57 251.69L197.05 250.37L194.53 251.69L195.02 248.88L192.98 246.9L195.79 246.49L197.05 243.94Z" fill="#603E94"/>
<path d="M211.05 243.94L212.31 246.49L215.13 246.9L213.09 248.88L213.57 251.69L211.05 250.37L208.53 251.69L209.01 248.88L206.97 246.9L209.79 246.49L211.05 243.94Z" fill="#603E94"/>
<path d="M225.04 243.94L226.3 246.49L229.12 246.9L227.08 248.88L227.56 251.69L225.04 250.37L222.53 251.69L223.01 248.88L220.97 246.9L223.78 246.49L225.04 243.94Z" fill="#603E94"/>
<path d="M239.04 243.94L240.3 246.49L243.12 246.9L241.08 248.88L241.56 251.69L239.04 250.37L236.52 251.69L237 248.88L234.96 246.9L237.78 246.49L239.04 243.94Z" fill="#603E94"/>
<path d="M253.03 243.94L254.29 246.49L257.11 246.9L255.07 248.88L255.55 251.69L253.03 250.37L250.51 251.69L251 248.88L248.96 246.9L251.78 246.49L253.03 243.94Z" fill="#603E94"/>
<path d="M219.84 267C219.84 267.14 210.92 267.26 199.91 267.26C188.9 267.26 180 267.1 180 267C180 266.9 188.93 266.74 199.93 266.74C210.93 266.74 219.84 266.81 219.84 267Z" fill="#603E94"/>
<path d="M269.93 275.61C269.93 275.75 250.03 275.87 225.48 275.87C200.93 275.87 181.03 275.75 181.03 275.61C181.03 275.47 200.93 275.35 225.48 275.35C250.03 275.35 269.93 275.47 269.93 275.61Z" fill="#263238"/>
<path d="M269.93 283.05C269.93 283.19 250.03 283.31 225.48 283.31C200.93 283.31 181.03 283.19 181.03 283.05C181.03 282.91 200.93 282.78 225.48 282.78C250.03 282.78 269.93 282.9 269.93 283.05Z" fill="#263238"/>
<path d="M269.93 290.48C269.93 290.62 250.03 290.74 225.48 290.74C200.93 290.74 181.03 290.62 181.03 290.48C181.03 290.34 200.93 290.22 225.48 290.22C250.03 290.22 269.93 290.34 269.93 290.48Z" fill="#263238"/>
<path d="M269.93 297.92C269.93 298.06 250.03 298.18 225.48 298.18C200.93 298.18 181.03 298.06 181.03 297.92C181.03 297.78 200.93 297.66 225.48 297.66C250.03 297.66 269.93 297.77 269.93 297.92Z" fill="#263238"/>
<path d="M269.93 305.35C269.93 305.5 250.03 305.61 225.48 305.61C200.93 305.61 181 305.5 181 305.35C181 305.2 200.9 305.09 225.45 305.09C250 305.09 269.93 305.21 269.93 305.35Z" fill="#263238"/>
<path d="M274.67 138.27H173.42V235.47H274.67V138.27Z" fill="#E0E0E0"/>
<path d="M230.26 186.44C230.26 188.97 230.49 190.44 230.51 192.99C230.472 193.304 230.502 193.622 230.597 193.924C230.692 194.226 230.849 194.504 231.06 194.74C231.28 194.89 231.538 194.976 231.805 194.989C232.072 195.001 232.337 194.939 232.57 194.81C233.033 194.542 233.435 194.181 233.75 193.75C236.556 190.293 238.247 186.067 238.6 181.63C238.638 181.443 238.639 181.251 238.603 181.064C238.567 180.877 238.495 180.699 238.39 180.54C237.99 180.08 237.25 180.25 236.7 180.54C233.962 181.768 231.701 183.858 230.26 186.49" fill="#263238"/>
<path d="M213.26 156.2L213.31 158.72L213.82 196.52C213.869 197.592 214.13 198.644 214.588 199.615C215.046 200.586 215.693 201.456 216.49 202.175C217.287 202.894 218.219 203.448 219.232 203.804C220.245 204.16 221.318 204.312 222.39 204.25C227.14 204.15 230.99 200.48 231.01 196.04C231.01 191.39 231.12 186.49 231.12 186.49C231.12 186.49 237.12 185.49 238.36 177.68C238.97 173.79 238.78 167.41 238.45 162.2C238.381 161.087 238.087 160.001 237.586 159.005C237.086 158.009 236.389 157.125 235.538 156.406C234.687 155.686 233.699 155.147 232.634 154.819C231.569 154.491 230.448 154.383 229.34 154.5L213.26 156.2Z" fill="#FFBE9D"/>
<path d="M235.44 166.64C235.44 166.905 235.335 167.159 235.147 167.347C234.96 167.534 234.705 167.64 234.44 167.64C234.191 167.641 233.951 167.549 233.766 167.383C233.581 167.217 233.465 166.987 233.44 166.74C233.44 166.475 233.545 166.22 233.733 166.033C233.92 165.845 234.175 165.74 234.44 165.74C234.689 165.739 234.929 165.83 235.114 165.996C235.299 166.163 235.415 166.392 235.44 166.64Z" fill="#263238"/>
<path d="M237.07 165.51C236.94 165.65 236.18 165.08 235.07 165.09C233.96 165.1 233.2 165.63 233.07 165.5C232.94 165.37 233.13 165.2 233.48 164.95C233.948 164.628 234.503 164.457 235.07 164.46C235.63 164.456 236.177 164.631 236.63 164.96C237 165.22 237.13 165.46 237.07 165.51Z" fill="#263238"/>
<path d="M225 166.64C225 166.905 224.895 167.159 224.707 167.347C224.52 167.534 224.265 167.64 224 167.64C223.751 167.641 223.511 167.549 223.326 167.383C223.141 167.217 223.025 166.987 223 166.74C223 166.475 223.105 166.22 223.293 166.033C223.48 165.845 223.735 165.74 224 165.74C224.249 165.739 224.489 165.83 224.674 165.996C224.859 166.163 224.975 166.392 225 166.64Z" fill="#263238"/>
<path d="M226.46 165.72C226.33 165.85 225.57 165.28 224.46 165.29C223.35 165.3 222.59 165.83 222.46 165.7C222.33 165.57 222.52 165.4 222.87 165.15C223.338 164.828 223.892 164.657 224.46 164.66C225.021 164.658 225.568 164.837 226.02 165.17C226.4 165.42 226.52 165.66 226.46 165.72Z" fill="#263238"/>
<path d="M230.37 173.72C230.941 173.542 231.532 173.434 232.13 173.4C232.4 173.4 232.66 173.32 232.71 173.13C232.731 172.848 232.668 172.566 232.53 172.32C232.27 171.65 232 170.95 231.71 170.22C230.956 168.441 230.344 166.605 229.88 164.73C230.781 166.442 231.54 168.224 232.15 170.06L232.93 172.17C233.1 172.503 233.149 172.885 233.07 173.25C233.033 173.348 232.973 173.436 232.895 173.506C232.816 173.576 232.722 173.625 232.62 173.65C232.467 173.695 232.309 173.718 232.15 173.72C231.559 173.796 230.961 173.796 230.37 173.72Z" fill="#263238"/>
<path d="M231.12 186.49C227.439 186.547 223.814 185.581 220.65 183.7C220.65 183.7 223.19 189.07 231.01 188.34L231.12 186.49Z" fill="#EB996E"/>
<path d="M229.92 176.32C229.71 176.065 229.441 175.865 229.136 175.74C228.83 175.614 228.498 175.566 228.17 175.6C227.933 175.623 227.703 175.693 227.493 175.806C227.283 175.919 227.099 176.074 226.95 176.26C226.803 176.437 226.715 176.656 226.699 176.885C226.683 177.115 226.739 177.344 226.86 177.54C227.033 177.736 227.261 177.875 227.514 177.939C227.768 178.003 228.035 177.99 228.28 177.9C228.789 177.719 229.258 177.441 229.66 177.08C229.778 176.988 229.882 176.881 229.97 176.76C230.01 176.701 230.031 176.631 230.031 176.56C230.031 176.489 230.01 176.419 229.97 176.36" fill="#EB996E"/>
<path d="M227.2 174.47C227.37 174.47 227.38 175.63 228.38 176.47C229.38 177.31 230.63 177.17 230.64 177.34C230.65 177.51 230.36 177.56 229.83 177.58C229.145 177.59 228.479 177.356 227.95 176.92C227.436 176.506 227.105 175.906 227.03 175.25C227 174.75 227.12 174.46 227.2 174.47Z" fill="#263238"/>
<path d="M225 155.55C225.829 155.792 226.54 156.329 227 157.06C227.448 157.78 227.949 158.465 228.5 159.11C229.179 159.78 230.052 160.218 230.995 160.362C231.938 160.506 232.902 160.347 233.75 159.91C234.38 160.52 235.21 161.17 236.05 160.91C236.288 160.814 236.498 160.659 236.659 160.46C236.82 160.26 236.927 160.022 236.97 159.77C237.048 159.259 236.971 158.736 236.75 158.27C235.93 156.36 233.82 155.34 231.75 154.94C229.26 154.459 226.686 154.66 224.3 155.52" fill="#263238"/>
<path d="M206.12 235.79C206.49 236.44 203.72 227.1 203.72 227.1L201.4 235.63L184.18 235.76C184.18 235.76 193.91 203.95 198.53 199.51C204.53 193.71 215.87 193.4 215.87 193.4L233.34 193.68H233.73C237.238 194.114 240.585 195.409 243.471 197.451C246.357 199.492 248.693 202.216 250.27 205.38L261.86 235.43H246.55L243.29 226.56L244.38 235.43" fill="#263238"/>
<path d="M241.23 192.65C240.7 191.39 238.78 191.44 237.94 190.37C237.1 189.3 237.83 187.53 238.52 186.2C241.83 179.82 241.52 172.2 240.89 165.06C240.63 161.99 240.32 158.86 238.99 156.06C236.34 150.52 229.93 146.14 221.99 146.5C215.5 146.75 210.56 152.6 207.05 158.07C203.54 163.54 201.67 172.07 202.82 178.5C203.4 181.7 206.82 184.17 206.22 187.36C205.82 189.36 203.72 191.78 204.13 193.79C204.69 196.53 208.67 197.48 211 199.04C213.319 200.748 215.49 202.648 217.49 204.72C219.505 206.79 221.935 208.412 224.62 209.48C227.35 210.4 230.62 210.23 232.82 208.4C236.45 205.4 236.1 199.47 239.4 196.13C240.36 195.14 241.78 194 241.23 192.65ZM236.11 158.07C237.44 160.07 237.55 162.66 237.86 165.07C238.506 169.097 238.553 173.198 238 177.24C237.431 181.303 235.569 185.076 232.69 188C231.239 189.438 229.458 190.5 227.502 191.093C225.547 191.686 223.476 191.791 221.47 191.4C217.02 190.4 215.59 186.4 214.33 182.05C213.07 177.7 215.88 173.65 217.13 169.26C218.13 165.87 218.46 161.09 220.65 158.33C222.84 155.57 226.47 155.38 227.54 155.43C227.54 155.42 233.44 154.05 236.11 158.07V158.07Z" fill="#603E94"/>
<g opacity="0.3">
<path opacity="0.3" d="M204.53 190.58C207.17 192.01 209.24 194.28 211.39 196.38C213.54 198.48 215.93 200.52 218.84 201.27C221.75 202.02 225.29 201.13 226.74 198.5C222.576 199.105 218.331 198.279 214.697 196.157C211.064 194.036 208.259 190.744 206.74 186.82" fill="black"/>
</g>
<g opacity="0.3">
<path opacity="0.3" d="M237.51 188.71C237.234 189.75 236.744 190.72 236.071 191.559C235.397 192.398 234.556 193.086 233.6 193.58C233.147 193.765 232.722 194.014 232.34 194.32C232.151 194.476 232.012 194.685 231.943 194.92C231.873 195.155 231.876 195.406 231.95 195.64C232.091 195.876 232.309 196.057 232.568 196.152C232.826 196.246 233.109 196.249 233.37 196.16C233.883 195.959 234.342 195.64 234.71 195.23C236.15 193.84 237.65 192.33 238.06 190.37" fill="black"/>
</g>
<path d="M603.513 236.031C605.384 228.159 600.519 220.261 592.648 218.39C584.776 216.519 576.878 221.384 575.007 229.255C573.136 237.127 578.001 245.025 585.872 246.896C593.744 248.767 601.642 243.902 603.513 236.031Z" fill="#E0E0E0"/>
<path d="M587 238.87C587.619 238.168 588.306 237.528 589.05 236.96C590.37 235.84 592.21 234.31 594.27 232.64V233.04L594.17 232.95C592.17 231.19 590.33 229.58 589.03 228.39C588.303 227.787 587.633 227.117 587.03 226.39C587.832 226.897 588.588 227.472 589.29 228.11C590.65 229.23 592.5 230.8 594.53 232.56L594.63 232.64L594.87 232.85L594.62 233.04C592.57 234.71 590.69 236.2 589.32 237.25C588.594 237.855 587.818 238.397 587 238.87Z" fill="#263238"/>
<path d="M172.244 236.577C174.105 228.729 169.251 220.858 161.403 218.997C153.555 217.136 145.684 221.99 143.823 229.838C141.962 237.686 146.816 245.557 154.664 247.418C162.512 249.279 170.383 244.425 172.244 236.577Z" fill="#E0E0E0"/>
<path d="M161 226.39C160.37 227.082 159.681 227.718 158.94 228.29C157.62 229.42 155.79 230.95 153.73 232.62V232.22L153.84 232.31C155.84 234.07 157.68 235.68 158.97 236.87C159.698 237.472 160.368 238.142 160.97 238.87C160.162 238.363 159.403 237.784 158.7 237.14C157.34 236.03 155.49 234.46 153.47 232.7L153.36 232.61L153.13 232.41L153.37 232.21C155.43 230.55 157.31 229.06 158.68 228.01C159.398 227.395 160.175 226.853 161 226.39V226.39Z" fill="#263238"/>
<path d="M318.55 89.2501C298.918 99.6805 282.82 115.698 272.29 135.277C261.761 154.855 257.273 177.117 259.395 199.246C261.516 221.375 270.151 242.379 284.209 259.6C298.266 276.822 317.114 289.489 338.37 296V296C355.653 301.286 373.956 302.324 391.726 299.025C409.495 295.726 426.206 288.188 440.44 277.05L535.17 395.55L549.66 384L454.13 264.5C465.454 252.189 473.874 237.495 478.77 221.5C479.961 217.616 480.943 213.67 481.71 209.68C485.7 188.855 483.719 167.325 475.995 147.578C468.271 127.83 455.12 110.67 438.06 98.0774C421 85.485 400.726 77.9743 379.579 76.4124C358.432 74.8505 337.275 79.301 318.55 89.2501V89.2501ZM398.76 98.7801C419.527 105.136 437.447 118.496 449.467 136.584C461.488 154.672 466.864 176.368 464.681 197.976C462.498 219.583 452.89 239.766 437.495 255.083C422.099 270.401 401.869 279.907 380.251 281.981C358.632 284.055 336.964 278.568 318.937 266.457C300.91 254.345 287.641 236.358 281.389 215.559C275.138 194.761 276.292 172.438 284.655 152.395C293.017 132.352 308.07 115.828 327.25 105.64C338.124 99.8253 350.043 96.225 362.318 95.0475C374.593 93.87 386.979 95.1386 398.76 98.7801V98.7801Z" fill="#455A64"/>
</svg>
