<svg width="152" height="122" viewBox="0 0 152 122" fill="none" xmlns="http://www.w3.org/2000/svg">
<path fill-rule="evenodd" clip-rule="evenodd" d="M76.3458 120.716C57.2585 122.197 42.3478 109.426 28.4168 100.075C16.1995 91.8745 5.26766 82.3788 1.74572 70.6419C-1.5559 59.6392 3.17801 48.3809 9.82755 38.1264C15.8013 28.914 26.2099 22.1434 37.3121 15.7937C48.8317 9.20532 60.359 1.33103 75.0489 0.824363C89.9237 0.311321 103.085 6.75348 114.95 13.116C126.515 19.318 135.892 27.078 141.681 36.556C147.928 46.7855 153.538 58.1179 148.989 68.8509C144.419 79.6326 134.671 92.0995 123.5 100.075C109.831 109.835 95.4999 119.231 76.3458 120.716Z" fill="#D4D5F7"/>
<path fill-rule="evenodd" clip-rule="evenodd" d="M50.1369 45.7271C50.351 45.8518 50.5855 45.9115 50.8173 45.9115C51.2837 45.9115 51.7391 45.6702 51.9899 45.2378C52.7219 43.9812 54.0693 43.2004 55.5089 43.2004H82.6201C83.3697 43.2004 83.9757 42.5931 83.9757 41.8448C83.9757 41.0952 83.3697 40.4893 82.6201 40.4893H55.5089C53.1082 40.4893 50.8621 41.7865 49.6475 43.8741C49.2707 44.5207 49.4889 45.3516 50.1369 45.7271Z" fill="#121475"/>
<path fill-rule="evenodd" clip-rule="evenodd" d="M108.773 85.0582L100.243 76.5276V71.6666C100.243 70.917 99.6367 70.311 98.8871 70.311C98.1375 70.311 97.5316 70.917 97.5316 71.6666V75.7333H73.1315C72.3832 75.7333 71.776 76.3392 71.776 77.0888C71.776 77.8385 72.3832 78.4444 73.1315 78.4444H98.3259L106.856 86.9749C107.45 87.57 107.231 88.2559 107.151 88.4525C107.068 88.6477 106.739 89.2889 105.898 89.2889H43.0774C42.237 89.2889 41.9049 88.6477 41.8235 88.4525C41.7422 88.2559 41.524 87.57 42.1177 86.9749L48.3343 80.7583C48.8643 80.2283 48.8643 79.3716 48.3343 78.8416C47.8043 78.3115 46.9475 78.3115 46.4175 78.8416L40.2009 85.0582C39.0162 86.2429 38.6786 87.9414 39.3198 89.4908C39.961 91.0375 41.4006 92 43.0774 92H105.898C107.574 92 109.013 91.0375 109.654 89.4908C110.296 87.9414 109.958 86.2429 108.773 85.0582Z" fill="#121475"/>
<path fill-rule="evenodd" clip-rule="evenodd" d="M93.465 33.7111H101.598C103.363 33.7111 104.854 34.8484 105.416 36.4222H89.6478C90.209 34.8484 91.7001 33.7111 93.465 33.7111ZM101.598 64.889H93.465C91.223 64.889 89.3984 63.0644 89.3984 60.8223H105.665C105.665 63.0644 103.84 64.889 101.598 64.889ZM89.3984 58.1112H105.665V39.1334H89.3984V58.1112ZM93.465 67.6001H101.598C105.336 67.6001 108.376 64.5596 108.376 60.8223V37.7778C108.376 34.0405 105.336 31 101.598 31H93.465C89.7278 31 86.6873 34.0405 86.6873 37.7778V60.8223C86.6873 64.5596 89.7278 67.6001 93.465 67.6001Z" fill="#121475"/>
<path fill-rule="evenodd" clip-rule="evenodd" d="M54.154 61.5C54.154 58.8838 56.2822 56.7556 58.8984 56.7556C61.5147 56.7556 63.6429 58.8838 63.6429 61.5C63.6429 64.1162 61.5147 66.2445 58.8984 66.2445C56.2822 66.2445 54.154 64.1162 54.154 61.5ZM66.354 61.5C66.354 57.39 63.0099 54.0444 58.8984 54.0444C54.787 54.0444 51.4429 57.39 51.4429 61.5C51.4429 65.6101 54.787 68.9556 58.8984 68.9556C63.0099 68.9556 66.354 65.6101 66.354 61.5Z" fill="#121475"/>
<path fill-rule="evenodd" clip-rule="evenodd" d="M58.4256 82.3273C54.134 78.2797 46.0209 68.7162 46.0209 61.5005C46.0209 54.3988 51.797 48.6227 58.8987 48.6227C65.9992 48.6227 71.7765 54.3988 71.7765 61.5005C71.7765 68.6335 63.6432 78.2403 59.3407 82.3246C59.2105 82.448 59.0479 82.5104 58.8852 82.5117H58.8811C58.7185 82.5117 58.5558 82.4507 58.4256 82.3273ZM51.4432 82.5117C50.6935 82.5117 50.0876 83.1176 50.0876 83.8673C50.0876 84.6155 50.6935 85.2228 51.4432 85.2228H66.3543C67.1026 85.2228 67.7099 84.6155 67.7099 83.8673C67.7099 83.1176 67.1026 82.5117 66.3543 82.5117H62.9803C66.6769 78.6402 74.4877 69.5133 74.4877 61.5005C74.4877 52.905 67.4943 45.9116 58.8987 45.9116C50.3018 45.9116 43.3098 52.905 43.3098 61.5005C43.3098 69.5146 51.1802 78.7094 54.7941 82.5117H51.4432Z" fill="#121475"/>
</svg>
