<svg width="150" height="120" viewBox="0 0 150 120" fill="none" xmlns="http://www.w3.org/2000/svg">
<path fill-rule="evenodd" clip-rule="evenodd" d="M74.7205 0.282802C87.577 -0.547053 100.345 0.235481 112.047 5.53412C125.908 11.8106 140.873 19.1961 146.911 32.9711C153.132 47.1638 148.837 63.4409 143.85 78.0964C138.9 92.6437 132.31 107.969 118.785 115.626C105.73 123.017 89.6484 119.243 74.7205 117.235C61.7775 115.494 50.1835 110.831 38.628 104.842C24.974 97.7659 7.00101 93.5833 1.63538 79.3594C-3.74125 65.1063 5.23161 49.5196 12.7471 36.2336C19.16 24.8968 29.4285 16.7267 40.7945 10.1333C51.204 4.09474 62.6588 1.06136 74.7205 0.282802Z" fill="#F7AD9C" fill-opacity="0.5"/>
<path d="M92.6977 71.0056C91.9487 72.3021 90.2902 72.7461 88.9936 71.9985C88.9902 71.9965 88.9875 71.9938 88.9841 71.9917L73.1451 62.8471C72.2755 62.3449 71.8011 61.4353 71.8004 60.5H71.7889V42.2C71.7889 40.7028 73.0028 39.4889 74.5 39.4889C75.9972 39.4889 77.2111 40.7028 77.2111 42.2V58.9337L91.7047 67.3015C93.0013 68.0511 93.4459 69.709 92.6977 71.0056ZM59.25 34.0863C57.9541 34.8346 57.5095 36.4931 58.2577 37.7904C59.006 39.0876 60.6652 39.5316 61.9618 38.7826C63.2584 38.0337 63.7023 36.3759 62.9541 35.0793C62.2044 33.782 60.5466 33.3374 59.25 34.0863ZM87.0389 82.218C85.743 82.9663 85.2984 84.6248 86.0466 85.9221C86.7949 87.218 88.4541 87.6626 89.75 86.9137C91.0466 86.1654 91.4905 84.5069 90.7429 83.211C89.9933 81.9137 88.3355 81.4691 87.0389 82.218ZM48.0863 75.75C48.8353 77.0473 50.4931 77.4919 51.7917 76.7429C53.0856 75.9926 53.5309 74.3362 52.7826 73.0396C52.0344 71.7403 50.3745 71.297 49.0786 72.0453C47.7827 72.7935 47.3387 74.4521 48.0863 75.75ZM48.0863 45.25C47.3381 46.5466 47.782 48.2051 49.0793 48.9541C50.3759 49.703 52.0337 49.2584 52.7833 47.9618C53.5316 46.6652 53.0876 45.0074 51.7904 44.2584C50.4931 43.5095 48.8353 43.9534 48.0863 45.25ZM59.25 86.9137C60.5479 87.6626 62.2058 87.2194 62.9554 85.9207C63.7016 84.6241 63.2584 82.9677 61.9625 82.218C60.6652 81.4677 59.0053 81.9137 58.2571 83.2096C57.5088 84.5055 57.9541 86.1634 59.25 86.9137ZM74.5 85.5778C73.0028 85.5778 71.7889 86.7917 71.7889 88.2889C71.7889 89.7861 73.0028 91 74.5 91C75.9972 91 77.2111 89.7861 77.2111 88.2889C77.2111 86.7917 75.9972 85.5778 74.5 85.5778ZM44 60.5C44 61.9979 45.2139 63.2118 46.7125 63.2118C48.2083 63.2098 49.4222 61.9979 49.4222 60.5007C49.4243 59.0021 48.2083 57.7882 46.7118 57.7882C45.2153 57.7882 44.0014 59.0021 44 60.5ZM100.922 75.7317C103.512 71.2482 105 66.0496 105 60.5C105 43.6552 91.3448 30 74.5 30C73.0028 30 71.7889 31.2139 71.7889 32.7111C71.7889 34.2083 73.0028 35.4222 74.5 35.4222C74.501 35.4222 74.5019 35.4221 74.5027 35.4219C74.5036 35.4217 74.5044 35.4215 74.5054 35.4215C88.3511 35.4243 99.5751 46.651 99.5751 60.4993C99.5751 65.0892 98.3422 69.3911 96.1889 73.0918L96.193 73.0945C95.4881 74.3816 95.932 76.0035 97.211 76.7423C98.4357 77.4492 99.975 77.0812 100.773 75.9452L100.796 75.9601C100.816 75.9272 100.834 75.8935 100.851 75.8598C100.869 75.8261 100.887 75.7924 100.906 75.7595C100.907 75.7575 100.909 75.7558 100.91 75.7541C100.911 75.7524 100.913 75.7507 100.914 75.7486C100.916 75.7456 100.917 75.7417 100.919 75.7379C100.92 75.7358 100.921 75.7337 100.922 75.7317Z" fill="#721D0A"/>
<path d="M92.6977 71.0056C91.9487 72.3021 90.2902 72.7461 88.9936 71.9985C88.9902 71.9965 88.9875 71.9938 88.9841 71.9917L73.1451 62.8471C72.2755 62.3449 71.8011 61.4353 71.8004 60.5H71.7889V42.2C71.7889 40.7028 73.0028 39.4889 74.5 39.4889C75.9972 39.4889 77.2111 40.7028 77.2111 42.2V58.9337L91.7047 67.3015C93.0013 68.0511 93.4459 69.709 92.6977 71.0056ZM59.25 34.0863C57.9541 34.8346 57.5095 36.4931 58.2577 37.7904C59.006 39.0876 60.6652 39.5316 61.9618 38.7826C63.2584 38.0337 63.7023 36.3759 62.9541 35.0793C62.2044 33.782 60.5466 33.3374 59.25 34.0863ZM87.0389 82.218C85.743 82.9663 85.2984 84.6248 86.0466 85.9221C86.7949 87.218 88.4541 87.6626 89.75 86.9137C91.0466 86.1654 91.4905 84.5069 90.7429 83.211C89.9933 81.9137 88.3355 81.4691 87.0389 82.218ZM48.0863 75.75C48.8353 77.0473 50.4931 77.4919 51.7917 76.7429C53.0856 75.9926 53.5309 74.3362 52.7826 73.0396C52.0344 71.7403 50.3745 71.297 49.0786 72.0453C47.7827 72.7935 47.3387 74.4521 48.0863 75.75ZM48.0863 45.25C47.3381 46.5466 47.782 48.2051 49.0793 48.9541C50.3759 49.703 52.0337 49.2584 52.7833 47.9618C53.5316 46.6652 53.0876 45.0074 51.7904 44.2584C50.4931 43.5095 48.8353 43.9534 48.0863 45.25ZM59.25 86.9137C60.5479 87.6626 62.2058 87.2194 62.9554 85.9207C63.7016 84.6241 63.2584 82.9677 61.9625 82.218C60.6652 81.4677 59.0053 81.9137 58.2571 83.2096C57.5088 84.5055 57.9541 86.1634 59.25 86.9137ZM74.5 85.5778C73.0028 85.5778 71.7889 86.7917 71.7889 88.2889C71.7889 89.7861 73.0028 91 74.5 91C75.9972 91 77.2111 89.7861 77.2111 88.2889C77.2111 86.7917 75.9972 85.5778 74.5 85.5778ZM44 60.5C44 61.9979 45.2139 63.2118 46.7125 63.2118C48.2083 63.2098 49.4222 61.9979 49.4222 60.5007C49.4243 59.0021 48.2083 57.7882 46.7118 57.7882C45.2153 57.7882 44.0014 59.0021 44 60.5ZM100.922 75.7317C103.512 71.2482 105 66.0496 105 60.5C105 43.6552 91.3448 30 74.5 30C73.0028 30 71.7889 31.2139 71.7889 32.7111C71.7889 34.2083 73.0028 35.4222 74.5 35.4222C74.501 35.4222 74.5019 35.4221 74.5027 35.4219C74.5036 35.4217 74.5044 35.4215 74.5054 35.4215C88.3511 35.4243 99.5751 46.651 99.5751 60.4993C99.5751 65.0892 98.3422 69.3911 96.1889 73.0918L96.193 73.0945C95.4881 74.3816 95.932 76.0035 97.211 76.7423C98.4357 77.4492 99.975 77.0812 100.773 75.9452L100.796 75.9601C100.816 75.9272 100.834 75.8935 100.851 75.8598C100.869 75.8261 100.887 75.7924 100.906 75.7595C100.907 75.7575 100.909 75.7558 100.91 75.7541C100.911 75.7524 100.913 75.7507 100.914 75.7486C100.916 75.7456 100.917 75.7417 100.919 75.7379C100.92 75.7358 100.921 75.7337 100.922 75.7317Z" stroke="black"/>
</svg>
