<svg width="150" height="120" viewBox="0 0 150 120" fill="none" xmlns="http://www.w3.org/2000/svg">
<path fill-rule="evenodd" clip-rule="evenodd" d="M74.5937 3.72401C89.2809 2.19549 104.76 -3.24088 117.866 2.75161C131.539 9.00308 138.349 22.5293 143.517 35.2377C148.809 48.2499 152.832 62.5212 147.455 75.5068C142.154 88.3093 127.958 95.8564 115.189 103.654C102.669 111.299 89.8659 120.051 74.5937 120C59.3467 119.949 46.8485 110.855 34.2245 103.381C21.1255 95.6261 2.3928 89.64 0.184982 75.9462C-2.06098 62.0157 16.7448 52.9882 24.081 40.4666C29.7674 30.761 28.6226 18.0164 38.2116 11.0414C48.017 3.90902 61.9267 5.04229 74.5937 3.72401Z" fill="#84D8FB" fill-opacity="0.5"/>
<path d="M107 64.6167V56.275L97.6833 54.7583C97.1417 52.375 96.1667 50.2083 94.975 48.15L100.5 40.4583L94.65 34.6083L86.9583 40.1333C84.9 38.9417 82.7333 37.9667 80.35 37.425L78.6167 28H70.275L68.7583 37.3167C66.375 37.8583 64.2083 38.8333 62.15 40.025L54.4583 34.5L48.6083 40.35L54.1333 48.0417C52.9417 50.1 51.9667 52.2667 51.425 54.65L42 56.3833V64.725L51.3167 66.2417C51.8583 68.625 52.8333 70.7917 54.025 72.85L48.5 80.5417L54.35 86.3917L62.0417 80.8667C64.1 82.0583 66.2667 83.0333 68.65 83.575L70.1667 92.8917H78.5083L80.025 83.575C82.4083 83.0333 84.575 82.0583 86.6333 80.8667L94.325 86.3917L100.175 80.5417L94.65 72.85C95.8417 70.7917 96.8167 68.625 97.3583 66.2417L107 64.6167ZM104.833 58.1167V62.775L98.1167 63.8583C98.3333 62.775 98.3333 61.5833 98.3333 60.3917C98.3333 59.2922 98.2411 58.285 98.1418 57.1998C98.1334 57.1088 98.1251 57.0172 98.1167 56.925L104.833 58.1167ZM94.325 37.425L97.575 40.675L93.5667 46.2C92.1583 44.3583 90.5333 42.7333 88.6917 41.325L94.325 37.425ZM72.1167 30.1667H76.775L77.8583 36.8833C76.775 36.6667 75.5833 36.6667 74.3917 36.6667C73.2922 36.6667 72.285 36.7589 71.1998 36.8582C71.1088 36.8666 71.0172 36.8749 70.925 36.8833L72.1167 30.1667ZM51.425 40.675L54.675 37.425L60.2 41.4333C58.3583 42.8417 56.7333 44.4667 55.325 46.3083L51.425 40.675ZM44.1667 62.8833V58.225L50.8833 57.1417C50.6667 58.225 50.6667 59.4167 50.6667 60.6083C50.6667 61.7078 50.7589 62.715 50.8582 63.8002C50.8666 63.8912 50.8749 63.9828 50.8833 64.075L44.1667 62.8833ZM54.675 83.575L51.425 80.325L55.4333 74.8C56.8417 76.6417 58.4667 78.2667 60.3083 79.675L54.675 83.575ZM76.8833 90.8333H72.225L71.1417 84.1167C72.225 84.3333 73.4167 84.3333 74.6083 84.3333C75.7078 84.3333 76.715 84.2411 77.8002 84.1418C77.8912 84.1334 77.9828 84.1251 78.075 84.1167L76.8833 90.8333ZM97.575 80.325L94.325 83.575L88.8 79.5667C90.6417 78.1583 92.2667 76.5333 93.675 74.6917L97.575 80.325ZM74.5 82.1667C62.5833 82.1667 52.8333 72.4167 52.8333 60.5C52.8333 48.5833 62.5833 38.8333 74.5 38.8333C86.4167 38.8333 96.1667 48.5833 96.1667 60.5C96.1667 72.4167 86.4167 82.1667 74.5 82.1667Z" fill="#044E6D"/>
<path d="M107 64.6167V56.275L97.6833 54.7583C97.1417 52.375 96.1667 50.2083 94.975 48.15L100.5 40.4583L94.65 34.6083L86.9583 40.1333C84.9 38.9417 82.7333 37.9667 80.35 37.425L78.6167 28H70.275L68.7583 37.3167C66.375 37.8583 64.2083 38.8333 62.15 40.025L54.4583 34.5L48.6083 40.35L54.1333 48.0417C52.9417 50.1 51.9667 52.2667 51.425 54.65L42 56.3833V64.725L51.3167 66.2417C51.8583 68.625 52.8333 70.7917 54.025 72.85L48.5 80.5417L54.35 86.3917L62.0417 80.8667C64.1 82.0583 66.2667 83.0333 68.65 83.575L70.1667 92.8917H78.5083L80.025 83.575C82.4083 83.0333 84.575 82.0583 86.6333 80.8667L94.325 86.3917L100.175 80.5417L94.65 72.85C95.8417 70.7917 96.8167 68.625 97.3583 66.2417L107 64.6167ZM104.833 58.1167V62.775L98.1167 63.8583C98.3333 62.775 98.3333 61.5833 98.3333 60.3917C98.3333 59.2922 98.2411 58.285 98.1418 57.1998C98.1334 57.1088 98.1251 57.0172 98.1167 56.925L104.833 58.1167ZM94.325 37.425L97.575 40.675L93.5667 46.2C92.1583 44.3583 90.5333 42.7333 88.6917 41.325L94.325 37.425ZM72.1167 30.1667H76.775L77.8583 36.8833C76.775 36.6667 75.5833 36.6667 74.3917 36.6667C73.2922 36.6667 72.285 36.7589 71.1998 36.8582C71.1088 36.8666 71.0172 36.8749 70.925 36.8833L72.1167 30.1667ZM51.425 40.675L54.675 37.425L60.2 41.4333C58.3583 42.8417 56.7333 44.4667 55.325 46.3083L51.425 40.675ZM44.1667 62.8833V58.225L50.8833 57.1417C50.6667 58.225 50.6667 59.4167 50.6667 60.6083C50.6667 61.7078 50.7589 62.715 50.8582 63.8002C50.8666 63.8912 50.8749 63.9828 50.8833 64.075L44.1667 62.8833ZM54.675 83.575L51.425 80.325L55.4333 74.8C56.8417 76.6417 58.4667 78.2667 60.3083 79.675L54.675 83.575ZM76.8833 90.8333H72.225L71.1417 84.1167C72.225 84.3333 73.4167 84.3333 74.6083 84.3333C75.7078 84.3333 76.715 84.2411 77.8002 84.1418C77.8912 84.1334 77.9828 84.1251 78.075 84.1167L76.8833 90.8333ZM97.575 80.325L94.325 83.575L88.8 79.5667C90.6417 78.1583 92.2667 76.5333 93.675 74.6917L97.575 80.325ZM74.5 82.1667C62.5833 82.1667 52.8333 72.4167 52.8333 60.5C52.8333 48.5833 62.5833 38.8333 74.5 38.8333C86.4167 38.8333 96.1667 48.5833 96.1667 60.5C96.1667 72.4167 86.4167 82.1667 74.5 82.1667Z" stroke="black"/>
<path d="M75.5833 56.275V41H74.5C63.775 41 55 49.775 55 60.5V61.5833H70.275C70.7083 63.425 72.4417 64.8333 74.5 64.8333C76.8833 64.8333 78.8333 62.8833 78.8333 60.5C78.8333 58.4417 77.425 56.8167 75.5833 56.275ZM70.275 59.4167H57.1667C57.7083 50.75 64.6417 43.7083 73.4167 43.1667V56.275C71.9 56.7083 70.7083 57.9 70.275 59.4167ZM74.5 62.6667C73.3083 62.6667 72.3333 61.6917 72.3333 60.5C72.3333 59.3083 73.3083 58.3333 74.5 58.3333C75.6917 58.3333 76.6667 59.3083 76.6667 60.5C76.6667 61.6917 75.6917 62.6667 74.5 62.6667Z" fill="#044E6D"/>
<path d="M75.5833 56.275V41H74.5C63.775 41 55 49.775 55 60.5V61.5833H70.275C70.7083 63.425 72.4417 64.8333 74.5 64.8333C76.8833 64.8333 78.8333 62.8833 78.8333 60.5C78.8333 58.4417 77.425 56.8167 75.5833 56.275ZM70.275 59.4167H57.1667C57.7083 50.75 64.6417 43.7083 73.4167 43.1667V56.275C71.9 56.7083 70.7083 57.9 70.275 59.4167ZM74.5 62.6667C73.3083 62.6667 72.3333 61.6917 72.3333 60.5C72.3333 59.3083 73.3083 58.3333 74.5 58.3333C75.6917 58.3333 76.6667 59.3083 76.6667 60.5C76.6667 61.6917 75.6917 62.6667 74.5 62.6667Z" stroke="black"/>
<path d="M94.0001 59.4165H89.6667V61.5832H94.0001V59.4165Z" fill="#044E6D"/>
<path d="M94.0001 59.4165H89.6667V61.5832H94.0001V59.4165Z" stroke="black"/>
<path d="M84.4737 71.9755L87.5378 75.0396L89.0699 73.5075L86.0058 70.4434L84.4737 71.9755Z" fill="#044E6D"/>
<path d="M84.4737 71.9755L87.5378 75.0396L89.0699 73.5075L86.0058 70.4434L84.4737 71.9755Z" stroke="black"/>
<path d="M75.5834 75.6665H73.4167V79.9998H75.5834V75.6665Z" fill="#044E6D"/>
<path d="M75.5834 75.6665H73.4167V79.9998H75.5834V75.6665Z" stroke="black"/>
<path d="M62.9943 70.4437L59.9302 73.5078L61.4622 75.0399L64.5263 71.9758L62.9943 70.4437Z" fill="#044E6D"/>
<path d="M62.9943 70.4437L59.9302 73.5078L61.4622 75.0399L64.5263 71.9758L62.9943 70.4437Z" stroke="black"/>
<path d="M86.0052 50.5568L89.0693 47.4927L87.5373 45.9606L84.4732 49.0247L86.0052 50.5568Z" fill="#044E6D"/>
<path d="M86.0052 50.5568L89.0693 47.4927L87.5373 45.9606L84.4732 49.0247L86.0052 50.5568Z" stroke="black"/>
</svg>
