<svg width="150" height="120" viewBox="0 0 150 120" fill="none" xmlns="http://www.w3.org/2000/svg">
<path fill-rule="evenodd" clip-rule="evenodd" d="M73.3031 1.53321C88.2818 -1.19062 106.335 -1.00353 117.45 8.09828C128.455 17.1099 121.807 33.2512 127.052 45.5482C132.658 58.6889 155.108 68.9591 148.936 81.9083C142.588 95.2259 133.129 100.237 117.45 105.096C107.285 108.245 91.3238 113.512 81 116.247C65.1969 120.434 41.7309 122.006 26.6036 116.247C11.8477 110.629 9.91441 93.1081 5.76584 79.6332C1.83526 66.8665 -3.67685 52.7092 3.44313 41.0206C10.3527 29.6775 28.4476 29.0405 40.8563 22.0267C52.3483 15.531 59.8685 3.97626 73.3031 1.53321Z" fill="#89EBC0" fill-opacity="0.5"/>
<path d="M99.9999 44.8376C100.007 43.3398 99.527 41.8803 98.6327 40.6787C97.7384 39.4772 96.4781 38.5986 95.0414 38.1752L94.0399 37.8761C81.2955 34.0413 67.7045 34.0413 54.9601 37.8761L53.954 38.1752C52.5182 38.5994 51.2588 39.4784 50.3655 40.6798C49.4721 41.8813 48.9929 43.3404 49.0001 44.8376V69.5447C49.0107 74.5055 50.4666 79.3557 53.1898 83.5023C55.9131 87.6488 59.7856 90.912 64.3338 92.8927C68.8821 94.8734 73.9089 95.4859 78.7997 94.6552C83.6905 93.8245 88.2332 91.5866 91.8724 88.2153C94.4335 85.8257 96.4765 82.9355 97.8745 79.7238C99.2726 76.5121 99.996 73.0475 99.9999 69.5447V44.8376ZM95.3636 69.5447C95.3594 72.4098 94.7671 75.2435 93.6235 77.8704C92.4799 80.4974 90.8093 82.8616 88.7151 84.8168C85.7412 87.585 82.0237 89.4246 78.0191 90.1099C74.0144 90.7952 69.8968 90.2963 66.1717 88.6745C62.4466 87.0527 59.2761 84.3786 57.0493 80.9803C54.8225 77.582 53.6363 73.6076 53.6364 69.5447V44.8376C53.634 44.3386 53.7936 43.8523 54.0912 43.4519C54.3889 43.0514 54.8085 42.7583 55.287 42.6168L56.2931 42.3154C68.1693 38.74 80.8354 38.74 92.7116 42.3154L93.713 42.6145C94.1921 42.7558 94.6122 43.0491 94.9099 43.4501C95.2077 43.8512 95.3669 44.3381 95.3636 44.8376V69.5447Z" fill="#065533"/>
<path d="M84.744 56.8877L70.114 67.338L64.5503 61.7744C64.1131 61.3521 63.5276 61.1184 62.9197 61.1237C62.3119 61.129 61.7305 61.3728 61.3007 61.8026C60.8709 62.2324 60.6271 62.8139 60.6218 63.4217C60.6165 64.0295 60.8502 64.6151 61.2724 65.0523L68.227 72.0068C68.3533 72.1121 68.4909 72.2031 68.6373 72.278C68.7226 72.3438 68.8124 72.4035 68.9062 72.4565C69.2057 72.6018 69.5331 72.6809 69.8659 72.6883C70.1365 72.6831 70.404 72.6305 70.6564 72.533C70.7358 72.4996 70.8132 72.4617 70.8882 72.4194C71.0014 72.3744 71.1108 72.3201 71.2151 72.2572L87.4423 60.6663C87.6901 60.4894 87.9007 60.2655 88.0619 60.0072C88.2232 59.749 88.332 59.4615 88.3821 59.1612C88.4323 58.8609 88.4228 58.5537 88.3542 58.2571C88.2857 57.9605 88.1593 57.6802 87.9825 57.4324C87.8056 57.1846 87.5816 56.9741 87.3234 56.8128C87.0652 56.6516 86.7777 56.5428 86.4774 56.4926C86.1771 56.4425 85.8699 56.4519 85.5732 56.5205C85.2766 56.5891 84.9964 56.7154 84.7486 56.8923L84.744 56.8877Z" fill="#065533"/>
</svg>
