<svg width="22" height="22" viewBox="0 0 22 22" fill="none" xmlns="http://www.w3.org/2000/svg">
<g clip-path="url(#clip0_1678:1803)">
<path d="M20.0545 10.7719H14.7773L13.0183 13.4104H9.50012L7.74106 10.7719H2.46387" stroke="#603E94" stroke-width="2.6386" stroke-linecap="round" stroke-linejoin="round"/>
<path d="M5.49825 4.71175L2.46387 10.7717V16.0489C2.46387 16.5155 2.6492 16.9629 2.97909 17.2928C3.30897 17.6227 3.7564 17.808 4.22293 17.808H18.2954C18.762 17.808 19.2094 17.6227 19.5393 17.2928C19.8692 16.9629 20.0545 16.5155 20.0545 16.0489V10.7717L17.0201 4.71175C16.8745 4.41868 16.65 4.17205 16.3719 3.99958C16.0937 3.82711 15.773 3.73565 15.4458 3.73547H7.07262C6.74536 3.73565 6.42463 3.82711 6.14651 3.99958C5.86838 4.17205 5.64388 4.41868 5.49825 4.71175V4.71175Z" stroke="#603E94" stroke-width="2.6386" stroke-linecap="round" stroke-linejoin="round"/>
</g>
<defs>
<clipPath id="clip0_1678:1803">
<rect width="21.1088" height="21.1088" fill="white" transform="translate(0.705078 0.217407)"/>
</clipPath>
</defs>
</svg>
