<svg width="162" height="52" viewBox="0 0 162 52" fill="none" xmlns="http://www.w3.org/2000/svg">
<path d="M0 27.9124C0 27.9124 4.06607 22.3624 8.13269 21.4174C12.5851 20.3828 15.0971 25.6075 19.4665 24.3041C24.5702 22.7816 21.824 15.3613 26.8206 13.5593C32.2875 11.5876 35.4201 19.7804 41.0095 18.1298C44.9508 16.9659 44.8439 12.6062 48.7961 11.4744C56.6189 9.23433 56.4346 19.4917 63.5907 15.8044C68.6064 13.22 65.9267 13.7998 69.4739 11.4744C73.0211 9.14907 77.6439 6.99168 83.4033 6.98408C91.503 6.97339 94.0317 17.828 101.832 15.8044C106.344 14.6338 106.956 10.7175 111.176 8.82834C117.33 6.07243 122.426 9.76909 128.566 6.98408C132.665 5.1244 133.179 1.01851 137.65 0.168344C143.764 -0.994125 149.69 4.14384 155.127 6.98408C158.984 8.9992 158.546 5.028 161.962 6.74751V52H0V27.9124Z" fill="#9373C4" fill-opacity="0.7"/>
<path d="M0 27.9124C0 27.9124 4.06607 22.3624 8.13269 21.4174C12.5851 20.3828 15.0971 25.6075 19.4665 24.3041C24.5702 22.7816 21.824 15.3613 26.8206 13.5593C32.2875 11.5876 35.4201 19.7804 41.0095 18.1298C44.9508 16.9659 44.8439 12.6062 48.7961 11.4744C56.6189 9.23433 56.4346 19.4917 63.5907 15.8044C68.6064 13.22 65.9267 13.7998 69.4739 11.4744C73.0211 9.14907 77.6439 6.99168 83.4033 6.98408C91.503 6.97339 94.0317 17.828 101.832 15.8044C106.344 14.6338 106.956 10.7175 111.176 8.82834C117.33 6.07243 122.426 9.76909 128.566 6.98408C132.665 5.1244 133.179 1.01851 137.65 0.168344C143.764 -0.994125 149.69 4.14384 155.127 6.98408C158.984 8.9992 158.546 5.028 161.962 6.74751V52H0V27.9124Z" fill="url(#paint0_linear_1499:290)"/>
<defs>
<linearGradient id="paint0_linear_1499:290" x1="81" y1="74.2857" x2="81" y2="-20.2222" gradientUnits="userSpaceOnUse">
<stop stop-color="#FCFDFF"/>
<stop offset="1" stop-color="white" stop-opacity="0"/>
</linearGradient>
</defs>
</svg>
