<svg width="16" height="16" viewBox="0 0 16 16" fill="none" xmlns="http://www.w3.org/2000/svg">
<path d="M13.087 2.43338C13.0095 2.37072 12.919 2.32623 12.8221 2.30315C12.7252 2.28008 12.6244 2.27902 12.527 2.30004C11.8146 2.44934 11.0792 2.45124 10.3661 2.30563C9.65295 2.16002 8.97716 1.86999 8.38033 1.45338C8.26873 1.37596 8.13615 1.33447 8.00033 1.33447C7.86451 1.33447 7.73193 1.37596 7.62033 1.45338C7.0235 1.86999 6.34771 2.16002 5.63457 2.30563C4.92143 2.45124 4.18604 2.44934 3.47366 2.30004C3.37629 2.27902 3.27544 2.28008 3.17853 2.30315C3.08162 2.32623 2.99111 2.37072 2.91366 2.43338C2.83632 2.49612 2.77401 2.5754 2.73132 2.66539C2.68864 2.75537 2.66666 2.85378 2.667 2.95338V7.92004C2.6664 8.87588 2.89418 9.81802 3.33135 10.668C3.76853 11.518 4.40245 12.2513 5.18033 12.8067L7.61366 14.54C7.72657 14.6204 7.86173 14.6636 8.00033 14.6636C8.13893 14.6636 8.27409 14.6204 8.387 14.54L10.8203 12.8067C11.5982 12.2513 12.2321 11.518 12.6693 10.668C13.1065 9.81802 13.3343 8.87588 13.3337 7.92004V2.95338C13.334 2.85378 13.312 2.75537 13.2693 2.66539C13.2266 2.5754 13.1643 2.49612 13.087 2.43338ZM12.0003 7.92004C12.0008 8.66321 11.8239 9.39576 11.4841 10.0567C11.1443 10.7177 10.6516 11.2879 10.047 11.72L8.00033 13.18L5.95366 11.72C5.34902 11.2879 4.85632 10.7177 4.51656 10.0567C4.17681 9.39576 3.99982 8.66321 4.00033 7.92004V3.72004C5.39795 3.83966 6.79769 3.51539 8.00033 2.79338C9.20297 3.51539 10.6027 3.83966 12.0003 3.72004V7.92004ZM9.027 6.39338L7.23366 8.19338L6.64033 7.59338C6.51479 7.46784 6.34453 7.39732 6.167 7.39732C5.98946 7.39732 5.8192 7.46784 5.69366 7.59338C5.56813 7.71891 5.4976 7.88918 5.4976 8.06671C5.4976 8.24425 5.56813 8.41451 5.69366 8.54004L6.76033 9.60671C6.8223 9.6692 6.89604 9.71879 6.97728 9.75264C7.05852 9.78648 7.14565 9.80391 7.23366 9.80391C7.32167 9.80391 7.40881 9.78648 7.49005 9.75264C7.57129 9.71879 7.64502 9.6692 7.707 9.60671L10.0003 7.33338C10.1259 7.20784 10.1964 7.03758 10.1964 6.86004C10.1964 6.68251 10.1259 6.51225 10.0003 6.38671C9.87479 6.26117 9.70453 6.19065 9.527 6.19065C9.34946 6.19065 9.1792 6.26117 9.05366 6.38671L9.027 6.39338Z" fill="#8C949C"/>
</svg>
