<svg width="60" height="60" viewBox="0 0 60 60" fill="none" xmlns="http://www.w3.org/2000/svg">
<circle cx="30" cy="30" r="30" fill="#F7AD9C"/>
<path d="M25.1447 35C20.7576 35 12 37.2333 12 41.6667V45H38.2894V41.6667C38.2894 37.2333 29.5317 35 25.1447 35ZM15.2862 41.6667C15.6476 40.4667 20.7248 38.3333 25.1447 38.3333C29.581 38.3333 34.6746 40.4833 35.0032 41.6667H15.2862ZM18.1451 25H18.5723C18.5723 28.6833 21.5135 31.6667 25.1447 31.6667C28.7759 31.6667 31.717 28.6833 31.717 25H32.1442C32.5879 25 32.9493 24.6333 32.9493 24.1833V24.15C32.9493 23.9334 32.8645 23.7257 32.7135 23.5725C32.5625 23.4194 32.3578 23.3333 32.1442 23.3333H31.717C31.717 20.8667 30.3861 18.75 28.4309 17.5833V19.1667C28.4309 19.6333 28.0694 20 27.6093 20C27.1492 20 26.7878 19.6333 26.7878 19.1667V16.9C26.262 16.7667 25.7198 16.6667 25.1447 16.6667C24.5696 16.6667 24.0274 16.7667 23.5016 16.9V19.1667C23.5016 19.6333 23.1401 20 22.6801 20C22.22 20 21.8585 19.6333 21.8585 19.1667V17.5833C19.9032 18.75 18.5723 20.8667 18.5723 23.3333H18.1451C18.0394 23.3333 17.9347 23.3545 17.837 23.3955C17.7394 23.4365 17.6506 23.4967 17.5758 23.5725C17.5011 23.6484 17.4418 23.7384 17.4013 23.8375C17.3609 23.9366 17.34 24.0428 17.34 24.15V24.2C17.34 24.6333 17.7015 25 18.1451 25ZM28.4309 25C28.4309 26.8333 26.9521 28.3333 25.1447 28.3333C23.3373 28.3333 21.8585 26.8333 21.8585 25H28.4309ZM46.4719 20.3833L48 19L46.7677 16.8333L44.8124 17.4833C44.5824 17.3 44.3195 17.15 44.0402 17.0333L43.6294 15H41.1648L40.754 17.0333C40.4747 17.15 40.2118 17.3 39.9653 17.4833L38.0265 16.8333L36.7942 19L38.3222 20.3833C38.2894 20.6667 38.2894 20.9667 38.3222 21.25L36.7942 22.6667L38.0265 24.8333L39.9982 24.2C40.2118 24.3667 40.4582 24.5 40.7047 24.6167L41.1648 26.6667H43.6294L44.073 24.6333C44.3359 24.5167 44.5659 24.3833 44.796 24.2167L46.7513 24.85L47.9836 22.6833L46.4555 21.2667C46.5048 20.95 46.4884 20.6667 46.4719 20.3833ZM42.3971 22.9167C41.8524 22.9167 41.33 22.6972 40.9448 22.3065C40.5596 21.9158 40.3432 21.3859 40.3432 20.8333C40.3432 20.2808 40.5596 19.7509 40.9448 19.3602C41.33 18.9695 41.8524 18.75 42.3971 18.75C42.9418 18.75 43.4642 18.9695 43.8494 19.3602C44.2346 19.7509 44.4509 20.2808 44.4509 20.8333C44.4509 21.3859 44.2346 21.9158 43.8494 22.3065C43.4642 22.6972 42.9418 22.9167 42.3971 22.9167ZM42.2328 27.9833L40.8361 28.45C40.6718 28.3167 40.4911 28.2167 40.2939 28.1333L39.9982 26.6667H38.2401L37.9443 28.1167C37.7471 28.2 37.55 28.3167 37.3857 28.4333L36.0055 27.9667L35.1182 29.5167L36.2026 30.5C36.1862 30.7167 36.1862 30.9167 36.2026 31.1167L35.1182 32.1333L36.0055 33.6833L37.4185 33.2333C37.5828 33.35 37.7471 33.45 37.9279 33.5333L38.2236 35H39.9817L40.2939 33.55C40.4747 33.4667 40.6554 33.3667 40.8197 33.25L42.2163 33.7L43.1036 32.15L42.0192 31.1333C42.0356 30.9167 42.0356 30.7167 42.0192 30.5167L43.1036 29.5333L42.2328 27.9833ZM39.1109 32.3167C38.3058 32.3167 37.6486 31.65 37.6486 30.8333C37.6486 30.0167 38.3058 29.35 39.1109 29.35C39.916 29.35 40.5733 30.0167 40.5733 30.8333C40.5733 31.65 39.916 32.3167 39.1109 32.3167Z" fill="#721D0A"/>
</svg>
