<svg width="60" height="60" viewBox="0 0 60 60" fill="none" xmlns="http://www.w3.org/2000/svg">
<circle cx="30" cy="30" r="30" fill="#84D8FB"/>
<path d="M35.3017 37.6996H24.6954C24.5186 37.6996 24.374 37.5552 24.374 37.3787V34.0092C24.374 33.8327 24.5186 33.6883 24.6954 33.6883H26.3024C26.4792 33.6883 26.6238 33.8327 26.6238 34.0092V35.4533H33.3733V34.0092C33.3733 33.8327 33.5179 33.6883 33.6947 33.6883H35.3017C35.4785 33.6883 35.6231 33.8327 35.6231 34.0092V37.3787C35.6231 37.5552 35.4785 37.6996 35.3017 37.6996ZM21.6421 32.7657C21.6421 33.1913 21.4728 33.5994 21.1714 33.9003C20.87 34.2012 20.4613 34.3702 20.0351 34.3702C19.6089 34.3702 19.2001 34.2012 18.8987 33.9003C18.5974 33.5994 18.428 33.1913 18.428 32.7657C18.428 32.3402 18.5974 31.9321 18.8987 31.6312C19.2001 31.3303 19.6089 31.1613 20.0351 31.1613C20.4613 31.1613 20.87 31.3303 21.1714 31.6312C21.4728 31.9321 21.6421 32.3402 21.6421 32.7657ZM12.0402 26.0429L12.9923 24.3823C13.0351 24.3091 13.1052 24.2557 13.1872 24.2339C13.2693 24.2121 13.3566 24.2237 13.4302 24.2659L15.4671 25.4533L18.6129 16.781C18.7789 16.2635 19.1054 15.8121 19.5452 15.492C19.985 15.1719 20.5153 14.9996 21.0595 15H38.4676C39.8616 15 41.099 15.8985 41.5289 17.2262L44.526 25.4573L46.5669 24.27C46.6405 24.2277 46.7279 24.2162 46.8099 24.238C46.892 24.2598 46.962 24.3131 47.0048 24.3863L47.957 26.0429C48.0454 26.1953 47.9932 26.3879 47.8405 26.4761L45.4139 27.8881L45.9964 29.4926C46.0446 29.6209 46.0687 29.7573 46.0687 29.8937V43.8608C46.0687 44.4906 45.5947 45 45.0121 45H42.2963C41.8021 45 41.3722 44.627 41.2678 44.1055L40.9584 42.5933H19.0387L18.7294 44.1055C18.6209 44.627 18.195 45 17.7009 45H14.985C14.4025 45 13.9284 44.4906 13.9284 43.8608V29.8937C13.9284 29.7573 13.9525 29.6209 14.0007 29.4926L14.5833 27.8881L12.1607 26.4761C12.0877 26.4341 12.0343 26.3651 12.0117 26.2841C11.9892 26.2031 11.9994 26.1165 12.0402 26.0429ZM16.821 30.1986V39.7052H43.1761V30.1986L42.5494 28.4737H17.4478L16.821 30.1986ZM38.809 18.209L38.789 18.1568L38.7729 18.1047C38.7287 17.9723 38.6082 17.8841 38.4676 17.8841H21.2885L18.2593 26.2274H41.7298L38.809 18.209ZM41.5691 32.7657C41.5691 33.1913 41.3998 33.5994 41.0984 33.9003C40.797 34.2012 40.3883 34.3702 39.9621 34.3702C39.5359 34.3702 39.1271 34.2012 38.8257 33.9003C38.5244 33.5994 38.3551 33.1913 38.3551 32.7657C38.3551 32.3402 38.5244 31.9321 38.8257 31.6312C39.1271 31.3303 39.5359 31.1613 39.9621 31.1613C40.3883 31.1613 40.797 31.3303 41.0984 31.6312C41.3998 31.9321 41.5691 32.3402 41.5691 32.7657Z" fill="#044E6D"/>
</svg>
