<svg width="60" height="60" viewBox="0 0 60 60" fill="none" xmlns="http://www.w3.org/2000/svg">
<circle cx="30" cy="30" r="30" fill="#D4D5F7"/>
<path d="M21.4443 35.3335H37.5554V41.7779C37.5554 42.6325 37.216 43.4521 36.6117 44.0564C36.0074 44.6607 35.1878 45.0002 34.3332 45.0002H24.6666C23.812 45.0002 22.9924 44.6607 22.3881 44.0564C21.7838 43.4521 21.4443 42.6325 21.4443 41.7779V35.3335Z" stroke="#121475" stroke-width="2" stroke-linecap="round" stroke-linejoin="round"/>
<path d="M29.5 25.6667C29.5 23.1029 28.4816 20.6442 26.6687 18.8313C24.8558 17.0184 22.3971 16 19.8333 16H15V19.2222C15 21.786 16.0184 24.2447 17.8313 26.0576C19.6442 27.8704 22.1029 28.8889 24.6667 28.8889H29.5" stroke="#121475" stroke-width="2" stroke-linecap="round" stroke-linejoin="round"/>
<path d="M29.5 28.8888C29.5 26.3251 30.5184 23.8663 32.3313 22.0535C34.1442 20.2406 36.6029 19.2222 39.1667 19.2222H44V20.8333C44 23.397 42.9816 25.8558 41.1687 27.6686C39.3558 29.4815 36.8971 30.4999 34.3333 30.4999H29.5" stroke="#121475" stroke-width="2" stroke-linecap="round" stroke-linejoin="round"/>
<path d="M29.5 35.3332V25.6665" stroke="#121475" stroke-width="2" stroke-linecap="round" stroke-linejoin="round"/>
</svg>
