<svg width="60" height="60" viewBox="0 0 60 60" fill="none" xmlns="http://www.w3.org/2000/svg">
<circle cx="30" cy="30" r="30" fill="#D4D5F7"/>
<path d="M23.5974 39.6C21.8378 39.6 20.4142 41.04 20.4142 42.8C20.4142 44.56 21.8378 46 23.5974 46C25.3569 46 26.7965 44.56 26.7965 42.8C26.7965 41.04 25.3569 39.6 23.5974 39.6ZM39.593 39.6C37.8334 39.6 36.4098 41.04 36.4098 42.8C36.4098 44.56 37.8334 46 39.593 46C41.3525 46 42.7921 44.56 42.7921 42.8C42.7921 41.04 41.3525 39.6 39.593 39.6ZM37.2736 31.6C38.4733 31.6 39.529 30.944 40.0728 29.952L45.7992 19.568C45.934 19.3255 46.0032 19.052 45.9999 18.7745C45.9966 18.497 45.9209 18.2252 45.7803 17.986C45.6397 17.7468 45.4391 17.5484 45.1984 17.4106C44.9576 17.2727 44.685 17.2001 44.4076 17.2H20.7341L19.2306 14H14V17.2H17.1991L22.9575 29.344L20.7981 33.248C19.6304 35.392 21.166 38 23.5974 38H42.7921V34.8H23.5974L25.3569 31.6H37.2736ZM22.2537 20.4H41.6884L37.2736 28.4H26.0447L22.2537 20.4Z" fill="#121475"/>
</svg>
