<svg width="60" height="60" viewBox="0 0 60 60" fill="none" xmlns="http://www.w3.org/2000/svg">
<circle cx="30" cy="30" r="30" fill="#89EBC0"/>
<path d="M12 18V32.2222H15.6V28.6667H26.4L30 25.1111L26.4 21.5556H15.6V18H12ZM44.4 18V21.5556H30L33.6 25.1111L30 28.6667H44.4V32.2222H48V18H44.4ZM30 32.2222C30 32.2222 26.4 36.08 26.4 38.4444C26.4 39.3874 26.7793 40.2918 27.4544 40.9586C28.1295 41.6254 29.0452 42 30 42C30.9548 42 31.8705 41.6254 32.5456 40.9586C33.2207 40.2918 33.6 39.3874 33.6 38.4444C33.6 36.08 30 32.2222 30 32.2222Z" fill="#065533"/>
</svg>
