<svg width="60" height="60" viewBox="0 0 60 60" fill="none" xmlns="http://www.w3.org/2000/svg">
<circle cx="30" cy="30" r="30" fill="#84D8FB"/>
<path d="M43.1145 29.3019C41.6451 28.5046 36.4989 26.8552 32.2172 25.6212L35.3252 22.4463L35.6624 22.7919L36.405 22.0338L36.0678 21.6877L38.2168 19.4913L37.8056 19.0702L39.9546 16.875L38.1206 15L35.971 17.1958L35.5574 16.7746L33.4066 18.9704L32.6016 18.1488L27.6369 23.2269L28.2628 23.869L32.475 19.5617L32.6594 19.7348L28.1123 24.3796C24.0085 22.5185 22.4534 24.5729 20.3271 27.4113C19.1633 28.9644 17.7143 30.8983 15.4598 32.7813C14.7224 33.3958 13.967 34.4538 14.0598 35.5812C14.1053 36.1408 14.3946 36.9335 15.4341 37.6292L13.2209 41.689L12 42.9387L12.6043 43.5565L13.8311 42.304L16.6737 40.6904C17.2039 41.3902 18.0218 41.8869 18.8565 41.9683C20.8638 42.1667 22.5648 42.9058 24.2104 43.6206C25.8419 44.3302 27.3825 45 28.9914 45C31.113 45 32.7696 44.7156 34.5226 44.4138C36.7981 44.0233 39.3776 43.5808 43.734 43.5808C45.3545 43.5808 46.4967 42.2712 46.8677 39.99C47.5227 35.9769 45.6631 30.6831 43.1145 29.3019ZM26.0041 35.411C25.4447 35.156 24.9127 34.9142 24.474 34.755C24.4419 34.7435 24.4064 34.7337 24.3743 34.7221C24.6263 34.3315 25.1384 33.6698 26.1488 32.7352C26.0724 33.8417 26.0263 34.8646 26.0041 35.411ZM35.558 17.8102L37.2041 19.4913L35.5615 21.169L33.9153 19.4879L35.558 17.8102ZM33.1715 20.2477L34.8177 21.9288L22.6254 34.3835C21.0242 34.2825 19.1015 34.714 17.4466 36.3121L33.1715 20.2477ZM16.221 33.6733C18.6039 31.7302 20.0745 29.7092 21.275 28.1077C23.3424 25.3483 24.4227 23.7415 27.484 25.0223L16.6748 36.0652C16.1399 35.7531 14.8723 34.7729 16.221 33.6733ZM14.3129 41.1952L16.039 38.0175L16.1878 38.1692C16.0015 38.7779 16.0347 39.4317 16.2817 40.0188L14.3129 41.1952ZM46.0352 39.6473C45.8772 40.6212 44.6883 41.9469 43.3449 41.9469C38.8865 41.9469 36.6424 42.5965 34.3149 42.9692C29.8092 43.6898 26.465 42.7731 25.0089 41.8552C21.3596 39.5556 19.3699 40.7417 17.6928 39.4638C17.1532 39.0525 17.2016 38.0475 17.7295 37.4192C20.0629 34.6488 23.1009 35.1133 24.0867 35.576C26.9246 36.9087 29.5053 37.1048 30.1954 36.956C30.8866 36.8163 31.498 36.4448 31.9751 35.9792C31.4326 36.3733 30.7991 36.6329 30.1528 36.6669C29.5082 36.7113 27.652 36.1385 27.3376 36.0052C27.2239 35.4531 27.0407 34.4688 27.0238 33.7471C28.187 34.92 29.4656 35.2177 29.4656 35.2177L26.9777 31.9731C26.9777 31.9731 30.6177 28.009 33.0397 26.7923C37.1172 27.9762 41.4024 29.3042 42.6356 29.9735C44.7344 31.1106 46.6011 36.1788 46.0352 39.6473Z" fill="#044E6D"/>
</svg>
