<svg width="60" height="60" viewBox="0 0 60 60" fill="none" xmlns="http://www.w3.org/2000/svg">
<circle cx="30" cy="30" r="30" fill="#F7AD9C"/>
<path d="M23.0622 37.1716L24.9372 34.8286L18.9012 30.0001L24.9372 25.1716L23.0622 22.8286L15.5622 28.8286C15.3865 28.9691 15.2446 29.1474 15.1471 29.3502C15.0496 29.553 14.999 29.7751 14.999 30.0001C14.999 30.2251 15.0496 30.4472 15.1471 30.65C15.2446 30.8528 15.3865 31.0311 15.5622 31.1716L23.0622 37.1716ZM36.9372 22.8286L35.0622 25.1716L41.0982 30.0001L35.0622 34.8286L36.9372 37.1716L44.4372 31.1716C44.613 31.0311 44.7548 30.8528 44.8523 30.65C44.9498 30.4472 45.0004 30.2251 45.0004 30.0001C45.0004 29.7751 44.9498 29.553 44.8523 29.3502C44.7548 29.1474 44.613 28.9691 44.4372 28.8286L36.9372 22.8286Z" fill="#721D0A"/>
<path d="M34.4647 16.8239L28.4647 43.8239L25.5352 43.1729L31.5352 16.1729L34.4647 16.8239Z" fill="#721D0A"/>
</svg>
