<svg width="60" height="60" viewBox="0 0 60 60" fill="none" xmlns="http://www.w3.org/2000/svg">
<circle cx="30" cy="30" r="30" fill="#89EBC0"/>
<path d="M15 25.0769C15 17 23.0769 17 30 17C36.9231 17 45 17 45 25.0769C45 34.3077 36.9231 23.9231 36.9231 23.9231H23.0769C23.0769 23.9231 15 34.3077 15 25.0769ZM24.2308 27.3846C24.2308 27.3846 18.4615 33.1538 18.4615 43.5385H41.5385C41.5385 33.1538 35.7692 27.3846 35.7692 27.3846H24.2308Z" stroke="#065533" stroke-width="2" stroke-linecap="round" stroke-linejoin="round"/>
<path d="M30.0002 40.077C32.5492 40.077 34.6155 38.0106 34.6155 35.4616C34.6155 32.9126 32.5492 30.8462 30.0002 30.8462C27.4511 30.8462 25.3848 32.9126 25.3848 35.4616C25.3848 38.0106 27.4511 40.077 30.0002 40.077Z" stroke="#065533" stroke-width="2" stroke-linecap="round" stroke-linejoin="round"/>
</svg>
