<svg width="74" height="36" viewBox="0 0 74 36" fill="none" xmlns="http://www.w3.org/2000/svg">
<path d="M17.6222 35.2435C27.3542 35.2435 35.2443 27.3537 35.2443 17.6217C35.2443 7.88973 27.3546 0 17.6222 0C7.88972 0 0 7.88973 0 17.6217C0 27.3537 7.88972 35.2435 17.6222 35.2435Z" fill="#ACB5BD"/>
<path d="M21.913 23.8233H18.2638V10.0308H16.9104V25.1842H18.2638V25.1753H21.913V23.8233Z" fill="#FCFDFF"/>
<path d="M31.0217 18.1861H21.9345V16.8327H32.3528C32.3666 17.0944 32.3733 17.3565 32.3733 17.6217C32.3733 25.7691 25.7686 32.3733 17.6217 32.3733C9.4748 32.3733 2.87012 25.7691 2.87012 17.6217C2.87012 9.47436 9.4748 2.87012 17.6222 2.87012C17.8369 2.87012 18.0513 2.87458 18.2642 2.88396L18.2624 4.22704C18.0492 4.2172 17.8357 4.21228 17.6222 4.21231C10.2164 4.21231 4.21231 10.216 4.21231 17.6217C4.21231 25.0279 10.216 31.0311 17.6222 31.0311C24.8261 31.0311 30.7029 25.3507 31.0182 18.224L31.0217 18.1861Z" fill="#FCFDFF"/>
<path d="M12.1194 14.1136C12.6692 14.1136 13.1964 13.8952 13.5852 13.5064C13.9739 13.1177 14.1923 12.5904 14.1923 12.0407C14.1923 11.4909 13.9739 10.9637 13.5852 10.5749C13.1964 10.1862 12.6692 9.96777 12.1194 9.96777C11.5696 9.96777 11.0424 10.1862 10.6536 10.5749C10.2649 10.9637 10.0465 11.4909 10.0465 12.0407C10.0465 12.5904 10.2649 13.1177 10.6536 13.5064C11.0424 13.8952 11.5696 14.1136 12.1194 14.1136Z" fill="#FCFDFF"/>
<path d="M43.9945 26.2714H56.5864V22.4686H48.6176V8.8511H43.9945V26.2714ZM71.8001 10.0776C70.3566 8.95915 68.4978 8.39209 66.2795 8.39209C63.6456 8.39209 61.4448 9.20116 59.9146 10.73C58.3175 12.328 57.4718 14.682 57.4718 17.5374C57.4718 20.5879 58.3657 23.162 59.9887 24.7837C61.263 26.0576 62.9607 26.7296 64.9034 26.7296C69.168 26.7296 70.1489 24.1733 70.1489 24.1733V26.2706H74V16.4323H66.334V19.5109H69.8623C69.8623 19.5109 69.8962 23.387 66.2545 23.387C65.3294 23.387 64.5051 23.0513 63.8711 22.4172C62.883 21.43 62.3606 19.7663 62.3606 17.6097C62.3606 14.0377 63.7804 11.9052 66.1576 11.9052C67.6427 11.9052 68.759 12.8169 69.0452 14.1989H73.9496C73.6955 12.1909 73.1445 11.1443 71.8001 10.0776Z" fill="#ACB5BD"/>
</svg>
