<svg width="113" height="35" viewBox="0 0 113 35" fill="none" xmlns="http://www.w3.org/2000/svg">
<path d="M21.6524 0.176322C21.6524 0.390428 21.4635 0.453401 20.5189 0.566751C20.1411 0.617128 19.7758 0.70529 19.7003 0.755668C19.6373 0.806045 19.4106 0.881612 19.1965 0.93199C18.8061 1.02015 18.6423 1.08312 17.1814 1.78841C15.3426 2.65743 12.4459 4.62217 10.8338 6.09572C9.22168 7.55668 6.72797 10.1511 6.14863 10.9824C5.9849 11.2091 5.7582 11.5113 5.63226 11.6373C5.50631 11.7758 5.25442 12.1159 5.06551 12.3929C4.87659 12.6826 4.68767 12.9345 4.64989 12.9723C4.59951 13.0101 4.43578 13.262 4.27205 13.539C4.10833 13.8161 3.932 14.068 3.89422 14.1058C3.74309 14.2191 3.18893 15.2393 2.44586 16.7506C2.05543 17.5441 1.69019 18.2997 1.61462 18.4131C1.55165 18.539 1.50127 18.7028 1.50127 18.7909C1.50127 18.8791 1.42571 19.1058 1.32495 19.2947C1.22419 19.4836 1.11084 19.8111 1.06047 20.0378C1.01009 20.2771 0.921928 20.5416 0.858956 20.6549C0.39296 21.5239 -0.236762 27.0781 0.0906935 27.4937C0.153666 27.5819 0.254421 27.9723 0.304799 28.3753C0.342583 28.7783 0.468527 29.2569 0.569283 29.4458C0.657444 29.6348 0.745605 29.8615 0.745605 29.9622C0.745605 30.2897 1.9043 31.864 2.60959 32.4937C3.37785 33.1738 4.82621 33.9547 5.5315 34.0806C5.77079 34.131 6.03528 34.2066 6.09825 34.2695C6.32495 34.4333 9.19649 34.5214 10.3804 34.3955C11.7909 34.2317 13.5038 33.9547 13.6801 33.8413C13.7431 33.8035 14.1083 33.7028 14.4862 33.6398C14.864 33.5642 15.5315 33.4131 15.9849 33.2997C16.4383 33.199 17.1184 33.0227 17.5214 32.9345C17.9119 32.8463 18.2771 32.7456 18.3527 32.7078C18.4156 32.6574 18.7683 32.5693 19.1461 32.5063C19.5239 32.4307 20.2544 32.2796 20.7708 32.1788C21.2872 32.0655 22.0554 31.9144 22.471 31.8514C22.8867 31.7884 23.4786 31.6751 23.7935 31.5995C24.6121 31.398 28.8816 31.2972 29.6499 31.461C30.0025 31.5365 30.5441 31.6625 30.8716 31.7254C31.199 31.801 31.5642 31.9018 31.6902 31.9773C31.8161 32.0403 32.2192 32.2292 32.5844 32.3804C32.937 32.5441 33.2393 32.7204 33.2393 32.7708C33.2393 32.8338 33.3023 32.8715 33.3779 32.8715C33.6297 32.8715 34.6247 33.7532 35.0907 34.3955L35.5441 35L36.3124 34.3073C37.7859 32.9723 39.1713 32.6196 42.0302 32.8715C42.8867 32.9345 43.6927 33.0605 43.8187 33.1234C43.9446 33.199 44.1839 33.2494 44.3476 33.2494C44.5114 33.2494 44.801 33.3375 45.0025 33.4383C45.1915 33.539 45.4559 33.6272 45.5693 33.6272C45.6826 33.6272 46.1738 33.8287 46.6398 34.068C47.1184 34.3073 47.5592 34.5088 47.6096 34.5088C47.937 34.5088 47.5844 34.1688 46.3753 33.2494C45.6197 32.6952 44.9648 32.204 44.8892 32.1411C44.8262 32.0907 44.5365 31.9018 44.2595 31.738C43.9824 31.5743 43.7305 31.398 43.6927 31.3476C43.6171 31.2469 41.4131 30.1008 41.2872 30.1008C41.2368 30.1008 41.0353 30.0378 40.8338 29.9496C40.2544 29.7103 39.4106 29.471 38.403 29.2569C37.194 29.005 32.9496 28.8917 31.9799 29.0932C31.602 29.1688 30.8338 29.2821 30.2796 29.3451C28.869 29.5088 26.5894 29.9496 24.6751 30.4282C24.2217 30.529 23.5416 30.6927 23.1637 30.7683C22.7859 30.8564 22.4207 30.9572 22.3451 30.995C22.2821 31.0453 21.9673 31.1209 21.6524 31.1587C21.3375 31.2091 20.9723 31.2972 20.8338 31.3602C20.6952 31.4232 20.3048 31.5365 19.9522 31.5995C18.9824 31.7884 18.1008 31.9899 17.6852 32.1159C17.1058 32.2922 15.0529 32.6196 13.0252 32.8589C12.131 32.9597 11.5894 32.9597 10.4559 32.8086C9.66248 32.6952 8.95719 32.5693 8.88163 32.5063C8.80606 32.4559 8.57936 32.3678 8.37785 32.3174C7.60959 32.1285 6.16122 30.995 5.74561 30.2519C5.46853 29.7733 5.06551 28.9043 4.90178 28.4635C4.68767 27.8589 4.59951 25.2771 4.75064 24.4962C5.09069 22.9093 5.16626 22.5945 5.27961 22.2418C5.34258 22.0277 5.51891 21.461 5.67004 20.995C5.82117 20.529 5.99749 20.1133 6.04787 20.0756C6.11085 20.0378 6.16122 19.9244 6.16122 19.8111C6.16122 19.6977 6.36273 19.194 6.60203 18.6902C6.84132 18.1864 7.04284 17.7204 7.04284 17.6574C7.04284 17.5819 7.08062 17.5063 7.14359 17.4811C7.19397 17.4559 7.37029 17.1537 7.53402 16.8136C7.91185 16.0327 8.95719 14.3199 9.70027 13.2242C10.4685 12.1033 10.8716 11.5365 10.9471 11.461C10.9849 11.4232 11.325 10.995 11.7028 10.5164C12.6726 9.26952 13.0378 8.8539 15.1033 6.80101C17.0554 4.83627 17.5592 4.39547 18.6045 3.67758C20.6197 2.29219 21.7784 1.78841 23.1763 1.67506C23.8564 1.62469 23.9068 1.63728 24.3476 2.07809C24.6247 2.35516 24.801 2.64484 24.801 2.83375C24.801 3.23678 24.3854 3.65239 23.9824 3.65239C23.6297 3.65239 22.8363 4.11839 22.5214 4.49622C22.1436 4.96222 21.9043 5.57934 21.9043 6.12091C21.9043 6.5995 21.9547 6.68766 22.3325 6.92695L22.7733 7.19144L23.2645 6.93955C24.7884 6.15869 25.9849 3.69018 25.5693 2.19144C25.3804 1.47355 24.6499 0.654912 24.1083 0.554156C23.8438 0.503778 23.6423 0.390428 23.6045 0.239295C23.529 0.0377834 23.3904 0 22.5844 0C21.8539 0 21.6524 0.0377834 21.6524 0.176322ZM75.3048 0.579345C75.0655 0.617128 74.6877 0.717884 74.461 0.81864C74.2469 0.919395 73.9824 1.00756 73.869 1.00756C73.7557 1.00756 73.5668 1.05793 73.4408 1.1335C73.3275 1.19647 72.9496 1.3728 72.597 1.51134C70.8338 2.25441 67.9496 3.99244 66.3502 5.28967C64.7129 6.62469 64.1587 7.11587 62.8363 8.43829C60.8842 10.3904 59.9522 11.4736 58.5164 13.4131C57.8489 14.3073 57.257 15.1008 57.194 15.1763C57.1436 15.2393 56.9547 15.529 56.791 15.806C56.6272 16.0831 56.4509 16.335 56.4131 16.3728C56.2242 16.5239 54.7758 19.0806 54.1713 20.34C53.8061 21.0957 53.4408 21.8262 53.3779 21.9395C53.3149 22.0655 53.2645 22.2292 53.2645 22.3048C53.2645 22.3804 53.1889 22.6196 53.0882 22.8338C52.3199 24.5718 51.9547 26.7128 52.0428 28.9043C52.1184 30.403 52.1814 30.7053 52.7859 31.9647C53.0882 32.6071 53.9068 33.5013 54.461 33.7909C55.6071 34.3955 55.8086 34.4458 57.3325 34.4333C58.1386 34.4207 58.8816 34.3577 58.9698 34.2821C59.0454 34.2191 59.3224 34.1184 59.5617 34.068C59.9396 33.9799 61.0857 33.4761 62.0806 32.9219C62.9119 32.4685 64.7758 30.8438 65.733 29.7229C66.1109 29.2695 66.4887 28.8413 66.5769 28.7406C67.1688 28.1108 68.5668 25.7179 69.1335 24.3703C69.2847 24.0176 69.4484 23.6272 69.5114 23.4887C69.5743 23.3501 69.6625 23.0353 69.7129 22.796C69.7506 22.5567 69.8514 22.2796 69.927 22.1914C70.0025 22.1033 70.0529 21.335 70.0655 20.4282C70.0781 18.7406 70.0151 18.5264 69.3602 17.8589C68.9824 17.4685 68.1134 17.33 67.1562 17.5063C66.6902 17.5819 66.2494 17.6952 66.1738 17.7456C66.1109 17.8086 65.9093 17.8967 65.7456 17.9471C65.2166 18.1108 63.8061 19.1436 63.0126 19.9496C62.1562 20.8186 61.7532 21.4106 61.1109 22.733C60.8716 23.2116 60.6197 23.7154 60.5567 23.8287C60.4937 23.9547 60.4433 24.1436 60.4433 24.2569C60.4433 24.3577 60.3678 24.5718 60.2922 24.7229C60.0403 25.1511 59.5114 27.3174 59.6121 27.4307C59.6499 27.4559 60.1411 27.0781 60.7204 26.5869C61.2998 26.0957 61.8287 25.6927 61.9169 25.6927C61.9925 25.6927 62.0806 25.6423 62.1058 25.5919C62.1562 25.466 63.3401 24.7481 63.6675 24.6348C63.8313 24.5844 63.9824 24.3073 64.1461 23.7783C64.9522 21.0705 66.7028 18.8917 68.063 18.8917C69.2847 18.8917 69.6247 19.8363 69.1461 21.9773C69.0705 22.3174 68.9446 22.6574 68.8816 22.7204C68.8061 22.796 68.7557 22.9597 68.7557 23.0856C68.7557 23.2116 68.6801 23.4761 68.5794 23.6524C68.4786 23.8413 68.2645 24.2695 68.1008 24.6222C67.8111 25.2645 67.131 26.461 66.9925 26.5743C66.9547 26.6121 66.6398 27.0025 66.2998 27.4559C64.9144 29.2821 62.8741 31.1335 61.5517 31.7254C60.7708 32.0781 59.7758 32.1788 58.869 31.9899C58.2519 31.864 58.0378 31.738 57.5592 31.2469C56.7784 30.4534 56.5013 29.534 56.5768 28.073C56.6272 26.9144 56.8791 25.4534 57.0554 25.2645C57.1184 25.1889 57.1688 25 57.1688 24.8237C57.1688 24.6348 57.2569 24.3325 57.3577 24.131C57.4585 23.9421 57.5466 23.6776 57.5466 23.5642C57.5466 23.4509 57.6348 23.199 57.7355 22.9975C57.8363 22.8086 57.9245 22.5819 57.9245 22.5189C57.9245 22.0151 60.0151 18.0353 61.3501 16.0076C61.4761 15.8312 61.6398 15.5542 61.7154 15.3904C61.8035 15.2393 61.9043 15.1133 61.9547 15.1133C62.0051 15.1133 62.0806 15.0126 62.1184 14.8866C62.194 14.6725 62.9874 13.5642 64.1713 12.0403C66.7532 8.72796 70.3552 5.30227 73.2897 3.37531C74.2091 2.77078 75.9219 1.88917 76.1864 1.88917C76.2998 1.88917 76.4383 1.83879 76.5139 1.76322C76.5768 1.70025 76.9799 1.61209 77.3829 1.57431C78.7053 1.44836 78.7935 1.83879 77.6222 2.61965C77.2821 2.84635 76.8917 3.13602 76.7532 3.24937C76.6146 3.36272 76.136 3.75315 75.6826 4.11839C74.0202 5.42821 72.4711 7.2796 71.5894 8.99244C70.8212 10.4912 70.6323 11.1083 70.6071 12.0655C70.5693 13.5139 71.0227 14.005 72.3829 14.005C73.0504 14.005 73.3401 13.9421 74.0328 13.5894C75.1159 13.0353 77.0303 11.1587 77.9748 9.69773C78.9446 8.22418 79.7632 6.57431 79.9144 5.79345C79.9522 5.55416 80.0403 5.28967 80.1033 5.21411C80.1663 5.15113 80.2418 4.50882 80.2796 3.79093C80.3048 3.08564 80.3678 2.45592 80.4056 2.39295C80.4433 2.32997 80.7834 2.21662 81.1486 2.12846C81.7154 2.00252 81.9925 2.01511 82.8489 2.19144C83.4156 2.30479 83.9698 2.44332 84.0957 2.5063C84.2091 2.55667 84.5114 2.69521 84.7507 2.79597C84.9899 2.90932 85.33 3.04786 85.5063 3.12343C85.859 3.28715 86.8539 3.82872 87.1436 4.03023C87.2444 4.0932 87.7859 4.44584 88.3401 4.81108C88.8942 5.16373 89.801 5.75567 90.3552 6.10831C91.5517 6.87657 92.5214 7.43073 92.6978 7.43073C92.8111 7.43073 95.1033 5.11335 95.1663 4.93703C95.1915 4.88665 94.927 4.72292 94.5995 4.55919C94.2721 4.40806 93.9194 4.23174 93.8187 4.16877C91.6776 2.84635 89.3854 1.61209 88.2141 1.1335C86.8287 0.579345 86.7532 0.566751 84.2847 0.566751C82.5214 0.566751 81.8287 0.604534 81.7028 0.717884C81.6272 0.806045 81.4509 0.881612 81.325 0.881612C81.199 0.881612 80.7834 0.982368 80.4182 1.12091L79.7506 1.3602L79.1335 0.969773C78.5542 0.604534 78.4408 0.579345 77.131 0.554156C76.3753 0.541562 75.5441 0.554156 75.3048 0.579345ZM79.4106 3.08564C79.5114 3.47607 79.2469 5.42821 79.0831 5.59194C79.0076 5.66751 78.9572 5.81864 78.9572 5.94458C78.9572 6.52393 77.5592 9.06801 76.665 10.1134C75.6197 11.3476 74.1209 12.7204 73.8061 12.7204C73.7305 12.7204 73.6675 12.7708 73.6675 12.8338C73.6675 12.9345 72.5718 13.3501 72.2947 13.3501C72.2192 13.3501 71.9673 13.1486 71.7154 12.9093C71.0857 12.267 71.1235 11.7758 71.9925 10.0126C72.5214 8.90428 72.5718 8.84131 73.4282 7.68262C74.5114 6.23426 76.199 4.58438 77.534 3.67758C78.9698 2.69521 79.2847 2.59446 79.4106 3.08564Z" fill="#ACB5BD"/>
<path d="M102.887 0.868858C102.219 1.07037 101.048 1.61193 100.72 1.87641C100.632 1.95198 99.9648 2.44317 99.2343 2.98473C97.5844 4.20639 93.3149 8.42553 91.7406 10.3777C91.4761 10.7177 91.1109 11.1459 90.9471 11.3223C90.2796 12.0401 87.8993 15.3399 87.2066 16.5238C87.1436 16.6497 86.7784 17.2291 86.4257 17.821C86.0605 18.4255 85.7582 18.9545 85.7582 19.0175C85.7582 19.0804 85.6826 19.2064 85.6071 19.2946C85.5189 19.3953 85.3426 19.6598 85.2041 19.8991C85.0781 20.1384 84.7758 20.7051 84.524 21.1585C84.2847 21.6119 83.8187 22.4809 83.5038 23.0981C83.1637 23.753 82.8237 24.2568 82.6726 24.3071C81.9925 24.559 81.4887 24.685 81.1738 24.685C80.8338 24.685 80.8212 24.6724 80.9093 24.2064C80.9597 23.9545 81.0731 23.6019 81.1612 23.4255C81.4635 22.884 81.7028 22.2417 81.791 21.7883C81.8413 21.549 81.9421 21.2845 82.0051 21.1963C82.068 21.1082 82.131 20.4784 82.1436 19.7857C82.1562 18.6145 82.131 18.5137 81.8161 18.0855C81.5643 17.7706 81.2872 17.5817 80.796 17.4306C80.1537 17.2291 80.0655 17.2291 79.3728 17.4306C77.6222 17.9469 76.2242 18.8663 74.3098 20.7681C72.6726 22.4054 72.1688 22.9721 71.5265 23.9293C71.4257 24.0804 71.262 24.282 71.1864 24.3827C71.0983 24.4709 71.0227 24.5716 71.0227 24.6094C71.0227 24.6472 70.859 24.9117 70.6575 25.2139C70.1411 25.9696 69.1587 27.9092 69.0706 28.35C69.0202 28.5515 68.932 28.7404 68.869 28.7782C68.8061 28.8286 68.7557 28.9671 68.7557 29.093C68.7557 29.2316 68.6675 29.5968 68.5542 29.9243C68.4282 30.2895 68.3527 30.9696 68.3527 31.7253C68.3401 33.0855 68.5668 33.7278 69.2217 34.1938C69.7003 34.5338 71.4383 34.5464 71.9043 34.219C72.068 34.1056 72.3073 34.0049 72.4333 34.0049C72.5592 34.0049 72.66 33.9671 72.66 33.9041C72.66 33.8537 72.9245 33.6648 73.2645 33.4759C73.869 33.1233 73.995 33.0225 75.5063 31.7001C76.2998 31.0074 76.6524 30.617 77.7607 29.282C77.9245 29.0679 78.126 28.8412 78.2015 28.753C78.2645 28.6648 78.3275 28.5641 78.3275 28.5263C78.3275 28.4255 78.8816 27.6573 78.995 27.6069C79.0454 27.5817 79.0831 27.481 79.0831 27.3928C79.0831 27.292 79.1587 27.1409 79.2469 27.0527C79.335 26.9646 79.5491 26.6245 79.7129 26.2971C80.0655 25.5792 80.5441 25.3147 81.5139 25.3147C82.3073 25.3147 82.4711 25.491 82.1688 26.0704C82.068 26.2719 81.9799 26.486 81.9799 26.5616C81.9799 26.6245 81.9169 26.8386 81.8287 27.0401C81.4257 27.9973 80.9849 29.7857 80.8338 30.9822C80.6449 32.6195 80.8842 33.5389 81.6524 34.1434C82.3325 34.6724 84.0328 34.4961 84.8262 33.816C84.9144 33.7404 85.1663 33.5515 85.4056 33.3752C85.6323 33.1988 86.2494 32.6447 86.7658 32.1535C87.2821 31.6497 87.7481 31.2341 87.7985 31.2341C87.9119 31.2341 87.9119 31.2341 87.9497 32.3802C87.9874 33.3248 88.3023 33.9671 88.8564 34.2694C89.398 34.5464 90.6323 34.4961 91.3376 34.1434C91.9043 33.8663 93.6046 32.6321 93.8816 32.292C93.9572 32.2165 94.1461 32.1031 94.3099 32.0527C94.5869 31.9646 94.5995 31.9898 94.524 32.3802C94.4358 32.884 94.7255 33.9167 95.0277 34.2316C95.2041 34.3953 95.4685 34.4457 96.199 34.4331C97.0932 34.4331 97.2066 34.3953 98.0378 33.8915C99.3099 33.1107 100.317 32.2165 101.816 30.5918C102.811 29.5087 103.164 29.093 103.403 28.7152C103.516 28.5389 103.743 28.2618 103.894 28.0855C104.045 27.9092 104.36 27.481 104.6 27.1409C104.826 26.7883 105.116 26.3852 105.229 26.2215C105.431 25.9444 105.431 25.9444 104.977 25.9444C104.549 25.9444 104.474 26.02 103.655 27.1031C102.584 28.5515 102.118 29.1056 101.312 29.9117C99.8514 31.3726 99.0202 31.8008 98.592 31.2845C98.3401 30.9822 98.5794 30.4658 100.532 27.2165C101.501 25.5918 102.395 24.093 102.496 23.8915C102.61 23.69 102.761 23.4381 102.824 23.3248C103.265 22.5943 103.605 22.0653 103.743 21.8512C103.819 21.7127 103.957 21.4608 104.033 21.2845C104.096 21.1207 104.196 20.9444 104.247 20.9066C104.297 20.8689 104.474 20.5792 104.65 20.2391C104.814 19.9117 105.003 19.6472 105.053 19.6472C105.116 19.6472 105.154 19.5842 105.154 19.5087C105.154 19.4205 105.33 19.0804 105.532 18.7404C105.746 18.4129 105.909 18.0603 105.909 17.9721C105.909 17.8588 105.532 17.8336 104.385 17.8462C102.937 17.884 102.836 17.8966 102.559 18.1988C102.395 18.3752 102.219 18.5137 102.169 18.5137C102.118 18.5137 101.879 18.3122 101.64 18.0729C101.073 17.4809 100.456 17.3298 99.4484 17.5061C99.0202 17.5943 98.6172 17.6951 98.5416 17.758C98.4786 17.8084 98.2771 17.8966 98.1134 17.9469C97.9371 17.9973 97.7481 18.0855 97.6726 18.1485C97.597 18.2114 97.1688 18.5263 96.7406 18.8412C96.2998 19.156 95.6826 19.6472 95.3552 19.9369C94.7255 20.5288 92.5466 23.0099 92.2066 23.5263C92.0932 23.7152 91.9421 23.9293 91.8665 24.0049C91.8036 24.0804 91.665 24.2568 91.5769 24.3827C91.4887 24.5213 91.2242 24.8991 90.9723 25.2517C90.7204 25.5918 90.2544 26.2719 89.9396 26.7631C89.6121 27.2417 89.3224 27.6699 89.2847 27.7077C89.2343 27.7454 89.0706 27.9973 88.9068 28.2744C88.7431 28.5515 88.5668 28.8034 88.529 28.8412C88.4912 28.8789 88.1889 29.2442 87.8741 29.6598C86.4383 31.5364 85.3552 32.0779 84.7507 31.2341C84.5365 30.9318 84.4862 30.7177 84.5365 30.3147C84.6247 29.4709 84.8892 28.287 85.0151 28.1611C85.0781 28.0855 85.1285 27.9218 85.1285 27.7958C85.1285 27.6699 85.2041 27.3802 85.3048 27.1661C85.393 26.9394 85.5693 26.5112 85.6952 26.1963C86.1235 25.1132 86.8917 23.5515 86.9925 23.5515C87.131 23.5515 90.1411 21.36 90.733 20.8185C90.8716 20.6925 91.325 20.3147 91.7406 19.9621C92.7104 19.156 97.3703 14.5338 98.0756 13.69C98.6172 13.0225 99.0328 12.5313 99.524 11.9646C99.6751 11.7883 100.078 11.2971 100.406 10.8563L101.01 10.0754H100.569C100.191 10.0754 100.066 10.1636 99.461 10.9192C99.0957 11.3978 98.7431 11.8386 98.6675 11.9142C98.6046 11.9898 98.1512 12.5061 97.6726 13.0477C96.5643 14.3071 93.0504 17.821 91.8036 18.9167C91.2872 19.3827 90.6575 19.9243 90.4182 20.1384C90.1789 20.3525 89.9396 20.5288 89.8892 20.5288C89.8388 20.5288 89.7255 20.6044 89.6247 20.7051C89.2721 21.0578 88.4912 21.5364 88.2771 21.5364C88.1008 21.5364 88.063 21.4608 88.1134 21.2467C88.1512 21.0956 88.2519 20.8815 88.3275 20.7807C88.4156 20.6799 88.6046 20.3399 88.7557 20.025C88.9194 19.7102 89.0957 19.3701 89.1587 19.2694C89.2217 19.1686 89.7381 18.287 90.3048 17.3172C90.8842 16.3474 91.3879 15.5288 91.4509 15.5162C91.5013 15.491 91.5517 15.4281 91.5517 15.3651C91.5517 15.2769 91.9421 14.6472 92.5844 13.6774C92.7733 13.4003 93.6927 12.1157 94.4736 11.02C96.6902 7.90916 100.519 3.84115 102.547 2.41798C103.302 1.88901 103.957 1.6875 104.222 1.9016C104.499 2.1283 104.322 3.02251 103.806 4.13082C103.567 4.6472 103.403 5.088 103.441 5.12579C103.529 5.21395 104.398 4.91168 104.398 4.78574C104.398 4.72276 104.461 4.52125 104.549 4.31974C105.003 3.21143 105.141 2.63208 105.154 1.9142V1.12075L104.574 0.881453C103.907 0.59178 103.819 0.59178 102.887 0.868858ZM80.8086 18.8789C81.2494 19.2442 81.5265 20.2265 81.3627 20.7933C81.2872 21.0452 81.2242 21.3474 81.2242 21.4608C81.2242 21.9016 80.1159 24.1686 79.801 24.3575C79.3602 24.6346 77.8615 23.5263 77.4459 22.5943C76.9673 21.5741 77.2318 20.6422 78.2897 19.622C79.2469 18.69 80.2418 18.4003 80.8086 18.8789ZM101.212 18.9671C101.791 19.1182 101.69 19.5716 100.708 21.1963C100.204 22.0401 99.7507 22.821 99.7003 22.9218C99.6499 23.0225 99.5114 23.2618 99.3854 23.4507C99.2721 23.6396 98.7557 24.4835 98.2393 25.3399C97.7229 26.1963 97.2695 26.9142 97.2192 26.952C97.1814 26.9898 97.0051 27.2417 96.8413 27.5187C96.6776 27.7958 96.4761 28.0855 96.4005 28.1736C96.1738 28.4507 96.0227 28.6396 95.6826 29.156C94.8514 30.3903 93.5794 31.486 92.9622 31.486C92.4459 31.486 92.0051 30.957 92.0932 30.4155C92.2695 29.3323 92.7104 28.3122 93.8187 26.3852C95.9471 22.6951 99.4358 18.8789 100.683 18.8915C100.821 18.8915 101.06 18.9293 101.212 18.9671ZM77.0051 23.6522C77.4837 24.1686 78.0504 24.622 78.4408 24.8109C79.0706 25.1132 79.4106 25.617 79.1209 25.8059C79.0454 25.8437 78.8565 26.1207 78.6927 26.4104C77.1814 29.0175 74.6499 31.486 73.4786 31.486C73.3149 31.486 72.9748 31.2845 72.7104 31.0452L72.2444 30.6044L72.3073 29.7102C72.3451 29.219 72.4459 28.753 72.5214 28.6774C72.597 28.6019 72.66 28.4507 72.66 28.3374C72.66 28.0477 73.7935 25.8437 74.4232 24.9117C74.7255 24.4709 75.1663 23.816 75.4056 23.4507C75.6449 23.0981 75.9219 22.7958 76.0353 22.7958C76.136 22.7958 76.5643 23.1862 77.0051 23.6522Z" fill="#ACB5BD"/>
<path d="M111.388 1.98977C110.292 2.88398 109.045 3.76559 108.554 3.99229C108.453 4.03008 108.34 4.10564 108.302 4.15602C108.176 4.30715 105.519 5.54141 105.305 5.54141C105.242 5.54141 105.015 5.62957 104.826 5.73033C104.625 5.83108 104.322 5.91925 104.133 5.91925C103.957 5.91925 103.756 5.98222 103.693 6.04519C103.542 6.19632 101.69 6.42302 100.544 6.42302C99.7758 6.42302 99.7758 6.42302 99.1586 7.09053C98.0126 8.32479 97.471 8.96711 97.471 9.06786C97.471 9.39532 101.136 9.25678 102.509 8.86635C103.932 8.46333 106.287 7.35501 107.232 6.64972C108.642 5.60438 110.254 4.09305 111.199 2.94695C111.69 2.35501 112.358 1.37265 112.307 1.32227C112.282 1.29708 111.866 1.59935 111.388 1.98977ZM22.8488 8.90413C22.6473 8.92932 22.3702 9.04267 22.2317 9.14343C22.0931 9.24418 21.9042 9.31975 21.8161 9.31975C21.6649 9.31975 20.4181 10.025 20.2669 10.2014C20.2292 10.2391 19.9647 10.4281 19.675 10.617C19.146 10.9822 17.3576 12.6951 16.4256 13.7278C15.1536 15.1384 13.806 17.1661 13.0503 18.7782C12.1561 20.7051 12.0176 21.2593 12.0176 22.9847C12.0176 24.5465 12.1183 24.9243 12.7103 25.4155C13.0881 25.7303 13.9067 26.0704 14.272 26.0704C15.1788 26.0578 16.942 25.2014 18.1889 24.1812C19.0957 23.4381 21.6272 20.7681 22.0931 20.088C22.3702 19.6724 22.6347 19.3072 22.6977 19.2946C22.7481 19.2694 22.7858 19.2064 22.7858 19.1434C22.7858 19.0427 23.5541 17.821 23.7934 17.5439C23.8564 17.4558 23.9193 17.355 23.9193 17.3172C23.9193 17.2669 24.0705 17.0402 24.2468 16.8135C24.4987 16.4734 24.6876 16.3726 25.1536 16.2971C25.4811 16.2467 25.8463 16.1585 25.9722 16.0956C26.136 16.02 26.2115 16.0326 26.2619 16.1837C26.3375 16.3852 26.1486 16.8512 25.607 17.758C25.4685 17.9973 25.2292 18.5137 25.0654 18.8915C24.9143 19.2694 24.738 19.6976 24.675 19.8361C24.4105 20.3903 24.2594 21.2845 24.209 22.4558C24.1586 23.5011 24.1964 23.7782 24.3979 24.219C24.7506 24.9747 25.4181 25.617 25.9848 25.7681C26.1738 25.8059 26.3501 25.8941 26.3879 25.957C26.5012 26.1585 27.9874 26.0704 28.7178 25.8311C29.3853 25.6044 30.607 25.025 30.8967 24.7983C30.9722 24.748 31.5264 24.3197 32.1435 23.8663C32.7481 23.4129 33.4911 22.8084 33.7934 22.5061C34.4609 21.8638 34.8387 21.6245 34.9395 21.7883C34.9773 21.8512 34.9395 22.0402 34.8639 22.1913C34.7632 22.3676 34.7002 23.0225 34.7002 23.816C34.6876 25.3903 34.7758 25.554 35.7833 25.8941C36.3123 26.0704 36.4886 26.0704 36.9924 25.9444C38.2392 25.6044 39.1712 25.0628 40.2544 24.0427C40.544 23.7782 40.8337 23.5515 40.8967 23.5515C41.0478 23.5515 41.1738 23.9923 41.1738 24.5968C41.1738 25.2391 41.4634 25.6422 42.1057 25.8815C42.6095 26.0704 42.6977 26.0704 43.2644 25.8815C43.9319 25.6674 44.675 25.3399 44.8765 25.1762C44.9521 25.1132 45.3551 24.8109 45.7707 24.4835C46.879 23.6397 48.9571 21.4482 50.3803 19.6472C51.073 18.7782 51.6901 18.0099 51.7531 17.9218C51.9546 17.6825 51.9042 17.6321 51.4634 17.6321C51.073 17.6321 50.9345 17.758 50.0151 18.8538C48.7682 20.3777 46.8035 22.3046 46.2241 22.5817C45.141 23.1107 44.7128 22.4684 45.3929 21.3475C45.5692 21.0704 45.7707 20.7051 45.8463 20.5288C45.9093 20.3651 46.0226 20.1888 46.073 20.151C46.1234 20.1132 46.3123 19.8487 46.476 19.559C46.6397 19.282 47.068 18.5641 47.408 17.9973C47.7607 17.418 48.1007 16.8512 48.1637 16.7253C48.2392 16.5993 49.2594 14.8865 50.4559 12.9218C51.6397 10.9444 52.5843 9.30716 52.534 9.26937C52.4962 9.23159 51.8035 9.19381 50.9974 9.19381C49.8513 9.19381 49.4861 9.23159 49.3602 9.38272C49.0705 9.73537 48.7808 9.72277 48.3652 9.33234C47.7607 8.76559 46.6398 8.67743 45.6448 9.13083C45.4433 9.23159 45.1788 9.33235 45.078 9.37013C44.146 9.72277 41.476 12.0402 40.204 13.6019C40.0151 13.8412 39.7254 14.1812 39.5617 14.3575C39.3979 14.5339 38.743 15.3525 38.1133 16.1837C36.3249 18.5515 35.4307 19.6094 34.0201 21.0452C31.2997 23.8034 29.5743 24.4205 28.4156 23.0603C28.1259 22.7203 28.0755 22.5313 28.0755 21.9268C28.0755 21.2719 28.3778 20.025 28.6926 19.3323C28.7682 19.1938 28.9571 18.7656 29.1334 18.3878C29.4861 17.6321 29.9899 16.6875 30.2418 16.3349C30.3299 16.2089 30.5188 15.9192 30.6574 15.68C31.0604 14.9999 31.6272 14.2064 32.1057 13.6774C33.4911 12.1283 35.2166 10.5792 35.5692 10.5792C35.6574 10.5792 35.7581 10.5036 35.7959 10.4155C35.8211 10.3273 36.0856 10.2643 36.476 10.2643C37.005 10.2643 37.1561 10.3147 37.3828 10.5792C37.8866 11.1963 37.6221 11.7379 36.7279 11.889C35.5692 12.1031 34.5365 13.9923 35.204 14.6598C35.7204 15.1762 36.7531 14.7228 37.4332 13.69C38.1259 12.6195 38.2896 12.2039 38.3652 11.2467C38.4533 10.2266 38.2518 9.74796 37.4962 9.19381C37.1309 8.91673 36.9546 8.89154 35.9471 8.89154C35.141 8.90413 34.7002 8.96711 34.4357 9.10564C34.2342 9.21899 34.0201 9.31975 33.9697 9.31975C33.869 9.31975 32.5843 10.0754 32.4836 10.2014C32.4458 10.2391 32.1057 10.5162 31.7279 10.8185C31.3501 11.1082 30.5314 11.8135 29.9143 12.3802C28.3274 13.8412 28.0251 14.1056 27.9244 14.1056C27.874 14.1056 27.7607 14.1938 27.6599 14.282C27.3576 14.5842 25.8463 15.3651 25.5566 15.3651C25.2544 15.3651 25.078 15.0376 25.2921 14.8235C25.3677 14.748 25.4307 14.6094 25.4307 14.5087C25.4307 14.4079 25.5062 14.156 25.607 13.9419C26.1989 12.5565 26.3501 10.7681 25.9345 9.94947C25.5566 9.2064 25.0528 8.91673 24.0579 8.87894C23.6045 8.85375 23.0629 8.86635 22.8488 8.90413ZM24.612 10.3021C25.0151 10.5918 25.2292 11.1711 25.2166 11.9394C25.2166 12.3802 25.141 12.8084 25.0654 12.884C24.9899 12.9595 24.9269 13.1233 24.9269 13.2618C24.9269 13.4885 24.5617 14.3953 24.2342 14.9873C23.7556 15.8437 21.942 15.1132 21.1863 13.7656C20.9974 13.4255 20.9722 12.6447 21.1486 12.5313C21.2241 12.4936 21.2745 12.3424 21.2745 12.2165C21.2745 11.9142 22.6725 10.491 23.1637 10.2895C23.4408 10.1888 24.4609 10.1888 24.612 10.3021ZM48.1007 10.4533C48.4659 10.8185 48.4785 10.7933 47.5088 12.4054C47.4206 12.5439 47.2947 12.8084 47.2065 12.9973C47.1309 13.1988 47.0302 13.35 46.9672 13.35C46.9168 13.35 46.8413 13.4507 46.7909 13.5641C46.7531 13.69 46.602 13.9545 46.4634 14.1686C46.3249 14.3701 46.1486 14.6976 46.073 14.8865C45.9974 15.088 45.8841 15.2391 45.8211 15.2391C45.7581 15.2391 45.7078 15.3147 45.7078 15.4029C45.7078 15.5036 45.544 15.8185 45.3299 16.0956C45.1284 16.3852 44.9521 16.6749 44.9521 16.7379C44.9521 16.8009 44.8765 16.9394 44.7884 17.0276C44.7002 17.1157 44.3602 17.6447 44.0201 18.1862C43.6926 18.7404 43.2267 19.4457 42.9874 19.7606C42.7481 20.0754 42.4332 20.5036 42.2821 20.7177C42.1309 20.9192 41.5894 21.5112 41.0856 22.0024C40.267 22.821 40.1032 22.9218 39.6876 22.9218C39.4357 22.9218 39.1586 22.8714 39.0831 22.821C38.7934 22.6321 38.6297 22.1409 38.7178 21.7001C38.806 21.2467 38.8312 21.1585 39.1964 20.4281C39.3098 20.1888 39.4105 19.9495 39.4105 19.8739C39.4105 19.7983 39.6624 19.3197 39.9773 18.8034C40.2921 18.2996 40.544 17.8462 40.544 17.821C40.544 17.7203 41.3501 16.5616 42.2947 15.3021C45.4559 11.0578 47.2317 9.58423 48.1007 10.4533ZM20.4936 14.5968C20.7707 15.0376 21.8413 15.8689 22.1435 15.8689C22.345 15.8689 23.2896 16.3852 23.2896 16.486C23.2896 16.6119 22.8866 17.4306 22.7858 17.5061C22.7481 17.5439 22.5717 17.7958 22.408 18.0729C22.2443 18.35 22.0554 18.6271 22.005 18.7026C21.9546 18.7656 21.6523 19.1686 21.3501 19.5842C20.5692 20.6422 18.8186 22.292 18.0881 22.6447C17.3576 23.0099 16.9546 22.947 16.4634 22.3802C15.8337 21.6875 15.9974 20.5792 17.0428 18.3878C17.5969 17.2165 19.3601 14.4457 19.7002 14.2064C19.9647 14.0049 20.2166 14.1308 20.4936 14.5968ZM55.4181 9.50867C55.2921 9.64721 55.1536 9.84872 55.1032 9.94947C55.0654 10.0502 54.7758 10.5288 54.4735 11.02C54.1586 11.4986 53.9571 11.952 54.0075 12.0024C54.0579 12.0527 54.7254 12.0779 55.4685 12.0653L56.8413 12.0276L57.3828 11.2341C57.6851 10.7933 57.9244 10.4155 57.9244 10.3903C57.9244 10.3651 58.0629 10.1258 58.2392 9.87391C58.4156 9.62202 58.5163 9.37013 58.4911 9.31975C58.4534 9.25678 57.7984 9.21899 57.0302 9.23159C55.8211 9.24418 55.6196 9.28197 55.4181 9.50867Z" fill="#ACB5BD"/>
</svg>
