<svg width="172" height="34" viewBox="0 0 172 34" fill="none" xmlns="http://www.w3.org/2000/svg">
<path d="M88.4396 16.5134C87.0211 16.5134 85.9987 16.9785 84.9618 17.4524V28.1751C85.9549 28.2697 86.5242 28.2697 87.4664 28.2697C90.871 28.2697 91.3377 26.7105 91.3377 24.5336V19.4123C91.3377 17.8046 90.8042 16.5134 88.4396 16.5134ZM65.8286 15.9282C63.4664 15.9282 62.9273 17.225 62.9273 18.8311V19.7335H68.7267V18.8311C68.7267 17.225 68.1877 15.9282 65.8286 15.9282ZM22.0266 27.089C22.0266 28.3596 22.6261 29.0195 23.9492 29.0195C25.3684 29.0195 26.2088 28.5568 27.2448 28.0813V25.5378H24.1416C22.6722 25.5378 22.0266 25.8113 22.0266 27.089ZM110.434 16.5134C108.068 16.5134 107.248 17.8046 107.248 19.4123V25.2794C107.248 26.891 108.068 28.1862 110.434 28.1862C112.794 28.1862 113.62 26.891 113.62 25.2794V19.4123C113.62 17.8046 112.793 16.5134 110.434 16.5134ZM10.4309 33.6676H3.47537V16.8322H0V11.0312H3.47617V7.54708C3.47617 2.81385 5.43768 0 11.0129 0H15.6547V5.80263H12.7534C10.5828 5.80263 10.4396 6.61363 10.4396 8.1267L10.4309 11.0304H15.6865L15.0719 16.8314H10.4309V33.6676ZM34.202 33.7114H28.4049L28.1544 32.2452C25.5076 33.7114 23.1453 33.9491 21.5869 33.9491C17.3355 33.9491 15.0727 31.109 15.0727 27.1812C15.0727 22.5474 17.7132 20.8936 22.4369 20.8936H27.2448V19.8918C27.2448 17.5264 26.9737 16.8322 23.3361 16.8322H17.3888L17.97 11.0312H24.4707C32.4519 11.0312 34.202 13.5525 34.202 19.9387V33.7114ZM53.9148 17.2576C50.3075 16.639 49.2715 16.5031 47.5358 16.5031C44.4182 16.5031 43.476 17.1908 43.476 19.8385V24.8468C43.476 27.4945 44.4182 28.1854 47.5358 28.1854C49.2715 28.1854 50.3075 28.0471 53.9148 27.4261V33.0848C50.7551 33.7933 48.6966 33.9793 46.9569 33.9793C39.4894 33.9793 36.5213 30.0523 36.5213 24.3793V20.3156C36.5213 14.6378 39.4894 10.7036 46.9569 10.7036C48.6966 10.7036 50.7551 10.8905 53.9148 11.6021V17.2576ZM75.6814 24.3793H62.9265V24.8468C62.9265 27.4945 63.8695 28.1854 66.9863 28.1854C69.7882 28.1854 71.4984 28.0471 75.0994 27.4261V33.0848C71.6264 33.7933 69.8168 33.9793 66.4098 33.9793C58.9415 33.9793 55.9718 30.0523 55.9718 24.3793V19.7328C55.9718 14.769 58.175 10.7036 65.8278 10.7036C73.4806 10.7036 75.6814 14.722 75.6814 19.7328V24.3793ZM98.2917 24.4866C98.2917 29.9696 96.7245 33.969 87.2311 33.969C83.8026 33.969 81.7918 33.6677 78.0079 33.0856V1.74286L84.961 0.582809V11.5464C86.4638 10.9883 88.4086 10.7044 90.1785 10.7044C97.1324 10.7044 98.2909 13.822 98.2909 18.8319V24.4866H98.2917ZM120.581 24.6059C120.581 29.336 118.628 33.9237 110.457 33.9237C102.283 33.9237 100.294 29.336 100.294 24.6059V20.0389C100.294 15.3064 102.283 10.7179 110.457 10.7179C118.628 10.7179 120.581 15.3064 120.581 20.0389V24.6059ZM142.855 24.6059C142.855 29.336 140.899 33.9237 132.731 33.9237C124.556 33.9237 122.567 29.336 122.567 24.6059V20.0389C122.567 15.3064 124.556 10.7179 132.731 10.7179C140.899 10.7179 142.855 15.3064 142.855 20.0389V24.6059ZM165.713 33.6676H158.176L151.802 23.0268V33.6676H144.846V1.74206L151.802 0.582012V21.1345L158.176 11.0312H165.713L158.754 22.0568L165.713 33.6676ZM132.707 16.5134C130.344 16.5134 129.525 17.8046 129.525 19.4123V25.2794C129.525 26.891 130.344 28.1862 132.707 28.1862C135.066 28.1862 135.901 26.891 135.901 25.2794V19.4123C135.901 17.8046 135.066 16.5134 132.707 16.5134ZM169.683 29.6969C170.854 29.6969 171.787 30.6518 171.787 31.8445C171.787 33.0554 170.853 34 169.674 34C168.5 34 167.549 33.0554 167.549 31.8445C167.549 30.6518 168.5 29.6969 169.674 29.6969H169.683ZM169.674 30.0309C168.73 30.0309 167.958 30.8427 167.958 31.8445C167.958 32.8646 168.731 33.6661 169.683 33.6661C170.635 33.6756 171.396 32.8646 171.396 31.854C171.396 30.8435 170.635 30.0309 169.683 30.0309H169.674ZM169.274 33.0944H168.892V30.698C169.093 30.6701 169.284 30.6423 169.57 30.6423C169.932 30.6423 170.169 30.7186 170.315 30.8228C170.456 30.9285 170.531 31.0899 170.531 31.3181C170.531 31.6346 170.323 31.8246 170.066 31.9017V31.92C170.275 31.959 170.417 32.1482 170.466 32.5004C170.522 32.8733 170.58 33.0157 170.617 33.0936H170.217C170.161 33.0157 170.103 32.797 170.055 32.4814C169.999 32.1768 169.845 32.0623 169.54 32.0623H169.275V33.0944H169.274ZM169.274 31.7682H169.551C169.864 31.7682 170.13 31.6529 170.13 31.3563C170.13 31.1464 169.979 30.9373 169.551 30.9373C169.426 30.9373 169.339 30.9468 169.274 30.9556V31.7682Z" fill="#ACB5BD"/>
</svg>
