<svg width="311" height="103" viewBox="0 0 311 103" fill="none" xmlns="http://www.w3.org/2000/svg">
<path d="M108.425 3.50633L106.18 10.7363H104.965L103.385 5.79633C103.342 5.67633 103.302 5.52966 103.265 5.35633C103.245 5.43966 103.225 5.51799 103.205 5.59133C103.185 5.66466 103.163 5.73299 103.14 5.79633L101.545 10.7363H100.325L98.085 3.50633H99.21C99.3267 3.50633 99.4233 3.53466 99.5 3.59133C99.58 3.64466 99.6333 3.71799 99.66 3.81133L100.89 8.13633C100.917 8.24299 100.942 8.35966 100.965 8.48633C100.992 8.60966 101.018 8.73966 101.045 8.87633C101.072 8.73633 101.1 8.60466 101.13 8.48133C101.163 8.35799 101.198 8.24299 101.235 8.13633L102.655 3.81133C102.682 3.73466 102.733 3.66466 102.81 3.60133C102.89 3.53799 102.987 3.50633 103.1 3.50633H103.495C103.612 3.50633 103.707 3.53466 103.78 3.59133C103.853 3.64799 103.908 3.72133 103.945 3.81133L105.36 8.13633C105.43 8.34299 105.493 8.58133 105.55 8.85133C105.593 8.58799 105.642 8.34966 105.695 8.13633L106.925 3.81133C106.945 3.72799 106.995 3.65633 107.075 3.59633C107.158 3.53633 107.257 3.50633 107.37 3.50633H108.425ZM111.463 4.57633V6.58133H113.993V7.61633H111.463V9.66133H114.673V10.7363H110.113V3.50633H114.673V4.57633H111.463ZM123.384 8.00633L122.504 5.60133C122.461 5.49466 122.416 5.36799 122.369 5.22133C122.323 5.07466 122.276 4.91633 122.229 4.74633C122.186 4.91633 122.141 5.07633 122.094 5.22633C122.048 5.37299 122.003 5.50133 121.959 5.61133L121.084 8.00633H123.384ZM125.759 10.7363H124.719C124.603 10.7363 124.508 10.708 124.434 10.6513C124.361 10.5913 124.306 10.518 124.269 10.4313L123.729 8.95633H120.734L120.194 10.4313C120.168 10.508 120.116 10.578 120.039 10.6413C119.963 10.7047 119.868 10.7363 119.754 10.7363H118.704L121.549 3.50633H122.919L125.759 10.7363ZM129.493 6.94633C129.746 6.94633 129.966 6.91466 130.153 6.85133C130.343 6.78799 130.498 6.70133 130.618 6.59133C130.741 6.47799 130.833 6.34466 130.893 6.19133C130.953 6.03799 130.983 5.86966 130.983 5.68633C130.983 5.31966 130.861 5.03799 130.618 4.84133C130.378 4.64466 130.009 4.54633 129.513 4.54633H128.653V6.94633H129.493ZM132.953 10.7363H131.738C131.508 10.7363 131.341 10.6463 131.238 10.4663L129.718 8.15133C129.661 8.06466 129.598 8.00299 129.528 7.96633C129.461 7.92966 129.361 7.91133 129.228 7.91133H128.653V10.7363H127.308V3.50633H129.513C130.003 3.50633 130.423 3.55799 130.773 3.66133C131.126 3.76133 131.414 3.90299 131.638 4.08633C131.864 4.26966 132.031 4.48966 132.138 4.74633C132.244 4.99966 132.298 5.27966 132.298 5.58633C132.298 5.82966 132.261 6.05966 132.188 6.27633C132.118 6.49299 132.014 6.68966 131.878 6.86633C131.744 7.04299 131.578 7.19799 131.378 7.33133C131.181 7.46466 130.956 7.56966 130.703 7.64633C130.789 7.69633 130.869 7.75633 130.943 7.82633C131.016 7.89299 131.083 7.97299 131.143 8.06633L132.953 10.7363ZM135.884 4.57633V6.58133H138.414V7.61633H135.884V9.66133H139.094V10.7363H134.534V3.50633H139.094V4.57633H135.884ZM149.064 4.61133H146.884V10.7363H145.539V4.61133H143.359V3.50633H149.064V4.61133ZM152.995 6.94633C153.249 6.94633 153.469 6.91466 153.655 6.85133C153.845 6.78799 154 6.70133 154.12 6.59133C154.244 6.47799 154.335 6.34466 154.395 6.19133C154.455 6.03799 154.485 5.86966 154.485 5.68633C154.485 5.31966 154.364 5.03799 154.12 4.84133C153.88 4.64466 153.512 4.54633 153.015 4.54633H152.155V6.94633H152.995ZM156.455 10.7363H155.24C155.01 10.7363 154.844 10.6463 154.74 10.4663L153.22 8.15133C153.164 8.06466 153.1 8.00299 153.03 7.96633C152.964 7.92966 152.864 7.91133 152.73 7.91133H152.155V10.7363H150.81V3.50633H153.015C153.505 3.50633 153.925 3.55799 154.275 3.66133C154.629 3.76133 154.917 3.90299 155.14 4.08633C155.367 4.26966 155.534 4.48966 155.64 4.74633C155.747 4.99966 155.8 5.27966 155.8 5.58633C155.8 5.82966 155.764 6.05966 155.69 6.27633C155.62 6.49299 155.517 6.68966 155.38 6.86633C155.247 7.04299 155.08 7.19799 154.88 7.33133C154.684 7.46466 154.459 7.56966 154.205 7.64633C154.292 7.69633 154.372 7.75633 154.445 7.82633C154.519 7.89299 154.585 7.97299 154.645 8.06633L156.455 10.7363ZM160.888 9.65133C161.148 9.65133 161.379 9.60799 161.583 9.52133C161.789 9.43466 161.963 9.31299 162.103 9.15633C162.243 8.99966 162.349 8.80966 162.423 8.58633C162.499 8.36299 162.538 8.11299 162.538 7.83633V3.50633H163.883V7.83633C163.883 8.26633 163.813 8.66466 163.673 9.03133C163.536 9.39466 163.338 9.70966 163.078 9.97633C162.821 10.2397 162.508 10.4463 162.138 10.5963C161.768 10.743 161.351 10.8163 160.888 10.8163C160.421 10.8163 160.003 10.743 159.633 10.5963C159.263 10.4463 158.948 10.2397 158.688 9.97633C158.431 9.70966 158.233 9.39466 158.093 9.03133C157.956 8.66466 157.888 8.26633 157.888 7.83633V3.50633H159.233V7.83133C159.233 8.10799 159.269 8.35799 159.343 8.58133C159.419 8.80466 159.528 8.99633 159.668 9.15633C159.811 9.31299 159.984 9.43466 160.188 9.52133C160.394 9.60799 160.628 9.65133 160.888 9.65133ZM170.05 4.82133C170.01 4.89133 169.966 4.94299 169.92 4.97633C169.876 5.00633 169.821 5.02133 169.755 5.02133C169.685 5.02133 169.608 4.99633 169.525 4.94633C169.445 4.89299 169.348 4.83466 169.235 4.77133C169.121 4.70799 168.988 4.65133 168.835 4.60133C168.685 4.54799 168.506 4.52133 168.3 4.52133C168.113 4.52133 167.95 4.54466 167.81 4.59133C167.67 4.63466 167.551 4.69633 167.455 4.77633C167.361 4.85633 167.291 4.95299 167.245 5.06633C167.198 5.17633 167.175 5.29799 167.175 5.43133C167.175 5.60133 167.221 5.74299 167.315 5.85633C167.411 5.96966 167.538 6.06633 167.695 6.14633C167.851 6.22633 168.03 6.29799 168.23 6.36133C168.43 6.42466 168.635 6.49299 168.845 6.56633C169.055 6.63633 169.26 6.71966 169.46 6.81633C169.66 6.90966 169.838 7.02966 169.995 7.17633C170.151 7.31966 170.276 7.49633 170.37 7.70633C170.466 7.91633 170.515 8.17133 170.515 8.47133C170.515 8.79799 170.458 9.10466 170.345 9.39133C170.235 9.67466 170.071 9.92299 169.855 10.1363C169.641 10.3463 169.38 10.513 169.07 10.6363C168.76 10.7563 168.405 10.8163 168.005 10.8163C167.775 10.8163 167.548 10.793 167.325 10.7463C167.101 10.703 166.886 10.6397 166.68 10.5563C166.476 10.473 166.285 10.373 166.105 10.2563C165.925 10.1397 165.765 10.0097 165.625 9.86633L166.02 9.22133C166.053 9.17466 166.096 9.13633 166.15 9.10633C166.203 9.07299 166.26 9.05633 166.32 9.05633C166.403 9.05633 166.493 9.09133 166.59 9.16133C166.686 9.22799 166.801 9.30299 166.935 9.38633C167.068 9.46966 167.223 9.54633 167.4 9.61633C167.58 9.68299 167.795 9.71633 168.045 9.71633C168.428 9.71633 168.725 9.62633 168.935 9.44633C169.145 9.26299 169.25 9.00133 169.25 8.66133C169.25 8.47133 169.201 8.31633 169.105 8.19633C169.011 8.07633 168.886 7.97633 168.73 7.89633C168.573 7.81299 168.395 7.74299 168.195 7.68633C167.995 7.62966 167.791 7.56799 167.585 7.50133C167.378 7.43466 167.175 7.35466 166.975 7.26133C166.775 7.16799 166.596 7.04633 166.44 6.89633C166.283 6.74633 166.156 6.55966 166.06 6.33633C165.966 6.10966 165.92 5.83133 165.92 5.50133C165.92 5.23799 165.971 4.98133 166.075 4.73133C166.181 4.48133 166.335 4.25966 166.535 4.06633C166.735 3.87299 166.981 3.71799 167.275 3.60133C167.568 3.48466 167.905 3.42633 168.285 3.42633C168.711 3.42633 169.105 3.49299 169.465 3.62633C169.825 3.75966 170.131 3.94633 170.385 4.18633L170.05 4.82133ZM177.538 4.61133H175.358V10.7363H174.013V4.61133H171.833V3.50633H177.538V4.61133ZM180.634 4.57633V6.58133H183.164V7.61633H180.634V9.66133H183.844V10.7363H179.284V3.50633H183.844V4.57633H180.634ZM192.256 7.12133C192.256 7.65133 192.168 8.13799 191.991 8.58133C191.814 9.02466 191.566 9.40633 191.246 9.72633C190.926 10.0463 190.541 10.2947 190.091 10.4713C189.641 10.648 189.141 10.7363 188.591 10.7363H185.836V3.50633H188.591C189.141 3.50633 189.641 3.59633 190.091 3.77633C190.541 3.95299 190.926 4.20133 191.246 4.52133C191.566 4.83799 191.814 5.21799 191.991 5.66133C192.168 6.10466 192.256 6.59133 192.256 7.12133ZM190.876 7.12133C190.876 6.72466 190.823 6.36966 190.716 6.05633C190.613 5.73966 190.461 5.47299 190.261 5.25633C190.064 5.03633 189.824 4.86799 189.541 4.75133C189.261 4.63466 188.944 4.57633 188.591 4.57633H187.186V9.66633H188.591C188.944 9.66633 189.261 9.60799 189.541 9.49133C189.824 9.37466 190.064 9.20799 190.261 8.99133C190.461 8.77133 190.613 8.50466 190.716 8.19133C190.823 7.87466 190.876 7.51799 190.876 7.12133ZM200.18 9.68633C200.43 9.68633 200.64 9.65633 200.81 9.59633C200.98 9.53633 201.115 9.45633 201.215 9.35633C201.318 9.25633 201.392 9.13966 201.435 9.00633C201.482 8.87299 201.505 8.73133 201.505 8.58133C201.505 8.42466 201.48 8.28466 201.43 8.16133C201.38 8.03466 201.302 7.92799 201.195 7.84133C201.088 7.75133 200.95 7.68299 200.78 7.63633C200.613 7.58966 200.412 7.56633 200.175 7.56633H198.82V9.68633H200.18ZM198.82 4.54633V6.63633H199.89C200.35 6.63633 200.697 6.55299 200.93 6.38633C201.167 6.21966 201.285 5.95466 201.285 5.59133C201.285 5.21466 201.178 4.94633 200.965 4.78633C200.752 4.62633 200.418 4.54633 199.965 4.54633H198.82ZM199.965 3.50633C200.438 3.50633 200.843 3.55133 201.18 3.64133C201.517 3.73133 201.792 3.85966 202.005 4.02633C202.222 4.19299 202.38 4.39466 202.48 4.63133C202.58 4.86799 202.63 5.13466 202.63 5.43133C202.63 5.60133 202.605 5.76466 202.555 5.92133C202.505 6.07466 202.427 6.21966 202.32 6.35633C202.217 6.48966 202.083 6.61133 201.92 6.72133C201.76 6.83133 201.568 6.92466 201.345 7.00133C202.338 7.22466 202.835 7.76133 202.835 8.61133C202.835 8.91799 202.777 9.20133 202.66 9.46133C202.543 9.72133 202.373 9.94633 202.15 10.1363C201.927 10.323 201.652 10.4697 201.325 10.5763C200.998 10.683 200.625 10.7363 200.205 10.7363H197.475V3.50633H199.965ZM207.708 7.93633V10.7363H206.368V7.93633L203.733 3.50633H204.918C205.035 3.50633 205.126 3.53466 205.193 3.59133C205.263 3.64799 205.321 3.71966 205.368 3.80633L206.688 6.22133C206.765 6.36466 206.831 6.49966 206.888 6.62633C206.948 6.75299 207.001 6.87966 207.048 7.00633C207.091 6.87966 207.141 6.75299 207.198 6.62633C207.255 6.49966 207.32 6.36466 207.393 6.22133L208.708 3.80633C208.745 3.73299 208.8 3.66466 208.873 3.60133C208.946 3.53799 209.04 3.50633 209.153 3.50633H210.343L207.708 7.93633ZM211.202 10.0563C211.202 9.95299 211.221 9.85466 211.257 9.76133C211.297 9.66799 211.351 9.58799 211.417 9.52133C211.484 9.45466 211.564 9.40133 211.657 9.36133C211.751 9.32133 211.851 9.30133 211.957 9.30133C212.064 9.30133 212.162 9.32133 212.252 9.36133C212.346 9.40133 212.426 9.45466 212.492 9.52133C212.562 9.58799 212.617 9.66799 212.657 9.76133C212.697 9.85466 212.717 9.95299 212.717 10.0563C212.717 10.163 212.697 10.263 212.657 10.3563C212.617 10.4463 212.562 10.5247 212.492 10.5913C212.426 10.658 212.346 10.7097 212.252 10.7463C212.162 10.7863 212.064 10.8063 211.957 10.8063C211.851 10.8063 211.751 10.7863 211.657 10.7463C211.564 10.7097 211.484 10.658 211.417 10.5913C211.351 10.5247 211.297 10.4463 211.257 10.3563C211.221 10.263 211.202 10.163 211.202 10.0563ZM211.202 6.49133C211.202 6.38799 211.221 6.28966 211.257 6.19633C211.297 6.10299 211.351 6.02299 211.417 5.95633C211.484 5.88966 211.564 5.83633 211.657 5.79633C211.751 5.75633 211.851 5.73633 211.957 5.73633C212.064 5.73633 212.162 5.75633 212.252 5.79633C212.346 5.83633 212.426 5.88966 212.492 5.95633C212.562 6.02299 212.617 6.10299 212.657 6.19633C212.697 6.28966 212.717 6.38799 212.717 6.49133C212.717 6.59799 212.697 6.69799 212.657 6.79133C212.617 6.88133 212.562 6.95966 212.492 7.02633C212.426 7.09299 212.346 7.14633 212.252 7.18633C212.162 7.22299 212.064 7.24133 211.957 7.24133C211.851 7.24133 211.751 7.22299 211.657 7.18633C211.564 7.14633 211.484 7.09299 211.417 7.02633C211.351 6.95966 211.297 6.88133 211.257 6.79133C211.221 6.69799 211.202 6.59799 211.202 6.49133Z" fill="#ACB5BD"/>
<path d="M12.145 53.0257C18.8522 53.0257 24.29 47.5882 24.29 40.881C24.29 34.1738 18.8525 28.7363 12.145 28.7363C5.43751 28.7363 0 34.1738 0 40.881C0 47.5882 5.43751 53.0257 12.145 53.0257Z" fill="#ACB5BD"/>
<path d="M15.1022 45.1551H12.5872V35.6494H11.6545V46.093H12.5872V46.0869H15.1022V45.1551Z" fill="#FCFDFF"/>
<path d="M21.3798 41.2705H15.117V40.3377H22.2972C22.3067 40.5181 22.3113 40.6987 22.3113 40.8815C22.3113 46.4966 17.7594 51.0481 12.1447 51.0481C6.52991 51.0481 1.97803 46.4966 1.97803 40.8815C1.97803 35.2664 6.52991 30.7148 12.145 30.7148C12.293 30.7148 12.4407 30.7179 12.5875 30.7244L12.5863 31.65C12.4393 31.6432 12.2921 31.6399 12.145 31.6399C7.04104 31.6399 2.90305 35.7775 2.90305 40.8815C2.90305 45.9857 7.04073 50.1231 12.145 50.1231C17.1098 50.1231 21.1601 46.2082 21.3774 41.2966L21.3798 41.2705Z" fill="#FCFDFF"/>
<path d="M8.35263 38.4637C8.73152 38.4637 9.0949 38.3132 9.36281 38.0452C9.63073 37.7773 9.78125 37.414 9.78125 37.0351C9.78125 36.6562 9.63073 36.2928 9.36281 36.0249C9.0949 35.757 8.73152 35.6064 8.35263 35.6064C7.97373 35.6064 7.61036 35.757 7.34244 36.0249C7.07453 36.2928 6.92401 36.6562 6.92401 37.0351C6.92401 37.414 7.07453 37.7773 7.34244 38.0452C7.61036 38.3132 7.97373 38.4637 8.35263 38.4637Z" fill="#FCFDFF"/>
<path d="M30.3204 46.8428H38.9986V44.2219H33.5066V34.8368H30.3204V46.8428ZM49.4837 35.6822C48.4889 34.9113 47.2078 34.5205 45.679 34.5205C43.8638 34.5205 42.347 35.0781 41.2924 36.1318C40.1917 37.2331 39.6088 38.8554 39.6088 40.8233C39.6088 42.9257 40.2249 44.6998 41.3435 45.8174C42.2217 46.6954 43.3917 47.1585 44.7306 47.1585C47.6697 47.1585 48.3458 45.3968 48.3458 45.3968V46.8422H50.9999V40.0617H45.7166V42.1835H48.1482C48.1482 42.1835 48.1716 44.8549 45.6618 44.8549C45.0242 44.8549 44.4561 44.6235 44.0192 44.1865C43.3382 43.5061 42.9781 42.3595 42.9781 40.8732C42.9781 38.4114 43.9567 36.9417 45.595 36.9417C46.6185 36.9417 47.3878 37.5701 47.5851 38.5225H50.9651C50.79 37.1386 50.4103 36.4173 49.4837 35.6822Z" fill="#ACB5BD"/>
<path d="M230.935 30.7538C229.784 29.4419 227.704 28.8794 225.042 28.8794H217.317C217.054 28.8793 216.799 28.9732 216.598 29.1442C216.398 29.3153 216.265 29.5522 216.224 29.8125L213.009 50.2135C212.994 50.3082 213 50.4049 213.026 50.4971C213.052 50.5893 213.098 50.6747 213.16 50.7475C213.222 50.8203 213.3 50.8788 213.387 50.9188C213.474 50.9589 213.568 50.9796 213.664 50.9795H218.433L219.631 43.3825L219.594 43.6204C219.634 43.3607 219.766 43.1239 219.966 42.9529C220.165 42.7818 220.419 42.6876 220.682 42.6873H222.948C227.401 42.6873 230.887 40.879 231.905 35.6479C231.935 35.4932 231.961 35.3426 231.984 35.1955C232.286 33.262 231.982 31.946 230.936 30.7545" fill="#ACB5BD"/>
<path d="M289.319 40.4617C289.027 42.3759 287.566 42.3759 286.152 42.3759H285.347L285.912 38.8019C285.946 38.586 286.132 38.4272 286.351 38.4272H286.72C287.682 38.4272 288.591 38.4272 289.06 38.9752C289.34 39.3031 289.425 39.7899 289.319 40.4617ZM288.703 35.4671H283.371C283.194 35.4672 283.023 35.5303 282.889 35.6449C282.755 35.7596 282.665 35.9184 282.638 36.0928L280.483 49.7667C280.473 49.83 280.477 49.8948 280.494 49.9566C280.512 50.0183 280.542 50.0755 280.584 50.1243C280.626 50.1731 280.677 50.2123 280.736 50.2392C280.794 50.2662 280.857 50.2802 280.921 50.2803H283.658C283.913 50.2803 284.13 50.0946 284.17 49.843L284.782 45.965C284.839 45.6054 285.149 45.3394 285.514 45.3394H287.201C290.715 45.3394 292.742 43.6404 293.271 40.2705C293.51 38.7978 293.281 37.6399 292.591 36.8292C291.833 35.9381 290.488 35.4665 288.704 35.4665" fill="#ACB5BD"/>
<path d="M251.282 40.4611C250.991 42.3753 249.529 42.3753 248.115 42.3753H247.31L247.875 38.8013C247.909 38.5854 248.095 38.4266 248.313 38.4266H248.682C249.645 38.4266 250.554 38.4266 251.023 38.9746C251.303 39.3025 251.388 39.7893 251.282 40.4611ZM250.667 35.4665H245.334C244.97 35.4665 244.659 35.732 244.602 36.0922L242.446 49.7661C242.436 49.8295 242.44 49.8943 242.457 49.9561C242.475 50.0179 242.505 50.0752 242.547 50.124C242.589 50.1728 242.641 50.212 242.699 50.2389C242.757 50.2657 242.821 50.2797 242.885 50.2797H245.432C245.796 50.2797 246.106 50.0143 246.163 49.654L246.746 45.9651C246.802 45.6049 247.113 45.3394 247.477 45.3394H249.164C252.678 45.3394 254.705 43.6398 255.234 40.27C255.473 38.7972 255.244 37.6393 254.554 36.8286C253.796 35.9375 252.452 35.4659 250.667 35.4659L250.667 35.4665ZM263.048 45.3704C262.8 46.8294 261.643 47.8092 260.166 47.8092C259.425 47.8092 258.832 47.5706 258.451 47.1196C258.073 46.6727 257.931 46.0353 258.051 45.3264C258.28 43.8797 259.457 42.869 260.912 42.869C261.638 42.869 262.226 43.1096 262.615 43.5648C263.006 44.0234 263.16 44.6642 263.048 45.3704ZM266.607 40.3992H264.053C263.947 40.3991 263.844 40.4369 263.764 40.5059C263.683 40.5749 263.63 40.6704 263.613 40.7753L263.502 41.489L263.323 41.2305C262.77 40.4281 261.537 40.1593 260.307 40.1593C257.485 40.1593 255.076 42.2976 254.607 45.2954C254.363 46.7923 254.709 48.2218 255.558 49.2194C256.337 50.136 257.448 50.5176 258.773 50.5176C261.048 50.5176 262.309 49.0572 262.309 49.0572L262.195 49.7667C262.185 49.8302 262.188 49.8951 262.206 49.9569C262.223 50.0188 262.254 50.0761 262.296 50.1249C262.338 50.1738 262.39 50.2129 262.448 50.2398C262.506 50.2666 262.57 50.2805 262.634 50.2804H264.933C265.298 50.2804 265.608 50.0156 265.666 49.6547L267.046 40.9135C267.056 40.85 267.052 40.7851 267.035 40.7233C267.017 40.6614 266.986 40.6041 266.945 40.5553C266.903 40.5065 266.851 40.4673 266.792 40.4405C266.734 40.4137 266.67 40.3998 266.606 40.3999" fill="#ACB5BD"/>
<path d="M301.085 45.3704C300.837 46.8294 299.68 47.8092 298.202 47.8092C297.462 47.8092 296.868 47.5706 296.487 47.1196C296.109 46.6727 295.968 46.0353 296.087 45.3264C296.317 43.8797 297.493 42.869 298.949 42.869C299.674 42.869 300.262 43.1096 300.651 43.5648C301.043 44.0234 301.197 44.6642 301.085 45.3704ZM304.644 40.3992H302.09C301.984 40.3991 301.881 40.4369 301.8 40.5059C301.72 40.5749 301.666 40.6704 301.65 40.7753L301.538 41.489L301.36 41.2305C300.807 40.4281 299.574 40.1593 298.343 40.1593C295.523 40.1593 293.113 42.2976 292.643 45.2954C292.399 46.7923 292.746 48.2218 293.595 49.2194C294.374 50.136 295.486 50.5176 296.811 50.5176C299.086 50.5176 300.347 49.0572 300.347 49.0572L300.233 49.7667C300.222 49.8301 300.226 49.895 300.243 49.9568C300.261 50.0187 300.291 50.076 300.333 50.1249C300.375 50.1737 300.426 50.213 300.485 50.2398C300.543 50.2667 300.606 50.2805 300.671 50.2804H302.969C303.334 50.2804 303.644 50.0156 303.702 49.6547L305.083 40.9135C305.093 40.85 305.089 40.7851 305.071 40.7233C305.054 40.6614 305.023 40.6041 304.981 40.5553C304.939 40.5065 304.887 40.4673 304.829 40.4405C304.771 40.4137 304.707 40.3998 304.643 40.3999" fill="#ACB5BD"/>
<path d="M280.208 40.4001H277.64C277.395 40.4001 277.166 40.5218 277.028 40.7253L273.487 45.9399L271.986 40.9289C271.94 40.776 271.847 40.642 271.719 40.5466C271.591 40.4513 271.436 40.3997 271.276 40.3994H268.753C268.683 40.3995 268.613 40.4164 268.55 40.4487C268.487 40.4811 268.433 40.528 268.392 40.5856C268.35 40.6431 268.324 40.7096 268.313 40.7796C268.303 40.8496 268.31 40.921 268.333 40.988L271.158 49.2843L268.5 53.035C268.453 53.1016 268.426 53.1798 268.42 53.2611C268.414 53.3424 268.431 53.4236 268.469 53.496C268.506 53.5683 268.563 53.629 268.632 53.6714C268.702 53.7138 268.782 53.7362 268.863 53.7363H271.428C271.67 53.7363 271.898 53.6174 272.036 53.418L280.572 41.098C280.618 41.0314 280.646 40.9534 280.651 40.8724C280.656 40.7914 280.639 40.7106 280.601 40.6387C280.564 40.5668 280.507 40.5065 280.438 40.4645C280.368 40.4224 280.289 40.4001 280.208 40.4001Z" fill="#ACB5BD"/>
<path d="M307.653 35.8426L305.464 49.7667C305.454 49.8301 305.458 49.895 305.475 49.9567C305.493 50.0185 305.523 50.0758 305.565 50.1246C305.607 50.1734 305.659 50.2126 305.717 50.2394C305.775 50.2663 305.839 50.2803 305.903 50.2803H308.104C308.468 50.2803 308.779 50.0149 308.836 49.6546L310.995 35.9801C311.005 35.9166 311.001 35.8517 310.983 35.7899C310.966 35.728 310.935 35.6707 310.893 35.6219C310.852 35.5731 310.8 35.5339 310.741 35.507C310.683 35.4802 310.619 35.4664 310.555 35.4665H308.092C307.986 35.4662 307.884 35.5039 307.803 35.5728C307.722 35.6416 307.669 35.7371 307.653 35.8419" fill="#ACB5BD"/>
<path d="M230.935 30.7538C229.784 29.4419 227.704 28.8794 225.042 28.8794H217.317C217.054 28.8793 216.799 28.9732 216.598 29.1442C216.398 29.3153 216.265 29.5522 216.224 29.8125L213.009 50.2135C212.994 50.3082 213 50.4049 213.026 50.4971C213.052 50.5893 213.098 50.6747 213.16 50.7475C213.222 50.8203 213.3 50.8788 213.387 50.9188C213.474 50.9589 213.568 50.9796 213.664 50.9795H218.433L219.631 43.3825L219.594 43.6204C219.634 43.3607 219.766 43.1239 219.966 42.9529C220.165 42.7818 220.419 42.6876 220.682 42.6873H222.948C227.401 42.6873 230.887 40.879 231.905 35.6479C231.935 35.4932 231.961 35.3426 231.984 35.1955C232.286 33.262 231.982 31.946 230.936 30.7545" fill="#ACB5BD"/>
<path d="M220.917 35.2207C220.954 34.9933 221.069 34.7862 221.245 34.6366C221.42 34.4871 221.642 34.4048 221.872 34.4045H227.929C228.646 34.4045 229.315 34.4513 229.926 34.5489C230.26 34.6027 230.591 34.6766 230.916 34.7703C231.285 34.8741 231.643 35.0166 231.983 35.1952C232.286 33.2611 231.981 31.9457 230.935 30.7535C229.784 29.4423 227.704 28.8798 225.042 28.8798H217.317C217.053 28.88 216.799 28.9741 216.599 29.1451C216.398 29.3161 216.266 29.5529 216.225 29.8129L213.008 50.2119C212.993 50.3065 212.999 50.4033 213.025 50.4955C213.051 50.5877 213.097 50.6732 213.159 50.7461C213.221 50.819 213.298 50.8775 213.385 50.9176C213.472 50.9577 213.567 50.9785 213.663 50.9785H218.432L219.63 43.3808L220.917 35.2207Z" fill="#ACB5BD"/>
<path d="M231.983 35.1945C231.96 35.3458 231.933 35.4966 231.904 35.6469C230.886 40.8773 227.4 42.6863 222.948 42.6863H220.681C220.418 42.6865 220.164 42.7806 219.964 42.9517C219.765 43.1228 219.633 43.3596 219.593 43.6193L218.432 50.9778L218.102 53.0653C218.089 53.1481 218.094 53.2329 218.117 53.3136C218.14 53.3944 218.18 53.4692 218.234 53.533C218.289 53.5968 218.357 53.648 218.433 53.6831C218.509 53.7182 218.592 53.7364 218.676 53.7363H222.696C223.172 53.7363 223.576 53.3898 223.651 52.9202L223.69 52.7153L224.448 47.9132L224.496 47.6478C224.532 47.4203 224.648 47.2131 224.823 47.0634C224.999 46.9138 225.222 46.8316 225.452 46.8317H226.054C229.948 46.8317 232.997 45.2503 233.888 40.6738C234.26 38.7623 234.067 37.1651 233.084 36.0436C232.772 35.696 232.399 35.4082 231.983 35.1945Z" fill="#ACB5BD"/>
<path d="M230.917 34.77C230.761 34.724 230.601 34.6827 230.436 34.6463C230.271 34.6098 230.101 34.5775 229.926 34.55C229.314 34.4503 228.646 34.4036 227.928 34.4036H221.872C221.642 34.4033 221.419 34.4855 221.244 34.6353C221.069 34.7851 220.953 34.9927 220.917 35.2204L219.63 43.3819L219.593 43.6191C219.633 43.3594 219.765 43.1226 219.964 42.9515C220.164 42.7804 220.418 42.6863 220.681 42.6861H222.948C227.4 42.6861 230.886 40.8778 231.904 35.6467C231.934 35.492 231.96 35.3421 231.983 35.1943C231.714 35.0536 231.434 34.9354 231.146 34.8409C231.071 34.8161 230.994 34.7927 230.917 34.7694" fill="#ACB5BD"/>
<path fill-rule="evenodd" clip-rule="evenodd" d="M149.786 48.8936V46.9045H149.887L150.438 46.8659L150.98 46.774L151.515 46.6194L152.026 46.4114L152.514 46.1418L152.972 45.8333L153.398 45.4787L153.777 45.0782L154.118 44.6385L154.405 44.1685L154.645 43.6748L154.832 43.1507L154.955 42.6111L155.025 42.064L155.041 41.5169L154.994 40.9773L154.885 40.4299L154.731 39.9058L154.514 39.3972L154.243 38.9117L153.925 38.4648L153.56 38.0485L153.149 37.6632L152.708 37.3395L152.235 37.0544L151.731 36.8231L151.204 36.6457L150.662 36.53L150.112 36.4608H149.786V34.6418L150.453 34.6648L151.15 34.765L151.84 34.9193L152.507 35.1428L153.142 35.4358L153.754 35.7825L154.328 36.1912L154.855 36.6536L155.335 37.1701L155.769 37.7173L156.134 38.3184L156.444 38.943L156.692 39.5979L156.878 40.2763L156.994 40.9625L157.041 41.656L157.018 42.3577L156.924 43.0515L156.762 43.7295L156.537 44.3926L156.243 45.0324L155.894 45.6336L155.483 46.2038L155.018 46.7354L154.507 47.213L153.949 47.6372L153.352 48.0067L152.716 48.3152L152.057 48.5624L151.375 48.7394L150.686 48.863L149.98 48.9009L149.786 48.8936ZM149.786 46.0953H149.825L150.321 46.0644L150.809 45.98L151.282 45.8488L151.747 45.6563L152.181 45.4167L152.584 45.1316L152.956 44.8086L153.282 44.4384L153.568 44.0373L153.809 43.6059L154.002 43.1431L154.134 42.6731L154.22 42.1876L154.251 41.6939L154.22 41.2008L154.134 40.7229L154.002 40.245L153.809 39.7901L153.568 39.3583L153.282 38.9575L152.956 38.5874L152.584 38.2637L152.181 37.9786L151.747 37.7397L151.282 37.5472L150.809 37.4084L150.321 37.3316L149.825 37.3006L149.786 37.3082V39.1889L150.057 39.1965L150.422 39.266L150.77 39.3817L151.096 39.5511L151.398 39.767L151.661 40.0215L151.887 40.3145L152.073 40.6303L152.197 40.9773L152.274 41.3244L152.305 41.6863L152.274 42.0488L152.197 42.4114L152.073 42.7506L151.887 43.0736L151.661 43.3593L151.398 43.6214L151.096 43.8369L150.77 43.9984L150.422 44.122L150.057 44.184L149.786 44.1916V46.0953ZM160.303 48.8781L159.962 48.77L159.637 48.6155L159.35 48.423L159.094 48.184L158.87 47.8989L158.699 47.5983L158.568 47.2667L158.49 46.9276L158.474 46.5729L158.459 36.8227L158.474 36.414L158.552 36.0132L158.714 35.6355L158.932 35.2888L159.211 34.9882L159.544 34.7492L159.908 34.564L160.303 34.4483V48.8781H160.303ZM161.187 48.8781L161.528 48.7776L161.838 48.6309L162.124 48.4309L162.388 48.1919L162.605 47.9223L162.775 47.6217L162.899 47.298L162.969 46.9589L162.985 46.6042V36.8227L162.969 36.4681L162.899 36.1134L162.775 35.7822L162.605 35.4661L162.396 35.181L162.14 34.9341L161.845 34.7261L161.528 34.5643L161.187 34.4486V48.8781ZM160.241 33.3155L159.9 33.2153L159.575 33.0689L159.272 32.8685L159.017 32.6296L158.792 32.352L158.606 32.0514L158.474 31.7202L158.397 31.381L158.374 31.0264L158.397 30.6717L158.474 30.325L158.606 30.0013L158.792 29.6932L159.017 29.4156L159.272 29.1767L159.575 28.9842L159.9 28.8375L160.241 28.7373V33.3155ZM161.155 33.3155L161.489 33.2073L161.814 33.061L162.101 32.8606L162.364 32.6216L162.589 32.352L162.768 32.0435L162.891 31.7199L162.969 31.3731L163 31.0261L162.969 30.6714L162.891 30.3322L162.768 30.0007L162.589 29.7001L162.364 29.4226L162.101 29.1836L161.814 28.9908L161.489 28.8365L161.155 28.7363V33.3155ZM149.786 34.6414V36.4605H149.554L149.004 36.507L148.461 36.6227L147.926 36.7845L147.423 37.008L146.942 37.2779L146.485 37.6016L146.074 37.9717L145.702 38.3801L145.377 38.827L145.098 39.3049L144.873 39.8063L144.702 40.3303L144.586 40.8699L144.547 41.4556V53.2638L144.152 53.1178L143.787 52.9022L143.462 52.6326L143.183 52.309L142.958 51.9543L142.803 51.5687L142.702 51.1527V41.5943L142.718 41.1856L142.803 40.4994L142.966 39.8135L143.198 39.1507L143.485 38.5188L143.834 37.9094L144.245 37.3392L144.71 36.8151L145.221 36.3372L145.78 35.913L146.384 35.5429L147.019 35.2344L147.67 34.9878L148.353 34.8026L149.05 34.6948L149.748 34.6408H149.786V34.6414ZM149.786 37.3082L149.329 37.3313L148.841 37.4081L148.36 37.5469L147.903 37.7393L147.469 37.9783L147.066 38.2634L146.693 38.5871L146.369 38.9572L146.081 39.358L145.841 39.7898L145.648 40.2446L145.508 40.7225L145.431 41.2005L145.4 41.6935L145.431 42.1873L145.508 42.6728L145.648 43.1428L145.833 43.6055L146.081 44.037L146.369 44.4381L146.693 44.8083L147.066 45.1313L147.469 45.4164L147.903 45.656L148.36 45.8485L148.841 45.9797L149.329 46.064L149.786 46.095V44.1916L149.693 44.1992L149.321 44.1606L148.965 44.0601L148.624 43.9216L148.314 43.7285L148.027 43.4974L147.787 43.2278L147.577 42.9117L147.423 42.5881L147.314 42.2334L147.259 41.8715V41.509L147.314 41.1464L147.423 40.7997L147.577 40.4684L147.787 40.1599L148.027 39.89L148.314 39.651L148.624 39.4661L148.965 39.3194L149.321 39.2271L149.693 39.1886H149.786V37.3082ZM149.786 46.9045L149.329 46.889L148.779 46.8125L148.236 46.6814L147.717 46.4889L147.221 46.2499L146.748 45.9569L146.314 45.6098L145.919 45.2242L145.562 44.8007H145.547L145.562 53.2635L145.927 53.1715L146.268 53.0093L146.57 52.7859L146.826 52.5238L147.042 52.2153L147.19 51.8762L147.29 51.5215L147.314 51.1521V48.9474L147.345 48.8244L147.415 48.7084L147.508 48.6313L147.631 48.5855H147.763L147.902 48.6234L148.577 48.7934L149.282 48.8785L149.786 48.894V46.9045H149.786ZM134.185 48.9164V47.036H134.356L134.891 46.9975L135.426 46.9048L135.944 46.7509L136.448 46.5508L136.921 46.2961L137.378 45.9955L137.789 45.6491L138.169 45.2634L138.51 44.8392L138.796 44.3926L139.044 43.8996L139.23 43.4058L139.37 42.8817L139.447 42.3501L139.478 41.8105L139.447 41.271L139.37 40.7466L139.23 40.2225L139.044 39.7215L138.796 39.236L138.51 38.7891L138.169 38.3573L137.789 37.9796L137.378 37.625L136.921 37.332L136.448 37.0778L135.944 36.8695L135.426 36.7232L134.891 36.623L134.356 36.5844H134.185V34.8804L134.449 34.8728L135.092 34.919L135.728 35.0192L136.348 35.181L136.96 35.389L137.549 35.6589L138.107 35.9747L138.626 36.3448L139.114 36.7611L139.564 37.2235L139.974 37.7169L140.331 38.2489L140.641 38.8115L140.897 39.3972L141.098 40.0063L141.245 40.623L141.331 41.2552L141.362 41.8949L141.331 42.534L141.245 43.1662L141.098 43.7908L140.897 44.3999L140.641 44.9856L140.331 45.5482L139.974 46.0798L139.564 46.5808L139.114 47.036L138.626 47.4447L138.099 47.8221L137.549 48.1382L136.96 48.4002L136.348 48.6158L135.728 48.778L135.092 48.8785L134.449 48.9243L134.185 48.9164ZM134.185 46.1494L134.341 46.157L134.821 46.1184L135.294 46.0258L135.751 45.8798L136.185 45.6873L136.604 45.4556L136.992 45.1705L137.34 44.8468L137.658 44.4849L137.929 44.0917L138.161 43.6751L138.34 43.2361L138.471 42.774L138.549 42.3033L138.58 41.8257L138.549 41.3475L138.471 40.8854L138.34 40.4305L138.161 39.9912L137.929 39.567L137.658 39.1741L137.34 38.8119L136.992 38.4882L136.604 38.2107L136.185 37.9717L135.751 37.7792L135.294 37.6405L134.821 37.5478L134.341 37.5017L134.185 37.5093V39.2974H134.379L134.751 39.359L135.116 39.4671L135.457 39.6289L135.767 39.8448L136.046 40.0993L136.278 40.3923L136.472 40.7159L136.612 41.0624L136.689 41.4325L136.72 41.8026L136.689 42.18L136.612 42.5426L136.472 42.8972L136.278 43.2209L136.046 43.5139L135.767 43.776L135.457 43.9839L135.116 44.1461L134.751 44.2615L134.379 44.3155H134.185V46.1494ZM134.185 34.8804V36.5838L133.813 36.5993L133.271 36.6685L132.752 36.7917L132.233 36.9691L131.752 37.1929L131.287 37.478L130.853 37.8016L130.457 38.1639L130.093 38.5726L129.783 39.0043L129.52 39.4743L129.303 39.9678L129.132 40.4842L129.024 41.0004L128.97 41.5403V42.0798L129.024 42.6115L129.132 43.1431L129.303 43.6524L129.52 44.1454L129.783 44.6154L130.093 45.0551L130.457 45.4632L130.853 45.8257L131.287 46.1494L131.752 46.4269L132.233 46.658L132.752 46.8356L133.271 46.9586L133.813 47.0281L134.185 47.0357V48.9161L133.813 48.9085L133.171 48.832L132.543 48.7084L131.93 48.5235L131.333 48.277L130.76 47.9839L130.226 47.6369L129.714 47.2437L129.241 46.8046L128.815 46.334L128.435 45.8178L128.094 45.2707L127.815 44.7005L127.583 44.0993L127.412 43.4826L127.296 42.8504L127.242 42.2107V41.5792L127.296 40.947L127.412 40.3148L127.583 39.6981L127.815 39.097L128.094 38.5267L128.435 37.9793L128.815 37.4628L129.241 36.9925L129.714 36.5531L130.226 36.1599L130.76 35.8132L131.333 35.5201L131.93 35.2733L132.543 35.0884L133.171 34.9648L133.813 34.888L134.185 34.8804ZM134.185 37.5089L133.868 37.5165L133.387 37.5857L132.93 37.7014L132.481 37.8708L132.047 38.0867L131.652 38.3412L131.279 38.6497L130.954 38.9888L130.652 39.3666L130.403 39.7749L130.202 40.2067L130.039 40.6537L129.939 41.1161L129.884 41.5943V42.0643L129.939 42.5343L130.039 43.005L130.202 43.4595L130.403 43.8916L130.652 44.2921L130.954 44.6698L131.279 45.009L131.652 45.3175L132.047 45.5795L132.473 45.7951L132.922 45.9572L133.387 46.0802L133.868 46.1421L134.185 46.1497V44.3152H134L133.62 44.2611L133.263 44.1458L132.922 43.9836L132.605 43.7756L132.325 43.5136L132.093 43.2206L131.915 42.8969L131.775 42.5423L131.69 42.1797L131.659 41.8023L131.69 41.4322L131.775 41.062L131.915 40.7156L132.093 40.392L132.325 40.0989L132.605 39.8445L132.922 39.6286L133.263 39.4668L133.62 39.3587L134 39.297H134.185V37.5089ZM119.646 39.5511V37.8708H121.832L122.041 37.8939L122.242 37.9631L122.413 38.0864L122.56 38.2331L122.661 38.4104L122.73 38.6108L122.746 38.8112L122.769 48.8851L122.366 48.8317L121.979 48.685L121.638 48.4615L121.351 48.1609L121.142 47.8063L121.018 47.4137L120.987 47.005V40.06L120.979 39.9213L120.925 39.7904L120.84 39.6827L120.723 39.6055L120.591 39.5594L120.452 39.5515H119.646V39.5511ZM119.646 36.8072H121.832L122.165 36.8534L122.483 36.9615L122.785 37.1154L123.048 37.3158L123.273 37.5623L123.451 37.8478L123.583 38.1563L123.653 38.4799L123.668 38.8115V48.9009L124.032 48.8785L124.397 48.7704L124.73 48.5934L125.009 48.3617L125.241 48.0611L125.404 47.7381L125.505 47.3755L125.52 47.0054L125.497 38.8119L125.482 38.357L125.412 37.9094L125.296 37.4701L125.118 37.0462L124.893 36.653L124.622 36.2828L124.312 35.9516L123.963 35.651L123.583 35.4045L123.165 35.2041L122.739 35.0498L122.289 34.9496L121.832 34.9031H119.646V36.8072ZM108.3 48.9009H108.827L109.439 48.7934L110.028 48.601L110.579 48.3228L111.075 47.9609L111.517 47.5288L111.896 47.0357L112.191 46.4961L112.4 45.918L112.524 45.3168L112.555 44.7001L112.493 44.091L112.338 43.4974L112.106 42.9272L111.78 42.4032L111.385 41.9249L110.912 41.5245L110.393 41.1853L109.835 40.9463L106.432 39.5742V41.2239L109.447 42.6036L109.827 42.827L110.16 43.12L110.439 43.4671L110.641 43.8603L110.772 44.2839L110.819 44.716L110.788 45.1626L110.672 45.5792L110.478 45.9803L110.215 46.3343L109.889 46.6349L109.517 46.8739L109.106 47.036L108.665 47.1211H106.432V48.9009H108.3ZM106.432 39.1813H109.742L110.036 39.1662L110.331 39.1045L110.61 39.0043L110.873 38.858L111.114 38.6807L111.323 38.4648L111.501 38.2258L111.641 37.9638L111.741 37.6787L111.796 37.3857H106.432V39.1813ZM119.646 34.9035V36.8072H116.523V30.7564L116.864 30.8412L117.182 30.9799L117.468 31.1724L117.724 31.4114L117.933 31.6813L118.096 31.9895L118.205 32.3131L118.259 32.6599V34.6718L118.297 34.7565L118.352 34.8257L118.421 34.8722L118.507 34.9028H119.646V34.9035ZM119.646 37.8708V39.5511H118.732L118.608 39.5666L118.499 39.6128L118.399 39.6899L118.329 39.7901L118.29 39.8982L118.283 40.0215V47.005L118.213 47.3907L118.066 47.7601L117.856 48.0993L117.585 48.3923L117.267 48.6234L116.911 48.7934L116.523 48.9009V37.8708H119.646ZM106.432 46.3729V44.5924H107.641L107.688 44.5769L107.726 44.5538L107.742 44.508L107.734 44.4539L107.711 44.4154L107.665 44.3999L106.432 43.9144V42.1339L109.152 43.3363L109.416 43.5363L109.641 43.7905L109.803 44.0756L109.904 44.3992L109.943 44.7308L109.904 45.0624L109.811 45.3785L109.649 45.6715L109.424 45.9256L109.152 46.1336L108.858 46.2796L108.532 46.3646L108.199 46.3722H106.432V46.3729ZM106.432 36.6609V34.8573H109.742L110.106 34.8804L110.47 34.9885L110.811 35.1503L111.113 35.3662L111.369 35.6358L111.578 35.9519L111.718 36.2987L111.795 36.6609H106.432ZM115.523 48.9164L115.182 48.8244L114.857 48.6853L114.562 48.5004L114.306 48.2615L114.082 47.9839L113.911 47.6833L113.787 47.3518L113.725 47.0047V33.0073L113.733 32.6912L113.779 32.3827L113.872 32.0821L114.012 31.797L114.19 31.535L114.399 31.3036L114.647 31.1111L114.918 30.9493L115.213 30.8257L115.523 30.7564V48.9164ZM106.432 39.5745L106.076 39.4282L106.045 39.4051L106.006 39.3587V39.2894L106.022 39.2433L106.045 39.2047L106.076 39.1817H106.432V37.3853H104.944L104.665 37.4239L104.394 37.501L104.146 37.6398L103.929 37.8092L103.751 38.0172L103.604 38.2641L103.511 38.5261L103.464 38.8036L103.472 39.0811L103.534 39.3587L103.643 39.6128L103.798 39.8442L103.992 40.0446L104.34 40.2759L106.433 41.2242V39.5745H106.432ZM106.432 47.1207H101.069L101.085 47.3903L101.147 47.6445L101.248 47.891L101.379 48.122L101.55 48.33L101.736 48.5077L101.961 48.6616L102.201 48.7776L102.457 48.8627L102.72 48.9006H106.432V47.1207H106.432ZM106.432 34.8573V36.6609H104.906L104.51 36.7225L104.138 36.8461L103.789 37.031L103.472 37.2779L103.208 37.5706L102.984 37.8942L102.829 38.2644L102.736 38.6421L102.712 39.0429L102.751 39.4361L102.859 39.8138L103.03 40.1685L103.255 40.4922L103.534 40.7776L103.859 41.0011L106.432 42.1342V43.9147L103.247 42.6504L102.867 42.4348L102.526 42.18L102.201 41.8877L101.914 41.5716L101.659 41.2245L101.442 40.8544L101.271 40.4612L101.14 40.0525L101.047 39.6286L101 39.2047V38.773L101.047 38.3412L101.14 37.9249L101.264 37.5162L101.442 37.1233L101.659 36.7456L101.907 36.3989L102.202 36.0752L102.512 35.7901L102.868 35.5281L103.241 35.3125L103.628 35.1352L104.039 34.9964L104.465 34.9038L104.892 34.8576H106.432V34.8573ZM106.432 44.592V46.3725H101.069L101.116 46.1184L101.194 45.8643L101.302 45.6253L101.449 45.4012L101.62 45.2011L101.822 45.0241L102.039 44.8775L102.271 44.7545L102.527 44.6619L102.783 44.6079L103.046 44.5924H106.432V44.592Z" fill="#ACB5BD"/>
<path d="M221.056 89.5123C220.189 89.5123 219.564 89.7966 218.931 90.0863V96.6402C219.538 96.6981 219.886 96.6981 220.462 96.6981C222.542 96.6981 222.828 95.7451 222.828 94.4144V91.2842C222.828 90.3016 222.502 89.5123 221.056 89.5123ZM207.236 89.1546C205.792 89.1546 205.463 89.9473 205.463 90.929V91.4806H209.007V90.929C209.007 89.9473 208.678 89.1546 207.236 89.1546ZM180.463 95.9764C180.463 96.753 180.83 97.1563 181.638 97.1563C182.506 97.1563 183.019 96.8735 183.653 96.5829V95.0282H181.756C180.858 95.0282 180.463 95.1954 180.463 95.9764ZM234.5 89.5123C233.054 89.5123 232.553 90.3016 232.553 91.2842V94.8703C232.553 95.8554 233.054 96.647 234.5 96.647C235.943 96.647 236.447 95.8554 236.447 94.8703V91.2842C236.447 90.3016 235.942 89.5123 234.5 89.5123ZM173.376 99.9974H169.124V89.7072H167V86.1615H169.125V84.0319C169.125 81.1388 170.324 79.4189 173.731 79.4189H176.569V82.9656H174.795C173.468 82.9656 173.381 83.4614 173.381 84.3862L173.376 86.161H176.588L176.212 89.7067H173.376V99.9974ZM187.905 100.024H184.362L184.209 99.128C182.591 100.024 181.147 100.169 180.194 100.169C177.596 100.169 176.213 98.4335 176.213 96.0328C176.213 93.2004 177.827 92.1896 180.714 92.1896H183.653V91.5773C183.653 90.1315 183.487 89.7072 181.264 89.7072H177.628L177.984 86.1615H181.957C186.835 86.1615 187.905 87.7025 187.905 91.6059V100.024ZM199.954 89.9672C197.749 89.5891 197.116 89.506 196.055 89.506C194.149 89.506 193.574 89.9264 193.574 91.5447V94.6059C193.574 96.2242 194.149 96.6466 196.055 96.6466C197.116 96.6466 197.749 96.562 199.954 96.1824V99.6412C198.023 100.074 196.765 100.188 195.701 100.188C191.137 100.188 189.323 97.7876 189.323 94.3202V91.8363C189.323 88.3659 191.137 85.9612 195.701 85.9612C196.765 85.9612 198.023 86.0755 199.954 86.5104V89.9672ZM213.258 94.3202H205.462V94.6059C205.462 96.2242 206.039 96.6466 207.944 96.6466C209.656 96.6466 210.702 96.562 212.903 96.1824V99.6412C210.78 100.074 209.674 100.188 207.591 100.188C203.026 100.188 201.211 97.7876 201.211 94.3202V91.4801C201.211 88.4461 202.558 85.9612 207.235 85.9612C211.913 85.9612 213.258 88.4174 213.258 91.4801V94.3202ZM227.078 94.3858C227.078 97.7371 226.12 100.182 220.318 100.182C218.222 100.182 216.993 99.9974 214.68 99.6417V80.4842L218.93 79.7752V86.4764C219.849 86.1352 221.037 85.9617 222.119 85.9617C226.37 85.9617 227.078 87.8673 227.078 90.9294V94.3858H227.078ZM240.702 94.4587C240.702 97.3498 239.508 100.154 234.514 100.154C229.518 100.154 228.302 97.3498 228.302 94.4587V91.6672C228.302 88.7746 229.518 85.97 234.514 85.97C239.508 85.97 240.702 88.7746 240.702 91.6672V94.4587ZM254.316 94.4587C254.316 97.3498 253.121 100.154 248.128 100.154C243.132 100.154 241.916 97.3498 241.916 94.4587V91.6672C241.916 88.7746 243.132 85.97 248.128 85.97C253.121 85.97 254.316 88.7746 254.316 91.6672V94.4587ZM268.288 99.9974H263.681L259.785 93.4935V99.9974H255.533V80.4837L259.785 79.7747V92.3369L263.681 86.1615H268.288L264.034 92.9006L268.288 99.9974ZM248.113 89.5123C246.67 89.5123 246.169 90.3016 246.169 91.2842V94.8703C246.169 95.8554 246.67 96.647 248.113 96.647C249.555 96.647 250.066 95.8554 250.066 94.8703V91.2842C250.066 90.3016 249.555 89.5123 248.113 89.5123ZM270.714 97.5704C271.43 97.5704 272 98.1541 272 98.883C272 99.6232 271.429 100.201 270.709 100.201C269.991 100.201 269.41 99.6232 269.41 98.883C269.41 98.1541 269.991 97.5704 270.709 97.5704H270.714ZM270.709 97.7745C270.132 97.7745 269.66 98.2707 269.66 98.883C269.66 99.5066 270.132 99.9964 270.714 99.9964C271.296 100.002 271.761 99.5066 271.761 98.8889C271.761 98.2712 271.296 97.7745 270.714 97.7745H270.709ZM270.464 99.647H270.231V98.1823C270.353 98.1652 270.47 98.1482 270.645 98.1482C270.867 98.1482 271.012 98.1949 271.1 98.2586C271.186 98.3232 271.233 98.4218 271.233 98.5613C271.233 98.7547 271.105 98.8709 270.948 98.918V98.9292C271.076 98.953 271.163 99.0687 271.193 99.284C271.227 99.5119 271.262 99.5989 271.285 99.6465H271.041C271.006 99.5989 270.971 99.4653 270.942 99.2723C270.908 99.0862 270.813 99.0162 270.627 99.0162H270.465V99.647H270.464ZM270.464 98.8364H270.633C270.825 98.8364 270.988 98.7659 270.988 98.5847C270.988 98.4564 270.895 98.3285 270.633 98.3285C270.557 98.3285 270.504 98.3344 270.464 98.3397V98.8364Z" fill="#ACB5BD"/>
<path d="M54.0377 77.8588C54.0377 78.0075 53.9065 78.0512 53.2505 78.1299C52.9881 78.1649 52.7344 78.2262 52.682 78.2611C52.6382 78.2961 52.4808 78.3486 52.3321 78.3836C52.0609 78.4448 51.9472 78.4886 50.9326 78.9784C49.6555 79.5819 47.6437 80.9465 46.5241 81.9698C45.4045 82.9845 43.6726 84.7864 43.2703 85.3637C43.1566 85.5211 42.9991 85.731 42.9116 85.8185C42.8242 85.9147 42.6492 86.1509 42.518 86.3433C42.3868 86.5445 42.2556 86.7194 42.2294 86.7457C42.1944 86.7719 42.0807 86.9468 41.967 87.1393C41.8533 87.3317 41.7308 87.5067 41.7046 87.5329C41.5996 87.6116 41.2147 88.3201 40.6987 89.3698C40.4275 89.9208 40.1738 90.4456 40.1214 90.5243C40.0776 90.6118 40.0426 90.7255 40.0426 90.7868C40.0426 90.848 39.9902 91.0054 39.9202 91.1366C39.8502 91.2678 39.7715 91.4953 39.7365 91.6527C39.7015 91.8189 39.6403 92.0026 39.5966 92.0813C39.2729 92.6848 38.8356 96.5422 39.063 96.8309C39.1067 96.8921 39.1767 97.1633 39.2117 97.4432C39.2379 97.7231 39.3254 98.0555 39.3954 98.1867C39.4566 98.3179 39.5178 98.4753 39.5178 98.5453C39.5178 98.7727 40.3225 99.8661 40.8124 100.303C41.3459 100.776 42.3518 101.318 42.8417 101.406C43.0079 101.441 43.1915 101.493 43.2353 101.537C43.3927 101.65 45.387 101.712 46.2092 101.624C47.1889 101.51 48.3785 101.318 48.5009 101.239C48.5447 101.213 48.7983 101.143 49.0607 101.099C49.3231 101.047 49.7867 100.942 50.1016 100.863C50.4165 100.793 50.8888 100.671 51.1687 100.61C51.4399 100.548 51.6936 100.478 51.746 100.452C51.7898 100.417 52.0347 100.356 52.2971 100.312C52.5595 100.26 53.0668 100.155 53.4255 100.085C53.7841 100.006 54.3176 99.9011 54.6063 99.8573C54.8949 99.8136 55.306 99.7349 55.5247 99.6824C56.0933 99.5424 59.0585 99.4725 59.592 99.5862C59.837 99.6387 60.2131 99.7261 60.4405 99.7699C60.6679 99.8223 60.9216 99.8923 61.009 99.9448C61.0965 99.9885 61.3764 100.12 61.6301 100.225C61.875 100.338 62.0849 100.461 62.0849 100.496C62.0849 100.54 62.1287 100.566 62.1811 100.566C62.3561 100.566 63.0471 101.178 63.3707 101.624L63.6856 102.044L64.2192 101.563C65.2426 100.636 66.2047 100.391 68.1903 100.566C68.7851 100.61 69.3449 100.697 69.4323 100.741C69.5198 100.793 69.686 100.828 69.7997 100.828C69.9134 100.828 70.1146 100.889 70.2546 100.959C70.3858 101.029 70.5694 101.091 70.6482 101.091C70.7269 101.091 71.068 101.231 71.3917 101.397C71.724 101.563 72.0302 101.703 72.0652 101.703C72.2926 101.703 72.0477 101.467 71.208 100.828C70.6832 100.443 70.2283 100.102 70.1758 100.059C70.1321 100.024 69.9309 99.8923 69.7385 99.7786C69.5461 99.6649 69.3711 99.5424 69.3449 99.5074C69.2924 99.4375 67.7617 98.6415 67.6742 98.6415C67.6392 98.6415 67.4993 98.5978 67.3593 98.5365C66.957 98.3703 66.3709 98.2042 65.6712 98.0555C64.8315 97.8805 61.8837 97.8018 61.2102 97.9417C60.9478 97.9942 60.4143 98.073 60.0294 98.1167C59.0497 98.2304 57.4665 98.5365 56.137 98.8689C55.8221 98.9389 55.3498 99.0526 55.0874 99.1051C54.825 99.1663 54.5713 99.2363 54.5188 99.2625C54.4751 99.2975 54.2564 99.35 54.0377 99.3762C53.8191 99.4112 53.5654 99.4725 53.4692 99.5162C53.373 99.5599 53.1018 99.6387 52.8569 99.6824C52.1834 99.8136 51.5711 99.9535 51.2825 100.041C50.8801 100.163 49.4543 100.391 48.0461 100.557C47.4251 100.627 47.0489 100.627 46.2617 100.522C45.7107 100.443 45.2208 100.356 45.1683 100.312C45.1159 100.277 44.9584 100.216 44.8185 100.181C44.2849 100.05 43.279 99.2625 42.9904 98.7465C42.7979 98.4141 42.518 97.8105 42.4043 97.5044C42.2556 97.0845 42.1944 95.2914 42.2994 94.7491C42.5355 93.647 42.588 93.4283 42.6667 93.1834C42.7105 93.0347 42.8329 92.6411 42.9379 92.3175C43.0428 91.9938 43.1653 91.7052 43.2003 91.6789C43.244 91.6527 43.279 91.574 43.279 91.4953C43.279 91.4165 43.419 91.0667 43.5852 90.7168C43.7513 90.3669 43.8913 90.0433 43.8913 89.9995C43.8913 89.947 43.9175 89.8946 43.9613 89.8771C43.9963 89.8596 44.1187 89.6497 44.2324 89.4135C44.4948 88.8712 45.2208 87.6816 45.7369 86.9206C46.2705 86.1421 46.5504 85.7485 46.6028 85.696C46.6291 85.6698 46.8653 85.3724 47.1277 85.04C47.8012 84.1741 48.0548 83.8854 49.4893 82.4597C50.8451 81.0952 51.195 80.789 51.921 80.2904C53.3205 79.3283 54.1252 78.9784 55.0961 78.8997C55.5685 78.8647 55.6034 78.8734 55.9096 79.1796C56.102 79.372 56.2245 79.5732 56.2245 79.7044C56.2245 79.9843 55.9358 80.2729 55.6559 80.2729C55.411 80.2729 54.86 80.5966 54.6413 80.859C54.3789 81.1826 54.2127 81.6112 54.2127 81.9873C54.2127 82.3197 54.2477 82.3809 54.5101 82.5471L54.8162 82.7308L55.1573 82.5559C56.2157 82.0136 57.0467 80.2992 56.758 79.2583C56.6268 78.7597 56.1195 78.1912 55.7434 78.1212C55.5597 78.0862 55.4198 78.0075 55.3935 77.9025C55.341 77.7626 55.2448 77.7363 54.685 77.7363C54.1777 77.7363 54.0377 77.7626 54.0377 77.8588ZM91.2997 78.1387C91.1335 78.1649 90.8711 78.2349 90.7136 78.3049C90.5649 78.3749 90.3813 78.4361 90.3025 78.4361C90.2238 78.4361 90.0926 78.4711 90.0051 78.5236C89.9264 78.5673 89.664 78.6897 89.4191 78.786C88.1945 79.302 86.1915 80.5091 85.0806 81.41C83.9435 82.3372 83.5586 82.6783 82.6402 83.5968C81.2844 84.9525 80.6372 85.7048 79.64 87.0518C79.1764 87.6728 78.7653 88.2239 78.7216 88.2764C78.6866 88.3201 78.5554 88.5213 78.4417 88.7137C78.328 88.9062 78.2055 89.0811 78.1793 89.1073C78.0481 89.2123 77.0422 90.9879 76.6223 91.8626C76.3687 92.3874 76.115 92.8948 76.0713 92.9735C76.0275 93.061 75.9925 93.1747 75.9925 93.2271C75.9925 93.2796 75.9401 93.4458 75.8701 93.5945C75.3365 94.8016 75.0829 96.2886 75.1441 97.8105C75.1966 98.8514 75.2403 99.0614 75.6602 99.936C75.8701 100.382 76.4386 101.003 76.8235 101.204C77.6195 101.624 77.7594 101.659 78.8178 101.65C79.3776 101.642 79.8937 101.598 79.9549 101.545C80.0074 101.502 80.1998 101.432 80.366 101.397C80.6284 101.336 81.4244 100.986 82.1154 100.601C82.6927 100.286 83.9872 99.1576 84.652 98.3791C84.9144 98.0642 85.1768 97.7668 85.2381 97.6968C85.6492 97.2595 86.6201 95.5976 87.0137 94.6616C87.1186 94.4167 87.2324 94.1456 87.2761 94.0494C87.3198 93.9531 87.3811 93.7345 87.416 93.5683C87.4423 93.4021 87.5123 93.2097 87.5647 93.1484C87.6172 93.0872 87.6522 92.5536 87.661 91.9239C87.6697 90.7518 87.626 90.6031 87.1711 90.1395C86.9087 89.8683 86.3052 89.7721 85.6404 89.8946C85.3168 89.947 85.0106 90.0258 84.9582 90.0608C84.9144 90.1045 84.7745 90.1657 84.6608 90.2007C84.2934 90.3144 83.3137 91.0317 82.7627 91.5915C82.1679 92.195 81.888 92.6061 81.4419 93.5245C81.2757 93.8569 81.1008 94.2068 81.057 94.2855C81.0133 94.373 80.9783 94.5042 80.9783 94.5829C80.9783 94.6529 80.9258 94.8016 80.8733 94.9066C80.6984 95.204 80.331 96.7084 80.401 96.7872C80.4272 96.8046 80.7684 96.5422 81.1707 96.2011C81.5731 95.86 81.9405 95.5801 82.0017 95.5801C82.0542 95.5801 82.1154 95.5451 82.1329 95.5101C82.1679 95.4226 82.9901 94.9241 83.2175 94.8453C83.3312 94.8103 83.4362 94.6179 83.5499 94.2505C84.1097 92.3699 85.3255 90.8567 86.2702 90.8567C87.1186 90.8567 87.3548 91.5127 87.0224 92.9997C86.97 93.2359 86.8825 93.4721 86.8387 93.5158C86.7863 93.5683 86.7513 93.682 86.7513 93.7695C86.7513 93.8569 86.6988 94.0406 86.6288 94.1631C86.5588 94.2943 86.4101 94.5917 86.2964 94.8366C86.0953 95.2827 85.6229 96.1136 85.5267 96.1924C85.5005 96.2186 85.2818 96.4898 85.0456 96.8046C84.0835 98.073 82.6665 99.3587 81.748 99.7699C81.2057 100.015 80.5147 100.085 79.8849 99.9535C79.4563 99.8661 79.3076 99.7786 78.9753 99.4375C78.4329 98.8864 78.2405 98.2479 78.293 97.2332C78.328 96.4285 78.5029 95.4139 78.6254 95.2827C78.6691 95.2302 78.7041 95.099 78.7041 94.9765C78.7041 94.8453 78.7653 94.6354 78.8353 94.4955C78.9053 94.3643 78.9665 94.1806 78.9665 94.1018C78.9665 94.0231 79.0277 93.8482 79.0977 93.7082C79.1677 93.577 79.2289 93.4196 79.2289 93.3758C79.2289 93.026 80.6809 90.2619 81.6081 88.8537C81.6956 88.7312 81.8093 88.5388 81.8617 88.4251C81.923 88.3201 81.9929 88.2326 82.0279 88.2326C82.0629 88.2326 82.1154 88.1627 82.1416 88.0752C82.1941 87.9265 82.7452 87.1568 83.5674 86.0984C85.3605 83.798 87.8621 81.4188 89.9002 80.0805C90.5387 79.6607 91.7283 79.0484 91.912 79.0484C91.9907 79.0484 92.0869 79.0134 92.1394 78.9609C92.1831 78.9172 92.463 78.8559 92.7429 78.8297C93.6614 78.7422 93.7226 79.0134 92.9091 79.5557C92.673 79.7131 92.4018 79.9143 92.3056 79.993C92.2094 80.0718 91.877 80.3429 91.5621 80.5966C90.4075 81.5063 89.3316 82.7921 88.7193 83.9816C88.1858 85.0225 88.0546 85.4511 88.0371 86.1159C88.0108 87.1218 88.3257 87.4629 89.2704 87.4629C89.734 87.4629 89.9352 87.4192 90.4162 87.1743C91.1685 86.7894 92.498 85.4861 93.154 84.4715C93.8275 83.4481 94.3961 82.3022 94.5011 81.7599C94.5273 81.5937 94.5885 81.41 94.6323 81.3576C94.676 81.3138 94.7285 80.8677 94.7547 80.3692C94.7722 79.8793 94.816 79.442 94.8422 79.3982C94.8684 79.3545 95.1046 79.2758 95.3583 79.2146C95.7519 79.1271 95.9443 79.1358 96.5391 79.2583C96.9327 79.337 97.3176 79.4332 97.405 79.477C97.4838 79.512 97.6937 79.6082 97.8599 79.6781C98.0261 79.7569 98.2622 79.8531 98.3847 79.9056C98.6296 80.0193 99.3206 80.3954 99.5218 80.5353C99.5918 80.5791 99.9679 80.824 100.353 81.0777C100.738 81.3226 101.367 81.7337 101.752 81.9786C102.583 82.5122 103.257 82.897 103.379 82.897C103.458 82.897 105.05 81.2876 105.094 81.1651C105.111 81.1301 104.927 81.0164 104.7 80.9027C104.473 80.7978 104.228 80.6753 104.158 80.6316C102.671 79.7131 101.079 78.8559 100.265 78.5236C99.3031 78.1387 99.2506 78.1299 97.5363 78.1299C96.3117 78.1299 95.8306 78.1562 95.7431 78.2349C95.6906 78.2961 95.5682 78.3486 95.4807 78.3486C95.3932 78.3486 95.1046 78.4186 94.8509 78.5148L94.3874 78.681L93.9588 78.4098C93.5564 78.1562 93.4777 78.1387 92.568 78.1212C92.0432 78.1124 91.4659 78.1212 91.2997 78.1387ZM94.1512 79.8793C94.2212 80.1505 94.0375 81.5063 93.9238 81.62C93.8713 81.6724 93.8363 81.7774 93.8363 81.8649C93.8363 82.2672 92.8654 84.0341 92.2444 84.7601C91.5184 85.6173 90.4775 86.5707 90.2588 86.5707C90.2063 86.5707 90.1626 86.6057 90.1626 86.6495C90.1626 86.7194 89.4016 87.0081 89.2092 87.0081C89.1567 87.0081 88.9817 86.8681 88.8068 86.7019C88.3695 86.2558 88.3957 85.9147 88.9992 84.6901C89.3666 83.9204 89.4016 83.8767 89.9964 83.072C90.7486 82.0661 91.9207 80.9202 92.8479 80.2904C93.845 79.6082 94.0637 79.5382 94.1512 79.8793Z" fill="#ACB5BD"/>
<path d="M110.455 78.3395C109.992 78.4795 109.178 78.8556 108.951 79.0393C108.89 79.0918 108.426 79.4329 107.919 79.809C106.773 80.6575 103.808 83.5877 102.714 84.9435C102.531 85.1796 102.277 85.477 102.163 85.5995C101.7 86.0981 100.047 88.3898 99.5655 89.212C99.5217 89.2994 99.2681 89.7018 99.0231 90.1129C98.7695 90.5328 98.5596 90.9001 98.5596 90.9439C98.5596 90.9876 98.5071 91.0751 98.4546 91.1363C98.3934 91.2063 98.2709 91.39 98.1747 91.5562C98.0872 91.7223 97.8773 92.116 97.7024 92.4308C97.5362 92.7457 97.2125 93.3493 96.9939 93.7779C96.7577 94.2327 96.5215 94.5826 96.4166 94.6176C95.9442 94.7925 95.5943 94.88 95.3757 94.88C95.1395 94.88 95.1308 94.8712 95.192 94.5476C95.227 94.3727 95.3057 94.1278 95.3669 94.0053C95.5768 93.6292 95.743 93.1831 95.8043 92.8682C95.8393 92.702 95.9092 92.5183 95.953 92.4571C95.9967 92.3959 96.0404 91.9585 96.0492 91.4774C96.0579 90.664 96.0404 90.594 95.8218 90.2966C95.6468 90.0779 95.4544 89.9467 95.1133 89.8418C94.6672 89.7018 94.6059 89.7018 94.1249 89.8418C92.909 90.2004 91.9381 90.8389 90.6086 92.1597C89.4715 93.2968 89.1216 93.6904 88.6755 94.3552C88.6055 94.4601 88.4918 94.6001 88.4394 94.6701C88.3781 94.7313 88.3256 94.8013 88.3256 94.8275C88.3256 94.8538 88.2119 95.0374 88.072 95.2474C87.7134 95.7722 87.0311 97.1192 86.9699 97.4254C86.9349 97.5653 86.8737 97.6965 86.8299 97.7227C86.7862 97.7577 86.7512 97.8539 86.7512 97.9414C86.7512 98.0376 86.69 98.2913 86.6112 98.5187C86.5238 98.7724 86.4713 99.2447 86.4713 99.7695C86.4625 100.714 86.62 101.16 87.0748 101.484C87.4072 101.72 88.6143 101.729 88.9379 101.501C89.0516 101.423 89.2178 101.353 89.3053 101.353C89.3928 101.353 89.4627 101.326 89.4627 101.283C89.4627 101.248 89.6464 101.117 89.8826 100.985C90.3024 100.74 90.3899 100.67 91.4395 99.752C91.9906 99.271 92.2355 98.9998 93.0053 98.0726C93.119 97.9239 93.2589 97.7665 93.3114 97.7053C93.3551 97.644 93.3989 97.574 93.3989 97.5478C93.3989 97.4778 93.7837 96.9443 93.8625 96.9093C93.8974 96.8918 93.9237 96.8218 93.9237 96.7606C93.9237 96.6906 93.9762 96.5856 94.0374 96.5244C94.0986 96.4632 94.2473 96.227 94.361 95.9996C94.6059 95.501 94.9383 95.3173 95.6118 95.3173C96.1629 95.3173 96.2766 95.4398 96.0667 95.8422C95.9967 95.9821 95.9355 96.1308 95.9355 96.1833C95.9355 96.227 95.8917 96.3757 95.8305 96.5157C95.5506 97.1804 95.2445 98.4225 95.1395 99.2535C95.0083 100.391 95.1745 101.029 95.7081 101.449C96.1804 101.816 97.3612 101.694 97.9123 101.222C97.9735 101.169 98.1484 101.038 98.3146 100.915C98.4721 100.793 98.9007 100.408 99.2593 100.067C99.6179 99.717 99.9416 99.4284 99.9766 99.4284C100.055 99.4284 100.055 99.4284 100.082 100.224C100.108 100.88 100.326 101.326 100.711 101.536C101.087 101.729 101.945 101.694 102.434 101.449C102.828 101.257 104.009 100.399 104.201 100.163C104.254 100.111 104.385 100.032 104.499 99.9969C104.691 99.9357 104.7 99.9532 104.647 100.224C104.586 100.574 104.787 101.291 104.997 101.51C105.12 101.624 105.303 101.659 105.811 101.65C106.432 101.65 106.511 101.624 107.088 101.274C107.971 100.732 108.671 100.111 109.712 98.9823C110.403 98.2301 110.648 97.9414 110.814 97.679C110.893 97.5566 111.05 97.3641 111.155 97.2417C111.26 97.1192 111.479 96.8218 111.645 96.5856C111.802 96.3407 112.004 96.0608 112.082 95.9471C112.222 95.7547 112.222 95.7547 111.907 95.7547C111.61 95.7547 111.557 95.8072 110.989 96.5594C110.245 97.5653 109.922 97.9502 109.362 98.51C108.347 99.5246 107.77 99.822 107.473 99.4634C107.298 99.2535 107.464 98.8948 108.82 96.6381C109.493 95.5098 110.114 94.4689 110.184 94.3289C110.263 94.189 110.368 94.014 110.412 93.9353C110.718 93.428 110.954 93.0606 111.05 92.9119C111.103 92.8157 111.199 92.6408 111.251 92.5183C111.295 92.4046 111.365 92.2822 111.4 92.2559C111.435 92.2297 111.557 92.0285 111.68 91.7923C111.794 91.5649 111.925 91.3812 111.96 91.3812C112.004 91.3812 112.03 91.3375 112.03 91.285C112.03 91.2238 112.152 90.9876 112.292 90.7514C112.441 90.524 112.555 90.2791 112.555 90.2179C112.555 90.1392 112.292 90.1217 111.496 90.1304C110.49 90.1566 110.42 90.1654 110.228 90.3753C110.114 90.4978 109.992 90.594 109.957 90.594C109.922 90.594 109.756 90.454 109.589 90.2879C109.196 89.8767 108.767 89.7718 108.067 89.8942C107.77 89.9555 107.49 90.0254 107.438 90.0692C107.394 90.1042 107.254 90.1654 107.14 90.2004C107.018 90.2354 106.887 90.2966 106.834 90.3403C106.782 90.3841 106.484 90.6027 106.187 90.8214C105.881 91.0401 105.452 91.3812 105.225 91.5824C104.787 91.9935 103.274 93.7166 103.038 94.0753C102.959 94.2065 102.854 94.3552 102.802 94.4077C102.758 94.4601 102.662 94.5826 102.601 94.6701C102.539 94.7663 102.356 95.0287 102.181 95.2736C102.006 95.5098 101.682 95.9821 101.464 96.3232C101.236 96.6556 101.035 96.953 101.009 96.9793C100.974 97.0055 100.86 97.1804 100.746 97.3729C100.633 97.5653 100.51 97.7402 100.484 97.7665C100.458 97.7927 100.248 98.0464 100.029 98.335C99.0319 99.6383 98.2797 100.014 97.8598 99.4284C97.7111 99.2185 97.6761 99.0698 97.7111 98.7899C97.7723 98.2038 97.956 97.3816 98.0435 97.2941C98.0872 97.2417 98.1222 97.128 98.1222 97.0405C98.1222 96.953 98.1747 96.7518 98.2447 96.6031C98.3059 96.4457 98.4284 96.1483 98.5158 95.9296C98.8132 95.1774 99.3468 94.0928 99.4168 94.0928C99.513 94.0928 101.603 92.5708 102.015 92.1947C102.111 92.1072 102.426 91.8448 102.714 91.5999C103.388 91.0401 106.624 87.83 107.114 87.2439C107.49 86.7803 107.779 86.4392 108.12 86.0456C108.225 85.9231 108.505 85.582 108.732 85.2759L109.152 84.7335H108.846C108.584 84.7335 108.496 84.7948 108.076 85.3196C107.823 85.652 107.578 85.9581 107.525 86.0106C107.481 86.0631 107.167 86.4217 106.834 86.7978C106.064 87.6725 103.624 90.1129 102.758 90.8739C102.399 91.1975 101.962 91.5736 101.796 91.7223C101.63 91.871 101.464 91.9935 101.429 91.9935C101.394 91.9935 101.315 92.046 101.245 92.116C101 92.3609 100.458 92.6933 100.309 92.6933C100.186 92.6933 100.16 92.6408 100.195 92.4921C100.221 92.3871 100.291 92.2384 100.344 92.1684C100.405 92.0985 100.536 91.8623 100.641 91.6436C100.755 91.425 100.877 91.1888 100.921 91.1188C100.965 91.0488 101.324 90.4365 101.717 89.763C102.12 89.0895 102.469 88.521 102.513 88.5122C102.548 88.4947 102.583 88.451 102.583 88.4073C102.583 88.346 102.854 87.9087 103.3 87.2352C103.432 87.0427 104.07 86.1506 104.612 85.3896C106.152 83.2291 108.811 80.4038 110.219 79.4154C110.744 79.048 111.199 78.9081 111.383 79.0568C111.575 79.2142 111.453 79.8353 111.094 80.605C110.928 80.9636 110.814 81.2698 110.84 81.296C110.901 81.3572 111.505 81.1473 111.505 81.0598C111.505 81.0161 111.549 80.8761 111.61 80.7362C111.925 79.9665 112.021 79.5641 112.03 79.0655V78.5145L111.627 78.3483C111.164 78.1471 111.103 78.1471 110.455 78.3395ZM95.122 90.8477C95.4282 91.1013 95.6206 91.7836 95.5069 92.1772C95.4544 92.3521 95.4107 92.5621 95.4107 92.6408C95.4107 92.9469 94.6409 94.5214 94.4223 94.6526C94.1161 94.845 93.0752 94.0753 92.7866 93.428C92.4542 92.7195 92.6379 92.0722 93.3726 91.3637C94.0374 90.7165 94.7284 90.5153 95.122 90.8477ZM109.292 90.9089C109.694 91.0138 109.624 91.3287 108.942 92.4571C108.592 93.0431 108.277 93.5854 108.242 93.6554C108.207 93.7254 108.111 93.8916 108.024 94.0228C107.945 94.154 107.586 94.74 107.228 95.3348C106.869 95.9296 106.554 96.4282 106.519 96.4544C106.493 96.4807 106.371 96.6556 106.257 96.8481C106.143 97.0405 106.003 97.2417 105.951 97.3029C105.793 97.4953 105.688 97.6265 105.452 97.9852C104.875 98.8424 103.991 99.6033 103.563 99.6033C103.204 99.6033 102.898 99.236 102.959 98.8598C103.082 98.1076 103.388 97.3991 104.158 96.0608C105.636 93.498 108.059 90.8477 108.925 90.8564C109.021 90.8564 109.187 90.8826 109.292 90.9089ZM92.4804 94.1627C92.8128 94.5214 93.2064 94.8363 93.4776 94.9675C93.9149 95.1774 94.1511 95.5273 93.9499 95.6585C93.8974 95.6847 93.7662 95.8771 93.6525 96.0783C92.6029 97.8889 90.8448 99.6033 90.0313 99.6033C89.9176 99.6033 89.6814 99.4634 89.4977 99.2972L89.1741 98.9911L89.2178 98.37C89.2441 98.0289 89.314 97.7053 89.3665 97.6528C89.419 97.6003 89.4627 97.4953 89.4627 97.4166C89.4627 97.2154 90.25 95.6847 90.6873 95.0374C90.8972 94.7313 91.2034 94.2765 91.3696 94.0228C91.5358 93.7779 91.7282 93.568 91.8069 93.568C91.8769 93.568 92.1743 93.8391 92.4804 94.1627Z" fill="#ACB5BD"/>
<path d="M116.36 79.1179C115.599 79.739 114.733 80.3512 114.392 80.5087C114.322 80.5349 114.243 80.5874 114.217 80.6224C114.129 80.7274 112.284 81.5846 112.135 81.5846C112.091 81.5846 111.934 81.6458 111.802 81.7158C111.663 81.7857 111.453 81.847 111.321 81.847C111.199 81.847 111.059 81.8907 111.015 81.9344C110.91 82.0394 109.624 82.1968 108.829 82.1968C108.295 82.1968 108.295 82.1968 107.866 82.6604C107.07 83.5176 106.694 83.9637 106.694 84.0337C106.694 84.2611 109.24 84.1649 110.193 83.8938C111.181 83.6139 112.817 82.8441 113.473 82.3543C114.453 81.6283 115.572 80.5787 116.228 79.7827C116.57 79.3716 117.033 78.6893 116.998 78.6543C116.981 78.6368 116.692 78.8468 116.36 79.1179ZM54.8687 83.92C54.7287 83.9375 54.5363 84.0162 54.4401 84.0862C54.3439 84.1562 54.2127 84.2086 54.1514 84.2086C54.0465 84.2086 53.1805 84.6985 53.0756 84.8209C53.0493 84.8472 52.8656 84.9784 52.6645 85.1096C52.2971 85.3632 51.055 86.5528 50.4077 87.2701C49.5243 88.2497 48.5884 89.658 48.0636 90.7776C47.4425 92.1159 47.3463 92.5007 47.3463 93.6991C47.3463 94.7837 47.4163 95.0461 47.8274 95.3872C48.0898 95.6059 48.6584 95.8421 48.912 95.8421C49.5418 95.8333 50.7664 95.2385 51.6323 94.53C52.2621 94.014 54.0202 92.1596 54.3439 91.6873C54.5363 91.3986 54.72 91.145 54.7637 91.1362C54.7987 91.1187 54.8249 91.075 54.8249 91.0313C54.8249 90.9613 55.3585 90.1128 55.5247 89.9204C55.5684 89.8592 55.6122 89.7892 55.6122 89.7629C55.6122 89.728 55.7171 89.5705 55.8396 89.4131C56.0145 89.1769 56.1457 89.1069 56.4694 89.0544C56.6968 89.0195 56.9504 88.9582 57.0379 88.9145C57.1516 88.862 57.2041 88.8708 57.2391 88.9757C57.2916 89.1157 57.1604 89.4393 56.7843 90.0691C56.688 90.2353 56.5218 90.5939 56.4081 90.8563C56.3032 91.1187 56.1807 91.4161 56.137 91.5123C55.9533 91.8972 55.8483 92.5182 55.8133 93.3317C55.7784 94.0577 55.8046 94.2501 55.9446 94.5563C56.1895 95.0811 56.6531 95.5272 57.0467 95.6321C57.1779 95.6584 57.3003 95.7196 57.3266 95.7633C57.4053 95.9033 58.4374 95.8421 58.9447 95.6759C59.4083 95.5184 60.2568 95.1161 60.458 94.9586C60.5104 94.9236 60.8953 94.6262 61.3239 94.3114C61.7438 93.9965 62.2598 93.5766 62.4698 93.3667C62.9333 92.9206 63.1958 92.7544 63.2657 92.8681C63.292 92.9118 63.2657 93.043 63.2133 93.148C63.1433 93.2705 63.0995 93.7253 63.0995 94.2764C63.0908 95.3697 63.152 95.4834 63.8518 95.7196C64.2192 95.8421 64.3416 95.8421 64.6915 95.7546C65.5574 95.5184 66.2047 95.1423 66.9569 94.4338C67.1581 94.2501 67.3593 94.0927 67.403 94.0927C67.508 94.0927 67.5955 94.3988 67.5955 94.8187C67.5955 95.2648 67.7966 95.5447 68.2427 95.7109C68.5926 95.8421 68.6538 95.8421 69.0475 95.7109C69.511 95.5622 70.0271 95.3347 70.1671 95.221C70.2195 95.1773 70.4994 94.9674 70.7881 94.74C71.5578 94.1539 73.0011 92.6319 73.9895 91.3811C74.4706 90.7776 74.8992 90.244 74.9429 90.1828C75.0828 90.0166 75.0479 89.9816 74.7417 89.9816C74.4706 89.9816 74.3743 90.0691 73.7358 90.8301C72.8699 91.8885 71.5053 93.2267 71.103 93.4192C70.3508 93.7865 70.0534 93.3404 70.5257 92.562C70.6481 92.3695 70.7881 92.1159 70.8406 91.9934C70.8843 91.8797 70.963 91.7572 70.998 91.731C71.033 91.7048 71.1642 91.5211 71.2779 91.3199C71.3916 91.1275 71.689 90.6289 71.9252 90.2353C72.1701 89.8329 72.4063 89.4393 72.45 89.3518C72.5025 89.2644 73.211 88.0748 74.042 86.7103C74.8642 85.337 75.5202 84.1999 75.4852 84.1737C75.459 84.1474 74.9779 84.1212 74.4181 84.1212C73.6221 84.1212 73.3684 84.1474 73.281 84.2524C73.0798 84.4973 72.8786 84.4885 72.59 84.2174C72.1701 83.8238 71.3916 83.7625 70.7006 84.0774C70.5607 84.1474 70.377 84.2174 70.307 84.2436C69.6597 84.4885 67.8054 86.098 66.922 87.1826C66.7907 87.3488 66.5896 87.585 66.4759 87.7074C66.3622 87.8299 65.9073 88.3984 65.47 88.9757C64.2279 90.6201 63.6069 91.3549 62.6272 92.352C60.7379 94.2676 59.5395 94.6962 58.7348 93.7516C58.5336 93.5154 58.4987 93.3842 58.4987 92.9643C58.4987 92.5095 58.7086 91.6435 58.9273 91.1625C58.9797 91.0662 59.1109 90.7688 59.2334 90.5064C59.4783 89.9816 59.8282 89.3256 60.0031 89.0807C60.0644 88.9932 60.1956 88.792 60.2918 88.6258C60.5717 88.1535 60.9653 87.6025 61.2977 87.2351C62.2598 86.1592 63.4582 85.0833 63.7031 85.0833C63.7643 85.0833 63.8343 85.0309 63.8605 84.9696C63.878 84.9084 64.0617 84.8647 64.3329 84.8647C64.7002 84.8647 64.8052 84.8997 64.9626 85.0833C65.3125 85.5119 65.1288 85.8881 64.5078 85.993C63.7031 86.1417 62.9858 87.4538 63.4494 87.9173C63.808 88.276 64.5253 87.9611 64.9976 87.2438C65.4787 86.5003 65.5924 86.2117 65.6449 85.5469C65.7061 84.8384 65.5662 84.506 65.0414 84.1212C64.7877 83.9287 64.6652 83.9112 63.9655 83.9112C63.4057 83.92 63.0995 83.9637 62.9159 84.0599C62.7759 84.1387 62.6272 84.2086 62.5922 84.2086C62.5222 84.2086 61.6301 84.7335 61.5601 84.8209C61.5338 84.8472 61.2977 85.0396 61.0353 85.2495C60.7729 85.4507 60.2043 85.9405 59.7757 86.3341C58.6736 87.3488 58.4637 87.5325 58.3937 87.5325C58.3587 87.5325 58.28 87.5937 58.21 87.6549C58.0001 87.8649 56.9504 88.4072 56.7493 88.4072C56.5393 88.4072 56.4169 88.1798 56.5656 88.0311C56.6181 87.9786 56.6618 87.8824 56.6618 87.8124C56.6618 87.7424 56.7143 87.5675 56.7843 87.4188C57.1954 86.4566 57.3003 85.2145 57.0117 84.646C56.7493 84.1299 56.3994 83.9287 55.7084 83.9025C55.3935 83.885 55.0174 83.8938 54.8687 83.92ZM56.0932 84.8909C56.3731 85.0921 56.5218 85.4944 56.5131 86.028C56.5131 86.3341 56.4606 86.6315 56.4081 86.684C56.3557 86.7365 56.3119 86.8502 56.3119 86.9464C56.3119 87.1039 56.0583 87.7337 55.8308 88.1448C55.4985 88.7396 54.2389 88.2322 53.7141 87.2963C53.5829 87.0601 53.5654 86.5178 53.6878 86.4391C53.7403 86.4129 53.7753 86.3079 53.7753 86.2204C53.7753 86.0105 54.7462 85.0221 55.0874 84.8822C55.2798 84.8122 55.9883 84.8122 56.0932 84.8909ZM72.4063 84.9959C72.6599 85.2495 72.6687 85.232 71.9952 86.3516C71.9339 86.4479 71.8465 86.6315 71.7852 86.7627C71.7328 86.9027 71.6628 87.0077 71.6191 87.0077C71.5841 87.0077 71.5316 87.0776 71.4966 87.1564C71.4704 87.2438 71.3654 87.4275 71.2692 87.5762C71.173 87.7162 71.0505 87.9436 70.998 88.0748C70.9455 88.2147 70.8668 88.3197 70.8231 88.3197C70.7794 88.3197 70.7444 88.3722 70.7444 88.4334C70.7444 88.5034 70.6307 88.7221 70.482 88.9145C70.342 89.1157 70.2195 89.3169 70.2195 89.3606C70.2195 89.4043 70.1671 89.5005 70.1058 89.5618C70.0446 89.623 69.8084 89.9904 69.5723 90.3665C69.3449 90.7514 69.0212 91.2412 68.855 91.4599C68.6888 91.6785 68.4702 91.9759 68.3652 92.1246C68.2602 92.2646 67.8841 92.6757 67.5342 93.0168C66.9657 93.5854 66.852 93.6553 66.5633 93.6553C66.3884 93.6553 66.196 93.6203 66.1435 93.5854C65.9423 93.4542 65.8286 93.113 65.8898 92.8069C65.951 92.492 65.9685 92.4308 66.2222 91.9234C66.3009 91.7572 66.3709 91.5911 66.3709 91.5386C66.3709 91.4861 66.5458 91.1537 66.7645 90.7951C66.9832 90.4452 67.1581 90.1303 67.1581 90.1128C67.1581 90.0428 67.7179 89.2381 68.3739 88.3634C70.5694 85.4157 71.8027 84.3923 72.4063 84.9959ZM53.233 87.8736C53.4254 88.1798 54.1689 88.7571 54.3788 88.7571C54.5188 88.7571 55.1748 89.1157 55.1748 89.1856C55.1748 89.2731 54.8949 89.8417 54.8249 89.8942C54.7987 89.9204 54.6762 90.0953 54.5625 90.2878C54.4488 90.4802 54.3176 90.6726 54.2826 90.7251C54.2476 90.7688 54.0377 91.0487 53.8278 91.3374C53.2855 92.0721 52.0697 93.218 51.5623 93.4629C51.055 93.7166 50.7751 93.6728 50.434 93.2792C49.9966 92.7981 50.1103 92.0284 50.8363 90.5064C51.2212 89.693 52.4458 87.7686 52.6819 87.6025C52.8656 87.4625 53.0406 87.55 53.233 87.8736ZM77.4882 84.3398C77.4008 84.4361 77.3046 84.576 77.2696 84.646C77.2433 84.716 77.0422 85.0483 76.8322 85.3895C76.6136 85.7219 76.4736 86.0368 76.5086 86.0717C76.5436 86.1067 77.0072 86.1242 77.5232 86.1155L78.4767 86.0892L78.8528 85.5382C79.0627 85.232 79.2289 84.9696 79.2289 84.9521C79.2289 84.9346 79.3251 84.7684 79.4476 84.5935C79.57 84.4186 79.64 84.2436 79.6225 84.2086C79.5963 84.1649 79.1414 84.1387 78.6079 84.1474C77.7682 84.1562 77.6282 84.1824 77.4882 84.3398Z" fill="#ACB5BD"/>
</svg>
