<svg width="150" height="38" viewBox="0 0 150 38" fill="none" xmlns="http://www.w3.org/2000/svg">
<path d="M27.4183 2.86549C25.6587 0.859959 22.478 0.000141144 18.4092 0.000141144H6.59986C6.19707 -7.24792e-05 5.80743 0.143478 5.50105 0.404961C5.19467 0.666443 4.99167 1.02869 4.92859 1.42651L0.0135627 32.6142C-0.00922752 32.7589 -0.000381828 32.9068 0.0394909 33.0477C0.0793637 33.1887 0.149316 33.3193 0.244527 33.4306C0.339738 33.5419 0.457945 33.6312 0.591004 33.6924C0.724064 33.7536 0.868813 33.7853 1.01528 33.7852H8.30583L10.1369 22.1714L10.0801 22.535C10.142 22.138 10.3436 21.7761 10.6487 21.5146C10.9538 21.2531 11.3422 21.1091 11.744 21.1087H15.2085C22.0145 21.1087 27.3437 18.3442 28.9004 10.3473C28.9466 10.1108 28.9866 9.88065 29.0213 9.65571C29.4837 6.69997 29.0181 4.68813 27.4193 2.86654" fill="#ACB5BD"/>
<path d="M116.671 17.7059C116.225 20.6322 113.991 20.6322 111.829 20.6322H110.6L111.463 15.1685C111.515 14.8384 111.799 14.5956 112.133 14.5956H112.698C114.169 14.5956 115.559 14.5956 116.276 15.4333C116.703 15.9347 116.833 16.6789 116.671 17.7059ZM115.73 10.0705H107.578C107.308 10.0707 107.047 10.1671 106.841 10.3424C106.636 10.5177 106.5 10.7604 106.457 11.0271L103.163 31.9306C103.148 32.0275 103.154 32.1266 103.18 32.221C103.207 32.3153 103.254 32.4028 103.318 32.4774C103.381 32.552 103.461 32.6119 103.55 32.6531C103.639 32.6942 103.735 32.7156 103.834 32.7158H108.017C108.407 32.7158 108.739 32.432 108.8 32.0473L109.736 26.119C109.822 25.5693 110.297 25.1625 110.854 25.1625H113.433C118.805 25.1625 121.903 22.5652 122.713 17.4137C123.077 15.1622 122.727 13.3921 121.673 12.1528C120.514 10.7906 118.459 10.0695 115.731 10.0695" fill="#ACB5BD"/>
<path d="M58.5231 17.7059C58.0774 20.6323 55.8427 20.6323 53.6806 20.6323H52.4508L53.3138 15.1686C53.3663 14.8385 53.6501 14.5957 53.9844 14.5957H54.5488C56.0204 14.5957 57.41 14.5957 58.1268 15.4334C58.5557 15.9348 58.685 16.679 58.5231 17.7059ZM57.5823 10.0706H49.4299C48.8728 10.0706 48.3977 10.4764 48.3104 11.0271L45.0152 31.9307C44.9998 32.0277 45.0057 32.1268 45.0323 32.2212C45.059 32.3157 45.1058 32.4032 45.1695 32.4779C45.2333 32.5525 45.3124 32.6124 45.4016 32.6535C45.4907 32.6946 45.5877 32.7159 45.6858 32.7159H49.5791C50.1362 32.7159 50.6103 32.3102 50.6975 31.7594L51.5878 26.1201C51.674 25.5694 52.1491 25.1636 52.7062 25.1636H55.2857C60.6569 25.1636 63.7556 22.5653 64.5649 17.4137C64.9297 15.1622 64.5796 13.3922 63.5254 12.1529C62.366 10.7906 60.311 10.0696 57.5834 10.0696L57.5823 10.0706ZM76.5098 25.2109C76.1314 27.4414 74.3624 28.9392 72.1035 28.9392C70.9715 28.9392 70.0644 28.5745 69.482 27.885C68.9039 27.2017 68.6874 26.2274 68.8703 25.1437C69.2214 22.9321 71.0209 21.387 73.245 21.387C74.354 21.387 75.2527 21.7549 75.8476 22.4507C76.4457 23.1518 76.6812 24.1314 76.5098 25.2109ZM81.9504 17.6113H78.0466C77.8843 17.6112 77.7273 17.669 77.6039 17.7744C77.4805 17.8799 77.3989 18.026 77.3738 18.1863L77.2036 19.2774L76.9303 18.8821C76.0852 17.6555 74.2005 17.2445 72.319 17.2445C68.0063 17.2445 64.3221 20.5135 63.6053 25.0964C63.2321 27.3846 63.7619 29.5699 65.0589 31.0951C66.2499 32.4962 67.9495 33.0796 69.975 33.0796C73.4521 33.0796 75.3799 30.847 75.3799 30.847L75.2054 31.9318C75.19 32.0288 75.1959 32.128 75.2226 32.2225C75.2493 32.3171 75.2962 32.4047 75.3601 32.4793C75.4239 32.554 75.5032 32.6139 75.5925 32.6549C75.6817 32.6959 75.7788 32.7171 75.8771 32.717H79.392C79.9491 32.717 80.4242 32.3123 80.5114 31.7604L82.6221 18.3976C82.6373 18.3005 82.6312 18.2013 82.6044 18.1067C82.5776 18.0122 82.5305 17.9246 82.4666 17.85C82.4027 17.7754 82.3233 17.7155 82.234 17.6745C82.1447 17.6335 82.0476 17.6123 81.9493 17.6124" fill="#ACB5BD"/>
<path d="M134.658 25.2109C134.279 27.4414 132.51 28.9392 130.251 28.9392C129.119 28.9392 128.212 28.5745 127.63 27.885C127.052 27.2017 126.835 26.2274 127.018 25.1437C127.369 22.9321 129.168 21.387 131.393 21.387C132.502 21.387 133.4 21.7549 133.995 22.4507C134.593 23.1518 134.829 24.1314 134.658 25.2109ZM140.098 17.6113H136.194C136.032 17.6112 135.875 17.669 135.752 17.7744C135.628 17.8799 135.547 18.026 135.522 18.1863L135.351 19.2774L135.078 18.8821C134.233 17.6555 132.348 17.2445 130.467 17.2445C126.155 17.2445 122.471 20.5135 121.753 25.0964C121.38 27.3846 121.911 29.5699 123.208 31.0951C124.399 32.4962 126.098 33.0796 128.124 33.0796C131.602 33.0796 133.53 30.847 133.53 30.847L133.355 31.9318C133.34 32.0287 133.345 32.1278 133.372 32.2224C133.398 32.3169 133.445 32.4046 133.508 32.4793C133.572 32.554 133.651 32.6139 133.74 32.655C133.83 32.696 133.927 32.7172 134.025 32.717H137.539C138.096 32.717 138.571 32.3123 138.659 31.7604L140.77 18.3976C140.785 18.3005 140.779 18.2013 140.752 18.1067C140.725 18.0122 140.678 17.9246 140.614 17.85C140.55 17.7754 140.471 17.7155 140.382 17.6745C140.292 17.6335 140.195 17.6123 140.097 17.6124" fill="#ACB5BD"/>
<path d="M102.742 17.6125H98.8174C98.4422 17.6125 98.0922 17.7986 97.8819 18.1097L92.4687 26.0814L90.1741 18.4208C90.1041 18.1872 89.9607 17.9823 89.7651 17.8365C89.5695 17.6907 89.3322 17.6118 89.0883 17.6115H85.2317C85.1236 17.6115 85.017 17.6374 84.9209 17.6869C84.8247 17.7363 84.7417 17.808 84.6789 17.896C84.616 17.984 84.5749 18.0857 84.5592 18.1927C84.5435 18.2997 84.5535 18.4089 84.5885 18.5112L88.9086 31.194L84.8449 36.9279C84.7731 37.0296 84.7306 37.1492 84.7221 37.2735C84.7136 37.3977 84.7394 37.5219 84.7967 37.6326C84.8539 37.7432 84.9405 37.8359 85.0468 37.9007C85.1532 37.9655 85.2754 37.9999 85.3999 38H89.3206C89.6906 38 90.0385 37.8182 90.2508 37.5133L103.299 18.6794C103.37 18.5776 103.412 18.4583 103.42 18.3346C103.428 18.2108 103.401 18.0872 103.344 17.9773C103.287 17.8673 103.2 17.7752 103.094 17.7109C102.988 17.6466 102.866 17.6126 102.742 17.6125Z" fill="#ACB5BD"/>
<path d="M144.699 10.6454L141.352 31.9316C141.337 32.0286 141.343 32.1277 141.37 32.2222C141.396 32.3167 141.443 32.4042 141.507 32.4788C141.571 32.5534 141.65 32.6133 141.739 32.6544C141.828 32.6955 141.925 32.7168 142.024 32.7168H145.388C145.945 32.7168 146.42 32.3111 146.508 31.7603L149.807 10.8557C149.822 10.7586 149.817 10.6594 149.79 10.5649C149.763 10.4704 149.716 10.3828 149.652 10.3081C149.589 10.2335 149.509 10.1736 149.42 10.1325C149.331 10.0915 149.234 10.0703 149.135 10.0705H145.37C145.208 10.0701 145.051 10.1277 144.928 10.233C144.805 10.3383 144.724 10.4842 144.699 10.6444" fill="#ACB5BD"/>
<path d="M27.4183 2.86549C25.6587 0.859959 22.478 0.000141144 18.4092 0.000141144H6.59986C6.19707 -7.24792e-05 5.80743 0.143478 5.50105 0.404961C5.19467 0.666443 4.99167 1.02869 4.92859 1.42651L0.0135627 32.6142C-0.00922752 32.7589 -0.000381828 32.9068 0.0394909 33.0477C0.0793637 33.1887 0.149316 33.3193 0.244527 33.4306C0.339738 33.5419 0.457945 33.6312 0.591004 33.6924C0.724064 33.7536 0.868813 33.7853 1.01528 33.7852H8.30583L10.1369 22.1714L10.0801 22.535C10.142 22.138 10.3436 21.7761 10.6487 21.5146C10.9538 21.2531 11.3422 21.1091 11.744 21.1087H15.2085C22.0145 21.1087 27.3437 18.3442 28.9004 10.3473C28.9466 10.1108 28.9866 9.88065 29.0213 9.65571C29.4837 6.69997 29.0181 4.68813 27.4193 2.86654" fill="#ACB5BD"/>
<path d="M12.1035 9.69467C12.1588 9.34706 12.3361 9.03052 12.6037 8.80186C12.8712 8.5732 13.2115 8.44738 13.5635 8.44699H22.8218C23.9181 8.44699 24.9408 8.51847 25.8752 8.66773C26.3861 8.74992 26.8916 8.86295 27.3889 9.00619C27.9536 9.16495 28.5 9.38268 29.0191 9.65578C29.4837 6.69899 29.017 4.6882 27.4183 2.86556C25.6577 0.861084 22.478 0.00126648 18.4092 0.00126648H6.59881C6.19638 0.00155258 5.80724 0.145329 5.5013 0.406765C5.19535 0.668205 4.99266 1.03017 4.92964 1.42764L0.0125081 32.6122C-0.0104364 32.7569 -0.00174182 32.9048 0.0379932 33.0458C0.0777283 33.1868 0.147559 33.3175 0.242673 33.4289C0.337786 33.5403 0.455922 33.6297 0.588939 33.691C0.721956 33.7524 0.866691 33.7842 1.01317 33.7842H8.30477L10.1358 22.1693L12.1035 9.69467Z" fill="#ACB5BD"/>
<path d="M29.0202 9.65452C28.9841 9.88578 28.9438 10.1164 28.8993 10.3462C27.3426 18.342 22.0134 21.1075 15.2074 21.1075H11.7419C11.3402 21.1078 10.9517 21.2517 10.6468 21.5133C10.3419 21.7748 10.1405 22.1368 10.079 22.5339L8.30476 33.7829L7.80022 36.9741C7.78016 37.1008 7.78781 37.2303 7.82265 37.3538C7.85748 37.4772 7.91868 37.5917 8.002 37.6892C8.08533 37.7867 8.18882 37.865 8.30532 37.9186C8.42183 37.9723 8.54859 38.0001 8.67686 38H14.8227C15.5501 38 16.1682 37.4702 16.2827 36.7523L16.3427 36.4391L17.501 29.0981L17.5746 28.6924C17.6296 28.3445 17.8071 28.0277 18.0749 27.799C18.3427 27.5702 18.6834 27.4446 19.0356 27.4447H19.9553C25.9089 27.4447 30.5706 25.0271 31.9328 18.0309C32.5004 15.1088 32.2061 12.667 30.703 10.9527C30.2257 10.4211 29.6555 9.98122 29.0202 9.65452Z" fill="#ACB5BD"/>
<path d="M27.39 9.00581C27.1524 8.93539 26.9075 8.87232 26.6552 8.81661C26.403 8.7609 26.1423 8.7115 25.8753 8.66945C24.9398 8.51704 23.9181 8.44557 22.8207 8.44557H13.5636C13.2112 8.44513 12.8703 8.57079 12.6025 8.79982C12.3348 9.02885 12.1578 9.34613 12.1036 9.69429L10.1359 22.1711L10.0791 22.5337C10.1405 22.1367 10.3419 21.7747 10.6469 21.5131C10.9518 21.2515 11.3402 21.1076 11.742 21.1073H15.2075C22.0135 21.1073 27.3427 18.3429 28.8994 10.346C28.9456 10.1095 28.9845 9.88034 29.0202 9.65435C28.6091 9.43924 28.1809 9.25853 27.74 9.11408C27.6254 9.07624 27.5087 9.0405 27.39 9.00476" fill="#ACB5BD"/>
</svg>
