<svg width="91" height="36" viewBox="0 0 91 36" fill="none" xmlns="http://www.w3.org/2000/svg">
<path fill-rule="evenodd" clip-rule="evenodd" d="M71.6059 29.5857V26.6662H71.7542L72.5617 26.6096L73.3579 26.4746L74.1425 26.2477L74.893 25.9425L75.6095 25.5468L76.2812 25.094L76.9063 24.5734L77.4637 23.9856L77.9642 23.3403L78.385 22.6504L78.7376 21.9258L79.011 21.1566L79.1924 20.3647L79.295 19.5616L79.3179 18.7585L79.2493 17.9666L79.0898 17.1631L78.8626 16.3939L78.5445 15.6474L78.1466 14.9349L77.6802 14.2789L77.1451 13.6679L76.542 13.1023L75.8941 12.6273L75.1995 12.2088L74.4601 11.8692L73.6867 11.609L72.8905 11.4392L72.083 11.3376H71.6054V8.66765L72.584 8.70151L73.6074 8.84858L74.6201 9.07498L75.5988 9.40298L76.5308 9.83305L77.4296 10.342L78.2711 10.9418L79.0445 11.6206L79.7503 12.3786L80.387 13.1817L80.9221 14.0641L81.3773 14.9808L81.7412 15.9421L82.0145 16.9376L82.1848 17.9448L82.2534 18.9627L82.2193 19.9926L82.0826 21.011L81.8443 22.0061L81.5145 22.9794L81.0821 23.9184L80.5699 24.8008L79.9668 25.6377L79.2848 26.418L78.5343 27.119L77.7152 27.7416L76.8391 28.2839L75.9062 28.7367L74.9392 29.0995L73.9377 29.3593L72.926 29.5407L71.8904 29.5964L71.6059 29.5857ZM71.6059 25.4785H71.6628L72.3904 25.4331L73.1069 25.3092L73.8015 25.1167L74.4835 24.8342L75.1211 24.4825L75.7121 24.064L76.2584 23.5899L76.736 23.0467L77.1568 22.4579L77.5094 21.8247L77.7935 21.1455L77.9871 20.4556L78.1126 19.743L78.1583 19.0183L78.1126 18.2946L77.9871 17.5932L77.7935 16.8917L77.5094 16.2241L77.1568 15.5904L76.736 15.0021L76.2584 14.4588L75.7121 13.9838L75.1211 13.5653L74.4835 13.2146L73.8015 12.9321L73.1069 12.7284L72.3904 12.6157L71.6628 12.5702L71.6059 12.5813V15.3417L72.0037 15.3528L72.5388 15.4549L73.05 15.6247L73.5277 15.8734L73.9713 16.1902L74.358 16.5637L74.6887 16.9938L74.9616 17.4572L75.144 17.9666L75.2569 18.476L75.3026 19.0072L75.2569 19.5393L75.144 20.0715L74.9616 20.5693L74.6887 21.0434L74.358 21.4628L73.9713 21.8474L73.5277 22.1638L73.05 22.4008L72.5388 22.5822L72.0037 22.6732L71.6059 22.6843V25.4785ZM87.0416 29.563L86.5411 29.4043L86.0634 29.1774L85.6427 28.8949L85.2677 28.5442L84.9379 28.1257L84.6869 27.6845L84.4943 27.1979L84.3804 26.7001L84.3576 26.1795L84.3347 11.8687L84.3576 11.2689L84.4714 10.6806L84.7097 10.1262L85.0288 9.61729L85.4384 9.17609L85.9277 8.82536L86.4618 8.55348L87.0421 8.38368V29.563H87.0416ZM88.3384 29.563L88.8389 29.4154L89.2942 29.2002L89.7149 28.9065L90.1016 28.5558L90.4197 28.1601L90.6697 27.7189L90.8521 27.2438L90.9548 26.746L90.9776 26.2255V11.8687L90.9548 11.3482L90.8521 10.8277L90.6697 10.3415L90.4197 9.87755L90.1128 9.4591L89.7378 9.09675L89.3053 8.7915L88.8389 8.55397L88.3384 8.38416V29.563ZM86.9506 6.72097L86.4501 6.57391L85.9725 6.35912L85.5289 6.06499L85.1538 5.71426L84.8241 5.30692L84.5512 4.86573L84.3576 4.37954L84.2438 3.88175L84.2097 3.36121L84.2438 2.84068L84.3576 2.33176L84.5512 1.8567L84.8241 1.40438L85.1538 0.997044L85.5289 0.646314L85.9725 0.363794L86.4501 0.148518L86.9506 0.00145235V6.72097ZM88.2926 6.72097L88.782 6.5623L89.2596 6.34751L89.6804 6.05338L90.0671 5.70264L90.3969 5.30692L90.659 4.85412L90.8405 4.37906L90.9543 3.87014L91 3.36073L90.9543 2.8402L90.8405 2.3424L90.659 1.85573L90.3969 1.41453L90.0671 1.0072L89.6804 0.656473L89.2596 0.37347L88.782 0.147066L88.2926 0V6.72097ZM71.6059 8.66717V11.3371H71.2649L70.4575 11.4053L69.6602 11.5751L68.8756 11.8126L68.1363 12.1406L67.4315 12.5368L66.7598 13.0119L66.1576 13.5552L65.6114 14.1545L65.1337 14.8105L64.7241 15.512L64.3944 16.2478L64.1434 17.017L63.9731 17.8089L63.9162 18.6686V36L63.3359 35.7857L62.8009 35.4693L62.3232 35.0736L61.9137 34.5985L61.5839 34.078L61.3567 33.512L61.2084 32.9015V18.8722L61.2312 18.2724L61.3567 17.2652L61.5951 16.2584L61.936 15.2856L62.3568 14.3582L62.8695 13.4637L63.4726 12.6268L64.1545 11.8576L64.9051 11.1562L65.7252 10.5335L66.6114 9.99027L67.5443 9.53747L68.5001 9.17561L69.5017 8.90373L70.5251 8.74554L71.549 8.6662H71.6059V8.66717ZM71.6059 12.5813L70.9341 12.6152L70.2177 12.7279L69.5128 12.9316L68.8411 13.2141L68.2044 13.5648L67.6124 13.9833L67.0662 14.4583L66.5895 15.0016L66.1678 15.5899L65.8151 16.2236L65.5311 16.8912L65.3258 17.5927L65.213 18.2941L65.1673 19.0178L65.213 19.7425L65.3258 20.4551L65.5311 21.145L65.804 21.8242L66.1678 22.4574L66.5895 23.0462L67.0662 23.5894L67.6124 24.0635L68.2044 24.482L68.8411 24.8337L69.5128 25.1162L70.2177 25.3087L70.9341 25.4326L71.6059 25.4781V22.6843L71.4692 22.6954L70.9229 22.6388L70.4005 22.4913L69.9 22.2881L69.4447 22.0046L69.024 21.6655L68.6714 21.2698L68.3634 20.8058L68.1363 20.3308L67.9768 19.8103L67.897 19.2791V18.7469L67.9768 18.2148L68.1363 17.7059L68.3634 17.2197L68.6714 16.7669L69.024 16.3707L69.4447 16.0199L69.9 15.7485L70.4005 15.5333L70.9229 15.3978L71.4692 15.3412H71.6059V12.5813ZM71.6059 26.6662L70.9341 26.6435L70.1267 26.5312L69.3304 26.3387L68.5687 26.0562L67.841 25.7054L67.1465 25.2754L66.5098 24.766L65.9295 24.2L65.4061 23.5783H65.3832L65.4061 35.9995L65.9411 35.8645L66.4417 35.6265L66.8853 35.2985L67.2603 34.9139L67.5784 34.4611L67.7948 33.9633L67.9422 33.4428L67.9763 32.9005V29.6646L68.022 29.4841L68.1246 29.3139L68.2613 29.2007L68.4427 29.1334H68.6363L68.8406 29.189L69.8305 29.4387L70.866 29.5635L71.6054 29.5862V26.6662H71.6059ZM48.7076 29.6191V26.8592H48.9586L49.7432 26.8026L50.5278 26.6667L51.2895 26.4408L52.0288 26.1471L52.7234 25.7732L53.3942 25.332L53.9973 24.8235L54.5548 24.2575L55.0543 23.6349L55.4751 22.9794L55.8389 22.2557L56.1122 21.531L56.3165 20.7618L56.4304 19.9815L56.4761 19.1896L56.4304 18.3977L56.3165 17.628L56.1122 16.8588L55.8389 16.1235L55.4751 15.4109L55.0543 14.7549L54.5548 14.1212L53.9973 13.5668L53.3942 13.0462L52.7234 12.6162L52.0288 12.2432L51.2895 11.9374L50.5278 11.7226L49.7432 11.5756L48.9586 11.519H48.7076V9.0179L49.0943 9.00677L50.0384 9.0745L50.9714 9.22157L51.8815 9.4591L52.7803 9.76435L53.6447 10.1606L54.4638 10.624L55.2255 11.1673L55.942 11.7783L56.6021 12.457L57.2042 13.1812L57.7276 13.962L58.1829 14.7878L58.5579 15.6474L58.8541 16.5414L59.0696 17.4466L59.1951 18.3744L59.2408 19.3134L59.1951 20.2514L59.0696 21.1793L58.8541 22.0961L58.5579 22.9901L58.1829 23.8497L57.7276 24.6755L57.2042 25.4558L56.6021 26.1911L55.942 26.8592L55.2255 27.4591L54.4521 28.013L53.6447 28.4769L52.7803 28.8615L51.8815 29.1779L50.9714 29.4159L50.0384 29.5635L49.0943 29.6307L48.7076 29.6191ZM48.7076 25.5579L48.9358 25.569L49.6406 25.5124L50.3342 25.3765L51.0059 25.1622L51.6426 24.8796L52.2575 24.5396L52.8265 24.1211L53.3378 23.646L53.8042 23.1149L54.2021 22.5377L54.5431 21.9262L54.8053 21.2819L54.9979 20.6036L55.1117 19.9128L55.1574 19.2118L55.1117 18.5099L54.9979 17.8316L54.8053 17.1641L54.5431 16.5192L54.2021 15.8966L53.8042 15.3199L53.3378 14.7883L52.8265 14.3132L52.2575 13.9059L51.6426 13.5552L51.0059 13.2726L50.3342 13.069L49.6406 12.933L48.9358 12.8653L48.7076 12.8764V15.5009H48.9917L49.5379 15.5913L50.073 15.75L50.5735 15.9875L51.0288 16.3044L51.4383 16.6779L51.7793 17.1079L52.0634 17.583L52.2686 18.0914L52.3825 18.6347L52.4272 19.178L52.3825 19.7319L52.2686 20.264L52.0634 20.7846L51.7793 21.2596L51.4383 21.6897L51.0288 22.0743L50.5735 22.3795L50.073 22.6176L49.5379 22.7869L48.9917 22.8662H48.7076V25.5579ZM48.7076 9.0179V11.518L48.1614 11.5407L47.3651 11.6423L46.6034 11.8233L45.8417 12.0835L45.1359 12.412L44.4535 12.8305L43.8163 13.3055L43.236 13.8372L42.7014 14.4371L42.2466 15.0708L41.8599 15.7606L41.5414 16.4848L41.2909 17.2429L41.1318 18.0005L41.052 18.7929V19.5848L41.1318 20.3651L41.2909 21.1455L41.5414 21.8929L41.8599 22.6166L42.2466 23.3064L42.7014 23.9518L43.236 24.5507L43.8163 25.0828L44.4535 25.5579L45.1359 25.9652L45.8417 26.3043L46.6034 26.5651L47.3651 26.7455L48.1614 26.8476L48.7076 26.8587V29.6186L48.1614 29.6075L47.2182 29.4953L46.2965 29.3139L45.3976 29.0425L44.5216 28.6806L43.6801 28.2505L42.8955 27.7411L42.1445 27.164L41.4509 26.5196L40.8254 25.8288L40.2679 25.0712L39.7674 24.2682L39.3579 23.4312L39.0169 22.5489L38.7664 21.6437L38.5957 20.7159L38.5159 19.7769V18.85L38.5957 17.9221L38.7664 16.9942L39.0169 16.0891L39.3579 15.2067L39.7674 14.3698L40.2679 13.5663L40.8254 12.8082L41.4509 12.1179L42.1445 11.473L42.8955 10.8959L43.6801 10.387L44.5216 9.95689L45.3976 9.59455L46.2965 9.32316L47.2182 9.14174L48.1614 9.02903L48.7076 9.0179ZM48.7076 12.8759L48.2412 12.8871L47.5364 12.9887L46.8646 13.1585L46.2055 13.4071L45.5683 13.724L44.9885 14.0975L44.4423 14.5503L43.9646 15.0481L43.521 15.6024L43.1567 16.2018L42.861 16.8356L42.6222 17.4916L42.4743 18.1703L42.3945 18.8722V19.5621L42.4743 20.2519L42.6222 20.9428L42.861 21.6099L43.1567 22.2441L43.521 22.8319L43.9646 23.3863L44.4423 23.8841L44.9885 24.3369L45.5683 24.7215L46.1943 25.0378L46.8534 25.2759L47.5364 25.4563L48.2412 25.5472L48.7076 25.5584V22.8657H48.4348L47.8773 22.7864L47.354 22.6171L46.8534 22.3791L46.3879 22.0738L45.9774 21.6892L45.6364 21.2591L45.3747 20.7841L45.17 20.2635L45.045 19.7314L44.9992 19.1775L45.045 18.6342L45.17 18.0909L45.3747 17.5825L45.6364 17.1074L45.9774 16.6774L46.3879 16.3039L46.8534 15.987L47.354 15.7495L47.8773 15.5908L48.4348 15.5004H48.7076V12.8759ZM27.3679 15.8734V13.4071H30.5757L30.8827 13.441L31.1784 13.5426L31.4284 13.7235L31.6444 13.9388L31.7922 14.199L31.8944 14.4932L31.9172 14.7873L31.9513 29.5732L31.3598 29.4948L30.7912 29.2795L30.2907 28.9515L29.8699 28.5103L29.563 27.9898L29.3811 27.4136L29.3354 26.8137V16.6203L29.3242 16.4166L29.2444 16.2246L29.1194 16.0664L28.9487 15.9532L28.7551 15.8855L28.5503 15.8738H27.3679V15.8734ZM27.3679 11.846H30.5757L31.0646 11.9137L31.531 12.0724L31.9746 12.2983L32.3613 12.5925L32.6911 12.9543L32.9528 13.3733L33.1459 13.8261L33.2486 14.3011L33.2709 14.7878V29.5964L33.8055 29.5635L34.3401 29.4048L34.8289 29.145L35.2385 28.8049L35.5799 28.3637L35.8187 27.8896L35.9666 27.3575L35.9895 26.8142L35.9554 14.7883L35.9326 14.1207L35.8309 13.4637L35.6602 12.8189L35.3985 12.1967L35.0687 11.6196L34.6708 11.0763L34.2155 10.5901L33.7033 10.1489L33.1464 9.78709L32.5321 9.49296L31.9065 9.26655L31.247 9.11949L30.5757 9.05128H27.3679V11.846ZM10.7146 29.5964H11.488L12.3869 29.4387L13.2513 29.1561L14.0592 28.7478L14.7873 28.2167L15.4357 27.5825L15.9932 26.8587L16.4256 26.0668L16.7325 25.2183L16.9144 24.3359L16.9601 23.4308L16.8687 22.5368L16.6415 21.6655L16.3001 20.8286L15.8224 20.0594L15.2426 19.3574L14.5485 18.7697L13.7863 18.2719L12.9672 17.9211L7.97323 15.9072V18.3285L12.3981 20.3535L12.9555 20.6815L13.4449 21.1116L13.8544 21.621L14.1502 22.1981L14.3433 22.8198L14.4118 23.454L14.3661 24.1095L14.1954 24.721L13.9113 25.3097L13.5246 25.8293L13.047 26.2705L12.5007 26.6212L11.8981 26.8592L11.2497 26.984H7.97323V29.5964H10.7146ZM7.97323 15.3306H12.8305L13.2629 15.3083L13.6954 15.2179L14.1049 15.0708L14.4916 14.856L14.8443 14.5957L15.1517 14.2789L15.4134 13.9281L15.6177 13.5435L15.7655 13.1251L15.8453 12.695H7.97323V15.3306ZM27.3679 9.05176V11.846H22.7834V2.96501L23.284 3.08934L23.7504 3.293L24.1712 3.57552L24.5467 3.92625L24.8536 4.32246L25.0924 4.77478L25.252 5.24984L25.3313 5.75876V8.71168L25.3882 8.836L25.4679 8.93759L25.5701 9.00581L25.6951 9.05079H27.3679V9.05176ZM27.3679 13.4071V15.8734H26.0254L25.8434 15.8961L25.6844 15.9638L25.5365 16.077L25.4344 16.2241L25.3775 16.3828L25.3663 16.5637V26.8137L25.2641 27.3798L25.0482 27.9221L24.7408 28.4199L24.3429 28.8499L23.8764 29.189L23.353 29.4387L22.7844 29.5964V13.4071H27.3679ZM7.97323 25.8859V23.2726H9.74765L9.81575 23.2498L9.87266 23.216L9.89552 23.1487L9.88434 23.0694L9.85029 23.0128L9.78219 22.9901L7.97323 22.2775V19.6642L11.9657 21.4289L12.3524 21.7226L12.6822 22.0956L12.921 22.514L13.0689 22.9891L13.1258 23.4758L13.0689 23.9624L12.9327 24.4264L12.6938 24.8564L12.3641 25.2294L11.9657 25.5347L11.5333 25.749L11.0556 25.8738L10.5663 25.8849H7.97323V25.8859ZM7.97323 11.6312V8.98403H12.8305L13.3651 9.0179L13.8996 9.17657L14.4002 9.4141L14.8438 9.73097L15.2193 10.1267L15.5262 10.5906L15.731 11.0995L15.8448 11.6312H7.97323ZM21.3164 29.6191L20.8159 29.4841L20.3383 29.28L19.9058 29.0086L19.5303 28.6579L19.2005 28.2505L18.95 27.8093L18.7681 27.3227L18.6772 26.8133V6.26865L18.6884 5.80472L18.7569 5.35191L18.8931 4.91072L19.0979 4.49226L19.3596 4.10767L19.6665 3.76806L20.0308 3.48554L20.4287 3.24801L20.8611 3.0666L21.3164 2.96501V29.6191ZM7.97323 15.9077L7.44985 15.6929L7.40462 15.6591L7.34771 15.5908V15.4892L7.37057 15.4215L7.40462 15.3649L7.44985 15.3311H7.97323V12.6945H5.78925L5.37969 12.7511L4.98181 12.8643L4.61798 13.068L4.29938 13.3167L4.03769 13.6219L3.82172 13.9842L3.68504 14.3688L3.61694 14.7762L3.62813 15.1835L3.71958 15.5908L3.87863 15.9638L4.10627 16.3034L4.39082 16.5976L4.90253 16.9372L7.97372 18.329V15.9077H7.97323ZM7.97323 26.9835H0.10166L0.124521 27.3793L0.21548 27.7523L0.363348 28.1141L0.556939 28.4532L0.806954 28.7585L1.08032 29.0192L1.4101 29.2452L1.76275 29.4154L2.13777 29.5403L2.52447 29.5959H7.97274V26.9835H7.97323ZM7.97323 8.98403V11.6312H5.73234L5.15205 11.7217L4.6063 11.9031L4.09411 12.1745L3.62765 12.5368L3.24144 12.9664L2.91165 13.4415L2.68401 13.9847L2.54733 14.5391L2.51328 15.1274L2.5697 15.7045L2.72925 16.2589L2.97975 16.7795L3.30953 17.2545L3.71909 17.6735L4.19674 18.0014L7.97323 19.6646V22.278L3.29835 20.4222L2.74092 20.1058L2.2404 19.7319L1.76275 19.3028L1.342 18.8389L0.966983 18.3294L0.648385 17.7862L0.397883 17.209L0.204779 16.6092L0.0685838 15.987L0 15.3649V14.7312L0.0685838 14.0975L0.204779 13.4865L0.387182 12.8866L0.648871 12.3099L0.967469 11.7555L1.3313 11.2466L1.76372 10.7716L2.219 10.3531L2.74238 9.9685L3.28862 9.65212L3.85723 9.39185L4.46038 9.18819L5.08639 9.05225L5.71191 8.98452H7.97323V8.98403ZM7.97323 23.2721V25.8854H0.10166L0.170244 25.5124L0.284063 25.1394L0.443606 24.7887L0.659572 24.4597L0.910073 24.1661L1.20581 23.9063L1.52441 23.691L1.86587 23.5106L2.24138 23.3746L2.6164 23.2953L3.00309 23.2726H7.97323V23.2721Z" fill="#ACB5BD"/>
</svg>
