<svg width="138" height="10" viewBox="0 0 138 10" fill="none" xmlns="http://www.w3.org/2000/svg">
<path d="M12.51 0.323999L9.816 9H8.358L6.462 3.072C6.41 2.928 6.362 2.752 6.318 2.544C6.294 2.644 6.27 2.738 6.246 2.826C6.222 2.914 6.196 2.996 6.168 3.072L4.254 9H2.79L0.102 0.323999H1.452C1.592 0.323999 1.708 0.358 1.8 0.426C1.896 0.49 1.96 0.577999 1.992 0.689999L3.468 5.88C3.5 6.008 3.53 6.148 3.558 6.3C3.59 6.448 3.622 6.604 3.654 6.768C3.686 6.6 3.72 6.442 3.756 6.294C3.796 6.146 3.838 6.008 3.882 5.88L5.586 0.689999C5.618 0.597999 5.68 0.513999 5.772 0.438C5.868 0.362 5.984 0.323999 6.12 0.323999H6.594C6.734 0.323999 6.848 0.358 6.936 0.426C7.024 0.494 7.09 0.582 7.134 0.689999L8.832 5.88C8.916 6.128 8.992 6.414 9.06 6.738C9.112 6.422 9.17 6.136 9.234 5.88L10.71 0.689999C10.734 0.589999 10.794 0.503999 10.89 0.431999C10.99 0.359999 11.108 0.323999 11.244 0.323999H12.51ZM16.1554 1.608V4.014H19.1914V5.256H16.1554V7.71H20.0074V9H14.5354V0.323999H20.0074V1.608H16.1554ZM30.4612 5.724L29.4052 2.838C29.3532 2.71 29.2992 2.558 29.2432 2.382C29.1872 2.206 29.1312 2.016 29.0752 1.812C29.0232 2.016 28.9692 2.208 28.9132 2.388C28.8572 2.564 28.8032 2.718 28.7512 2.85L27.7012 5.724H30.4612ZM33.3112 9H32.0632C31.9232 9 31.8092 8.966 31.7212 8.898C31.6332 8.826 31.5672 8.738 31.5232 8.634L30.8752 6.864H27.2812L26.6332 8.634C26.6012 8.726 26.5392 8.81 26.4472 8.886C26.3552 8.962 26.2412 9 26.1052 9H24.8452L28.2592 0.323999H29.9032L33.3112 9ZM37.7913 4.452C38.0953 4.452 38.3593 4.414 38.5833 4.338C38.8113 4.262 38.9973 4.158 39.1413 4.026C39.2893 3.89 39.3993 3.73 39.4713 3.546C39.5433 3.362 39.5793 3.16 39.5793 2.94C39.5793 2.5 39.4333 2.162 39.1413 1.926C38.8533 1.69 38.4113 1.572 37.8153 1.572H36.7833V4.452H37.7913ZM41.9433 9H40.4853C40.2093 9 40.0093 8.892 39.8853 8.676L38.0613 5.898C37.9933 5.794 37.9173 5.72 37.8333 5.676C37.7533 5.632 37.6333 5.61 37.4733 5.61H36.7833V9H35.1693V0.323999H37.8153C38.4033 0.323999 38.9073 0.385999 39.3273 0.51C39.7513 0.629999 40.0973 0.799999 40.3653 1.02C40.6373 1.24 40.8373 1.504 40.9653 1.812C41.0933 2.116 41.1573 2.452 41.1573 2.82C41.1573 3.112 41.1133 3.388 41.0253 3.648C40.9413 3.908 40.8173 4.144 40.6533 4.356C40.4933 4.568 40.2933 4.754 40.0533 4.914C39.8173 5.074 39.5473 5.2 39.2433 5.292C39.3473 5.352 39.4433 5.424 39.5313 5.508C39.6193 5.588 39.6993 5.684 39.7713 5.796L41.9433 9ZM45.4602 1.608V4.014H48.4962V5.256H45.4602V7.71H49.3122V9H43.8402V0.323999H49.3122V1.608H45.4602ZM61.2773 1.65H58.6613V9H57.0473V1.65H54.4313V0.323999H61.2773V1.65ZM65.9946 4.452C66.2986 4.452 66.5626 4.414 66.7866 4.338C67.0146 4.262 67.2006 4.158 67.3446 4.026C67.4926 3.89 67.6026 3.73 67.6746 3.546C67.7466 3.362 67.7826 3.16 67.7826 2.94C67.7826 2.5 67.6366 2.162 67.3446 1.926C67.0566 1.69 66.6146 1.572 66.0186 1.572H64.9866V4.452H65.9946ZM70.1466 9H68.6886C68.4126 9 68.2126 8.892 68.0886 8.676L66.2646 5.898C66.1966 5.794 66.1206 5.72 66.0366 5.676C65.9566 5.632 65.8366 5.61 65.6766 5.61H64.9866V9H63.3726V0.323999H66.0186C66.6066 0.323999 67.1106 0.385999 67.5306 0.51C67.9546 0.629999 68.3006 0.799999 68.5686 1.02C68.8406 1.24 69.0406 1.504 69.1686 1.812C69.2966 2.116 69.3606 2.452 69.3606 2.82C69.3606 3.112 69.3166 3.388 69.2286 3.648C69.1446 3.908 69.0206 4.144 68.8566 4.356C68.6966 4.568 68.4966 4.754 68.2566 4.914C68.0206 5.074 67.7506 5.2 67.4466 5.292C67.5506 5.352 67.6466 5.424 67.7346 5.508C67.8226 5.588 67.9026 5.684 67.9746 5.796L70.1466 9ZM75.4652 7.698C75.7772 7.698 76.0552 7.646 76.2992 7.542C76.5472 7.438 76.7552 7.292 76.9232 7.104C77.0912 6.916 77.2192 6.688 77.3072 6.42C77.3992 6.152 77.4452 5.852 77.4452 5.52V0.323999H79.0592V5.52C79.0592 6.036 78.9752 6.514 78.8072 6.954C78.6432 7.39 78.4052 7.768 78.0932 8.088C77.7852 8.404 77.4092 8.652 76.9652 8.832C76.5212 9.008 76.0212 9.096 75.4652 9.096C74.9052 9.096 74.4032 9.008 73.9592 8.832C73.5152 8.652 73.1372 8.404 72.8252 8.088C72.5172 7.768 72.2792 7.39 72.1112 6.954C71.9472 6.514 71.8652 6.036 71.8652 5.52V0.323999H73.4792V5.514C73.4792 5.846 73.5232 6.146 73.6112 6.414C73.7032 6.682 73.8332 6.912 74.0012 7.104C74.1732 7.292 74.3812 7.438 74.6252 7.542C74.8732 7.646 75.1532 7.698 75.4652 7.698ZM86.4594 1.902C86.4114 1.986 86.3594 2.048 86.3034 2.088C86.2514 2.124 86.1854 2.142 86.1054 2.142C86.0214 2.142 85.9294 2.112 85.8294 2.052C85.7334 1.988 85.6174 1.918 85.4814 1.842C85.3454 1.766 85.1854 1.698 85.0014 1.638C84.8214 1.574 84.6074 1.542 84.3594 1.542C84.1354 1.542 83.9394 1.57 83.7714 1.626C83.6034 1.678 83.4614 1.752 83.3454 1.848C83.2334 1.944 83.1494 2.06 83.0934 2.196C83.0374 2.328 83.0094 2.474 83.0094 2.634C83.0094 2.838 83.0654 3.008 83.1774 3.144C83.2934 3.28 83.4454 3.396 83.6334 3.492C83.8214 3.588 84.0354 3.674 84.2754 3.75C84.5154 3.826 84.7614 3.908 85.0134 3.996C85.2654 4.08 85.5114 4.18 85.7514 4.296C85.9914 4.408 86.2054 4.552 86.3934 4.728C86.5814 4.9 86.7314 5.112 86.8434 5.364C86.9594 5.616 87.0174 5.922 87.0174 6.282C87.0174 6.674 86.9494 7.042 86.8134 7.386C86.6814 7.726 86.4854 8.024 86.2254 8.28C85.9694 8.532 85.6554 8.732 85.2834 8.88C84.9114 9.024 84.4854 9.096 84.0054 9.096C83.7294 9.096 83.4574 9.068 83.1894 9.012C82.9214 8.96 82.6634 8.884 82.4154 8.784C82.1714 8.684 81.9414 8.564 81.7254 8.424C81.5094 8.284 81.3174 8.128 81.1494 7.956L81.6234 7.182C81.6634 7.126 81.7154 7.08 81.7794 7.044C81.8434 7.004 81.9114 6.984 81.9834 6.984C82.0834 6.984 82.1914 7.026 82.3074 7.11C82.4234 7.19 82.5614 7.28 82.7214 7.38C82.8814 7.48 83.0674 7.572 83.2794 7.656C83.4954 7.736 83.7534 7.776 84.0534 7.776C84.5134 7.776 84.8694 7.668 85.1214 7.452C85.3734 7.232 85.4994 6.918 85.4994 6.51C85.4994 6.282 85.4414 6.096 85.3254 5.952C85.2134 5.808 85.0634 5.688 84.8754 5.592C84.6874 5.492 84.4734 5.408 84.2334 5.34C83.9934 5.272 83.7494 5.198 83.5014 5.118C83.2534 5.038 83.0094 4.942 82.7694 4.83C82.5294 4.718 82.3154 4.572 82.1274 4.392C81.9394 4.212 81.7874 3.988 81.6714 3.72C81.5594 3.448 81.5034 3.114 81.5034 2.718C81.5034 2.402 81.5654 2.094 81.6894 1.794C81.8174 1.494 82.0014 1.228 82.2414 0.995999C82.4814 0.763999 82.7774 0.578 83.1294 0.438C83.4814 0.298 83.8854 0.228 84.3414 0.228C84.8534 0.228 85.3254 0.308 85.7574 0.468C86.1894 0.628 86.5574 0.852 86.8614 1.14L86.4594 1.902ZM95.4454 1.65H92.8294V9H91.2154V1.65H88.5994V0.323999H95.4454V1.65ZM99.1607 1.608V4.014H102.197V5.256H99.1607V7.71H103.013V9H97.5407V0.323999H103.013V1.608H99.1607ZM113.107 4.662C113.107 5.298 113.001 5.882 112.789 6.414C112.577 6.946 112.279 7.404 111.895 7.788C111.511 8.172 111.049 8.47 110.509 8.682C109.969 8.894 109.369 9 108.709 9H105.403V0.323999H108.709C109.369 0.323999 109.969 0.431999 110.509 0.648C111.049 0.859999 111.511 1.158 111.895 1.542C112.279 1.922 112.577 2.378 112.789 2.91C113.001 3.442 113.107 4.026 113.107 4.662ZM111.451 4.662C111.451 4.186 111.387 3.76 111.259 3.384C111.135 3.004 110.953 2.684 110.713 2.424C110.477 2.16 110.189 1.958 109.849 1.818C109.513 1.678 109.133 1.608 108.709 1.608H107.023V7.716H108.709C109.133 7.716 109.513 7.646 109.849 7.506C110.189 7.366 110.477 7.166 110.713 6.906C110.953 6.642 111.135 6.322 111.259 5.946C111.387 5.566 111.451 5.138 111.451 4.662ZM122.616 7.74C122.916 7.74 123.168 7.704 123.372 7.632C123.576 7.56 123.738 7.464 123.858 7.344C123.982 7.224 124.07 7.084 124.122 6.924C124.178 6.764 124.206 6.594 124.206 6.414C124.206 6.226 124.176 6.058 124.116 5.91C124.056 5.758 123.962 5.63 123.834 5.526C123.706 5.418 123.54 5.336 123.336 5.28C123.136 5.224 122.894 5.196 122.61 5.196H120.984V7.74H122.616ZM120.984 1.572V4.08H122.268C122.82 4.08 123.236 3.98 123.516 3.78C123.8 3.58 123.942 3.262 123.942 2.826C123.942 2.374 123.814 2.052 123.558 1.86C123.302 1.668 122.902 1.572 122.358 1.572H120.984ZM122.358 0.323999C122.926 0.323999 123.412 0.378 123.816 0.486C124.22 0.594 124.55 0.748 124.806 0.948C125.066 1.148 125.256 1.39 125.376 1.674C125.496 1.958 125.556 2.278 125.556 2.634C125.556 2.838 125.526 3.034 125.466 3.222C125.406 3.406 125.312 3.58 125.184 3.744C125.06 3.904 124.9 4.05 124.704 4.182C124.512 4.314 124.282 4.426 124.014 4.518C125.206 4.786 125.802 5.43 125.802 6.45C125.802 6.818 125.732 7.158 125.592 7.47C125.452 7.782 125.248 8.052 124.98 8.28C124.712 8.504 124.382 8.68 123.99 8.808C123.598 8.936 123.15 9 122.646 9H119.37V0.323999H122.358ZM131.65 5.64V9H130.042V5.64L126.88 0.323999H128.302C128.442 0.323999 128.552 0.358 128.632 0.426C128.716 0.494 128.786 0.58 128.842 0.684L130.426 3.582C130.518 3.754 130.598 3.916 130.666 4.068C130.738 4.22 130.802 4.372 130.858 4.524C130.91 4.372 130.97 4.22 131.038 4.068C131.106 3.916 131.184 3.754 131.272 3.582L132.85 0.684C132.894 0.595999 132.96 0.513999 133.048 0.438C133.136 0.362 133.248 0.323999 133.384 0.323999H134.812L131.65 5.64ZM135.843 8.184C135.843 8.06 135.865 7.942 135.909 7.83C135.957 7.718 136.021 7.622 136.101 7.542C136.181 7.462 136.277 7.398 136.389 7.35C136.501 7.302 136.621 7.278 136.749 7.278C136.877 7.278 136.995 7.302 137.103 7.35C137.215 7.398 137.311 7.462 137.391 7.542C137.475 7.622 137.541 7.718 137.589 7.83C137.637 7.942 137.661 8.06 137.661 8.184C137.661 8.312 137.637 8.432 137.589 8.544C137.541 8.652 137.475 8.746 137.391 8.826C137.311 8.906 137.215 8.968 137.103 9.012C136.995 9.06 136.877 9.084 136.749 9.084C136.621 9.084 136.501 9.06 136.389 9.012C136.277 8.968 136.181 8.906 136.101 8.826C136.021 8.746 135.957 8.652 135.909 8.544C135.865 8.432 135.843 8.312 135.843 8.184ZM135.843 3.906C135.843 3.782 135.865 3.664 135.909 3.552C135.957 3.44 136.021 3.344 136.101 3.264C136.181 3.184 136.277 3.12 136.389 3.072C136.501 3.024 136.621 3 136.749 3C136.877 3 136.995 3.024 137.103 3.072C137.215 3.12 137.311 3.184 137.391 3.264C137.475 3.344 137.541 3.44 137.589 3.552C137.637 3.664 137.661 3.782 137.661 3.906C137.661 4.034 137.637 4.154 137.589 4.266C137.541 4.374 137.475 4.468 137.391 4.548C137.311 4.628 137.215 4.692 137.103 4.74C136.995 4.784 136.877 4.806 136.749 4.806C136.621 4.806 136.501 4.784 136.389 4.74C136.277 4.692 136.181 4.628 136.101 4.548C136.021 4.468 135.957 4.374 135.909 4.266C135.865 4.154 135.843 4.034 135.843 3.906Z" fill="#ACB5BD"/>
</svg>
