<svg width="20" height="23" viewBox="0 0 20 23" fill="none" xmlns="http://www.w3.org/2000/svg">
<path fill-rule="evenodd" clip-rule="evenodd" d="M13.1304 1.99368L13.3844 1.62007L13.6385 1.25183L14.2046 0.423987C14.2751 0.321849 14.2461 0.184768 14.1411 0.117573C14.0376 0.0490348 13.8953 0.0772586 13.8277 0.179392L12.7037 1.81763C11.8821 1.50718 10.9666 1.33382 10 1.33382C9.0348 1.33382 8.11792 1.50718 7.29633 1.81763L7.03811 1.43864L6.17509 0.179392C6.10467 0.0772586 5.96382 0.0503777 5.85888 0.117573C5.75531 0.184768 5.72632 0.321849 5.79536 0.423987L6.3615 1.25183L6.61558 1.62007L6.87103 1.99368C4.94201 2.86856 3.63712 4.52561 3.63712 6.42187H16.3629C16.3629 4.52561 15.058 2.86856 13.1304 1.99368ZM3.63712 7.30616V17.0388C3.63712 17.8115 4.28197 18.4405 5.07733 18.4405H6.11572C6.07981 18.5574 6.06048 18.6797 6.06048 18.8087V21.6108C6.06048 22.3432 6.67219 22.9372 7.42474 22.9372C8.1773 22.9372 8.78901 22.3432 8.78901 21.6108V18.8087C8.78901 18.6797 8.7683 18.5574 8.73378 18.4405H11.2662C11.2317 18.5574 11.2124 18.6797 11.2124 18.8087V21.6108C11.2124 22.3432 11.8227 22.9372 12.5753 22.9372C13.3292 22.9372 13.9409 22.3432 13.9409 21.6108V18.8087C13.9409 18.6797 13.9202 18.5574 13.8843 18.4405H14.9241C15.7194 18.4405 16.3629 17.8115 16.3629 17.0388V7.30616H3.63712ZM1.36426 7.30616C0.610328 7.30616 0 7.90018 0 8.63261V14.3106C0 15.0431 0.610328 15.6371 1.36426 15.6371C2.11682 15.6371 2.72715 15.0431 2.72715 14.3106V8.63261C2.72715 7.90018 2.11682 7.30616 1.36426 7.30616ZM18.6371 7.30616C17.8832 7.30616 17.2729 7.90018 17.2729 8.63261V14.3106C17.2729 15.0431 17.8832 15.6371 18.6371 15.6371C19.3897 15.6371 20 15.0431 20 14.3106V8.63261C20 7.90018 19.3897 7.30616 18.6371 7.30616Z" fill="#FCFDFF"/>
<path fill-rule="evenodd" clip-rule="evenodd" d="M7.27285 4.65193C6.89589 4.65193 6.59072 4.35493 6.59072 3.98804C6.59072 3.62115 6.89589 3.3255 7.27285 3.3255C7.64982 3.3255 7.95498 3.62115 7.95498 3.98804C7.95498 4.35493 7.64982 4.65193 7.27285 4.65193Z" fill="#FCFDFF"/>
<path fill-rule="evenodd" clip-rule="evenodd" d="M12.7271 4.65193C12.3502 4.65193 12.045 4.35493 12.045 3.98804C12.045 3.62115 12.3502 3.3255 12.7271 3.3255C13.1041 3.3255 13.4093 3.62115 13.4093 3.98804C13.4093 4.35493 13.1041 4.65193 12.7271 4.65193Z" fill="#FCFDFF"/>
</svg>
