<svg width="20" height="24" viewBox="0 0 20 24" fill="none" xmlns="http://www.w3.org/2000/svg">
<path fill-rule="evenodd" clip-rule="evenodd" d="M13.256 3.8813C14.0196 2.89554 14.5985 1.50227 14.3891 0.0800781C13.141 0.166814 11.6822 0.965332 10.831 2.00616C10.055 2.94923 9.41729 4.35215 9.66636 5.71376C11.0308 5.75644 12.439 4.93864 13.256 3.8813ZM20 17.2592C16.0286 15.7489 15.3922 10.1028 19.3226 7.93584C18.1238 6.43242 16.4391 5.56094 14.8489 5.56094C12.7483 5.56094 11.8601 6.56597 10.4013 6.56597C8.89725 6.56597 7.75455 5.56369 5.93853 5.56369C4.15399 5.56369 2.25449 6.65408 1.0502 8.51821C-0.642649 11.1437 -0.353893 16.0793 2.39134 20.2839C3.37257 21.7887 4.6836 23.4794 6.39835 23.4945C7.92424 23.5097 8.35532 22.5157 10.4231 22.5047C12.491 22.4923 12.8837 23.5069 14.4069 23.4904C16.123 23.4766 17.5066 21.6029 18.4878 20.0981C19.1912 19.0201 19.454 18.4763 20 17.2592Z" fill="#FCFDFF"/>
</svg>
